G04 #@! TF.GenerationSoftware,KiCad,Pcbnew,(6.0.0)*
G04 #@! TF.CreationDate,2022-05-31T00:37:06+02:00*
G04 #@! TF.ProjectId,rfamp3,7266616d-7033-42e6-9b69-6361645f7063,rev?*
G04 #@! TF.SameCoordinates,Original*
G04 #@! TF.FileFunction,Copper,L2,Bot*
G04 #@! TF.FilePolarity,Positive*
%FSLAX46Y46*%
G04 Gerber Fmt 4.6, Leading zero omitted, Abs format (unit mm)*
G04 Created by KiCad (PCBNEW (6.0.0)) date 2022-05-31 00:37:06*
%MOMM*%
%LPD*%
G01*
G04 APERTURE LIST*
G04 #@! TA.AperFunction,ComponentPad*
%ADD10C,2.050000*%
G04 #@! TD*
G04 #@! TA.AperFunction,ComponentPad*
%ADD11C,2.250000*%
G04 #@! TD*
G04 #@! TA.AperFunction,ComponentPad*
%ADD12R,2.800000X2.800000*%
G04 #@! TD*
G04 #@! TA.AperFunction,ComponentPad*
%ADD13C,2.800000*%
G04 #@! TD*
G04 #@! TA.AperFunction,ComponentPad*
%ADD14R,1.400000X1.400000*%
G04 #@! TD*
G04 #@! TA.AperFunction,ComponentPad*
%ADD15C,1.400000*%
G04 #@! TD*
G04 #@! TA.AperFunction,ComponentPad*
%ADD16R,1.905000X2.000000*%
G04 #@! TD*
G04 #@! TA.AperFunction,ComponentPad*
%ADD17O,1.905000X2.000000*%
G04 #@! TD*
G04 #@! TA.AperFunction,ComponentPad*
%ADD18C,1.440000*%
G04 #@! TD*
G04 #@! TA.AperFunction,ComponentPad*
%ADD19C,1.600000*%
G04 #@! TD*
G04 #@! TA.AperFunction,ComponentPad*
%ADD20O,1.600000X1.600000*%
G04 #@! TD*
G04 #@! TA.AperFunction,ComponentPad*
%ADD21R,1.600000X1.600000*%
G04 #@! TD*
G04 #@! TA.AperFunction,ComponentPad*
%ADD22C,3.000000*%
G04 #@! TD*
G04 #@! TA.AperFunction,ComponentPad*
%ADD23C,4.000500*%
G04 #@! TD*
G04 #@! TA.AperFunction,ComponentPad*
%ADD24C,2.400000*%
G04 #@! TD*
G04 #@! TA.AperFunction,ComponentPad*
%ADD25R,2.200000X2.200000*%
G04 #@! TD*
G04 #@! TA.AperFunction,ComponentPad*
%ADD26O,2.200000X2.200000*%
G04 #@! TD*
G04 #@! TA.AperFunction,ViaPad*
%ADD27C,0.800000*%
G04 #@! TD*
G04 APERTURE END LIST*
D10*
X66050000Y-73350000D03*
D11*
X68590000Y-75890000D03*
X68590000Y-70810000D03*
X63510000Y-70810000D03*
X63510000Y-75890000D03*
D12*
X64770000Y-64770000D03*
D13*
X64770000Y-59770000D03*
D10*
X196215000Y-76835000D03*
D11*
X193675000Y-79375000D03*
X193675000Y-74295000D03*
X198755000Y-74295000D03*
X198755000Y-79375000D03*
D12*
X161798000Y-49022000D03*
D13*
X166798000Y-49022000D03*
D14*
X73533000Y-62992000D03*
D15*
X73533000Y-70612000D03*
X73533000Y-75682000D03*
X73533000Y-80772000D03*
X81163000Y-80782000D03*
X81163000Y-75702000D03*
X81153000Y-70612000D03*
X81153000Y-62992000D03*
D14*
X187325000Y-84455000D03*
D15*
X187325000Y-76835000D03*
X187325000Y-71765000D03*
X187325000Y-66675000D03*
X179695000Y-66665000D03*
X179695000Y-71745000D03*
X179705000Y-76835000D03*
X179705000Y-84455000D03*
D16*
X74549000Y-55880000D03*
D17*
X77089000Y-55880000D03*
X79629000Y-55880000D03*
D16*
X131820920Y-66400680D03*
D17*
X134360920Y-66400680D03*
X136900920Y-66400680D03*
D16*
X136657080Y-82108040D03*
D17*
X134117080Y-82108040D03*
X131577080Y-82108040D03*
D18*
X88900000Y-48895000D03*
X88900000Y-51435000D03*
X88900000Y-53975000D03*
D19*
X173355000Y-57404000D03*
D20*
X173355000Y-47404000D03*
D10*
X196215000Y-88265000D03*
D11*
X193675000Y-90805000D03*
X198755000Y-90805000D03*
X193675000Y-85725000D03*
X198755000Y-85725000D03*
D10*
X196215000Y-66675000D03*
D11*
X193675000Y-64135000D03*
X198755000Y-69215000D03*
X198755000Y-64135000D03*
X193675000Y-69215000D03*
D21*
X152908000Y-51689000D03*
D19*
X152908000Y-46689000D03*
X103505000Y-63881000D03*
D20*
X103505000Y-53881000D03*
D16*
X97663000Y-76835000D03*
D17*
X95123000Y-76835000D03*
X92583000Y-76835000D03*
D22*
X111125000Y-57785000D03*
X111125000Y-73785000D03*
X121125000Y-57785000D03*
X121125000Y-73785000D03*
D23*
X181300000Y-93300000D03*
X144018000Y-83312000D03*
X144272000Y-62865000D03*
X144145000Y-55753000D03*
X144018000Y-90678000D03*
X173355000Y-68580000D03*
X173482000Y-62611000D03*
D24*
X144018000Y-68834000D03*
X144018000Y-76584000D03*
D25*
X81157818Y-59450000D03*
D26*
X76077818Y-59450000D03*
D25*
X187307818Y-88250000D03*
D26*
X182227818Y-88250000D03*
D27*
X171450000Y-95250000D03*
X165100000Y-76200000D03*
X104140000Y-86360000D03*
X127000000Y-48260000D03*
X198120000Y-55880000D03*
X149225000Y-68580000D03*
X68580000Y-88900000D03*
X111760000Y-48260000D03*
X119380000Y-93980000D03*
X83820000Y-91440000D03*
X111760000Y-50165000D03*
X98425000Y-62230000D03*
X66040000Y-55880000D03*
X73660000Y-93980000D03*
X96520000Y-99060000D03*
X106680000Y-88900000D03*
X111760000Y-99060000D03*
X119380000Y-91440000D03*
X198120000Y-58420000D03*
X149225000Y-73660000D03*
X86360000Y-93980000D03*
X140970000Y-86995000D03*
X63500000Y-55880000D03*
X114300000Y-99060000D03*
X158750000Y-69850000D03*
X185420000Y-45720000D03*
X168275000Y-55880000D03*
X124460000Y-50165000D03*
X101600000Y-99060000D03*
X149225000Y-55880000D03*
X86360000Y-88900000D03*
X106045000Y-96520000D03*
X121920000Y-91440000D03*
X116840000Y-99060000D03*
X114300000Y-96520000D03*
X193040000Y-55880000D03*
X104140000Y-99060000D03*
X141605000Y-48260000D03*
X153035000Y-60325000D03*
X187325000Y-99060000D03*
X100965000Y-69850000D03*
X68580000Y-83820000D03*
X66040000Y-86360000D03*
X149225000Y-99060000D03*
X149225000Y-88900000D03*
X149225000Y-86360000D03*
X149225000Y-66040000D03*
X171450000Y-88900000D03*
X152400000Y-76200000D03*
X98425000Y-59690000D03*
X121920000Y-88900000D03*
X190500000Y-53340000D03*
X185420000Y-48260000D03*
X104140000Y-81280000D03*
X116840000Y-91465400D03*
X149225000Y-81280000D03*
X95885000Y-69850000D03*
X63500000Y-53340000D03*
X119380000Y-88900000D03*
X185420000Y-58420000D03*
X177165000Y-99060000D03*
X149225000Y-93980000D03*
X167005000Y-99060000D03*
X171450000Y-76200000D03*
X66040000Y-53340000D03*
X100965000Y-72390000D03*
X114300000Y-91440000D03*
X171450000Y-82550000D03*
X119380000Y-48260000D03*
X114300000Y-93980000D03*
X100965000Y-67310000D03*
X149225000Y-91440000D03*
X182880000Y-50800000D03*
X182245000Y-99060000D03*
X124460000Y-96520000D03*
X195580000Y-55880000D03*
X71120000Y-91440000D03*
X124460000Y-91440000D03*
X149225000Y-60960000D03*
X119380000Y-96520000D03*
X104775000Y-74930000D03*
X106680000Y-69850000D03*
X165100000Y-95250000D03*
X121920000Y-48260000D03*
X111760000Y-88900000D03*
X104775000Y-72390000D03*
X106680000Y-67310000D03*
X104140000Y-96520000D03*
X144780000Y-50800000D03*
X187960000Y-55880000D03*
X149225000Y-63500000D03*
X92710000Y-53975000D03*
X83820000Y-58420000D03*
X116840000Y-93980000D03*
X149225000Y-83820000D03*
X177800000Y-45720000D03*
X111379000Y-53441600D03*
X83820000Y-53340000D03*
X195580000Y-58420000D03*
X143510000Y-99060000D03*
X158750000Y-88900000D03*
X121920000Y-50165000D03*
X111760000Y-93980000D03*
X104140000Y-88900000D03*
X119380000Y-99060000D03*
X165100000Y-69850000D03*
X161925000Y-99060000D03*
X149225000Y-58420000D03*
X158750000Y-56515000D03*
X106984800Y-56591200D03*
X151765000Y-99060000D03*
X197485000Y-95250000D03*
X193040000Y-53340000D03*
X184785000Y-99060000D03*
X187960000Y-53340000D03*
X153035000Y-56515000D03*
X111760000Y-91440000D03*
X106680000Y-91440000D03*
X144780000Y-48260000D03*
X100965000Y-74295000D03*
X158750000Y-95250000D03*
X179705000Y-99060000D03*
X98425000Y-69850000D03*
X195580000Y-53340000D03*
X190500000Y-58420000D03*
X152400000Y-88900000D03*
X159385000Y-99060000D03*
X121920000Y-93980000D03*
X106680000Y-74930000D03*
X116840000Y-88900000D03*
X68580000Y-55880000D03*
X93980000Y-99060000D03*
X104140000Y-93980000D03*
X119380000Y-50165000D03*
X104775000Y-69850000D03*
X156845000Y-99060000D03*
X116840000Y-48260000D03*
X149225000Y-76200000D03*
X116840000Y-84455000D03*
X124460000Y-48260000D03*
X124460000Y-99060000D03*
X76200000Y-96520000D03*
X104140000Y-91440000D03*
X154305000Y-99060000D03*
X124460000Y-93980000D03*
X99060000Y-99060000D03*
X127000000Y-50165000D03*
X181610000Y-45720000D03*
X66040000Y-88900000D03*
X98425000Y-72390000D03*
X111760000Y-96520000D03*
X106680000Y-72390000D03*
X165100000Y-63500000D03*
X158115000Y-76200000D03*
X149225000Y-78740000D03*
X169545000Y-99060000D03*
X83820000Y-86360000D03*
X165100000Y-88900000D03*
X149225000Y-73660000D03*
X106680000Y-86360000D03*
X68580000Y-86360000D03*
X106680000Y-93980000D03*
X140970000Y-99060000D03*
X153035000Y-63500000D03*
X68580000Y-53340000D03*
X152400000Y-81915000D03*
X158750000Y-63500000D03*
X81280000Y-101600000D03*
X124460000Y-88900000D03*
X66040000Y-83820000D03*
X149225000Y-71120000D03*
X116840000Y-96520000D03*
X109220000Y-83820000D03*
X98425000Y-64770000D03*
X106680000Y-64770000D03*
X91440000Y-99060000D03*
X164465000Y-99060000D03*
X149225000Y-96520000D03*
X158750000Y-82550000D03*
X191135000Y-95250000D03*
X106680000Y-83820000D03*
X121920000Y-99060000D03*
X165100000Y-60325000D03*
X114300000Y-88900000D03*
X83820000Y-55880000D03*
X174625000Y-99060000D03*
X140970000Y-95250000D03*
X78740000Y-99060000D03*
X114300000Y-48260000D03*
X185420000Y-50800000D03*
X152400000Y-69850000D03*
X104140000Y-83820000D03*
X187960000Y-58420000D03*
X158750000Y-60325000D03*
X185420000Y-55880000D03*
X118745000Y-84455000D03*
X180340000Y-48260000D03*
X141605000Y-50800000D03*
X165100000Y-82550000D03*
X198120000Y-53340000D03*
X121920000Y-96520000D03*
X146050000Y-99060000D03*
X185420000Y-53340000D03*
X83820000Y-60960000D03*
X152400000Y-95250000D03*
X193040000Y-58420000D03*
X120650000Y-84455000D03*
X104775000Y-67310000D03*
X184785000Y-95250000D03*
X98425000Y-67310000D03*
X190500000Y-55880000D03*
G04 #@! TA.AperFunction,Conductor*
G36*
X132182397Y-44698988D02*
G01*
X200407009Y-44703954D01*
X200475128Y-44723961D01*
X200521617Y-44777620D01*
X200533000Y-44829954D01*
X200533000Y-103505955D01*
X200512998Y-103574076D01*
X200459342Y-103620569D01*
X200406991Y-103631955D01*
X125608406Y-103626595D01*
X62123758Y-103622045D01*
X62055639Y-103602038D01*
X62009150Y-103548379D01*
X61997767Y-103496091D01*
X61996749Y-100722703D01*
X62840743Y-100722703D01*
X62878268Y-101007734D01*
X62879401Y-101011874D01*
X62879401Y-101011876D01*
X62883035Y-101025159D01*
X62954129Y-101285036D01*
X62955813Y-101288984D01*
X63062098Y-101538163D01*
X63066923Y-101549476D01*
X63078693Y-101569142D01*
X63207587Y-101784508D01*
X63214561Y-101796161D01*
X63394313Y-102020528D01*
X63455370Y-102078469D01*
X63584311Y-102200829D01*
X63602851Y-102218423D01*
X63781983Y-102347143D01*
X63818240Y-102373196D01*
X63836317Y-102386186D01*
X63840112Y-102388195D01*
X63840113Y-102388196D01*
X63861869Y-102399715D01*
X64090392Y-102520712D01*
X64114699Y-102529607D01*
X64319384Y-102604511D01*
X64360373Y-102619511D01*
X64641264Y-102680755D01*
X64669841Y-102683004D01*
X64864282Y-102698307D01*
X64864291Y-102698307D01*
X64866739Y-102698500D01*
X65022271Y-102698500D01*
X65024407Y-102698354D01*
X65024418Y-102698354D01*
X65232548Y-102684165D01*
X65232554Y-102684164D01*
X65236825Y-102683873D01*
X65241020Y-102683004D01*
X65241022Y-102683004D01*
X65377584Y-102654723D01*
X65518342Y-102625574D01*
X65789343Y-102529607D01*
X66044812Y-102397750D01*
X66048313Y-102395289D01*
X66048317Y-102395287D01*
X66233510Y-102265131D01*
X66280023Y-102232441D01*
X66400742Y-102120262D01*
X66487479Y-102039661D01*
X66487481Y-102039658D01*
X66490622Y-102036740D01*
X66591301Y-101913734D01*
X128355917Y-101913734D01*
X128358386Y-101922358D01*
X128358387Y-101922364D01*
X128364006Y-101941987D01*
X128367599Y-101958793D01*
X128371765Y-101987885D01*
X128375481Y-101996058D01*
X128382440Y-102011364D01*
X128388873Y-102028835D01*
X128393501Y-102045000D01*
X128393503Y-102045004D01*
X128395972Y-102053628D01*
X128400762Y-102061212D01*
X128400763Y-102061214D01*
X128411662Y-102078469D01*
X128419833Y-102093605D01*
X128431993Y-102120350D01*
X128437854Y-102127152D01*
X128448829Y-102139889D01*
X128459899Y-102154842D01*
X128473678Y-102176657D01*
X128480409Y-102182596D01*
X128480411Y-102182598D01*
X128495711Y-102196098D01*
X128507802Y-102208332D01*
X128521117Y-102223785D01*
X128521122Y-102223789D01*
X128526979Y-102230587D01*
X128534508Y-102235467D01*
X128534509Y-102235468D01*
X128548626Y-102244618D01*
X128563447Y-102255862D01*
X128582792Y-102272930D01*
X128590916Y-102276740D01*
X128590920Y-102276742D01*
X128609399Y-102285407D01*
X128624432Y-102293752D01*
X128649087Y-102309733D01*
X128657688Y-102312305D01*
X128657692Y-102312307D01*
X128673798Y-102317124D01*
X128691192Y-102323761D01*
X128706411Y-102330898D01*
X128706416Y-102330900D01*
X128714542Y-102334710D01*
X128723411Y-102336087D01*
X128723412Y-102336087D01*
X128743582Y-102339218D01*
X128760353Y-102343009D01*
X128788501Y-102351427D01*
X128797479Y-102351482D01*
X128822950Y-102351638D01*
X128823834Y-102351675D01*
X128825025Y-102351859D01*
X128856351Y-102351844D01*
X128857045Y-102351846D01*
X128934012Y-102352316D01*
X128935455Y-102351903D01*
X128936884Y-102351805D01*
X139534197Y-102346764D01*
X139534834Y-102346766D01*
X139562810Y-102346919D01*
X139603516Y-102347143D01*
X139603518Y-102347143D01*
X139612491Y-102347192D01*
X139640846Y-102339069D01*
X139657610Y-102335481D01*
X139663883Y-102334579D01*
X139677916Y-102332563D01*
X139677919Y-102332562D01*
X139686799Y-102331286D01*
X139710181Y-102320641D01*
X139727673Y-102314194D01*
X139752379Y-102307116D01*
X139759966Y-102302322D01*
X139759969Y-102302321D01*
X139777304Y-102291368D01*
X139792396Y-102283214D01*
X139811064Y-102274715D01*
X139811065Y-102274715D01*
X139819235Y-102270995D01*
X139838685Y-102254220D01*
X139853676Y-102243114D01*
X139867808Y-102234186D01*
X139867811Y-102234183D01*
X139875396Y-102229391D01*
X139894898Y-102207281D01*
X139907099Y-102195215D01*
X139922630Y-102181820D01*
X139922633Y-102181817D01*
X139929427Y-102175957D01*
X139934304Y-102168425D01*
X139943391Y-102154391D01*
X139954660Y-102139529D01*
X139965711Y-102127000D01*
X139965714Y-102126995D01*
X139971653Y-102120262D01*
X139975466Y-102112128D01*
X139984166Y-102093568D01*
X139992489Y-102078563D01*
X140003636Y-102061347D01*
X140003637Y-102061344D01*
X140008515Y-102053811D01*
X140015864Y-102029197D01*
X140022507Y-102011772D01*
X140033413Y-101988504D01*
X140037932Y-101959362D01*
X140041709Y-101942628D01*
X140041900Y-101941987D01*
X140050143Y-101914378D01*
X140050337Y-101879954D01*
X140050370Y-101879144D01*
X140050545Y-101878018D01*
X140050525Y-101846861D01*
X140050527Y-101846148D01*
X140050707Y-101814268D01*
X140050963Y-101768866D01*
X140050568Y-101767489D01*
X140050474Y-101766118D01*
X140050351Y-101569142D01*
X140049810Y-100707703D01*
X195340743Y-100707703D01*
X195341302Y-100711947D01*
X195341302Y-100711951D01*
X195357810Y-100837340D01*
X195378268Y-100992734D01*
X195379401Y-100996874D01*
X195379401Y-100996876D01*
X195383035Y-101010159D01*
X195454129Y-101270036D01*
X195566923Y-101534476D01*
X195578107Y-101553163D01*
X195707203Y-101768866D01*
X195714561Y-101781161D01*
X195894313Y-102005528D01*
X195945000Y-102053628D01*
X196094202Y-102195215D01*
X196102851Y-102203423D01*
X196286627Y-102335480D01*
X196310021Y-102352290D01*
X196336317Y-102371186D01*
X196340112Y-102373195D01*
X196340113Y-102373196D01*
X196359912Y-102383679D01*
X196590392Y-102505712D01*
X196860373Y-102604511D01*
X197141264Y-102665755D01*
X197169841Y-102668004D01*
X197364282Y-102683307D01*
X197364291Y-102683307D01*
X197366739Y-102683500D01*
X197522271Y-102683500D01*
X197524407Y-102683354D01*
X197524418Y-102683354D01*
X197732548Y-102669165D01*
X197732554Y-102669164D01*
X197736825Y-102668873D01*
X197741020Y-102668004D01*
X197741022Y-102668004D01*
X197945909Y-102625574D01*
X198018342Y-102610574D01*
X198289343Y-102514607D01*
X198544812Y-102382750D01*
X198548313Y-102380289D01*
X198548317Y-102380287D01*
X198754373Y-102235468D01*
X198780023Y-102217441D01*
X198929473Y-102078563D01*
X198987479Y-102024661D01*
X198987481Y-102024658D01*
X198990622Y-102021740D01*
X199172713Y-101799268D01*
X199322927Y-101554142D01*
X199438483Y-101290898D01*
X199517244Y-101014406D01*
X199557751Y-100729784D01*
X199557789Y-100722703D01*
X199559235Y-100446583D01*
X199559235Y-100446576D01*
X199559257Y-100442297D01*
X199521732Y-100157266D01*
X199518778Y-100146466D01*
X199499585Y-100076311D01*
X199445871Y-99879964D01*
X199339475Y-99630524D01*
X199334763Y-99619476D01*
X199334761Y-99619472D01*
X199333077Y-99615524D01*
X199196620Y-99387521D01*
X199187643Y-99372521D01*
X199187640Y-99372517D01*
X199185439Y-99368839D01*
X199005687Y-99144472D01*
X198882289Y-99027372D01*
X198800258Y-98949527D01*
X198800255Y-98949525D01*
X198797149Y-98946577D01*
X198607064Y-98809987D01*
X198567172Y-98781321D01*
X198567171Y-98781320D01*
X198563683Y-98778814D01*
X198543335Y-98768040D01*
X198518654Y-98754972D01*
X198309608Y-98644288D01*
X198084647Y-98561964D01*
X198043658Y-98546964D01*
X198043656Y-98546963D01*
X198039627Y-98545489D01*
X197758736Y-98484245D01*
X197723857Y-98481500D01*
X197535718Y-98466693D01*
X197535709Y-98466693D01*
X197533261Y-98466500D01*
X197377729Y-98466500D01*
X197375593Y-98466646D01*
X197375582Y-98466646D01*
X197167452Y-98480835D01*
X197167446Y-98480836D01*
X197163175Y-98481127D01*
X197158980Y-98481996D01*
X197158978Y-98481996D01*
X197092152Y-98495835D01*
X196881658Y-98539426D01*
X196610657Y-98635393D01*
X196355188Y-98767250D01*
X196351687Y-98769711D01*
X196351683Y-98769713D01*
X196320251Y-98791804D01*
X196119977Y-98932559D01*
X196041597Y-99005394D01*
X195979105Y-99063466D01*
X195909378Y-99128260D01*
X195727287Y-99350732D01*
X195577073Y-99595858D01*
X195575347Y-99599791D01*
X195575346Y-99599792D01*
X195568440Y-99615524D01*
X195461517Y-99859102D01*
X195382756Y-100135594D01*
X195342249Y-100420216D01*
X195342227Y-100424505D01*
X195342226Y-100424512D01*
X195340765Y-100703417D01*
X195340743Y-100707703D01*
X140049810Y-100707703D01*
X140045158Y-93300000D01*
X178786290Y-93300000D01*
X178806111Y-93615051D01*
X178865263Y-93925134D01*
X178962812Y-94225358D01*
X179097219Y-94510989D01*
X179266366Y-94777522D01*
X179467584Y-95020753D01*
X179697701Y-95236847D01*
X179953087Y-95422396D01*
X179956556Y-95424303D01*
X179956559Y-95424305D01*
X180226243Y-95572565D01*
X180229714Y-95574473D01*
X180523221Y-95690680D01*
X180527051Y-95691663D01*
X180527059Y-95691666D01*
X180711349Y-95738983D01*
X180828978Y-95769185D01*
X180832906Y-95769681D01*
X180832910Y-95769682D01*
X180956292Y-95785269D01*
X181142163Y-95808750D01*
X181457837Y-95808750D01*
X181643708Y-95785269D01*
X181767090Y-95769682D01*
X181767094Y-95769681D01*
X181771022Y-95769185D01*
X181888651Y-95738983D01*
X182072941Y-95691666D01*
X182072949Y-95691663D01*
X182076779Y-95690680D01*
X182370286Y-95574473D01*
X182373757Y-95572565D01*
X182643441Y-95424305D01*
X182643444Y-95424303D01*
X182646913Y-95422396D01*
X182902299Y-95236847D01*
X183132416Y-95020753D01*
X183333634Y-94777522D01*
X183502781Y-94510989D01*
X183637188Y-94225358D01*
X183734737Y-93925134D01*
X183793889Y-93615051D01*
X183813710Y-93300000D01*
X183793889Y-92984949D01*
X183734737Y-92674866D01*
X183637188Y-92374642D01*
X183502781Y-92089011D01*
X183333634Y-91822478D01*
X183132416Y-91579247D01*
X182902299Y-91363153D01*
X182646913Y-91177604D01*
X182370286Y-91025527D01*
X182076779Y-90909320D01*
X182072949Y-90908337D01*
X182072941Y-90908334D01*
X181880553Y-90858938D01*
X181771022Y-90830815D01*
X181767094Y-90830319D01*
X181767090Y-90830318D01*
X181643708Y-90814731D01*
X181457837Y-90791250D01*
X181142163Y-90791250D01*
X180956292Y-90814731D01*
X180832910Y-90830318D01*
X180832906Y-90830319D01*
X180828978Y-90830815D01*
X180719447Y-90858938D01*
X180527059Y-90908334D01*
X180527051Y-90908337D01*
X180523221Y-90909320D01*
X180229714Y-91025527D01*
X179953087Y-91177604D01*
X179697701Y-91363153D01*
X179467584Y-91579247D01*
X179266366Y-91822478D01*
X179097219Y-92089011D01*
X178962812Y-92374642D01*
X178865263Y-92674866D01*
X178806111Y-92984949D01*
X178786290Y-93300000D01*
X140045158Y-93300000D01*
X140043512Y-90678000D01*
X141504290Y-90678000D01*
X141524111Y-90993051D01*
X141583263Y-91303134D01*
X141680812Y-91603358D01*
X141815219Y-91888989D01*
X141984366Y-92155522D01*
X142185584Y-92398753D01*
X142415701Y-92614847D01*
X142671087Y-92800396D01*
X142947714Y-92952473D01*
X143241221Y-93068680D01*
X143245051Y-93069663D01*
X143245059Y-93069666D01*
X143437447Y-93119062D01*
X143546978Y-93147185D01*
X143550906Y-93147681D01*
X143550910Y-93147682D01*
X143674292Y-93163269D01*
X143860163Y-93186750D01*
X144175837Y-93186750D01*
X144361708Y-93163269D01*
X144485090Y-93147682D01*
X144485094Y-93147681D01*
X144489022Y-93147185D01*
X144598553Y-93119062D01*
X144790941Y-93069666D01*
X144790949Y-93069663D01*
X144794779Y-93068680D01*
X145088286Y-92952473D01*
X145364913Y-92800396D01*
X145620299Y-92614847D01*
X145850416Y-92398753D01*
X146051634Y-92155522D01*
X146220781Y-91888989D01*
X146355188Y-91603358D01*
X146452737Y-91303134D01*
X146511889Y-90993051D01*
X146531710Y-90678000D01*
X146511889Y-90362949D01*
X146452737Y-90052866D01*
X146355188Y-89752642D01*
X146343572Y-89727955D01*
X146281810Y-89596705D01*
X146220781Y-89467011D01*
X146177070Y-89398134D01*
X185699318Y-89398134D01*
X185706073Y-89460316D01*
X185757203Y-89596705D01*
X185844557Y-89713261D01*
X185961113Y-89800615D01*
X186097502Y-89851745D01*
X186159684Y-89858500D01*
X188455952Y-89858500D01*
X188518134Y-89851745D01*
X188654523Y-89800615D01*
X188771079Y-89713261D01*
X188858433Y-89596705D01*
X188909563Y-89460316D01*
X188916318Y-89398134D01*
X188916318Y-88265000D01*
X194676758Y-88265000D01*
X194695696Y-88505634D01*
X194696850Y-88510441D01*
X194696851Y-88510447D01*
X194708252Y-88557935D01*
X194752045Y-88740343D01*
X194844416Y-88963347D01*
X194970536Y-89169156D01*
X195127299Y-89352701D01*
X195310844Y-89509464D01*
X195516653Y-89635584D01*
X195521223Y-89637477D01*
X195521227Y-89637479D01*
X195686848Y-89706081D01*
X195739657Y-89727955D01*
X195822039Y-89747733D01*
X195969553Y-89783149D01*
X195969559Y-89783150D01*
X195974366Y-89784304D01*
X196215000Y-89803242D01*
X196455634Y-89784304D01*
X196460441Y-89783150D01*
X196460447Y-89783149D01*
X196607961Y-89747733D01*
X196690343Y-89727955D01*
X196743152Y-89706081D01*
X196908773Y-89637479D01*
X196908777Y-89637477D01*
X196913347Y-89635584D01*
X197119156Y-89509464D01*
X197302701Y-89352701D01*
X197459464Y-89169156D01*
X197585584Y-88963347D01*
X197677955Y-88740343D01*
X197721748Y-88557935D01*
X197733149Y-88510447D01*
X197733150Y-88510441D01*
X197734304Y-88505634D01*
X197753242Y-88265000D01*
X197734304Y-88024366D01*
X197733150Y-88019559D01*
X197733149Y-88019553D01*
X197679110Y-87794469D01*
X197677955Y-87789657D01*
X197585584Y-87566653D01*
X197459464Y-87360844D01*
X197302701Y-87177299D01*
X197119156Y-87020536D01*
X196913347Y-86894416D01*
X196908777Y-86892523D01*
X196908773Y-86892521D01*
X196694916Y-86803939D01*
X196694914Y-86803938D01*
X196690343Y-86802045D01*
X196604176Y-86781358D01*
X196460447Y-86746851D01*
X196460441Y-86746850D01*
X196455634Y-86745696D01*
X196215000Y-86726758D01*
X195974366Y-86745696D01*
X195969559Y-86746850D01*
X195969553Y-86746851D01*
X195825824Y-86781358D01*
X195739657Y-86802045D01*
X195735086Y-86803938D01*
X195735084Y-86803939D01*
X195521227Y-86892521D01*
X195521223Y-86892523D01*
X195516653Y-86894416D01*
X195310844Y-87020536D01*
X195127299Y-87177299D01*
X194970536Y-87360844D01*
X194844416Y-87566653D01*
X194752045Y-87789657D01*
X194750890Y-87794469D01*
X194696851Y-88019553D01*
X194696850Y-88019559D01*
X194695696Y-88024366D01*
X194676758Y-88265000D01*
X188916318Y-88265000D01*
X188916318Y-87101866D01*
X188909563Y-87039684D01*
X188858433Y-86903295D01*
X188771079Y-86786739D01*
X188654523Y-86699385D01*
X188518134Y-86648255D01*
X188455952Y-86641500D01*
X186159684Y-86641500D01*
X186097502Y-86648255D01*
X185961113Y-86699385D01*
X185844557Y-86786739D01*
X185757203Y-86903295D01*
X185706073Y-87039684D01*
X185699318Y-87101866D01*
X185699318Y-89398134D01*
X146177070Y-89398134D01*
X146051634Y-89200478D01*
X145850416Y-88957247D01*
X145620299Y-88741153D01*
X145364913Y-88555604D01*
X145088286Y-88403527D01*
X144794779Y-88287320D01*
X144790949Y-88286337D01*
X144790941Y-88286334D01*
X144598553Y-88236938D01*
X144489022Y-88208815D01*
X144485094Y-88208319D01*
X144485090Y-88208318D01*
X144361708Y-88192731D01*
X144175837Y-88169250D01*
X143860163Y-88169250D01*
X143674292Y-88192731D01*
X143550910Y-88208318D01*
X143550906Y-88208319D01*
X143546978Y-88208815D01*
X143437447Y-88236938D01*
X143245059Y-88286334D01*
X143245051Y-88286337D01*
X143241221Y-88287320D01*
X142947714Y-88403527D01*
X142671087Y-88555604D01*
X142415701Y-88741153D01*
X142185584Y-88957247D01*
X141984366Y-89200478D01*
X141815219Y-89467011D01*
X141754190Y-89596705D01*
X141692429Y-89727955D01*
X141680812Y-89752642D01*
X141583263Y-90052866D01*
X141524111Y-90362949D01*
X141504290Y-90678000D01*
X140043512Y-90678000D01*
X140040365Y-85667099D01*
X140040367Y-85666388D01*
X140040803Y-85589066D01*
X140032658Y-85560618D01*
X140029075Y-85543880D01*
X140026142Y-85523491D01*
X140024864Y-85514606D01*
X140014256Y-85491313D01*
X140007794Y-85473780D01*
X140003219Y-85457802D01*
X140000748Y-85449172D01*
X139984948Y-85424156D01*
X139976818Y-85409108D01*
X139964553Y-85382179D01*
X139947836Y-85362802D01*
X139936710Y-85347784D01*
X139927834Y-85333732D01*
X139923041Y-85326143D01*
X139900861Y-85306573D01*
X139888825Y-85294402D01*
X139875362Y-85278797D01*
X139875359Y-85278794D01*
X139869498Y-85272001D01*
X139848012Y-85258093D01*
X139833122Y-85246804D01*
X139820659Y-85235808D01*
X139820652Y-85235804D01*
X139813927Y-85229870D01*
X139787142Y-85217310D01*
X139772177Y-85209008D01*
X139768350Y-85206531D01*
X139747340Y-85192932D01*
X139738737Y-85190365D01*
X139738735Y-85190364D01*
X139722819Y-85185615D01*
X139705353Y-85178957D01*
X139690302Y-85171899D01*
X139690299Y-85171898D01*
X139682178Y-85168090D01*
X139673311Y-85166714D01*
X139673309Y-85166713D01*
X139658069Y-85164348D01*
X139652952Y-85163554D01*
X139636249Y-85159784D01*
X139616503Y-85153892D01*
X139607900Y-85151325D01*
X139582648Y-85151186D01*
X139573512Y-85151136D01*
X139572753Y-85151105D01*
X139571695Y-85150941D01*
X139568806Y-85150942D01*
X139568797Y-85150942D01*
X139549310Y-85150952D01*
X139540804Y-85150956D01*
X139540168Y-85150954D01*
X139494925Y-85150706D01*
X139466242Y-85150549D01*
X139466241Y-85150549D01*
X139462389Y-85150528D01*
X139461078Y-85150904D01*
X139459765Y-85150994D01*
X132242432Y-85154431D01*
X128872338Y-85156036D01*
X128871646Y-85156034D01*
X128794708Y-85155564D01*
X128766158Y-85163724D01*
X128749467Y-85167291D01*
X128720080Y-85171514D01*
X128696874Y-85182079D01*
X128679308Y-85188546D01*
X128654795Y-85195552D01*
X128647205Y-85200341D01*
X128647198Y-85200344D01*
X128629688Y-85211392D01*
X128614661Y-85219505D01*
X128587644Y-85231805D01*
X128580844Y-85237670D01*
X128568341Y-85248453D01*
X128553285Y-85259599D01*
X128531729Y-85273200D01*
X128525786Y-85279929D01*
X128525785Y-85279930D01*
X128512079Y-85295449D01*
X128499935Y-85307452D01*
X128477452Y-85326843D01*
X128472574Y-85334377D01*
X128472572Y-85334379D01*
X128463596Y-85348242D01*
X128452276Y-85363163D01*
X128435404Y-85382268D01*
X128431593Y-85390386D01*
X128431590Y-85390390D01*
X128422787Y-85409141D01*
X128414497Y-85424073D01*
X128403243Y-85441454D01*
X128403241Y-85441458D01*
X128398365Y-85448989D01*
X128395799Y-85457584D01*
X128395797Y-85457588D01*
X128391073Y-85473412D01*
X128384395Y-85490912D01*
X128373561Y-85513988D01*
X128372058Y-85523642D01*
X128368994Y-85543321D01*
X128365228Y-85559981D01*
X128365036Y-85560625D01*
X128356737Y-85588423D01*
X128356686Y-85597399D01*
X128356686Y-85597401D01*
X128356543Y-85622778D01*
X128356514Y-85623469D01*
X128356360Y-85624463D01*
X128356360Y-85654968D01*
X128356358Y-85655678D01*
X128355917Y-85733934D01*
X128356275Y-85735183D01*
X128356360Y-85736431D01*
X128356360Y-101834767D01*
X128356358Y-101835477D01*
X128355917Y-101913734D01*
X66591301Y-101913734D01*
X66672713Y-101814268D01*
X66822927Y-101569142D01*
X66831239Y-101550208D01*
X66936757Y-101309830D01*
X66938483Y-101305898D01*
X67017244Y-101029406D01*
X67057751Y-100744784D01*
X67057808Y-100734036D01*
X67059235Y-100461583D01*
X67059235Y-100461576D01*
X67059257Y-100457297D01*
X67057847Y-100446583D01*
X67022292Y-100176522D01*
X67021732Y-100172266D01*
X67017629Y-100157266D01*
X66947003Y-99899103D01*
X66945871Y-99894964D01*
X66833077Y-99630524D01*
X66685439Y-99383839D01*
X66505687Y-99159472D01*
X66297149Y-98961577D01*
X66063683Y-98793814D01*
X66041843Y-98782250D01*
X66009801Y-98765285D01*
X65809608Y-98659288D01*
X65539627Y-98560489D01*
X65258736Y-98499245D01*
X65227685Y-98496801D01*
X65035718Y-98481693D01*
X65035709Y-98481693D01*
X65033261Y-98481500D01*
X64877729Y-98481500D01*
X64875593Y-98481646D01*
X64875582Y-98481646D01*
X64667452Y-98495835D01*
X64667446Y-98495836D01*
X64663175Y-98496127D01*
X64658980Y-98496996D01*
X64658978Y-98496996D01*
X64522417Y-98525276D01*
X64381658Y-98554426D01*
X64110657Y-98650393D01*
X63855188Y-98782250D01*
X63851687Y-98784711D01*
X63851683Y-98784713D01*
X63841594Y-98791804D01*
X63619977Y-98947559D01*
X63409378Y-99143260D01*
X63227287Y-99365732D01*
X63077073Y-99610858D01*
X62961517Y-99874102D01*
X62882756Y-100150594D01*
X62842249Y-100435216D01*
X62842227Y-100439505D01*
X62842226Y-100439512D01*
X62840799Y-100711951D01*
X62840743Y-100722703D01*
X61996749Y-100722703D01*
X61995465Y-97224652D01*
X89026524Y-97224652D01*
X89028990Y-97233281D01*
X89028991Y-97233286D01*
X89034639Y-97253048D01*
X89038217Y-97269809D01*
X89041130Y-97290152D01*
X89041133Y-97290162D01*
X89042405Y-97299045D01*
X89053021Y-97322395D01*
X89059464Y-97339907D01*
X89066512Y-97364565D01*
X89082274Y-97389548D01*
X89090404Y-97404614D01*
X89102633Y-97431510D01*
X89119374Y-97450939D01*
X89130479Y-97465947D01*
X89144160Y-97487631D01*
X89150888Y-97493573D01*
X89166296Y-97507181D01*
X89178340Y-97519373D01*
X89197619Y-97541747D01*
X89205147Y-97546626D01*
X89205150Y-97546629D01*
X89219139Y-97555696D01*
X89234013Y-97566986D01*
X89253228Y-97583956D01*
X89261354Y-97587771D01*
X89261355Y-97587772D01*
X89267021Y-97590432D01*
X89279966Y-97596510D01*
X89294935Y-97604824D01*
X89319727Y-97620893D01*
X89336650Y-97625954D01*
X89344290Y-97628239D01*
X89361736Y-97634901D01*
X89384948Y-97645799D01*
X89414130Y-97650343D01*
X89430849Y-97654126D01*
X89450536Y-97660014D01*
X89450539Y-97660015D01*
X89459141Y-97662587D01*
X89468116Y-97662642D01*
X89468117Y-97662642D01*
X89474810Y-97662683D01*
X89493556Y-97662797D01*
X89494328Y-97662830D01*
X89495423Y-97663000D01*
X89526298Y-97663000D01*
X89527068Y-97663002D01*
X89600716Y-97663452D01*
X89600717Y-97663452D01*
X89604652Y-97663476D01*
X89605996Y-97663092D01*
X89607341Y-97663000D01*
X100956298Y-97663000D01*
X100957069Y-97663002D01*
X101034652Y-97663476D01*
X101043281Y-97661010D01*
X101043286Y-97661009D01*
X101063048Y-97655361D01*
X101079809Y-97651783D01*
X101100152Y-97648870D01*
X101100162Y-97648867D01*
X101109045Y-97647595D01*
X101132395Y-97636979D01*
X101149907Y-97630536D01*
X101165937Y-97625954D01*
X101174565Y-97623488D01*
X101199548Y-97607726D01*
X101214614Y-97599596D01*
X101241510Y-97587367D01*
X101260939Y-97570626D01*
X101275947Y-97559521D01*
X101290039Y-97550630D01*
X101297631Y-97545840D01*
X101317182Y-97523703D01*
X101329374Y-97511659D01*
X101344949Y-97498239D01*
X101344950Y-97498237D01*
X101351747Y-97492381D01*
X101356626Y-97484853D01*
X101356629Y-97484850D01*
X101365696Y-97470861D01*
X101376986Y-97455987D01*
X101388012Y-97443502D01*
X101393956Y-97436772D01*
X101406510Y-97410034D01*
X101414824Y-97395065D01*
X101430893Y-97370273D01*
X101438239Y-97345709D01*
X101444901Y-97328264D01*
X101451983Y-97313179D01*
X101455799Y-97305052D01*
X101460343Y-97275870D01*
X101464126Y-97259151D01*
X101470014Y-97239464D01*
X101470015Y-97239461D01*
X101472587Y-97230859D01*
X101472797Y-97196444D01*
X101472830Y-97195672D01*
X101473000Y-97194577D01*
X101473000Y-97163702D01*
X101473002Y-97162932D01*
X101473452Y-97089284D01*
X101473452Y-97089283D01*
X101473476Y-97085348D01*
X101473092Y-97084004D01*
X101473000Y-97082659D01*
X101473000Y-82216442D01*
X130116080Y-82216442D01*
X130116292Y-82219015D01*
X130116292Y-82219026D01*
X130117807Y-82237447D01*
X130130758Y-82394977D01*
X130189286Y-82627984D01*
X130285083Y-82848303D01*
X130415578Y-83050017D01*
X130577266Y-83227710D01*
X130613124Y-83256029D01*
X130761750Y-83373407D01*
X130761755Y-83373410D01*
X130765804Y-83376608D01*
X130770320Y-83379101D01*
X130770323Y-83379103D01*
X130971606Y-83490217D01*
X130971610Y-83490219D01*
X130976130Y-83492714D01*
X130980999Y-83494438D01*
X130981003Y-83494440D01*
X131197720Y-83571184D01*
X131197724Y-83571185D01*
X131202595Y-83572910D01*
X131207688Y-83573817D01*
X131207691Y-83573818D01*
X131434028Y-83614135D01*
X131434034Y-83614136D01*
X131439117Y-83615041D01*
X131526480Y-83616108D01*
X131674173Y-83617913D01*
X131674175Y-83617913D01*
X131679343Y-83617976D01*
X131916824Y-83581636D01*
X132029077Y-83544946D01*
X132140263Y-83508606D01*
X132140269Y-83508603D01*
X132145181Y-83506998D01*
X132149767Y-83504611D01*
X132149771Y-83504609D01*
X132353687Y-83398456D01*
X132358280Y-83396065D01*
X132424511Y-83346337D01*
X132546265Y-83254922D01*
X132546268Y-83254920D01*
X132550400Y-83251817D01*
X132641799Y-83156174D01*
X135196080Y-83156174D01*
X135202835Y-83218356D01*
X135253965Y-83354745D01*
X135341319Y-83471301D01*
X135457875Y-83558655D01*
X135594264Y-83609785D01*
X135656446Y-83616540D01*
X137657714Y-83616540D01*
X137719896Y-83609785D01*
X137856285Y-83558655D01*
X137972841Y-83471301D01*
X138060195Y-83354745D01*
X138076219Y-83312000D01*
X141504290Y-83312000D01*
X141524111Y-83627051D01*
X141583263Y-83937134D01*
X141680812Y-84237358D01*
X141815219Y-84522989D01*
X141984366Y-84789522D01*
X142185584Y-85032753D01*
X142188471Y-85035464D01*
X142395493Y-85229870D01*
X142415701Y-85248847D01*
X142418903Y-85251174D01*
X142418905Y-85251175D01*
X142458483Y-85279930D01*
X142671087Y-85434396D01*
X142674556Y-85436303D01*
X142674559Y-85436305D01*
X142944243Y-85584565D01*
X142947714Y-85586473D01*
X143241221Y-85702680D01*
X143245051Y-85703663D01*
X143245059Y-85703666D01*
X143437447Y-85753062D01*
X143546978Y-85781185D01*
X143550906Y-85781681D01*
X143550910Y-85781682D01*
X143674292Y-85797269D01*
X143860163Y-85820750D01*
X144175837Y-85820750D01*
X144361708Y-85797269D01*
X144485090Y-85781682D01*
X144485094Y-85781681D01*
X144489022Y-85781185D01*
X144598553Y-85753062D01*
X144790941Y-85703666D01*
X144790949Y-85703663D01*
X144794779Y-85702680D01*
X145088286Y-85586473D01*
X145091757Y-85584565D01*
X145361441Y-85436305D01*
X145361444Y-85436303D01*
X145364913Y-85434396D01*
X145577517Y-85279930D01*
X145617095Y-85251175D01*
X145617097Y-85251174D01*
X145620299Y-85248847D01*
X145640508Y-85229870D01*
X145668979Y-85203134D01*
X186116500Y-85203134D01*
X186123255Y-85265316D01*
X186174385Y-85401705D01*
X186261739Y-85518261D01*
X186378295Y-85605615D01*
X186514684Y-85656745D01*
X186576866Y-85663500D01*
X188073134Y-85663500D01*
X188135316Y-85656745D01*
X188271705Y-85605615D01*
X188388261Y-85518261D01*
X188475615Y-85401705D01*
X188526745Y-85265316D01*
X188533500Y-85203134D01*
X188533500Y-83706866D01*
X188526745Y-83644684D01*
X188475615Y-83508295D01*
X188388261Y-83391739D01*
X188271705Y-83304385D01*
X188135316Y-83253255D01*
X188073134Y-83246500D01*
X186576866Y-83246500D01*
X186514684Y-83253255D01*
X186378295Y-83304385D01*
X186261739Y-83391739D01*
X186174385Y-83508295D01*
X186123255Y-83644684D01*
X186116500Y-83706866D01*
X186116500Y-85203134D01*
X145668979Y-85203134D01*
X145847529Y-85035464D01*
X145850416Y-85032753D01*
X146051634Y-84789522D01*
X146220781Y-84522989D01*
X146355188Y-84237358D01*
X146452737Y-83937134D01*
X146511889Y-83627051D01*
X146531710Y-83312000D01*
X146511889Y-82996949D01*
X146452737Y-82686866D01*
X146355188Y-82386642D01*
X146220781Y-82101011D01*
X146051634Y-81834478D01*
X145850416Y-81591247D01*
X145620299Y-81375153D01*
X145364913Y-81189604D01*
X145322093Y-81166063D01*
X145091757Y-81039435D01*
X145091754Y-81039434D01*
X145088286Y-81037527D01*
X144794779Y-80921320D01*
X144790949Y-80920337D01*
X144790941Y-80920334D01*
X144593900Y-80869743D01*
X144489022Y-80842815D01*
X144485094Y-80842319D01*
X144485090Y-80842318D01*
X144361708Y-80826731D01*
X144175837Y-80803250D01*
X143860163Y-80803250D01*
X143674292Y-80826731D01*
X143550910Y-80842318D01*
X143550906Y-80842319D01*
X143546978Y-80842815D01*
X143442100Y-80869743D01*
X143245059Y-80920334D01*
X143245051Y-80920337D01*
X143241221Y-80921320D01*
X142947714Y-81037527D01*
X142944246Y-81039434D01*
X142944243Y-81039435D01*
X142713908Y-81166063D01*
X142671087Y-81189604D01*
X142415701Y-81375153D01*
X142185584Y-81591247D01*
X141984366Y-81834478D01*
X141815219Y-82101011D01*
X141680812Y-82386642D01*
X141583263Y-82686866D01*
X141524111Y-82996949D01*
X141504290Y-83312000D01*
X138076219Y-83312000D01*
X138111325Y-83218356D01*
X138118080Y-83156174D01*
X138118080Y-81059906D01*
X138111325Y-80997724D01*
X138060195Y-80861335D01*
X137972841Y-80744779D01*
X137856285Y-80657425D01*
X137719896Y-80606295D01*
X137657714Y-80599540D01*
X135656446Y-80599540D01*
X135594264Y-80606295D01*
X135457875Y-80657425D01*
X135341319Y-80744779D01*
X135253965Y-80861335D01*
X135202835Y-80997724D01*
X135196080Y-81059906D01*
X135196080Y-83156174D01*
X132641799Y-83156174D01*
X132716381Y-83078128D01*
X132851766Y-82879662D01*
X132866323Y-82848303D01*
X132950738Y-82666445D01*
X132950739Y-82666441D01*
X132952917Y-82661750D01*
X133017120Y-82430242D01*
X133021440Y-82389816D01*
X133037724Y-82237447D01*
X133037724Y-82237439D01*
X133038080Y-82234112D01*
X133038080Y-81999638D01*
X133037709Y-81995116D01*
X133029567Y-81896094D01*
X133023402Y-81821103D01*
X132964874Y-81588096D01*
X132869077Y-81367777D01*
X132758538Y-81196910D01*
X132741390Y-81170403D01*
X132741388Y-81170400D01*
X132738582Y-81166063D01*
X132576894Y-80988370D01*
X132426686Y-80869743D01*
X132392410Y-80842673D01*
X132392405Y-80842670D01*
X132388356Y-80839472D01*
X132383840Y-80836979D01*
X132383837Y-80836977D01*
X132182554Y-80725863D01*
X132182550Y-80725861D01*
X132178030Y-80723366D01*
X132173161Y-80721642D01*
X132173157Y-80721640D01*
X131956440Y-80644896D01*
X131956436Y-80644895D01*
X131951565Y-80643170D01*
X131946472Y-80642263D01*
X131946469Y-80642262D01*
X131720132Y-80601945D01*
X131720126Y-80601944D01*
X131715043Y-80601039D01*
X131622554Y-80599909D01*
X131479987Y-80598167D01*
X131479985Y-80598167D01*
X131474817Y-80598104D01*
X131237336Y-80634444D01*
X131125083Y-80671134D01*
X131013897Y-80707474D01*
X131013891Y-80707477D01*
X131008979Y-80709082D01*
X131004393Y-80711469D01*
X131004389Y-80711471D01*
X130858388Y-80787475D01*
X130795880Y-80820015D01*
X130791737Y-80823125D01*
X130791738Y-80823125D01*
X130659013Y-80922778D01*
X130603760Y-80964263D01*
X130437779Y-81137952D01*
X130302394Y-81336418D01*
X130300220Y-81341101D01*
X130300218Y-81341105D01*
X130276100Y-81393063D01*
X130201243Y-81554330D01*
X130137040Y-81785838D01*
X130136491Y-81790975D01*
X130116797Y-81975262D01*
X130116080Y-81981968D01*
X130116080Y-82216442D01*
X101473000Y-82216442D01*
X101473000Y-80653702D01*
X101473002Y-80652932D01*
X101473304Y-80603546D01*
X101473476Y-80575348D01*
X101471010Y-80566719D01*
X101471009Y-80566714D01*
X101465361Y-80546952D01*
X101461783Y-80530191D01*
X101458870Y-80509848D01*
X101458867Y-80509838D01*
X101457595Y-80500955D01*
X101446979Y-80477605D01*
X101440536Y-80460093D01*
X101435954Y-80444063D01*
X101433488Y-80435435D01*
X101417726Y-80410452D01*
X101409596Y-80395386D01*
X101397367Y-80368490D01*
X101380626Y-80349061D01*
X101369521Y-80334053D01*
X101360630Y-80319961D01*
X101355840Y-80312369D01*
X101333703Y-80292818D01*
X101321659Y-80280626D01*
X101308239Y-80265051D01*
X101308237Y-80265050D01*
X101302381Y-80258253D01*
X101294853Y-80253374D01*
X101294850Y-80253371D01*
X101280861Y-80244304D01*
X101265987Y-80233014D01*
X101253502Y-80221988D01*
X101246772Y-80216044D01*
X101238646Y-80212229D01*
X101238645Y-80212228D01*
X101232979Y-80209568D01*
X101220034Y-80203490D01*
X101205065Y-80195176D01*
X101180273Y-80179107D01*
X101155709Y-80171761D01*
X101138264Y-80165099D01*
X101129399Y-80160937D01*
X101115052Y-80154201D01*
X101085870Y-80149657D01*
X101069151Y-80145874D01*
X101049464Y-80139986D01*
X101049461Y-80139985D01*
X101040859Y-80137413D01*
X101031884Y-80137358D01*
X101031883Y-80137358D01*
X101025190Y-80137317D01*
X101006444Y-80137203D01*
X101005672Y-80137170D01*
X101004577Y-80137000D01*
X100973702Y-80137000D01*
X100972932Y-80136998D01*
X100899284Y-80136548D01*
X100899283Y-80136548D01*
X100895348Y-80136524D01*
X100894004Y-80136908D01*
X100892659Y-80137000D01*
X89543702Y-80137000D01*
X89542932Y-80136998D01*
X89542078Y-80136993D01*
X89465348Y-80136524D01*
X89456719Y-80138990D01*
X89456714Y-80138991D01*
X89436952Y-80144639D01*
X89420191Y-80148217D01*
X89399848Y-80151130D01*
X89399838Y-80151133D01*
X89390955Y-80152405D01*
X89367605Y-80163021D01*
X89350093Y-80169464D01*
X89344940Y-80170937D01*
X89325435Y-80176512D01*
X89300452Y-80192274D01*
X89285386Y-80200404D01*
X89258490Y-80212633D01*
X89239061Y-80229374D01*
X89224053Y-80240479D01*
X89202369Y-80254160D01*
X89196427Y-80260888D01*
X89182819Y-80276296D01*
X89170627Y-80288340D01*
X89148253Y-80307619D01*
X89143374Y-80315147D01*
X89143371Y-80315150D01*
X89134304Y-80329139D01*
X89123014Y-80344013D01*
X89106044Y-80363228D01*
X89102229Y-80371354D01*
X89102228Y-80371355D01*
X89099737Y-80376661D01*
X89093490Y-80389966D01*
X89085176Y-80404935D01*
X89069107Y-80429727D01*
X89066535Y-80438327D01*
X89061761Y-80454290D01*
X89055099Y-80471736D01*
X89044201Y-80494948D01*
X89039658Y-80524128D01*
X89035874Y-80540849D01*
X89029986Y-80560536D01*
X89029985Y-80560539D01*
X89027413Y-80569141D01*
X89027213Y-80601945D01*
X89027203Y-80603546D01*
X89027170Y-80604328D01*
X89027000Y-80605423D01*
X89027000Y-80636298D01*
X89026998Y-80637068D01*
X89026524Y-80714652D01*
X89026908Y-80715996D01*
X89027000Y-80717341D01*
X89027000Y-97146298D01*
X89026998Y-97147068D01*
X89026524Y-97224652D01*
X61995465Y-97224652D01*
X61989427Y-80772000D01*
X72319884Y-80772000D01*
X72338314Y-80982655D01*
X72339738Y-80987968D01*
X72339738Y-80987970D01*
X72342418Y-80997970D01*
X72393044Y-81186910D01*
X72395366Y-81191891D01*
X72395367Y-81191892D01*
X72479738Y-81372825D01*
X72482411Y-81378558D01*
X72603699Y-81551776D01*
X72753224Y-81701301D01*
X72926442Y-81822589D01*
X72931420Y-81824910D01*
X72931423Y-81824912D01*
X72959109Y-81837822D01*
X73118090Y-81911956D01*
X73123398Y-81913378D01*
X73123400Y-81913379D01*
X73317030Y-81965262D01*
X73317032Y-81965262D01*
X73322345Y-81966686D01*
X73533000Y-81985116D01*
X73743655Y-81966686D01*
X73748968Y-81965262D01*
X73748970Y-81965262D01*
X73942600Y-81913379D01*
X73942602Y-81913378D01*
X73947910Y-81911956D01*
X74106891Y-81837822D01*
X74134577Y-81824912D01*
X74134580Y-81824910D01*
X74139558Y-81822589D01*
X74312776Y-81701301D01*
X74462301Y-81551776D01*
X74583589Y-81378558D01*
X74586263Y-81372825D01*
X74670633Y-81191892D01*
X74670634Y-81191891D01*
X74672956Y-81186910D01*
X74723583Y-80997970D01*
X74726262Y-80987970D01*
X74726262Y-80987968D01*
X74727686Y-80982655D01*
X74745241Y-80782000D01*
X79949884Y-80782000D01*
X79968314Y-80992655D01*
X79969738Y-80997968D01*
X79969738Y-80997970D01*
X80020365Y-81186910D01*
X80023044Y-81196910D01*
X80025366Y-81201891D01*
X80025367Y-81201892D01*
X80109849Y-81383063D01*
X80112411Y-81388558D01*
X80233699Y-81561776D01*
X80383224Y-81711301D01*
X80556442Y-81832589D01*
X80561420Y-81834910D01*
X80561423Y-81834912D01*
X80743108Y-81919633D01*
X80748090Y-81921956D01*
X80753398Y-81923378D01*
X80753400Y-81923379D01*
X80947030Y-81975262D01*
X80947032Y-81975262D01*
X80952345Y-81976686D01*
X81163000Y-81995116D01*
X81373655Y-81976686D01*
X81378968Y-81975262D01*
X81378970Y-81975262D01*
X81572600Y-81923379D01*
X81572602Y-81923378D01*
X81577910Y-81921956D01*
X81582892Y-81919633D01*
X81764577Y-81834912D01*
X81764580Y-81834910D01*
X81769558Y-81832589D01*
X81942776Y-81711301D01*
X82092301Y-81561776D01*
X82213589Y-81388558D01*
X82216152Y-81383063D01*
X82300633Y-81201892D01*
X82300634Y-81201891D01*
X82302956Y-81196910D01*
X82305636Y-81186910D01*
X82356262Y-80997970D01*
X82356262Y-80997968D01*
X82357686Y-80992655D01*
X82376116Y-80782000D01*
X82357686Y-80571345D01*
X82354790Y-80560536D01*
X82304379Y-80372400D01*
X82304378Y-80372398D01*
X82302956Y-80367090D01*
X82285259Y-80329139D01*
X82215912Y-80180423D01*
X82215910Y-80180420D01*
X82213589Y-80175442D01*
X82092301Y-80002224D01*
X81942776Y-79852699D01*
X81769558Y-79731411D01*
X81764580Y-79729090D01*
X81764577Y-79729088D01*
X81582892Y-79644367D01*
X81582891Y-79644366D01*
X81577910Y-79642044D01*
X81572602Y-79640622D01*
X81572600Y-79640621D01*
X81378970Y-79588738D01*
X81378968Y-79588738D01*
X81373655Y-79587314D01*
X81163000Y-79568884D01*
X80952345Y-79587314D01*
X80947032Y-79588738D01*
X80947030Y-79588738D01*
X80753400Y-79640621D01*
X80753398Y-79640622D01*
X80748090Y-79642044D01*
X80743109Y-79644366D01*
X80743108Y-79644367D01*
X80561423Y-79729088D01*
X80561420Y-79729090D01*
X80556442Y-79731411D01*
X80383224Y-79852699D01*
X80233699Y-80002224D01*
X80112411Y-80175442D01*
X80110090Y-80180420D01*
X80110088Y-80180423D01*
X80040741Y-80329139D01*
X80023044Y-80367090D01*
X80021622Y-80372398D01*
X80021621Y-80372400D01*
X79971210Y-80560536D01*
X79968314Y-80571345D01*
X79949884Y-80782000D01*
X74745241Y-80782000D01*
X74746116Y-80772000D01*
X74727686Y-80561345D01*
X74726262Y-80556030D01*
X74674379Y-80362400D01*
X74674378Y-80362398D01*
X74672956Y-80357090D01*
X74659922Y-80329139D01*
X74585912Y-80170423D01*
X74585910Y-80170420D01*
X74583589Y-80165442D01*
X74462301Y-79992224D01*
X74312776Y-79842699D01*
X74139558Y-79721411D01*
X74134580Y-79719090D01*
X74134577Y-79719088D01*
X73952892Y-79634367D01*
X73952891Y-79634366D01*
X73947910Y-79632044D01*
X73942602Y-79630622D01*
X73942600Y-79630621D01*
X73748970Y-79578738D01*
X73748968Y-79578738D01*
X73743655Y-79577314D01*
X73533000Y-79558884D01*
X73322345Y-79577314D01*
X73317032Y-79578738D01*
X73317030Y-79578738D01*
X73123400Y-79630621D01*
X73123398Y-79630622D01*
X73118090Y-79632044D01*
X73113109Y-79634366D01*
X73113108Y-79634367D01*
X72931423Y-79719088D01*
X72931420Y-79719090D01*
X72926442Y-79721411D01*
X72753224Y-79842699D01*
X72603699Y-79992224D01*
X72482411Y-80165442D01*
X72480090Y-80170420D01*
X72480088Y-80170423D01*
X72406078Y-80329139D01*
X72393044Y-80357090D01*
X72391622Y-80362398D01*
X72391621Y-80362400D01*
X72339738Y-80556030D01*
X72338314Y-80561345D01*
X72319884Y-80772000D01*
X61989427Y-80772000D01*
X61988022Y-76943402D01*
X91122000Y-76943402D01*
X91122212Y-76945975D01*
X91122212Y-76945986D01*
X91123727Y-76964407D01*
X91136678Y-77121937D01*
X91195206Y-77354944D01*
X91291003Y-77575263D01*
X91319085Y-77618671D01*
X91413298Y-77764301D01*
X91421498Y-77776977D01*
X91583186Y-77954670D01*
X91660017Y-78015347D01*
X91767670Y-78100367D01*
X91767675Y-78100370D01*
X91771724Y-78103568D01*
X91776240Y-78106061D01*
X91776243Y-78106063D01*
X91977526Y-78217177D01*
X91977530Y-78217179D01*
X91982050Y-78219674D01*
X91986919Y-78221398D01*
X91986923Y-78221400D01*
X92203640Y-78298144D01*
X92203644Y-78298145D01*
X92208515Y-78299870D01*
X92213608Y-78300777D01*
X92213611Y-78300778D01*
X92439948Y-78341095D01*
X92439954Y-78341096D01*
X92445037Y-78342001D01*
X92532400Y-78343068D01*
X92680093Y-78344873D01*
X92680095Y-78344873D01*
X92685263Y-78344936D01*
X92922744Y-78308596D01*
X93034997Y-78271906D01*
X93146183Y-78235566D01*
X93146189Y-78235563D01*
X93151101Y-78233958D01*
X93155687Y-78231571D01*
X93155691Y-78231569D01*
X93359607Y-78125416D01*
X93364200Y-78123025D01*
X93488516Y-78029686D01*
X93552185Y-77981882D01*
X93552188Y-77981880D01*
X93556320Y-77978777D01*
X93647719Y-77883134D01*
X96202000Y-77883134D01*
X96208755Y-77945316D01*
X96259885Y-78081705D01*
X96347239Y-78198261D01*
X96463795Y-78285615D01*
X96600184Y-78336745D01*
X96662366Y-78343500D01*
X98663634Y-78343500D01*
X98725816Y-78336745D01*
X98862205Y-78285615D01*
X98978761Y-78198261D01*
X99066115Y-78081705D01*
X99117245Y-77945316D01*
X99124000Y-77883134D01*
X99124000Y-76539151D01*
X142305296Y-76539151D01*
X142305520Y-76543817D01*
X142305520Y-76543822D01*
X142311033Y-76658579D01*
X142317480Y-76792798D01*
X142367021Y-77041857D01*
X142368600Y-77046255D01*
X142368602Y-77046262D01*
X142443508Y-77254892D01*
X142452831Y-77280858D01*
X142573025Y-77504551D01*
X142575820Y-77508294D01*
X142575822Y-77508297D01*
X142722171Y-77704282D01*
X142722176Y-77704288D01*
X142724963Y-77708020D01*
X142728272Y-77711300D01*
X142728277Y-77711306D01*
X142826859Y-77809031D01*
X142905307Y-77886797D01*
X142909069Y-77889555D01*
X142909072Y-77889558D01*
X143098241Y-78028262D01*
X143110094Y-78036953D01*
X143114229Y-78039129D01*
X143114233Y-78039131D01*
X143208812Y-78088891D01*
X143334827Y-78155191D01*
X143437601Y-78191081D01*
X143553541Y-78231569D01*
X143574568Y-78238912D01*
X143824050Y-78286278D01*
X143944532Y-78291011D01*
X144073125Y-78296064D01*
X144073130Y-78296064D01*
X144077793Y-78296247D01*
X144176774Y-78285407D01*
X144325569Y-78269112D01*
X144325575Y-78269111D01*
X144330222Y-78268602D01*
X144439680Y-78239784D01*
X144571273Y-78205138D01*
X144575793Y-78203948D01*
X144758583Y-78125416D01*
X144804807Y-78105557D01*
X144804810Y-78105555D01*
X144809110Y-78103708D01*
X144813090Y-78101245D01*
X144813094Y-78101243D01*
X145021064Y-77972547D01*
X145021066Y-77972545D01*
X145025047Y-77970082D01*
X145039470Y-77957872D01*
X145215289Y-77809031D01*
X145215291Y-77809029D01*
X145218862Y-77806006D01*
X145386295Y-77615084D01*
X145389396Y-77610264D01*
X145521141Y-77405442D01*
X145523669Y-77401512D01*
X145627967Y-77169980D01*
X145696896Y-76925575D01*
X145708419Y-76835000D01*
X178491884Y-76835000D01*
X178510314Y-77045655D01*
X178511738Y-77050968D01*
X178511738Y-77050970D01*
X178532099Y-77126956D01*
X178565044Y-77249910D01*
X178567366Y-77254891D01*
X178567367Y-77254892D01*
X178629768Y-77388710D01*
X178654411Y-77441558D01*
X178775699Y-77614776D01*
X178925224Y-77764301D01*
X179098442Y-77885589D01*
X179103420Y-77887910D01*
X179103423Y-77887912D01*
X179284924Y-77972547D01*
X179290090Y-77974956D01*
X179295398Y-77976378D01*
X179295400Y-77976379D01*
X179489030Y-78028262D01*
X179489032Y-78028262D01*
X179494345Y-78029686D01*
X179705000Y-78048116D01*
X179915655Y-78029686D01*
X179920968Y-78028262D01*
X179920970Y-78028262D01*
X180114600Y-77976379D01*
X180114602Y-77976378D01*
X180119910Y-77974956D01*
X180125076Y-77972547D01*
X180306577Y-77887912D01*
X180306580Y-77887910D01*
X180311558Y-77885589D01*
X180484776Y-77764301D01*
X180634301Y-77614776D01*
X180755589Y-77441558D01*
X180780233Y-77388710D01*
X180842633Y-77254892D01*
X180842634Y-77254891D01*
X180844956Y-77249910D01*
X180877902Y-77126956D01*
X180898262Y-77050970D01*
X180898262Y-77050968D01*
X180899686Y-77045655D01*
X180918116Y-76835000D01*
X186111884Y-76835000D01*
X186130314Y-77045655D01*
X186131738Y-77050968D01*
X186131738Y-77050970D01*
X186152099Y-77126956D01*
X186185044Y-77249910D01*
X186187366Y-77254891D01*
X186187367Y-77254892D01*
X186249768Y-77388710D01*
X186274411Y-77441558D01*
X186395699Y-77614776D01*
X186545224Y-77764301D01*
X186718442Y-77885589D01*
X186723420Y-77887910D01*
X186723423Y-77887912D01*
X186904924Y-77972547D01*
X186910090Y-77974956D01*
X186915398Y-77976378D01*
X186915400Y-77976379D01*
X187109030Y-78028262D01*
X187109032Y-78028262D01*
X187114345Y-78029686D01*
X187325000Y-78048116D01*
X187535655Y-78029686D01*
X187540968Y-78028262D01*
X187540970Y-78028262D01*
X187734600Y-77976379D01*
X187734602Y-77976378D01*
X187739910Y-77974956D01*
X187745076Y-77972547D01*
X187926577Y-77887912D01*
X187926580Y-77887910D01*
X187931558Y-77885589D01*
X188104776Y-77764301D01*
X188254301Y-77614776D01*
X188375589Y-77441558D01*
X188400233Y-77388710D01*
X188462633Y-77254892D01*
X188462634Y-77254891D01*
X188464956Y-77249910D01*
X188497902Y-77126956D01*
X188518262Y-77050970D01*
X188518262Y-77050968D01*
X188519686Y-77045655D01*
X188538116Y-76835000D01*
X194676758Y-76835000D01*
X194695696Y-77075634D01*
X194696850Y-77080441D01*
X194696851Y-77080447D01*
X194719371Y-77174248D01*
X194752045Y-77310343D01*
X194753938Y-77314914D01*
X194753939Y-77314916D01*
X194830782Y-77500431D01*
X194844416Y-77533347D01*
X194970536Y-77739156D01*
X195127299Y-77922701D01*
X195310844Y-78079464D01*
X195516653Y-78205584D01*
X195521223Y-78207477D01*
X195521227Y-78207479D01*
X195735084Y-78296061D01*
X195739657Y-78297955D01*
X195783980Y-78308596D01*
X195969553Y-78353149D01*
X195969559Y-78353150D01*
X195974366Y-78354304D01*
X196215000Y-78373242D01*
X196455634Y-78354304D01*
X196460441Y-78353150D01*
X196460447Y-78353149D01*
X196646020Y-78308596D01*
X196690343Y-78297955D01*
X196694916Y-78296061D01*
X196908773Y-78207479D01*
X196908777Y-78207477D01*
X196913347Y-78205584D01*
X197119156Y-78079464D01*
X197302701Y-77922701D01*
X197459464Y-77739156D01*
X197585584Y-77533347D01*
X197599219Y-77500431D01*
X197676061Y-77314916D01*
X197676062Y-77314914D01*
X197677955Y-77310343D01*
X197710629Y-77174248D01*
X197733149Y-77080447D01*
X197733150Y-77080441D01*
X197734304Y-77075634D01*
X197753242Y-76835000D01*
X197734304Y-76594366D01*
X197733150Y-76589559D01*
X197733149Y-76589553D01*
X197679110Y-76364469D01*
X197677955Y-76359657D01*
X197648505Y-76288558D01*
X197587479Y-76141227D01*
X197587477Y-76141223D01*
X197585584Y-76136653D01*
X197459464Y-75930844D01*
X197302701Y-75747299D01*
X197119156Y-75590536D01*
X196913347Y-75464416D01*
X196908777Y-75462523D01*
X196908773Y-75462521D01*
X196694916Y-75373939D01*
X196694914Y-75373938D01*
X196690343Y-75372045D01*
X196540327Y-75336029D01*
X196460447Y-75316851D01*
X196460441Y-75316850D01*
X196455634Y-75315696D01*
X196215000Y-75296758D01*
X195974366Y-75315696D01*
X195969559Y-75316850D01*
X195969553Y-75316851D01*
X195889673Y-75336029D01*
X195739657Y-75372045D01*
X195735086Y-75373938D01*
X195735084Y-75373939D01*
X195521227Y-75462521D01*
X195521223Y-75462523D01*
X195516653Y-75464416D01*
X195310844Y-75590536D01*
X195127299Y-75747299D01*
X194970536Y-75930844D01*
X194844416Y-76136653D01*
X194842523Y-76141223D01*
X194842521Y-76141227D01*
X194781495Y-76288558D01*
X194752045Y-76359657D01*
X194750890Y-76364469D01*
X194696851Y-76589553D01*
X194696850Y-76589559D01*
X194695696Y-76594366D01*
X194676758Y-76835000D01*
X188538116Y-76835000D01*
X188519686Y-76624345D01*
X188498110Y-76543822D01*
X188466379Y-76425400D01*
X188466378Y-76425398D01*
X188464956Y-76420090D01*
X188462633Y-76415108D01*
X188377912Y-76233423D01*
X188377910Y-76233420D01*
X188375589Y-76228442D01*
X188254301Y-76055224D01*
X188104776Y-75905699D01*
X187931558Y-75784411D01*
X187926580Y-75782090D01*
X187926577Y-75782088D01*
X187744892Y-75697367D01*
X187744891Y-75697366D01*
X187739910Y-75695044D01*
X187734602Y-75693622D01*
X187734600Y-75693621D01*
X187540970Y-75641738D01*
X187540968Y-75641738D01*
X187535655Y-75640314D01*
X187325000Y-75621884D01*
X187114345Y-75640314D01*
X187109032Y-75641738D01*
X187109030Y-75641738D01*
X186915400Y-75693621D01*
X186915398Y-75693622D01*
X186910090Y-75695044D01*
X186905109Y-75697366D01*
X186905108Y-75697367D01*
X186723423Y-75782088D01*
X186723420Y-75782090D01*
X186718442Y-75784411D01*
X186545224Y-75905699D01*
X186395699Y-76055224D01*
X186274411Y-76228442D01*
X186272090Y-76233420D01*
X186272088Y-76233423D01*
X186187367Y-76415108D01*
X186185044Y-76420090D01*
X186183622Y-76425398D01*
X186183621Y-76425400D01*
X186151890Y-76543822D01*
X186130314Y-76624345D01*
X186111884Y-76835000D01*
X180918116Y-76835000D01*
X180899686Y-76624345D01*
X180878110Y-76543822D01*
X180846379Y-76425400D01*
X180846378Y-76425398D01*
X180844956Y-76420090D01*
X180842633Y-76415108D01*
X180757912Y-76233423D01*
X180757910Y-76233420D01*
X180755589Y-76228442D01*
X180634301Y-76055224D01*
X180484776Y-75905699D01*
X180311558Y-75784411D01*
X180306580Y-75782090D01*
X180306577Y-75782088D01*
X180124892Y-75697367D01*
X180124891Y-75697366D01*
X180119910Y-75695044D01*
X180114602Y-75693622D01*
X180114600Y-75693621D01*
X179920970Y-75641738D01*
X179920968Y-75641738D01*
X179915655Y-75640314D01*
X179705000Y-75621884D01*
X179494345Y-75640314D01*
X179489032Y-75641738D01*
X179489030Y-75641738D01*
X179295400Y-75693621D01*
X179295398Y-75693622D01*
X179290090Y-75695044D01*
X179285109Y-75697366D01*
X179285108Y-75697367D01*
X179103423Y-75782088D01*
X179103420Y-75782090D01*
X179098442Y-75784411D01*
X178925224Y-75905699D01*
X178775699Y-76055224D01*
X178654411Y-76228442D01*
X178652090Y-76233420D01*
X178652088Y-76233423D01*
X178567367Y-76415108D01*
X178565044Y-76420090D01*
X178563622Y-76425398D01*
X178563621Y-76425400D01*
X178531890Y-76543822D01*
X178510314Y-76624345D01*
X178491884Y-76835000D01*
X145708419Y-76835000D01*
X145721447Y-76732589D01*
X145728545Y-76676798D01*
X145728545Y-76676792D01*
X145728943Y-76673667D01*
X145731291Y-76584000D01*
X145728305Y-76543822D01*
X145712818Y-76335411D01*
X145712817Y-76335407D01*
X145712472Y-76330759D01*
X145707847Y-76310317D01*
X145657459Y-76087639D01*
X145656428Y-76083082D01*
X145647349Y-76059736D01*
X145566084Y-75850762D01*
X145566083Y-75850760D01*
X145564391Y-75846409D01*
X145543866Y-75810498D01*
X145440702Y-75629997D01*
X145440700Y-75629995D01*
X145438383Y-75625940D01*
X145281171Y-75426517D01*
X145143645Y-75297146D01*
X145099610Y-75255722D01*
X145099608Y-75255720D01*
X145096209Y-75252523D01*
X145052483Y-75222189D01*
X144891393Y-75110437D01*
X144891390Y-75110435D01*
X144887561Y-75107779D01*
X144883384Y-75105719D01*
X144883377Y-75105715D01*
X144663996Y-74997528D01*
X144663992Y-74997527D01*
X144659810Y-74995464D01*
X144417960Y-74918047D01*
X144413355Y-74917297D01*
X144171935Y-74877980D01*
X144171934Y-74877980D01*
X144167323Y-74877229D01*
X144040364Y-74875567D01*
X143918083Y-74873966D01*
X143918080Y-74873966D01*
X143913406Y-74873905D01*
X143661787Y-74908149D01*
X143417993Y-74979208D01*
X143187380Y-75085522D01*
X143183471Y-75088085D01*
X142978928Y-75222189D01*
X142978923Y-75222193D01*
X142975015Y-75224755D01*
X142927583Y-75267090D01*
X142822789Y-75360622D01*
X142785562Y-75393848D01*
X142623183Y-75589087D01*
X142491447Y-75806182D01*
X142489638Y-75810496D01*
X142489637Y-75810498D01*
X142453212Y-75897363D01*
X142393246Y-76040365D01*
X142392095Y-76044897D01*
X142392094Y-76044900D01*
X142388326Y-76059736D01*
X142330738Y-76286490D01*
X142305296Y-76539151D01*
X99124000Y-76539151D01*
X99124000Y-75786866D01*
X99117245Y-75724684D01*
X99066115Y-75588295D01*
X98978761Y-75471739D01*
X98862205Y-75384385D01*
X98725816Y-75333255D01*
X98663634Y-75326500D01*
X96662366Y-75326500D01*
X96600184Y-75333255D01*
X96463795Y-75384385D01*
X96347239Y-75471739D01*
X96259885Y-75588295D01*
X96208755Y-75724684D01*
X96202000Y-75786866D01*
X96202000Y-77883134D01*
X93647719Y-77883134D01*
X93722301Y-77805088D01*
X93857686Y-77606622D01*
X93872243Y-77575263D01*
X93956658Y-77393405D01*
X93956659Y-77393401D01*
X93958837Y-77388710D01*
X94023040Y-77157202D01*
X94035367Y-77041857D01*
X94043644Y-76964407D01*
X94043644Y-76964399D01*
X94044000Y-76961072D01*
X94044000Y-76726598D01*
X94042824Y-76712285D01*
X94032536Y-76587160D01*
X94029322Y-76548063D01*
X93974738Y-76330759D01*
X93972053Y-76320068D01*
X93972053Y-76320067D01*
X93970794Y-76315056D01*
X93874997Y-76094737D01*
X93766538Y-75927085D01*
X93747310Y-75897363D01*
X93747308Y-75897360D01*
X93744502Y-75893023D01*
X93582814Y-75715330D01*
X93487221Y-75639835D01*
X93398330Y-75569633D01*
X93398325Y-75569630D01*
X93394276Y-75566432D01*
X93389760Y-75563939D01*
X93389757Y-75563937D01*
X93188474Y-75452823D01*
X93188470Y-75452821D01*
X93183950Y-75450326D01*
X93179081Y-75448602D01*
X93179077Y-75448600D01*
X92962360Y-75371856D01*
X92962356Y-75371855D01*
X92957485Y-75370130D01*
X92952392Y-75369223D01*
X92952389Y-75369222D01*
X92726052Y-75328905D01*
X92726046Y-75328904D01*
X92720963Y-75327999D01*
X92628474Y-75326869D01*
X92485907Y-75325127D01*
X92485905Y-75325127D01*
X92480737Y-75325064D01*
X92243256Y-75361404D01*
X92143993Y-75393848D01*
X92019817Y-75434434D01*
X92019811Y-75434437D01*
X92014899Y-75436042D01*
X92010313Y-75438429D01*
X92010309Y-75438431D01*
X91806393Y-75544584D01*
X91801800Y-75546975D01*
X91779209Y-75563937D01*
X91614672Y-75687475D01*
X91609680Y-75691223D01*
X91443699Y-75864912D01*
X91308314Y-76063378D01*
X91306140Y-76068061D01*
X91306138Y-76068065D01*
X91233785Y-76223937D01*
X91207163Y-76281290D01*
X91142960Y-76512798D01*
X91142411Y-76517935D01*
X91125434Y-76676798D01*
X91122000Y-76708928D01*
X91122000Y-76943402D01*
X61988022Y-76943402D01*
X61987708Y-76087639D01*
X61987559Y-75682000D01*
X72319884Y-75682000D01*
X72338314Y-75892655D01*
X72339738Y-75897968D01*
X72339738Y-75897970D01*
X72380831Y-76051329D01*
X72393044Y-76096910D01*
X72395366Y-76101891D01*
X72395367Y-76101892D01*
X72476833Y-76276595D01*
X72482411Y-76288558D01*
X72603699Y-76461776D01*
X72753224Y-76611301D01*
X72926442Y-76732589D01*
X72931420Y-76734910D01*
X72931423Y-76734912D01*
X73113108Y-76819633D01*
X73118090Y-76821956D01*
X73123398Y-76823378D01*
X73123400Y-76823379D01*
X73317030Y-76875262D01*
X73317032Y-76875262D01*
X73322345Y-76876686D01*
X73533000Y-76895116D01*
X73743655Y-76876686D01*
X73748968Y-76875262D01*
X73748970Y-76875262D01*
X73942600Y-76823379D01*
X73942602Y-76823378D01*
X73947910Y-76821956D01*
X73952892Y-76819633D01*
X74134577Y-76734912D01*
X74134580Y-76734910D01*
X74139558Y-76732589D01*
X74312776Y-76611301D01*
X74462301Y-76461776D01*
X74583589Y-76288558D01*
X74589168Y-76276595D01*
X74670633Y-76101892D01*
X74670634Y-76101891D01*
X74672956Y-76096910D01*
X74685170Y-76051329D01*
X74726262Y-75897970D01*
X74726262Y-75897968D01*
X74727686Y-75892655D01*
X74746116Y-75682000D01*
X74727686Y-75471345D01*
X74726262Y-75466030D01*
X74674379Y-75272400D01*
X74674378Y-75272398D01*
X74672956Y-75267090D01*
X74666163Y-75252523D01*
X74585912Y-75080423D01*
X74585910Y-75080420D01*
X74583589Y-75075442D01*
X74462301Y-74902224D01*
X74312776Y-74752699D01*
X74139558Y-74631411D01*
X74134580Y-74629090D01*
X74134577Y-74629088D01*
X73952892Y-74544367D01*
X73952891Y-74544366D01*
X73947910Y-74542044D01*
X73942602Y-74540622D01*
X73942600Y-74540621D01*
X73748970Y-74488738D01*
X73748968Y-74488738D01*
X73743655Y-74487314D01*
X73533000Y-74468884D01*
X73322345Y-74487314D01*
X73317032Y-74488738D01*
X73317030Y-74488738D01*
X73123400Y-74540621D01*
X73123398Y-74540622D01*
X73118090Y-74542044D01*
X73113109Y-74544366D01*
X73113108Y-74544367D01*
X72931423Y-74629088D01*
X72931420Y-74629090D01*
X72926442Y-74631411D01*
X72753224Y-74752699D01*
X72603699Y-74902224D01*
X72482411Y-75075442D01*
X72480090Y-75080420D01*
X72480088Y-75080423D01*
X72399837Y-75252523D01*
X72393044Y-75267090D01*
X72391622Y-75272398D01*
X72391621Y-75272400D01*
X72339738Y-75466030D01*
X72338314Y-75471345D01*
X72319884Y-75682000D01*
X61987559Y-75682000D01*
X61986703Y-73350000D01*
X64511758Y-73350000D01*
X64530696Y-73590634D01*
X64531850Y-73595441D01*
X64531851Y-73595447D01*
X64567267Y-73742961D01*
X64587045Y-73825343D01*
X64588938Y-73829914D01*
X64588939Y-73829916D01*
X64676594Y-74041533D01*
X64679416Y-74048347D01*
X64805536Y-74254156D01*
X64962299Y-74437701D01*
X65145844Y-74594464D01*
X65351653Y-74720584D01*
X65356223Y-74722477D01*
X65356227Y-74722479D01*
X65570084Y-74811061D01*
X65574657Y-74812955D01*
X65657039Y-74832733D01*
X65804553Y-74868149D01*
X65804559Y-74868150D01*
X65809366Y-74869304D01*
X66050000Y-74888242D01*
X66290634Y-74869304D01*
X66295441Y-74868150D01*
X66295447Y-74868149D01*
X66442961Y-74832733D01*
X66525343Y-74812955D01*
X66529916Y-74811061D01*
X66743773Y-74722479D01*
X66743777Y-74722477D01*
X66748347Y-74720584D01*
X66954156Y-74594464D01*
X67137701Y-74437701D01*
X67294464Y-74254156D01*
X67420584Y-74048347D01*
X67423407Y-74041533D01*
X67511061Y-73829916D01*
X67511062Y-73829914D01*
X67512955Y-73825343D01*
X67527702Y-73763918D01*
X109111917Y-73763918D01*
X109127682Y-74037320D01*
X109128507Y-74041525D01*
X109128508Y-74041533D01*
X109129845Y-74048347D01*
X109180405Y-74306053D01*
X109181792Y-74310103D01*
X109181793Y-74310108D01*
X109242952Y-74488738D01*
X109269112Y-74565144D01*
X109392160Y-74809799D01*
X109394586Y-74813328D01*
X109394589Y-74813334D01*
X109466557Y-74918047D01*
X109547274Y-75035490D01*
X109550161Y-75038663D01*
X109550162Y-75038664D01*
X109615470Y-75110437D01*
X109731582Y-75238043D01*
X109734877Y-75240798D01*
X109734878Y-75240799D01*
X109766322Y-75267090D01*
X109941675Y-75413707D01*
X109945316Y-75415991D01*
X110170024Y-75556951D01*
X110170028Y-75556953D01*
X110173664Y-75559234D01*
X110298460Y-75615582D01*
X110419345Y-75670164D01*
X110419349Y-75670166D01*
X110423257Y-75671930D01*
X110427377Y-75673150D01*
X110427376Y-75673150D01*
X110681723Y-75748491D01*
X110681727Y-75748492D01*
X110685836Y-75749709D01*
X110690070Y-75750357D01*
X110690075Y-75750358D01*
X110952298Y-75790483D01*
X110952300Y-75790483D01*
X110956540Y-75791132D01*
X111095912Y-75793322D01*
X111226071Y-75795367D01*
X111226077Y-75795367D01*
X111230362Y-75795434D01*
X111502235Y-75762534D01*
X111767127Y-75693041D01*
X111771087Y-75691401D01*
X111771092Y-75691399D01*
X111937978Y-75622272D01*
X112020136Y-75588241D01*
X112207218Y-75478919D01*
X112252879Y-75452237D01*
X112252880Y-75452236D01*
X112256582Y-75450073D01*
X112472089Y-75281094D01*
X112496677Y-75255722D01*
X112659686Y-75087509D01*
X112662669Y-75084431D01*
X112665202Y-75080983D01*
X112665206Y-75080978D01*
X112822257Y-74867178D01*
X112824795Y-74863723D01*
X112853388Y-74811061D01*
X112953418Y-74626830D01*
X112953419Y-74626828D01*
X112955468Y-74623054D01*
X113052269Y-74366877D01*
X113113407Y-74099933D01*
X113117635Y-74052567D01*
X113137531Y-73829627D01*
X113137531Y-73829625D01*
X113137751Y-73827161D01*
X113138193Y-73785000D01*
X113136756Y-73763918D01*
X119111917Y-73763918D01*
X119127682Y-74037320D01*
X119128507Y-74041525D01*
X119128508Y-74041533D01*
X119129845Y-74048347D01*
X119180405Y-74306053D01*
X119181792Y-74310103D01*
X119181793Y-74310108D01*
X119242952Y-74488738D01*
X119269112Y-74565144D01*
X119392160Y-74809799D01*
X119394586Y-74813328D01*
X119394589Y-74813334D01*
X119466557Y-74918047D01*
X119547274Y-75035490D01*
X119550161Y-75038663D01*
X119550162Y-75038664D01*
X119615470Y-75110437D01*
X119731582Y-75238043D01*
X119734877Y-75240798D01*
X119734878Y-75240799D01*
X119766322Y-75267090D01*
X119941675Y-75413707D01*
X119945316Y-75415991D01*
X120170024Y-75556951D01*
X120170028Y-75556953D01*
X120173664Y-75559234D01*
X120298460Y-75615582D01*
X120419345Y-75670164D01*
X120419349Y-75670166D01*
X120423257Y-75671930D01*
X120427377Y-75673150D01*
X120427376Y-75673150D01*
X120681723Y-75748491D01*
X120681727Y-75748492D01*
X120685836Y-75749709D01*
X120690070Y-75750357D01*
X120690075Y-75750358D01*
X120952298Y-75790483D01*
X120952300Y-75790483D01*
X120956540Y-75791132D01*
X121095912Y-75793322D01*
X121226071Y-75795367D01*
X121226077Y-75795367D01*
X121230362Y-75795434D01*
X121502235Y-75762534D01*
X121767127Y-75693041D01*
X121771087Y-75691401D01*
X121771092Y-75691399D01*
X121937978Y-75622272D01*
X122020136Y-75588241D01*
X122207218Y-75478919D01*
X122252879Y-75452237D01*
X122252880Y-75452236D01*
X122256582Y-75450073D01*
X122472089Y-75281094D01*
X122496677Y-75255722D01*
X122659686Y-75087509D01*
X122662669Y-75084431D01*
X122665202Y-75080983D01*
X122665206Y-75080978D01*
X122822257Y-74867178D01*
X122824795Y-74863723D01*
X122853388Y-74811061D01*
X122953418Y-74626830D01*
X122953419Y-74626828D01*
X122955468Y-74623054D01*
X123052269Y-74366877D01*
X123113407Y-74099933D01*
X123117635Y-74052567D01*
X123137531Y-73829627D01*
X123137531Y-73829625D01*
X123137751Y-73827161D01*
X123138193Y-73785000D01*
X123124943Y-73590634D01*
X123119859Y-73516055D01*
X123119858Y-73516049D01*
X123119567Y-73511778D01*
X123064032Y-73243612D01*
X122972617Y-72985465D01*
X122847013Y-72742112D01*
X122837040Y-72727921D01*
X122705152Y-72540264D01*
X122689545Y-72518057D01*
X122503125Y-72317445D01*
X122499810Y-72314731D01*
X122499806Y-72314728D01*
X122341177Y-72184892D01*
X122291205Y-72143990D01*
X122057704Y-72000901D01*
X122053768Y-71999173D01*
X121810873Y-71892549D01*
X121810869Y-71892548D01*
X121806945Y-71890825D01*
X121543566Y-71815800D01*
X121539324Y-71815196D01*
X121539318Y-71815195D01*
X121338834Y-71786662D01*
X121272443Y-71777213D01*
X121128589Y-71776460D01*
X121002877Y-71775802D01*
X121002871Y-71775802D01*
X120998591Y-71775780D01*
X120994347Y-71776339D01*
X120994343Y-71776339D01*
X120875302Y-71792011D01*
X120727078Y-71811525D01*
X120722938Y-71812658D01*
X120722936Y-71812658D01*
X120679148Y-71824637D01*
X120462928Y-71883788D01*
X120458980Y-71885472D01*
X120214982Y-71989546D01*
X120214978Y-71989548D01*
X120211030Y-71991232D01*
X120191125Y-72003145D01*
X119979725Y-72129664D01*
X119979721Y-72129667D01*
X119976043Y-72131868D01*
X119762318Y-72303094D01*
X119573808Y-72501742D01*
X119414002Y-72724136D01*
X119285857Y-72966161D01*
X119284385Y-72970184D01*
X119284383Y-72970188D01*
X119277314Y-72989506D01*
X119191743Y-73223337D01*
X119133404Y-73490907D01*
X119111917Y-73763918D01*
X113136756Y-73763918D01*
X113124943Y-73590634D01*
X113119859Y-73516055D01*
X113119858Y-73516049D01*
X113119567Y-73511778D01*
X113064032Y-73243612D01*
X112972617Y-72985465D01*
X112847013Y-72742112D01*
X112837040Y-72727921D01*
X112705152Y-72540264D01*
X112689545Y-72518057D01*
X112503125Y-72317445D01*
X112499810Y-72314731D01*
X112499806Y-72314728D01*
X112341177Y-72184892D01*
X112291205Y-72143990D01*
X112057704Y-72000901D01*
X112053768Y-71999173D01*
X111810873Y-71892549D01*
X111810869Y-71892548D01*
X111806945Y-71890825D01*
X111543566Y-71815800D01*
X111539324Y-71815196D01*
X111539318Y-71815195D01*
X111338834Y-71786662D01*
X111272443Y-71777213D01*
X111128589Y-71776460D01*
X111002877Y-71775802D01*
X111002871Y-71775802D01*
X110998591Y-71775780D01*
X110994347Y-71776339D01*
X110994343Y-71776339D01*
X110875302Y-71792011D01*
X110727078Y-71811525D01*
X110722938Y-71812658D01*
X110722936Y-71812658D01*
X110679148Y-71824637D01*
X110462928Y-71883788D01*
X110458980Y-71885472D01*
X110214982Y-71989546D01*
X110214978Y-71989548D01*
X110211030Y-71991232D01*
X110191125Y-72003145D01*
X109979725Y-72129664D01*
X109979721Y-72129667D01*
X109976043Y-72131868D01*
X109762318Y-72303094D01*
X109573808Y-72501742D01*
X109414002Y-72724136D01*
X109285857Y-72966161D01*
X109284385Y-72970184D01*
X109284383Y-72970188D01*
X109277314Y-72989506D01*
X109191743Y-73223337D01*
X109133404Y-73490907D01*
X109111917Y-73763918D01*
X67527702Y-73763918D01*
X67532733Y-73742961D01*
X67568149Y-73595447D01*
X67568150Y-73595441D01*
X67569304Y-73590634D01*
X67588242Y-73350000D01*
X67569304Y-73109366D01*
X67568150Y-73104559D01*
X67568149Y-73104553D01*
X67515769Y-72886379D01*
X67512955Y-72874657D01*
X67489451Y-72817912D01*
X67422479Y-72656227D01*
X67422477Y-72656223D01*
X67420584Y-72651653D01*
X67294464Y-72445844D01*
X67137701Y-72262299D01*
X66954156Y-72105536D01*
X66748347Y-71979416D01*
X66743777Y-71977523D01*
X66743773Y-71977521D01*
X66529916Y-71888939D01*
X66529914Y-71888938D01*
X66525343Y-71887045D01*
X66442961Y-71867267D01*
X66295447Y-71831851D01*
X66295441Y-71831850D01*
X66290634Y-71830696D01*
X66050000Y-71811758D01*
X65809366Y-71830696D01*
X65804559Y-71831850D01*
X65804553Y-71831851D01*
X65657039Y-71867267D01*
X65574657Y-71887045D01*
X65570086Y-71888938D01*
X65570084Y-71888939D01*
X65356227Y-71977521D01*
X65356223Y-71977523D01*
X65351653Y-71979416D01*
X65145844Y-72105536D01*
X64962299Y-72262299D01*
X64805536Y-72445844D01*
X64679416Y-72651653D01*
X64677523Y-72656223D01*
X64677521Y-72656227D01*
X64610549Y-72817912D01*
X64587045Y-72874657D01*
X64584231Y-72886379D01*
X64531851Y-73104553D01*
X64531850Y-73104559D01*
X64530696Y-73109366D01*
X64511758Y-73350000D01*
X61986703Y-73350000D01*
X61985698Y-70612000D01*
X72319884Y-70612000D01*
X72338314Y-70822655D01*
X72339738Y-70827968D01*
X72339738Y-70827970D01*
X72380831Y-70981329D01*
X72393044Y-71026910D01*
X72395366Y-71031891D01*
X72395367Y-71031892D01*
X72452278Y-71153937D01*
X72482411Y-71218558D01*
X72603699Y-71391776D01*
X72753224Y-71541301D01*
X72926442Y-71662589D01*
X72931420Y-71664910D01*
X72931423Y-71664912D01*
X73113108Y-71749633D01*
X73118090Y-71751956D01*
X73123398Y-71753378D01*
X73123400Y-71753379D01*
X73317030Y-71805262D01*
X73317032Y-71805262D01*
X73322345Y-71806686D01*
X73533000Y-71825116D01*
X73743655Y-71806686D01*
X73748968Y-71805262D01*
X73748970Y-71805262D01*
X73942600Y-71753379D01*
X73942602Y-71753378D01*
X73947910Y-71751956D01*
X73952892Y-71749633D01*
X74134577Y-71664912D01*
X74134580Y-71664910D01*
X74139558Y-71662589D01*
X74312776Y-71541301D01*
X74462301Y-71391776D01*
X74583589Y-71218558D01*
X74613723Y-71153937D01*
X74670633Y-71031892D01*
X74670634Y-71031891D01*
X74672956Y-71026910D01*
X74685170Y-70981329D01*
X74726262Y-70827970D01*
X74726262Y-70827968D01*
X74727686Y-70822655D01*
X74746116Y-70612000D01*
X79939884Y-70612000D01*
X79958314Y-70822655D01*
X79959738Y-70827968D01*
X79959738Y-70827970D01*
X80000831Y-70981329D01*
X80013044Y-71026910D01*
X80015366Y-71031891D01*
X80015367Y-71031892D01*
X80072278Y-71153937D01*
X80102411Y-71218558D01*
X80223699Y-71391776D01*
X80373224Y-71541301D01*
X80546442Y-71662589D01*
X80551420Y-71664910D01*
X80551423Y-71664912D01*
X80733108Y-71749633D01*
X80738090Y-71751956D01*
X80743398Y-71753378D01*
X80743400Y-71753379D01*
X80937030Y-71805262D01*
X80937032Y-71805262D01*
X80942345Y-71806686D01*
X81153000Y-71825116D01*
X81363655Y-71806686D01*
X81368968Y-71805262D01*
X81368970Y-71805262D01*
X81562600Y-71753379D01*
X81562602Y-71753378D01*
X81567910Y-71751956D01*
X81572892Y-71749633D01*
X81582828Y-71745000D01*
X178481884Y-71745000D01*
X178500314Y-71955655D01*
X178501738Y-71960968D01*
X178501738Y-71960970D01*
X178546940Y-72129664D01*
X178555044Y-72159910D01*
X178557366Y-72164891D01*
X178557367Y-72164892D01*
X178620564Y-72300417D01*
X178644411Y-72351558D01*
X178765699Y-72524776D01*
X178915224Y-72674301D01*
X179088442Y-72795589D01*
X179093420Y-72797910D01*
X179093423Y-72797912D01*
X179268323Y-72879469D01*
X179280090Y-72884956D01*
X179285398Y-72886378D01*
X179285400Y-72886379D01*
X179479030Y-72938262D01*
X179479032Y-72938262D01*
X179484345Y-72939686D01*
X179695000Y-72958116D01*
X179905655Y-72939686D01*
X179910968Y-72938262D01*
X179910970Y-72938262D01*
X180104600Y-72886379D01*
X180104602Y-72886378D01*
X180109910Y-72884956D01*
X180121677Y-72879469D01*
X180296577Y-72797912D01*
X180296580Y-72797910D01*
X180301558Y-72795589D01*
X180474776Y-72674301D01*
X180624301Y-72524776D01*
X180745589Y-72351558D01*
X180769437Y-72300417D01*
X180832633Y-72164892D01*
X180832634Y-72164891D01*
X180834956Y-72159910D01*
X180843061Y-72129664D01*
X180888262Y-71960970D01*
X180888262Y-71960968D01*
X180889686Y-71955655D01*
X180906366Y-71765000D01*
X186111884Y-71765000D01*
X186130314Y-71975655D01*
X186131738Y-71980968D01*
X186131738Y-71980970D01*
X186171581Y-72129664D01*
X186185044Y-72179910D01*
X186187366Y-72184891D01*
X186187367Y-72184892D01*
X186267186Y-72356063D01*
X186274411Y-72371558D01*
X186395699Y-72544776D01*
X186545224Y-72694301D01*
X186718442Y-72815589D01*
X186723420Y-72817910D01*
X186723423Y-72817912D01*
X186905108Y-72902633D01*
X186910090Y-72904956D01*
X186915398Y-72906378D01*
X186915400Y-72906379D01*
X187109030Y-72958262D01*
X187109032Y-72958262D01*
X187114345Y-72959686D01*
X187325000Y-72978116D01*
X187535655Y-72959686D01*
X187540968Y-72958262D01*
X187540970Y-72958262D01*
X187734600Y-72906379D01*
X187734602Y-72906378D01*
X187739910Y-72904956D01*
X187744892Y-72902633D01*
X187926577Y-72817912D01*
X187926580Y-72817910D01*
X187931558Y-72815589D01*
X188104776Y-72694301D01*
X188254301Y-72544776D01*
X188375589Y-72371558D01*
X188382815Y-72356063D01*
X188462633Y-72184892D01*
X188462634Y-72184891D01*
X188464956Y-72179910D01*
X188478420Y-72129664D01*
X188518262Y-71980970D01*
X188518262Y-71980968D01*
X188519686Y-71975655D01*
X188538116Y-71765000D01*
X188519686Y-71554345D01*
X188516191Y-71541301D01*
X188466379Y-71355400D01*
X188466378Y-71355398D01*
X188464956Y-71350090D01*
X188453307Y-71325108D01*
X188377912Y-71163423D01*
X188377910Y-71163420D01*
X188375589Y-71158442D01*
X188254301Y-70985224D01*
X188104776Y-70835699D01*
X187931558Y-70714411D01*
X187926580Y-70712090D01*
X187926577Y-70712088D01*
X187744892Y-70627367D01*
X187744891Y-70627366D01*
X187739910Y-70625044D01*
X187734602Y-70623622D01*
X187734600Y-70623621D01*
X187540970Y-70571738D01*
X187540968Y-70571738D01*
X187535655Y-70570314D01*
X187325000Y-70551884D01*
X187114345Y-70570314D01*
X187109032Y-70571738D01*
X187109030Y-70571738D01*
X186915400Y-70623621D01*
X186915398Y-70623622D01*
X186910090Y-70625044D01*
X186905109Y-70627366D01*
X186905108Y-70627367D01*
X186723423Y-70712088D01*
X186723420Y-70712090D01*
X186718442Y-70714411D01*
X186545224Y-70835699D01*
X186395699Y-70985224D01*
X186274411Y-71158442D01*
X186272090Y-71163420D01*
X186272088Y-71163423D01*
X186196693Y-71325108D01*
X186185044Y-71350090D01*
X186183622Y-71355398D01*
X186183621Y-71355400D01*
X186133809Y-71541301D01*
X186130314Y-71554345D01*
X186111884Y-71765000D01*
X180906366Y-71765000D01*
X180908116Y-71745000D01*
X180889686Y-71534345D01*
X180888262Y-71529030D01*
X180836379Y-71335400D01*
X180836378Y-71335398D01*
X180834956Y-71330090D01*
X180832633Y-71325108D01*
X180747912Y-71143423D01*
X180747910Y-71143420D01*
X180745589Y-71138442D01*
X180624301Y-70965224D01*
X180474776Y-70815699D01*
X180301558Y-70694411D01*
X180296580Y-70692090D01*
X180296577Y-70692088D01*
X180114892Y-70607367D01*
X180114891Y-70607366D01*
X180109910Y-70605044D01*
X180104602Y-70603622D01*
X180104600Y-70603621D01*
X179910970Y-70551738D01*
X179910968Y-70551738D01*
X179905655Y-70550314D01*
X179695000Y-70531884D01*
X179484345Y-70550314D01*
X179479032Y-70551738D01*
X179479030Y-70551738D01*
X179285400Y-70603621D01*
X179285398Y-70603622D01*
X179280090Y-70605044D01*
X179275109Y-70607366D01*
X179275108Y-70607367D01*
X179093423Y-70692088D01*
X179093420Y-70692090D01*
X179088442Y-70694411D01*
X178915224Y-70815699D01*
X178765699Y-70965224D01*
X178644411Y-71138442D01*
X178642090Y-71143420D01*
X178642088Y-71143423D01*
X178557367Y-71325108D01*
X178555044Y-71330090D01*
X178553622Y-71335398D01*
X178553621Y-71335400D01*
X178501738Y-71529030D01*
X178500314Y-71534345D01*
X178481884Y-71745000D01*
X81582828Y-71745000D01*
X81754577Y-71664912D01*
X81754580Y-71664910D01*
X81759558Y-71662589D01*
X81932776Y-71541301D01*
X82082301Y-71391776D01*
X82203589Y-71218558D01*
X82233723Y-71153937D01*
X82290633Y-71031892D01*
X82290634Y-71031891D01*
X82292956Y-71026910D01*
X82305170Y-70981329D01*
X82346262Y-70827970D01*
X82346262Y-70827968D01*
X82347686Y-70822655D01*
X82366116Y-70612000D01*
X82347686Y-70401345D01*
X82334261Y-70351243D01*
X82294379Y-70202400D01*
X82294378Y-70202398D01*
X82292956Y-70197090D01*
X82290633Y-70192108D01*
X82205912Y-70010423D01*
X82205910Y-70010420D01*
X82203589Y-70005442D01*
X82082301Y-69832224D01*
X81932776Y-69682699D01*
X81759558Y-69561411D01*
X81754580Y-69559090D01*
X81754577Y-69559088D01*
X81572892Y-69474367D01*
X81572891Y-69474366D01*
X81567910Y-69472044D01*
X81562602Y-69470622D01*
X81562600Y-69470621D01*
X81368970Y-69418738D01*
X81368968Y-69418738D01*
X81363655Y-69417314D01*
X81153000Y-69398884D01*
X80942345Y-69417314D01*
X80937032Y-69418738D01*
X80937030Y-69418738D01*
X80743400Y-69470621D01*
X80743398Y-69470622D01*
X80738090Y-69472044D01*
X80733109Y-69474366D01*
X80733108Y-69474367D01*
X80551423Y-69559088D01*
X80551420Y-69559090D01*
X80546442Y-69561411D01*
X80373224Y-69682699D01*
X80223699Y-69832224D01*
X80102411Y-70005442D01*
X80100090Y-70010420D01*
X80100088Y-70010423D01*
X80015367Y-70192108D01*
X80013044Y-70197090D01*
X80011622Y-70202398D01*
X80011621Y-70202400D01*
X79971739Y-70351243D01*
X79958314Y-70401345D01*
X79939884Y-70612000D01*
X74746116Y-70612000D01*
X74727686Y-70401345D01*
X74714261Y-70351243D01*
X74674379Y-70202400D01*
X74674378Y-70202398D01*
X74672956Y-70197090D01*
X74670633Y-70192108D01*
X74585912Y-70010423D01*
X74585910Y-70010420D01*
X74583589Y-70005442D01*
X74462301Y-69832224D01*
X74312776Y-69682699D01*
X74139558Y-69561411D01*
X74134580Y-69559090D01*
X74134577Y-69559088D01*
X73952892Y-69474367D01*
X73952891Y-69474366D01*
X73947910Y-69472044D01*
X73942602Y-69470622D01*
X73942600Y-69470621D01*
X73748970Y-69418738D01*
X73748968Y-69418738D01*
X73743655Y-69417314D01*
X73533000Y-69398884D01*
X73322345Y-69417314D01*
X73317032Y-69418738D01*
X73317030Y-69418738D01*
X73123400Y-69470621D01*
X73123398Y-69470622D01*
X73118090Y-69472044D01*
X73113109Y-69474366D01*
X73113108Y-69474367D01*
X72931423Y-69559088D01*
X72931420Y-69559090D01*
X72926442Y-69561411D01*
X72753224Y-69682699D01*
X72603699Y-69832224D01*
X72482411Y-70005442D01*
X72480090Y-70010420D01*
X72480088Y-70010423D01*
X72395367Y-70192108D01*
X72393044Y-70197090D01*
X72391622Y-70202398D01*
X72391621Y-70202400D01*
X72351739Y-70351243D01*
X72338314Y-70401345D01*
X72319884Y-70612000D01*
X61985698Y-70612000D01*
X61985029Y-68789151D01*
X142305296Y-68789151D01*
X142317480Y-69042798D01*
X142367021Y-69291857D01*
X142368600Y-69296255D01*
X142368602Y-69296262D01*
X142412576Y-69418738D01*
X142452831Y-69530858D01*
X142455048Y-69534984D01*
X142536511Y-69686594D01*
X142573025Y-69754551D01*
X142575820Y-69758294D01*
X142575822Y-69758297D01*
X142722171Y-69954282D01*
X142722176Y-69954288D01*
X142724963Y-69958020D01*
X142728272Y-69961300D01*
X142728277Y-69961306D01*
X142826859Y-70059031D01*
X142905307Y-70136797D01*
X142909069Y-70139555D01*
X142909072Y-70139558D01*
X142987536Y-70197090D01*
X143110094Y-70286953D01*
X143114229Y-70289129D01*
X143114233Y-70289131D01*
X143232289Y-70351243D01*
X143334827Y-70405191D01*
X143574568Y-70488912D01*
X143824050Y-70536278D01*
X143944532Y-70541011D01*
X144073125Y-70546064D01*
X144073130Y-70546064D01*
X144077793Y-70546247D01*
X144176774Y-70535407D01*
X144325569Y-70519112D01*
X144325575Y-70519111D01*
X144330222Y-70518602D01*
X144439680Y-70489784D01*
X144571273Y-70455138D01*
X144575793Y-70453948D01*
X144710602Y-70396030D01*
X144804807Y-70355557D01*
X144804810Y-70355555D01*
X144809110Y-70353708D01*
X144813090Y-70351245D01*
X144813094Y-70351243D01*
X145021064Y-70222547D01*
X145021066Y-70222545D01*
X145025047Y-70220082D01*
X145045934Y-70202400D01*
X145215289Y-70059031D01*
X145215291Y-70059029D01*
X145218862Y-70056006D01*
X145386295Y-69865084D01*
X145407432Y-69832224D01*
X145488275Y-69706539D01*
X145523669Y-69651512D01*
X145627967Y-69419980D01*
X145696896Y-69175575D01*
X145728943Y-68923667D01*
X145731291Y-68834000D01*
X145712472Y-68580759D01*
X145656428Y-68333082D01*
X145602011Y-68193149D01*
X145566084Y-68100762D01*
X145566083Y-68100760D01*
X145564391Y-68096409D01*
X145543866Y-68060498D01*
X145440702Y-67879997D01*
X145440700Y-67879995D01*
X145438383Y-67875940D01*
X145281171Y-67676517D01*
X145144087Y-67547562D01*
X145099610Y-67505722D01*
X145099608Y-67505720D01*
X145096209Y-67502523D01*
X145052483Y-67472189D01*
X144891393Y-67360437D01*
X144891390Y-67360435D01*
X144887561Y-67357779D01*
X144883384Y-67355719D01*
X144883377Y-67355715D01*
X144663996Y-67247528D01*
X144663992Y-67247527D01*
X144659810Y-67245464D01*
X144417960Y-67168047D01*
X144413355Y-67167297D01*
X144171935Y-67127980D01*
X144171934Y-67127980D01*
X144167323Y-67127229D01*
X144040365Y-67125567D01*
X143918083Y-67123966D01*
X143918080Y-67123966D01*
X143913406Y-67123905D01*
X143661787Y-67158149D01*
X143417993Y-67229208D01*
X143187380Y-67335522D01*
X143170671Y-67346477D01*
X142978928Y-67472189D01*
X142978923Y-67472193D01*
X142975015Y-67474755D01*
X142896920Y-67544457D01*
X142791020Y-67638977D01*
X142785562Y-67643848D01*
X142623183Y-67839087D01*
X142491447Y-68056182D01*
X142489638Y-68060496D01*
X142489637Y-68060498D01*
X142433528Y-68194304D01*
X142393246Y-68290365D01*
X142330738Y-68536490D01*
X142305296Y-68789151D01*
X61985029Y-68789151D01*
X61984537Y-67448814D01*
X130359920Y-67448814D01*
X130366675Y-67510996D01*
X130417805Y-67647385D01*
X130505159Y-67763941D01*
X130621715Y-67851295D01*
X130758104Y-67902425D01*
X130820286Y-67909180D01*
X132821554Y-67909180D01*
X132883736Y-67902425D01*
X133020125Y-67851295D01*
X133136681Y-67763941D01*
X133224035Y-67647385D01*
X133275165Y-67510996D01*
X133281920Y-67448814D01*
X133281920Y-66509082D01*
X135439920Y-66509082D01*
X135440132Y-66511655D01*
X135440132Y-66511666D01*
X135441647Y-66530087D01*
X135454598Y-66687617D01*
X135513126Y-66920624D01*
X135569141Y-67049451D01*
X135603287Y-67127980D01*
X135608923Y-67140943D01*
X135739418Y-67342657D01*
X135901106Y-67520350D01*
X135970232Y-67574942D01*
X136085590Y-67666047D01*
X136085595Y-67666050D01*
X136089644Y-67669248D01*
X136094160Y-67671741D01*
X136094163Y-67671743D01*
X136295446Y-67782857D01*
X136295450Y-67782859D01*
X136299970Y-67785354D01*
X136304839Y-67787078D01*
X136304843Y-67787080D01*
X136521560Y-67863824D01*
X136521564Y-67863825D01*
X136526435Y-67865550D01*
X136531528Y-67866457D01*
X136531531Y-67866458D01*
X136757868Y-67906775D01*
X136757874Y-67906776D01*
X136762957Y-67907681D01*
X136850320Y-67908748D01*
X136998013Y-67910553D01*
X136998015Y-67910553D01*
X137003183Y-67910616D01*
X137240664Y-67874276D01*
X137359325Y-67835492D01*
X137464103Y-67801246D01*
X137464109Y-67801243D01*
X137469021Y-67799638D01*
X137473607Y-67797251D01*
X137473611Y-67797249D01*
X137677527Y-67691096D01*
X137682120Y-67688705D01*
X137790328Y-67607460D01*
X137870105Y-67547562D01*
X137870108Y-67547560D01*
X137874240Y-67544457D01*
X138040221Y-67370768D01*
X138136787Y-67229208D01*
X138172694Y-67176571D01*
X138172695Y-67176570D01*
X138175606Y-67172302D01*
X138177930Y-67167297D01*
X138274578Y-66959085D01*
X138274579Y-66959081D01*
X138276757Y-66954390D01*
X138340960Y-66722882D01*
X138346077Y-66675000D01*
X186111884Y-66675000D01*
X186130314Y-66885655D01*
X186131738Y-66890968D01*
X186131738Y-66890970D01*
X186149990Y-66959085D01*
X186185044Y-67089910D01*
X186187366Y-67094891D01*
X186187367Y-67094892D01*
X186258543Y-67247528D01*
X186274411Y-67281558D01*
X186395699Y-67454776D01*
X186545224Y-67604301D01*
X186718442Y-67725589D01*
X186723420Y-67727910D01*
X186723423Y-67727912D01*
X186905108Y-67812633D01*
X186910090Y-67814956D01*
X186915398Y-67816378D01*
X186915400Y-67816379D01*
X187109030Y-67868262D01*
X187109032Y-67868262D01*
X187114345Y-67869686D01*
X187325000Y-67888116D01*
X187535655Y-67869686D01*
X187540968Y-67868262D01*
X187540970Y-67868262D01*
X187734600Y-67816379D01*
X187734602Y-67816378D01*
X187739910Y-67814956D01*
X187744892Y-67812633D01*
X187926577Y-67727912D01*
X187926580Y-67727910D01*
X187931558Y-67725589D01*
X188104776Y-67604301D01*
X188254301Y-67454776D01*
X188375589Y-67281558D01*
X188391458Y-67247528D01*
X188462633Y-67094892D01*
X188462634Y-67094891D01*
X188464956Y-67089910D01*
X188500011Y-66959085D01*
X188518262Y-66890970D01*
X188518262Y-66890968D01*
X188519686Y-66885655D01*
X188538116Y-66675000D01*
X194676758Y-66675000D01*
X194695696Y-66915634D01*
X194696850Y-66920441D01*
X194696851Y-66920447D01*
X194732267Y-67067961D01*
X194752045Y-67150343D01*
X194753938Y-67154914D01*
X194753939Y-67154916D01*
X194839069Y-67360437D01*
X194844416Y-67373347D01*
X194970536Y-67579156D01*
X195127299Y-67762701D01*
X195310844Y-67919464D01*
X195516653Y-68045584D01*
X195521223Y-68047477D01*
X195521227Y-68047479D01*
X195735084Y-68136061D01*
X195739657Y-68137955D01*
X195822039Y-68157733D01*
X195969553Y-68193149D01*
X195969559Y-68193150D01*
X195974366Y-68194304D01*
X196215000Y-68213242D01*
X196455634Y-68194304D01*
X196460441Y-68193150D01*
X196460447Y-68193149D01*
X196607961Y-68157733D01*
X196690343Y-68137955D01*
X196694916Y-68136061D01*
X196908773Y-68047479D01*
X196908777Y-68047477D01*
X196913347Y-68045584D01*
X197119156Y-67919464D01*
X197302701Y-67762701D01*
X197459464Y-67579156D01*
X197585584Y-67373347D01*
X197590932Y-67360437D01*
X197676061Y-67154916D01*
X197676062Y-67154914D01*
X197677955Y-67150343D01*
X197697733Y-67067961D01*
X197733149Y-66920447D01*
X197733150Y-66920441D01*
X197734304Y-66915634D01*
X197753242Y-66675000D01*
X197734304Y-66434366D01*
X197733150Y-66429559D01*
X197733149Y-66429553D01*
X197679110Y-66204469D01*
X197677955Y-66199657D01*
X197644506Y-66118904D01*
X197587479Y-65981227D01*
X197587477Y-65981223D01*
X197585584Y-65976653D01*
X197459464Y-65770844D01*
X197302701Y-65587299D01*
X197119156Y-65430536D01*
X196913347Y-65304416D01*
X196908777Y-65302523D01*
X196908773Y-65302521D01*
X196694916Y-65213939D01*
X196694914Y-65213938D01*
X196690343Y-65212045D01*
X196607961Y-65192267D01*
X196460447Y-65156851D01*
X196460441Y-65156850D01*
X196455634Y-65155696D01*
X196215000Y-65136758D01*
X195974366Y-65155696D01*
X195969559Y-65156850D01*
X195969553Y-65156851D01*
X195822039Y-65192267D01*
X195739657Y-65212045D01*
X195735086Y-65213938D01*
X195735084Y-65213939D01*
X195521227Y-65302521D01*
X195521223Y-65302523D01*
X195516653Y-65304416D01*
X195310844Y-65430536D01*
X195127299Y-65587299D01*
X194970536Y-65770844D01*
X194844416Y-65976653D01*
X194842523Y-65981223D01*
X194842521Y-65981227D01*
X194785494Y-66118904D01*
X194752045Y-66199657D01*
X194750890Y-66204469D01*
X194696851Y-66429553D01*
X194696850Y-66429559D01*
X194695696Y-66434366D01*
X194676758Y-66675000D01*
X188538116Y-66675000D01*
X188519686Y-66464345D01*
X188510364Y-66429553D01*
X188466379Y-66265400D01*
X188466378Y-66265398D01*
X188464956Y-66260090D01*
X188462633Y-66255108D01*
X188377912Y-66073423D01*
X188377910Y-66073420D01*
X188375589Y-66068442D01*
X188254301Y-65895224D01*
X188104776Y-65745699D01*
X187931558Y-65624411D01*
X187926580Y-65622090D01*
X187926577Y-65622088D01*
X187744892Y-65537367D01*
X187744891Y-65537366D01*
X187739910Y-65535044D01*
X187734602Y-65533622D01*
X187734600Y-65533621D01*
X187540970Y-65481738D01*
X187540968Y-65481738D01*
X187535655Y-65480314D01*
X187325000Y-65461884D01*
X187114345Y-65480314D01*
X187109032Y-65481738D01*
X187109030Y-65481738D01*
X186915400Y-65533621D01*
X186915398Y-65533622D01*
X186910090Y-65535044D01*
X186905109Y-65537366D01*
X186905108Y-65537367D01*
X186723423Y-65622088D01*
X186723420Y-65622090D01*
X186718442Y-65624411D01*
X186545224Y-65745699D01*
X186395699Y-65895224D01*
X186274411Y-66068442D01*
X186272090Y-66073420D01*
X186272088Y-66073423D01*
X186187367Y-66255108D01*
X186185044Y-66260090D01*
X186183622Y-66265398D01*
X186183621Y-66265400D01*
X186139636Y-66429553D01*
X186130314Y-66464345D01*
X186111884Y-66675000D01*
X138346077Y-66675000D01*
X138361920Y-66526752D01*
X138361920Y-66292278D01*
X138360744Y-66277965D01*
X138347666Y-66118904D01*
X138347242Y-66113743D01*
X138288714Y-65880736D01*
X138192917Y-65660417D01*
X138062422Y-65458703D01*
X137900734Y-65281010D01*
X137813409Y-65212045D01*
X137716250Y-65135313D01*
X137716245Y-65135310D01*
X137712196Y-65132112D01*
X137707680Y-65129619D01*
X137707677Y-65129617D01*
X137506394Y-65018503D01*
X137506390Y-65018501D01*
X137501870Y-65016006D01*
X137497001Y-65014282D01*
X137496997Y-65014280D01*
X137280280Y-64937536D01*
X137280276Y-64937535D01*
X137275405Y-64935810D01*
X137270312Y-64934903D01*
X137270309Y-64934902D01*
X137043972Y-64894585D01*
X137043966Y-64894584D01*
X137038883Y-64893679D01*
X136946394Y-64892549D01*
X136803827Y-64890807D01*
X136803825Y-64890807D01*
X136798657Y-64890744D01*
X136561176Y-64927084D01*
X136448923Y-64963774D01*
X136337737Y-65000114D01*
X136337731Y-65000117D01*
X136332819Y-65001722D01*
X136328233Y-65004109D01*
X136328229Y-65004111D01*
X136183988Y-65079199D01*
X136119720Y-65112655D01*
X136115577Y-65115765D01*
X136115578Y-65115765D01*
X135984823Y-65213939D01*
X135927600Y-65256903D01*
X135761619Y-65430592D01*
X135758705Y-65434864D01*
X135656909Y-65584091D01*
X135626234Y-65629058D01*
X135624060Y-65633741D01*
X135624058Y-65633745D01*
X135572091Y-65745699D01*
X135525083Y-65846970D01*
X135460880Y-66078478D01*
X135460331Y-66083615D01*
X135441472Y-66260090D01*
X135439920Y-66274608D01*
X135439920Y-66509082D01*
X133281920Y-66509082D01*
X133281920Y-65352546D01*
X133275165Y-65290364D01*
X133224035Y-65153975D01*
X133136681Y-65037419D01*
X133020125Y-64950065D01*
X132883736Y-64898935D01*
X132821554Y-64892180D01*
X130820286Y-64892180D01*
X130758104Y-64898935D01*
X130621715Y-64950065D01*
X130505159Y-65037419D01*
X130417805Y-65153975D01*
X130366675Y-65290364D01*
X130359920Y-65352546D01*
X130359920Y-67448814D01*
X61984537Y-67448814D01*
X61982902Y-62992000D01*
X79939884Y-62992000D01*
X79958314Y-63202655D01*
X79959738Y-63207968D01*
X79959738Y-63207970D01*
X79989101Y-63317552D01*
X80013044Y-63406910D01*
X80015366Y-63411891D01*
X80015367Y-63411892D01*
X80075081Y-63539948D01*
X80102411Y-63598558D01*
X80223699Y-63771776D01*
X80373224Y-63921301D01*
X80546442Y-64042589D01*
X80551420Y-64044910D01*
X80551423Y-64044912D01*
X80651484Y-64091571D01*
X80738090Y-64131956D01*
X80743398Y-64133378D01*
X80743400Y-64133379D01*
X80937030Y-64185262D01*
X80937032Y-64185262D01*
X80942345Y-64186686D01*
X81153000Y-64205116D01*
X81363655Y-64186686D01*
X81368968Y-64185262D01*
X81368970Y-64185262D01*
X81562600Y-64133379D01*
X81562602Y-64133378D01*
X81567910Y-64131956D01*
X81654516Y-64091571D01*
X81754577Y-64044912D01*
X81754580Y-64044910D01*
X81759558Y-64042589D01*
X81932776Y-63921301D01*
X81973077Y-63881000D01*
X102191502Y-63881000D01*
X102211457Y-64109087D01*
X102270716Y-64330243D01*
X102273039Y-64335224D01*
X102273039Y-64335225D01*
X102365151Y-64532762D01*
X102365154Y-64532767D01*
X102367477Y-64537749D01*
X102498802Y-64725300D01*
X102660700Y-64887198D01*
X102665208Y-64890355D01*
X102665211Y-64890357D01*
X102716546Y-64926302D01*
X102848251Y-65018523D01*
X102853233Y-65020846D01*
X102853238Y-65020849D01*
X103050119Y-65112655D01*
X103055757Y-65115284D01*
X103061065Y-65116706D01*
X103061067Y-65116707D01*
X103271598Y-65173119D01*
X103271600Y-65173119D01*
X103276913Y-65174543D01*
X103505000Y-65194498D01*
X103733087Y-65174543D01*
X103738400Y-65173119D01*
X103738402Y-65173119D01*
X103948933Y-65116707D01*
X103948935Y-65116706D01*
X103954243Y-65115284D01*
X103959881Y-65112655D01*
X104156762Y-65020849D01*
X104156767Y-65020846D01*
X104161749Y-65018523D01*
X104293454Y-64926302D01*
X104344789Y-64890357D01*
X104344792Y-64890355D01*
X104349300Y-64887198D01*
X104511198Y-64725300D01*
X104642523Y-64537749D01*
X104644846Y-64532767D01*
X104644849Y-64532762D01*
X104736961Y-64335225D01*
X104736961Y-64335224D01*
X104739284Y-64330243D01*
X104798543Y-64109087D01*
X104818498Y-63881000D01*
X104798543Y-63652913D01*
X104739284Y-63431757D01*
X104685830Y-63317124D01*
X104644849Y-63229238D01*
X104644846Y-63229233D01*
X104642523Y-63224251D01*
X104539900Y-63077690D01*
X104514357Y-63041211D01*
X104514355Y-63041208D01*
X104511198Y-63036700D01*
X104349300Y-62874802D01*
X104344792Y-62871645D01*
X104344789Y-62871643D01*
X104244320Y-62801294D01*
X104161749Y-62743477D01*
X104156767Y-62741154D01*
X104156762Y-62741151D01*
X103959225Y-62649039D01*
X103959224Y-62649039D01*
X103954243Y-62646716D01*
X103948935Y-62645294D01*
X103948933Y-62645293D01*
X103738402Y-62588881D01*
X103738400Y-62588881D01*
X103733087Y-62587457D01*
X103505000Y-62567502D01*
X103276913Y-62587457D01*
X103271600Y-62588881D01*
X103271598Y-62588881D01*
X103061067Y-62645293D01*
X103061065Y-62645294D01*
X103055757Y-62646716D01*
X103050776Y-62649039D01*
X103050775Y-62649039D01*
X102853238Y-62741151D01*
X102853233Y-62741154D01*
X102848251Y-62743477D01*
X102765680Y-62801294D01*
X102665211Y-62871643D01*
X102665208Y-62871645D01*
X102660700Y-62874802D01*
X102498802Y-63036700D01*
X102495645Y-63041208D01*
X102495643Y-63041211D01*
X102470100Y-63077690D01*
X102367477Y-63224251D01*
X102365154Y-63229233D01*
X102365151Y-63229238D01*
X102324170Y-63317124D01*
X102270716Y-63431757D01*
X102211457Y-63652913D01*
X102191502Y-63881000D01*
X81973077Y-63881000D01*
X82082301Y-63771776D01*
X82203589Y-63598558D01*
X82230920Y-63539948D01*
X82290633Y-63411892D01*
X82290634Y-63411891D01*
X82292956Y-63406910D01*
X82316900Y-63317552D01*
X82346262Y-63207970D01*
X82346262Y-63207968D01*
X82347686Y-63202655D01*
X82366116Y-62992000D01*
X82347686Y-62781345D01*
X82300982Y-62607042D01*
X82294379Y-62582400D01*
X82294378Y-62582398D01*
X82292956Y-62577090D01*
X82290633Y-62572108D01*
X82205912Y-62390423D01*
X82205910Y-62390420D01*
X82203589Y-62385442D01*
X82082301Y-62212224D01*
X81932776Y-62062699D01*
X81759558Y-61941411D01*
X81754580Y-61939090D01*
X81754577Y-61939088D01*
X81572892Y-61854367D01*
X81572891Y-61854366D01*
X81567910Y-61852044D01*
X81562602Y-61850622D01*
X81562600Y-61850621D01*
X81368970Y-61798738D01*
X81368968Y-61798738D01*
X81363655Y-61797314D01*
X81153000Y-61778884D01*
X80942345Y-61797314D01*
X80937032Y-61798738D01*
X80937030Y-61798738D01*
X80743400Y-61850621D01*
X80743398Y-61850622D01*
X80738090Y-61852044D01*
X80733109Y-61854366D01*
X80733108Y-61854367D01*
X80551423Y-61939088D01*
X80551420Y-61939090D01*
X80546442Y-61941411D01*
X80373224Y-62062699D01*
X80223699Y-62212224D01*
X80102411Y-62385442D01*
X80100090Y-62390420D01*
X80100088Y-62390423D01*
X80015367Y-62572108D01*
X80013044Y-62577090D01*
X80011622Y-62582398D01*
X80011621Y-62582400D01*
X80005018Y-62607042D01*
X79958314Y-62781345D01*
X79939884Y-62992000D01*
X61982902Y-62992000D01*
X61981697Y-59709899D01*
X62857569Y-59709899D01*
X62868180Y-59979963D01*
X62916737Y-60245837D01*
X63002272Y-60502217D01*
X63004265Y-60506205D01*
X63087021Y-60671825D01*
X63123078Y-60743987D01*
X63125607Y-60747646D01*
X63248754Y-60925825D01*
X63276744Y-60966324D01*
X63355707Y-61051745D01*
X63434352Y-61136822D01*
X63460205Y-61164790D01*
X63669799Y-61335427D01*
X63673617Y-61337726D01*
X63673619Y-61337727D01*
X63771513Y-61396664D01*
X63901346Y-61474830D01*
X63905441Y-61476564D01*
X63905443Y-61476565D01*
X64146124Y-61578480D01*
X64146131Y-61578482D01*
X64150225Y-61580216D01*
X64246359Y-61605705D01*
X64407172Y-61648345D01*
X64407177Y-61648346D01*
X64411469Y-61649484D01*
X64415878Y-61650006D01*
X64415884Y-61650007D01*
X64565210Y-61667680D01*
X64679868Y-61681251D01*
X64950064Y-61674883D01*
X64954459Y-61674151D01*
X64954464Y-61674151D01*
X65212267Y-61631241D01*
X65212271Y-61631240D01*
X65216669Y-61630508D01*
X65384959Y-61577285D01*
X65470114Y-61550354D01*
X65470116Y-61550353D01*
X65474360Y-61549011D01*
X65478371Y-61547085D01*
X65478376Y-61547083D01*
X65713979Y-61433948D01*
X65713980Y-61433947D01*
X65717998Y-61432018D01*
X65866768Y-61332613D01*
X65939013Y-61284341D01*
X65939017Y-61284338D01*
X65942721Y-61281863D01*
X65946038Y-61278892D01*
X65946042Y-61278889D01*
X66140729Y-61104512D01*
X66144045Y-61101542D01*
X66317953Y-60894654D01*
X66320702Y-60890247D01*
X66458614Y-60669111D01*
X66458615Y-60669109D01*
X66460975Y-60665325D01*
X66463190Y-60660316D01*
X66490680Y-60598134D01*
X79549318Y-60598134D01*
X79556073Y-60660316D01*
X79607203Y-60796705D01*
X79694557Y-60913261D01*
X79811113Y-61000615D01*
X79947502Y-61051745D01*
X80009684Y-61058500D01*
X82305952Y-61058500D01*
X82368134Y-61051745D01*
X82504523Y-61000615D01*
X82621079Y-60913261D01*
X82708433Y-60796705D01*
X82759563Y-60660316D01*
X82766318Y-60598134D01*
X82766318Y-58301866D01*
X82759563Y-58239684D01*
X82708433Y-58103295D01*
X82621079Y-57986739D01*
X82504523Y-57899385D01*
X82368134Y-57848255D01*
X82305952Y-57841500D01*
X80009684Y-57841500D01*
X79947502Y-57848255D01*
X79811113Y-57899385D01*
X79694557Y-57986739D01*
X79607203Y-58103295D01*
X79556073Y-58239684D01*
X79549318Y-58301866D01*
X79549318Y-60598134D01*
X66490680Y-60598134D01*
X66494688Y-60589068D01*
X66570258Y-60418133D01*
X66643620Y-60158008D01*
X66666946Y-59984343D01*
X66679172Y-59893324D01*
X66679173Y-59893316D01*
X66679599Y-59890142D01*
X66683375Y-59770000D01*
X66664287Y-59500403D01*
X66607402Y-59236185D01*
X66587801Y-59183053D01*
X66515397Y-58986796D01*
X66513856Y-58982619D01*
X66484510Y-58928231D01*
X66387629Y-58748678D01*
X66387629Y-58748677D01*
X66385516Y-58744762D01*
X66224942Y-58527362D01*
X66035338Y-58334756D01*
X65927160Y-58252197D01*
X65824028Y-58173489D01*
X65824024Y-58173487D01*
X65820487Y-58170787D01*
X65584675Y-58038727D01*
X65332609Y-57941210D01*
X65328284Y-57940207D01*
X65328279Y-57940206D01*
X65175401Y-57904771D01*
X65069318Y-57880182D01*
X64800054Y-57856861D01*
X64795619Y-57857105D01*
X64795615Y-57857105D01*
X64534634Y-57871468D01*
X64534627Y-57871469D01*
X64530191Y-57871713D01*
X64398622Y-57897883D01*
X64269484Y-57923570D01*
X64269479Y-57923571D01*
X64265112Y-57924440D01*
X64260909Y-57925916D01*
X64014315Y-58012513D01*
X64014312Y-58012514D01*
X64010107Y-58013991D01*
X64006154Y-58016044D01*
X64006148Y-58016047D01*
X63920094Y-58060749D01*
X63770264Y-58138580D01*
X63766649Y-58141163D01*
X63766643Y-58141167D01*
X63553990Y-58293131D01*
X63553986Y-58293134D01*
X63550369Y-58295719D01*
X63354808Y-58482275D01*
X63187485Y-58694524D01*
X63185253Y-58698366D01*
X63185250Y-58698371D01*
X63053974Y-58924377D01*
X63053971Y-58924384D01*
X63051736Y-58928231D01*
X62950272Y-59178735D01*
X62949201Y-59183048D01*
X62949199Y-59183053D01*
X62924187Y-59283745D01*
X62885116Y-59441035D01*
X62884662Y-59445463D01*
X62884662Y-59445465D01*
X62873006Y-59559234D01*
X62857569Y-59709899D01*
X61981697Y-59709899D01*
X61980983Y-57763918D01*
X119111917Y-57763918D01*
X119127682Y-58037320D01*
X119128507Y-58041525D01*
X119128508Y-58041533D01*
X119140787Y-58104117D01*
X119180405Y-58306053D01*
X119181792Y-58310103D01*
X119181793Y-58310108D01*
X119261821Y-58543849D01*
X119269112Y-58565144D01*
X119271039Y-58568975D01*
X119361420Y-58748678D01*
X119392160Y-58809799D01*
X119394586Y-58813328D01*
X119394589Y-58813334D01*
X119513807Y-58986796D01*
X119547274Y-59035490D01*
X119731582Y-59238043D01*
X119941675Y-59413707D01*
X119945316Y-59415991D01*
X120170024Y-59556951D01*
X120170028Y-59556953D01*
X120173664Y-59559234D01*
X120241544Y-59589883D01*
X120419345Y-59670164D01*
X120419349Y-59670166D01*
X120423257Y-59671930D01*
X120427377Y-59673150D01*
X120427376Y-59673150D01*
X120681723Y-59748491D01*
X120681727Y-59748492D01*
X120685836Y-59749709D01*
X120690070Y-59750357D01*
X120690075Y-59750358D01*
X120952298Y-59790483D01*
X120952300Y-59790483D01*
X120956540Y-59791132D01*
X121095912Y-59793322D01*
X121226071Y-59795367D01*
X121226077Y-59795367D01*
X121230362Y-59795434D01*
X121502235Y-59762534D01*
X121767127Y-59693041D01*
X121771087Y-59691401D01*
X121771092Y-59691399D01*
X121893631Y-59640641D01*
X122020136Y-59588241D01*
X122256582Y-59450073D01*
X122472089Y-59281094D01*
X122513809Y-59238043D01*
X122659686Y-59087509D01*
X122662669Y-59084431D01*
X122665202Y-59080983D01*
X122665206Y-59080978D01*
X122822257Y-58867178D01*
X122824795Y-58863723D01*
X122852154Y-58813334D01*
X122953418Y-58626830D01*
X122953419Y-58626828D01*
X122955468Y-58623054D01*
X123034706Y-58413357D01*
X123050751Y-58370895D01*
X123050752Y-58370891D01*
X123052269Y-58366877D01*
X123096561Y-58173489D01*
X123112449Y-58104117D01*
X123112450Y-58104113D01*
X123113407Y-58099933D01*
X123118870Y-58038727D01*
X123137531Y-57829627D01*
X123137531Y-57829625D01*
X123137751Y-57827161D01*
X123138193Y-57785000D01*
X123131706Y-57689847D01*
X123119859Y-57516055D01*
X123119858Y-57516049D01*
X123119567Y-57511778D01*
X123064032Y-57243612D01*
X122972617Y-56985465D01*
X122933036Y-56908778D01*
X122848978Y-56745919D01*
X122848978Y-56745918D01*
X122847013Y-56742112D01*
X122837040Y-56727921D01*
X122692008Y-56521562D01*
X122689545Y-56518057D01*
X122606526Y-56428718D01*
X122506046Y-56320588D01*
X122506043Y-56320585D01*
X122503125Y-56317445D01*
X122499810Y-56314731D01*
X122499806Y-56314728D01*
X122320897Y-56168293D01*
X122291205Y-56143990D01*
X122057704Y-56000901D01*
X122053768Y-55999173D01*
X121810873Y-55892549D01*
X121810869Y-55892548D01*
X121806945Y-55890825D01*
X121543566Y-55815800D01*
X121539324Y-55815196D01*
X121539318Y-55815195D01*
X121338834Y-55786662D01*
X121272443Y-55777213D01*
X121128589Y-55776460D01*
X121002877Y-55775802D01*
X121002871Y-55775802D01*
X120998591Y-55775780D01*
X120994347Y-55776339D01*
X120994343Y-55776339D01*
X120875302Y-55792011D01*
X120727078Y-55811525D01*
X120722938Y-55812658D01*
X120722936Y-55812658D01*
X120650008Y-55832609D01*
X120462928Y-55883788D01*
X120458980Y-55885472D01*
X120214982Y-55989546D01*
X120214978Y-55989548D01*
X120211030Y-55991232D01*
X120180662Y-56009407D01*
X119979725Y-56129664D01*
X119979721Y-56129667D01*
X119976043Y-56131868D01*
X119762318Y-56303094D01*
X119573808Y-56501742D01*
X119414002Y-56724136D01*
X119285857Y-56966161D01*
X119284385Y-56970184D01*
X119284383Y-56970188D01*
X119211043Y-57170598D01*
X119191743Y-57223337D01*
X119133404Y-57490907D01*
X119111917Y-57763918D01*
X61980983Y-57763918D01*
X61980676Y-56928134D01*
X73088000Y-56928134D01*
X73094755Y-56990316D01*
X73145885Y-57126705D01*
X73233239Y-57243261D01*
X73349795Y-57330615D01*
X73486184Y-57381745D01*
X73548366Y-57388500D01*
X75549634Y-57388500D01*
X75611816Y-57381745D01*
X75748205Y-57330615D01*
X75864761Y-57243261D01*
X75952115Y-57126705D01*
X76003245Y-56990316D01*
X76010000Y-56928134D01*
X76010000Y-55988402D01*
X78168000Y-55988402D01*
X78168212Y-55990975D01*
X78168212Y-55990986D01*
X78169727Y-56009407D01*
X78182678Y-56166937D01*
X78241206Y-56399944D01*
X78284117Y-56498633D01*
X78310670Y-56559700D01*
X78337003Y-56620263D01*
X78467498Y-56821977D01*
X78629186Y-56999670D01*
X78706017Y-57060347D01*
X78813670Y-57145367D01*
X78813675Y-57145370D01*
X78817724Y-57148568D01*
X78822240Y-57151061D01*
X78822243Y-57151063D01*
X79023526Y-57262177D01*
X79023530Y-57262179D01*
X79028050Y-57264674D01*
X79032919Y-57266398D01*
X79032923Y-57266400D01*
X79249640Y-57343144D01*
X79249644Y-57343145D01*
X79254515Y-57344870D01*
X79259608Y-57345777D01*
X79259611Y-57345778D01*
X79485948Y-57386095D01*
X79485954Y-57386096D01*
X79491037Y-57387001D01*
X79578400Y-57388068D01*
X79726093Y-57389873D01*
X79726095Y-57389873D01*
X79731263Y-57389936D01*
X79968744Y-57353596D01*
X80080997Y-57316906D01*
X80192183Y-57280566D01*
X80192189Y-57280563D01*
X80197101Y-57278958D01*
X80201687Y-57276571D01*
X80201691Y-57276569D01*
X80405607Y-57170416D01*
X80410200Y-57168025D01*
X80602320Y-57023777D01*
X80768301Y-56850088D01*
X80903686Y-56651622D01*
X80918243Y-56620263D01*
X81002658Y-56438405D01*
X81002659Y-56438401D01*
X81004837Y-56433710D01*
X81069040Y-56202202D01*
X81069589Y-56197065D01*
X81089644Y-56009407D01*
X81089644Y-56009399D01*
X81090000Y-56006072D01*
X81090000Y-55771598D01*
X81088824Y-55757285D01*
X81075746Y-55598224D01*
X81075322Y-55593063D01*
X81016794Y-55360056D01*
X80944808Y-55194498D01*
X80923057Y-55144474D01*
X80923055Y-55144471D01*
X80920997Y-55139737D01*
X80790502Y-54938023D01*
X80628814Y-54760330D01*
X80478606Y-54641703D01*
X80444330Y-54614633D01*
X80444325Y-54614630D01*
X80440276Y-54611432D01*
X80435760Y-54608939D01*
X80435757Y-54608937D01*
X80234474Y-54497823D01*
X80234470Y-54497821D01*
X80229950Y-54495326D01*
X80225081Y-54493602D01*
X80225077Y-54493600D01*
X80008360Y-54416856D01*
X80008356Y-54416855D01*
X80003485Y-54415130D01*
X79998392Y-54414223D01*
X79998389Y-54414222D01*
X79772052Y-54373905D01*
X79772046Y-54373904D01*
X79766963Y-54372999D01*
X79674474Y-54371869D01*
X79531907Y-54370127D01*
X79531905Y-54370127D01*
X79526737Y-54370064D01*
X79289256Y-54406404D01*
X79177003Y-54443094D01*
X79065817Y-54479434D01*
X79065811Y-54479437D01*
X79060899Y-54481042D01*
X79056313Y-54483429D01*
X79056309Y-54483431D01*
X78852393Y-54589584D01*
X78847800Y-54591975D01*
X78843657Y-54595085D01*
X78843658Y-54595085D01*
X78665038Y-54729197D01*
X78655680Y-54736223D01*
X78489699Y-54909912D01*
X78354314Y-55108378D01*
X78352140Y-55113061D01*
X78352138Y-55113065D01*
X78255342Y-55321595D01*
X78253163Y-55326290D01*
X78188960Y-55557798D01*
X78168000Y-55753928D01*
X78168000Y-55988402D01*
X76010000Y-55988402D01*
X76010000Y-54831866D01*
X76003245Y-54769684D01*
X75952115Y-54633295D01*
X75864761Y-54516739D01*
X75748205Y-54429385D01*
X75611816Y-54378255D01*
X75549634Y-54371500D01*
X73548366Y-54371500D01*
X73486184Y-54378255D01*
X73349795Y-54429385D01*
X73233239Y-54516739D01*
X73145885Y-54633295D01*
X73094755Y-54769684D01*
X73088000Y-54831866D01*
X73088000Y-56928134D01*
X61980676Y-56928134D01*
X61979558Y-53881000D01*
X102191502Y-53881000D01*
X102211457Y-54109087D01*
X102212881Y-54114400D01*
X102212881Y-54114402D01*
X102256042Y-54275478D01*
X102270716Y-54330243D01*
X102273039Y-54335224D01*
X102273039Y-54335225D01*
X102365151Y-54532762D01*
X102365154Y-54532767D01*
X102367477Y-54537749D01*
X102498802Y-54725300D01*
X102660700Y-54887198D01*
X102665208Y-54890355D01*
X102665211Y-54890357D01*
X102687799Y-54906173D01*
X102848251Y-55018523D01*
X102853233Y-55020846D01*
X102853238Y-55020849D01*
X103031792Y-55104109D01*
X103055757Y-55115284D01*
X103061065Y-55116706D01*
X103061067Y-55116707D01*
X103271598Y-55173119D01*
X103271600Y-55173119D01*
X103276913Y-55174543D01*
X103505000Y-55194498D01*
X103733087Y-55174543D01*
X103738400Y-55173119D01*
X103738402Y-55173119D01*
X103948933Y-55116707D01*
X103948935Y-55116706D01*
X103954243Y-55115284D01*
X103978208Y-55104109D01*
X104156762Y-55020849D01*
X104156767Y-55020846D01*
X104161749Y-55018523D01*
X104322201Y-54906173D01*
X104344789Y-54890357D01*
X104344792Y-54890355D01*
X104349300Y-54887198D01*
X104511198Y-54725300D01*
X104642523Y-54537749D01*
X104644846Y-54532767D01*
X104644849Y-54532762D01*
X104736961Y-54335225D01*
X104736961Y-54335224D01*
X104739284Y-54330243D01*
X104753959Y-54275478D01*
X104797119Y-54114402D01*
X104797119Y-54114400D01*
X104798543Y-54109087D01*
X104818498Y-53881000D01*
X104798543Y-53652913D01*
X104792054Y-53628695D01*
X104740707Y-53437067D01*
X104740706Y-53437065D01*
X104739284Y-53431757D01*
X104706905Y-53362320D01*
X104644849Y-53229238D01*
X104644846Y-53229233D01*
X104642523Y-53224251D01*
X104511198Y-53036700D01*
X104349300Y-52874802D01*
X104344792Y-52871645D01*
X104344789Y-52871643D01*
X104266611Y-52816902D01*
X104161749Y-52743477D01*
X104156767Y-52741154D01*
X104156762Y-52741151D01*
X103959225Y-52649039D01*
X103959224Y-52649039D01*
X103954243Y-52646716D01*
X103948935Y-52645294D01*
X103948933Y-52645293D01*
X103738402Y-52588881D01*
X103738400Y-52588881D01*
X103733087Y-52587457D01*
X103505000Y-52567502D01*
X103276913Y-52587457D01*
X103271600Y-52588881D01*
X103271598Y-52588881D01*
X103061067Y-52645293D01*
X103061065Y-52645294D01*
X103055757Y-52646716D01*
X103050776Y-52649039D01*
X103050775Y-52649039D01*
X102853238Y-52741151D01*
X102853233Y-52741154D01*
X102848251Y-52743477D01*
X102743389Y-52816902D01*
X102665211Y-52871643D01*
X102665208Y-52871645D01*
X102660700Y-52874802D01*
X102498802Y-53036700D01*
X102367477Y-53224251D01*
X102365154Y-53229233D01*
X102365151Y-53229238D01*
X102303095Y-53362320D01*
X102270716Y-53431757D01*
X102269294Y-53437065D01*
X102269293Y-53437067D01*
X102217946Y-53628695D01*
X102211457Y-53652913D01*
X102191502Y-53881000D01*
X61979558Y-53881000D01*
X61978660Y-51435000D01*
X87666807Y-51435000D01*
X87685542Y-51649142D01*
X87741178Y-51856777D01*
X87743500Y-51861757D01*
X87743501Y-51861759D01*
X87809842Y-52004026D01*
X87832024Y-52051596D01*
X87955319Y-52227681D01*
X88107319Y-52379681D01*
X88283403Y-52502976D01*
X88288381Y-52505297D01*
X88288384Y-52505299D01*
X88473241Y-52591499D01*
X88478223Y-52593822D01*
X88483531Y-52595244D01*
X88483533Y-52595245D01*
X88680543Y-52648034D01*
X88680545Y-52648034D01*
X88685858Y-52649458D01*
X88900000Y-52668193D01*
X89114142Y-52649458D01*
X89119455Y-52648034D01*
X89119457Y-52648034D01*
X89316467Y-52595245D01*
X89316469Y-52595244D01*
X89321777Y-52593822D01*
X89326759Y-52591499D01*
X89511616Y-52505299D01*
X89511619Y-52505297D01*
X89516597Y-52502976D01*
X89692681Y-52379681D01*
X89844681Y-52227681D01*
X89967976Y-52051596D01*
X89990159Y-52004026D01*
X90056499Y-51861759D01*
X90056500Y-51861757D01*
X90058822Y-51856777D01*
X90114458Y-51649142D01*
X90133193Y-51435000D01*
X90114458Y-51220858D01*
X90058822Y-51013223D01*
X90056499Y-51008241D01*
X89970299Y-50823385D01*
X89970297Y-50823382D01*
X89967976Y-50818404D01*
X89844681Y-50642319D01*
X89692681Y-50490319D01*
X89516597Y-50367024D01*
X89511619Y-50364703D01*
X89511616Y-50364701D01*
X89328247Y-50279195D01*
X89274962Y-50232278D01*
X89255501Y-50164000D01*
X89276043Y-50096041D01*
X89328247Y-50050805D01*
X89511616Y-49965299D01*
X89511619Y-49965297D01*
X89516597Y-49962976D01*
X89692681Y-49839681D01*
X89844681Y-49687681D01*
X89967976Y-49511596D01*
X89980720Y-49484268D01*
X90056499Y-49321759D01*
X90056500Y-49321757D01*
X90058822Y-49316777D01*
X90078645Y-49242799D01*
X90113034Y-49114457D01*
X90113034Y-49114455D01*
X90114458Y-49109142D01*
X90133193Y-48895000D01*
X90114458Y-48680858D01*
X90102428Y-48635961D01*
X90060245Y-48478533D01*
X90060244Y-48478531D01*
X90058822Y-48473223D01*
X90033554Y-48419036D01*
X89970299Y-48283385D01*
X89970297Y-48283382D01*
X89967976Y-48278404D01*
X89844681Y-48102319D01*
X89692681Y-47950319D01*
X89516597Y-47827024D01*
X89511619Y-47824703D01*
X89511616Y-47824701D01*
X89326759Y-47738501D01*
X89326758Y-47738500D01*
X89321777Y-47736178D01*
X89316469Y-47734756D01*
X89316467Y-47734755D01*
X89119457Y-47681966D01*
X89119455Y-47681966D01*
X89114142Y-47680542D01*
X88900000Y-47661807D01*
X88685858Y-47680542D01*
X88680545Y-47681966D01*
X88680543Y-47681966D01*
X88483533Y-47734755D01*
X88483531Y-47734756D01*
X88478223Y-47736178D01*
X88473243Y-47738500D01*
X88473241Y-47738501D01*
X88288385Y-47824701D01*
X88288382Y-47824703D01*
X88283404Y-47827024D01*
X88107319Y-47950319D01*
X87955319Y-48102319D01*
X87832024Y-48278404D01*
X87829703Y-48283382D01*
X87829701Y-48283385D01*
X87766446Y-48419036D01*
X87741178Y-48473223D01*
X87739756Y-48478531D01*
X87739755Y-48478533D01*
X87697572Y-48635961D01*
X87685542Y-48680858D01*
X87666807Y-48895000D01*
X87685542Y-49109142D01*
X87686966Y-49114455D01*
X87686966Y-49114457D01*
X87721356Y-49242799D01*
X87741178Y-49316777D01*
X87743500Y-49321757D01*
X87743501Y-49321759D01*
X87819281Y-49484268D01*
X87832024Y-49511596D01*
X87955319Y-49687681D01*
X88107319Y-49839681D01*
X88283403Y-49962976D01*
X88288381Y-49965297D01*
X88288384Y-49965299D01*
X88471753Y-50050805D01*
X88525038Y-50097722D01*
X88544499Y-50166000D01*
X88523957Y-50233959D01*
X88471753Y-50279195D01*
X88288385Y-50364701D01*
X88288382Y-50364703D01*
X88283404Y-50367024D01*
X88107319Y-50490319D01*
X87955319Y-50642319D01*
X87832024Y-50818404D01*
X87829703Y-50823382D01*
X87829701Y-50823385D01*
X87743501Y-51008241D01*
X87741178Y-51013223D01*
X87685542Y-51220858D01*
X87666807Y-51435000D01*
X61978660Y-51435000D01*
X61977544Y-48392703D01*
X62840743Y-48392703D01*
X62878268Y-48677734D01*
X62879401Y-48681874D01*
X62879401Y-48681876D01*
X62883687Y-48697543D01*
X62954129Y-48955036D01*
X62955813Y-48958984D01*
X63039372Y-49154883D01*
X63066923Y-49219476D01*
X63214561Y-49466161D01*
X63394313Y-49690528D01*
X63517711Y-49807628D01*
X63551488Y-49839681D01*
X63602851Y-49888423D01*
X63706602Y-49962976D01*
X63828829Y-50050805D01*
X63836317Y-50056186D01*
X63840112Y-50058195D01*
X63840113Y-50058196D01*
X63861869Y-50069715D01*
X64090392Y-50190712D01*
X64360373Y-50289511D01*
X64641264Y-50350755D01*
X64669841Y-50353004D01*
X64864282Y-50368307D01*
X64864291Y-50368307D01*
X64866739Y-50368500D01*
X65022271Y-50368500D01*
X65024407Y-50368354D01*
X65024418Y-50368354D01*
X65232548Y-50354165D01*
X65232554Y-50354164D01*
X65236825Y-50353873D01*
X65241020Y-50353004D01*
X65241022Y-50353004D01*
X65377583Y-50324724D01*
X65518342Y-50295574D01*
X65789343Y-50199607D01*
X65877362Y-50154177D01*
X66041005Y-50069715D01*
X66041006Y-50069715D01*
X66044812Y-50067750D01*
X66048313Y-50065289D01*
X66048317Y-50065287D01*
X66198379Y-49959821D01*
X66280023Y-49902441D01*
X66358403Y-49829606D01*
X66487479Y-49709661D01*
X66487481Y-49709658D01*
X66490622Y-49706740D01*
X66672713Y-49484268D01*
X66822927Y-49239142D01*
X66938483Y-48975898D01*
X67017244Y-48699406D01*
X67057751Y-48414784D01*
X67057776Y-48410198D01*
X67059235Y-48131583D01*
X67059235Y-48131576D01*
X67059257Y-48127297D01*
X67021732Y-47842266D01*
X66945871Y-47564964D01*
X66919989Y-47504285D01*
X66834763Y-47304476D01*
X66834761Y-47304472D01*
X66833077Y-47300524D01*
X66732506Y-47132482D01*
X66687643Y-47057521D01*
X66687640Y-47057517D01*
X66685439Y-47053839D01*
X66505687Y-46829472D01*
X66368424Y-46699214D01*
X128462597Y-46699214D01*
X128462992Y-46700591D01*
X128463086Y-46701957D01*
X128473186Y-62786825D01*
X128473195Y-62800903D01*
X128473193Y-62801614D01*
X128472757Y-62879014D01*
X128480902Y-62907462D01*
X128484485Y-62924198D01*
X128488696Y-62953474D01*
X128499303Y-62976764D01*
X128505766Y-62994300D01*
X128512812Y-63018908D01*
X128517606Y-63026498D01*
X128528610Y-63043920D01*
X128536748Y-63058984D01*
X128545286Y-63077733D01*
X128545290Y-63077739D01*
X128549007Y-63085901D01*
X128554867Y-63092694D01*
X128554868Y-63092695D01*
X128565723Y-63105277D01*
X128576849Y-63120296D01*
X128590518Y-63141937D01*
X128597248Y-63147875D01*
X128597249Y-63147876D01*
X128612702Y-63161510D01*
X128624741Y-63173684D01*
X128644062Y-63196079D01*
X128651599Y-63200957D01*
X128651602Y-63200960D01*
X128665544Y-63209984D01*
X128680443Y-63221279D01*
X128699632Y-63238210D01*
X128707760Y-63242021D01*
X128707761Y-63242022D01*
X128726413Y-63250768D01*
X128741385Y-63259073D01*
X128766220Y-63275148D01*
X128780916Y-63279533D01*
X128790749Y-63282467D01*
X128808211Y-63289125D01*
X128831382Y-63299990D01*
X128840251Y-63301367D01*
X128840252Y-63301367D01*
X128860617Y-63304528D01*
X128877314Y-63308296D01*
X128905660Y-63316754D01*
X128930072Y-63316888D01*
X128940037Y-63316943D01*
X128940804Y-63316975D01*
X128941865Y-63317139D01*
X128944770Y-63317138D01*
X128944780Y-63317138D01*
X128964380Y-63317128D01*
X128972845Y-63317124D01*
X128973482Y-63317126D01*
X129014823Y-63317353D01*
X129047318Y-63317531D01*
X129047320Y-63317531D01*
X129051171Y-63317552D01*
X129052483Y-63317176D01*
X129053794Y-63317086D01*
X136268824Y-63313650D01*
X139641222Y-63312044D01*
X139641914Y-63312046D01*
X139718852Y-63312516D01*
X139747402Y-63304356D01*
X139764094Y-63300789D01*
X139784594Y-63297843D01*
X139784595Y-63297843D01*
X139793479Y-63296566D01*
X139816681Y-63286003D01*
X139834253Y-63279534D01*
X139858765Y-63272528D01*
X139866358Y-63267737D01*
X139866361Y-63267736D01*
X139883872Y-63256688D01*
X139898900Y-63248574D01*
X139925916Y-63236275D01*
X139932708Y-63230417D01*
X139932711Y-63230415D01*
X139943303Y-63221279D01*
X139945222Y-63219624D01*
X139960274Y-63208481D01*
X139981831Y-63194880D01*
X139987775Y-63188149D01*
X139987779Y-63188146D01*
X140001482Y-63172630D01*
X140013632Y-63160621D01*
X140016930Y-63157776D01*
X140036107Y-63141237D01*
X140049961Y-63119841D01*
X140061282Y-63104920D01*
X140072213Y-63092543D01*
X140072217Y-63092536D01*
X140078156Y-63085812D01*
X140090774Y-63058938D01*
X140099060Y-63044012D01*
X140110316Y-63026627D01*
X140110317Y-63026625D01*
X140115195Y-63019091D01*
X140117762Y-63010494D01*
X140117764Y-63010489D01*
X140122487Y-62994668D01*
X140129167Y-62977163D01*
X140129355Y-62976764D01*
X140139999Y-62954092D01*
X140144566Y-62924759D01*
X140148332Y-62908099D01*
X140154254Y-62888263D01*
X140154254Y-62888260D01*
X140156823Y-62879657D01*
X140156878Y-62870036D01*
X140156906Y-62865000D01*
X141758290Y-62865000D01*
X141778111Y-63180051D01*
X141837263Y-63490134D01*
X141934812Y-63790358D01*
X142069219Y-64075989D01*
X142071343Y-64079335D01*
X142071343Y-64079336D01*
X142104737Y-64131956D01*
X142238366Y-64342522D01*
X142439584Y-64585753D01*
X142442471Y-64588464D01*
X142592337Y-64729197D01*
X142669701Y-64801847D01*
X142925087Y-64987396D01*
X142928556Y-64989303D01*
X142928559Y-64989305D01*
X143164934Y-65119253D01*
X143201714Y-65139473D01*
X143495221Y-65255680D01*
X143499051Y-65256663D01*
X143499059Y-65256666D01*
X143630306Y-65290364D01*
X143800978Y-65334185D01*
X143804906Y-65334681D01*
X143804910Y-65334682D01*
X143919429Y-65349149D01*
X144114163Y-65373750D01*
X144429837Y-65373750D01*
X144624571Y-65349149D01*
X144739090Y-65334682D01*
X144739094Y-65334681D01*
X144743022Y-65334185D01*
X144913694Y-65290364D01*
X145044941Y-65256666D01*
X145044949Y-65256663D01*
X145048779Y-65255680D01*
X145342286Y-65139473D01*
X145379066Y-65119253D01*
X145615441Y-64989305D01*
X145615444Y-64989303D01*
X145618913Y-64987396D01*
X145874299Y-64801847D01*
X145951664Y-64729197D01*
X146101529Y-64588464D01*
X146104416Y-64585753D01*
X146305634Y-64342522D01*
X146439263Y-64131956D01*
X146472657Y-64079336D01*
X146472657Y-64079335D01*
X146474781Y-64075989D01*
X146609188Y-63790358D01*
X146706737Y-63490134D01*
X146765889Y-63180051D01*
X146785710Y-62865000D01*
X146769730Y-62611000D01*
X170968290Y-62611000D01*
X170988111Y-62926051D01*
X171047263Y-63236134D01*
X171144812Y-63536358D01*
X171279219Y-63821989D01*
X171448366Y-64088522D01*
X171649584Y-64331753D01*
X171879701Y-64547847D01*
X172135087Y-64733396D01*
X172138556Y-64735303D01*
X172138559Y-64735305D01*
X172407763Y-64883301D01*
X172411714Y-64885473D01*
X172705221Y-65001680D01*
X172709051Y-65002663D01*
X172709059Y-65002666D01*
X172901447Y-65052062D01*
X173010978Y-65080185D01*
X173014906Y-65080681D01*
X173014910Y-65080682D01*
X173138292Y-65096269D01*
X173324163Y-65119750D01*
X173639837Y-65119750D01*
X173825708Y-65096269D01*
X173949090Y-65080682D01*
X173949094Y-65080681D01*
X173953022Y-65080185D01*
X174062553Y-65052062D01*
X174254941Y-65002666D01*
X174254949Y-65002663D01*
X174258779Y-65001680D01*
X174552286Y-64885473D01*
X174556237Y-64883301D01*
X174825441Y-64735305D01*
X174825444Y-64735303D01*
X174828913Y-64733396D01*
X175084299Y-64547847D01*
X175314416Y-64331753D01*
X175515634Y-64088522D01*
X175684781Y-63821989D01*
X175819188Y-63536358D01*
X175916737Y-63236134D01*
X175975889Y-62926051D01*
X175995710Y-62611000D01*
X175975889Y-62295949D01*
X175916737Y-61985866D01*
X175819188Y-61685642D01*
X175817073Y-61681146D01*
X175719988Y-61474830D01*
X175684781Y-61400011D01*
X175678950Y-61390822D01*
X175517756Y-61136822D01*
X175515634Y-61133478D01*
X175314416Y-60890247D01*
X175084299Y-60674153D01*
X175072149Y-60665325D01*
X174967190Y-60589068D01*
X174828913Y-60488604D01*
X174660131Y-60395815D01*
X174555757Y-60338435D01*
X174555754Y-60338434D01*
X174552286Y-60336527D01*
X174258779Y-60220320D01*
X174254949Y-60219337D01*
X174254941Y-60219334D01*
X174062553Y-60169938D01*
X173953022Y-60141815D01*
X173949094Y-60141319D01*
X173949090Y-60141318D01*
X173825708Y-60125731D01*
X173639837Y-60102250D01*
X173324163Y-60102250D01*
X173138292Y-60125731D01*
X173014910Y-60141318D01*
X173014906Y-60141319D01*
X173010978Y-60141815D01*
X172901447Y-60169938D01*
X172709059Y-60219334D01*
X172709051Y-60219337D01*
X172705221Y-60220320D01*
X172411714Y-60336527D01*
X172408246Y-60338434D01*
X172408243Y-60338435D01*
X172303870Y-60395815D01*
X172135087Y-60488604D01*
X171996810Y-60589068D01*
X171891852Y-60665325D01*
X171879701Y-60674153D01*
X171649584Y-60890247D01*
X171448366Y-61133478D01*
X171446244Y-61136822D01*
X171285051Y-61390822D01*
X171279219Y-61400011D01*
X171244012Y-61474830D01*
X171146928Y-61681146D01*
X171144812Y-61685642D01*
X171047263Y-61985866D01*
X170988111Y-62295949D01*
X170968290Y-62611000D01*
X146769730Y-62611000D01*
X146765889Y-62549949D01*
X146706737Y-62239866D01*
X146609188Y-61939642D01*
X146474781Y-61654011D01*
X146305634Y-61387478D01*
X146104416Y-61144247D01*
X145874299Y-60928153D01*
X145618913Y-60742604D01*
X145614190Y-60740007D01*
X145345757Y-60592435D01*
X145345754Y-60592434D01*
X145342286Y-60590527D01*
X145048779Y-60474320D01*
X145044949Y-60473337D01*
X145044941Y-60473334D01*
X144813205Y-60413835D01*
X144743022Y-60395815D01*
X144739094Y-60395319D01*
X144739090Y-60395318D01*
X144615708Y-60379731D01*
X144429837Y-60356250D01*
X144114163Y-60356250D01*
X143928292Y-60379731D01*
X143804910Y-60395318D01*
X143804906Y-60395319D01*
X143800978Y-60395815D01*
X143730795Y-60413835D01*
X143499059Y-60473334D01*
X143499051Y-60473337D01*
X143495221Y-60474320D01*
X143201714Y-60590527D01*
X143198246Y-60592434D01*
X143198243Y-60592435D01*
X142929811Y-60740007D01*
X142925087Y-60742604D01*
X142669701Y-60928153D01*
X142439584Y-61144247D01*
X142238366Y-61387478D01*
X142069219Y-61654011D01*
X141934812Y-61939642D01*
X141837263Y-62239866D01*
X141778111Y-62549949D01*
X141758290Y-62865000D01*
X140156906Y-62865000D01*
X140157017Y-62845302D01*
X140157046Y-62844611D01*
X140157200Y-62843617D01*
X140157200Y-62813112D01*
X140157202Y-62812402D01*
X140157407Y-62776030D01*
X140157643Y-62734146D01*
X140157285Y-62732897D01*
X140157200Y-62731649D01*
X140157200Y-55753000D01*
X141631290Y-55753000D01*
X141651111Y-56068051D01*
X141710263Y-56378134D01*
X141807812Y-56678358D01*
X141809499Y-56681944D01*
X141809501Y-56681948D01*
X141840230Y-56747251D01*
X141942219Y-56963989D01*
X142111366Y-57230522D01*
X142312584Y-57473753D01*
X142542701Y-57689847D01*
X142798087Y-57875396D01*
X142801556Y-57877303D01*
X142801559Y-57877305D01*
X143050190Y-58013991D01*
X143074714Y-58027473D01*
X143368221Y-58143680D01*
X143372051Y-58144663D01*
X143372059Y-58144666D01*
X143484319Y-58173489D01*
X143673978Y-58222185D01*
X143677906Y-58222681D01*
X143677910Y-58222682D01*
X143801292Y-58238269D01*
X143987163Y-58261750D01*
X144302837Y-58261750D01*
X144488708Y-58238269D01*
X144612090Y-58222682D01*
X144612094Y-58222681D01*
X144616022Y-58222185D01*
X144805681Y-58173489D01*
X144917941Y-58144666D01*
X144917949Y-58144663D01*
X144921779Y-58143680D01*
X145215286Y-58027473D01*
X145239810Y-58013991D01*
X145488441Y-57877305D01*
X145488444Y-57877303D01*
X145491913Y-57875396D01*
X145747299Y-57689847D01*
X145977416Y-57473753D01*
X146035121Y-57404000D01*
X172041502Y-57404000D01*
X172061457Y-57632087D01*
X172062881Y-57637400D01*
X172062881Y-57637402D01*
X172077558Y-57692175D01*
X172120716Y-57853243D01*
X172123039Y-57858224D01*
X172123039Y-57858225D01*
X172215151Y-58055762D01*
X172215154Y-58055767D01*
X172217477Y-58060749D01*
X172290902Y-58165611D01*
X172329826Y-58221199D01*
X172348802Y-58248300D01*
X172510700Y-58410198D01*
X172515208Y-58413355D01*
X172515211Y-58413357D01*
X172593389Y-58468098D01*
X172698251Y-58541523D01*
X172703233Y-58543846D01*
X172703238Y-58543849D01*
X172900775Y-58635961D01*
X172905757Y-58638284D01*
X172911065Y-58639706D01*
X172911067Y-58639707D01*
X173121598Y-58696119D01*
X173121600Y-58696119D01*
X173126913Y-58697543D01*
X173355000Y-58717498D01*
X173583087Y-58697543D01*
X173588400Y-58696119D01*
X173588402Y-58696119D01*
X173798933Y-58639707D01*
X173798935Y-58639706D01*
X173804243Y-58638284D01*
X173809225Y-58635961D01*
X174006762Y-58543849D01*
X174006767Y-58543846D01*
X174011749Y-58541523D01*
X174116611Y-58468098D01*
X174194789Y-58413357D01*
X174194792Y-58413355D01*
X174199300Y-58410198D01*
X174361198Y-58248300D01*
X174380175Y-58221199D01*
X174419098Y-58165611D01*
X174492523Y-58060749D01*
X174494846Y-58055767D01*
X174494849Y-58055762D01*
X174586961Y-57858225D01*
X174586961Y-57858224D01*
X174589284Y-57853243D01*
X174632443Y-57692175D01*
X174647119Y-57637402D01*
X174647119Y-57637400D01*
X174648543Y-57632087D01*
X174668498Y-57404000D01*
X174648543Y-57175913D01*
X174647070Y-57170416D01*
X174590707Y-56960067D01*
X174590706Y-56960065D01*
X174589284Y-56954757D01*
X174542220Y-56853827D01*
X174494849Y-56752238D01*
X174494846Y-56752233D01*
X174492523Y-56747251D01*
X174361198Y-56559700D01*
X174199300Y-56397802D01*
X174194792Y-56394645D01*
X174194789Y-56394643D01*
X174089027Y-56320588D01*
X174011749Y-56266477D01*
X174006767Y-56264154D01*
X174006762Y-56264151D01*
X173809225Y-56172039D01*
X173809224Y-56172039D01*
X173804243Y-56169716D01*
X173798935Y-56168294D01*
X173798933Y-56168293D01*
X173588402Y-56111881D01*
X173588400Y-56111881D01*
X173583087Y-56110457D01*
X173355000Y-56090502D01*
X173126913Y-56110457D01*
X173121600Y-56111881D01*
X173121598Y-56111881D01*
X172911067Y-56168293D01*
X172911065Y-56168294D01*
X172905757Y-56169716D01*
X172900776Y-56172039D01*
X172900775Y-56172039D01*
X172703238Y-56264151D01*
X172703233Y-56264154D01*
X172698251Y-56266477D01*
X172620973Y-56320588D01*
X172515211Y-56394643D01*
X172515208Y-56394645D01*
X172510700Y-56397802D01*
X172348802Y-56559700D01*
X172217477Y-56747251D01*
X172215154Y-56752233D01*
X172215151Y-56752238D01*
X172167780Y-56853827D01*
X172120716Y-56954757D01*
X172119294Y-56960065D01*
X172119293Y-56960067D01*
X172062930Y-57170416D01*
X172061457Y-57175913D01*
X172041502Y-57404000D01*
X146035121Y-57404000D01*
X146178634Y-57230522D01*
X146347781Y-56963989D01*
X146449770Y-56747251D01*
X146480499Y-56681948D01*
X146480501Y-56681944D01*
X146482188Y-56678358D01*
X146579737Y-56378134D01*
X146638889Y-56068051D01*
X146658710Y-55753000D01*
X146638889Y-55437949D01*
X146579737Y-55127866D01*
X146484671Y-54835283D01*
X146483414Y-54831415D01*
X146483414Y-54831414D01*
X146482188Y-54827642D01*
X146347781Y-54542011D01*
X146336300Y-54523919D01*
X146238660Y-54370064D01*
X146178634Y-54275478D01*
X145977416Y-54032247D01*
X145747299Y-53816153D01*
X145491913Y-53630604D01*
X145215286Y-53478527D01*
X144921779Y-53362320D01*
X144917949Y-53361337D01*
X144917941Y-53361334D01*
X144725553Y-53311938D01*
X144616022Y-53283815D01*
X144612094Y-53283319D01*
X144612090Y-53283318D01*
X144488708Y-53267731D01*
X144302837Y-53244250D01*
X143987163Y-53244250D01*
X143801292Y-53267731D01*
X143677910Y-53283318D01*
X143677906Y-53283319D01*
X143673978Y-53283815D01*
X143564447Y-53311938D01*
X143372059Y-53361334D01*
X143372051Y-53361337D01*
X143368221Y-53362320D01*
X143074714Y-53478527D01*
X142798087Y-53630604D01*
X142542701Y-53816153D01*
X142312584Y-54032247D01*
X142111366Y-54275478D01*
X142051340Y-54370064D01*
X141953701Y-54523919D01*
X141942219Y-54542011D01*
X141807812Y-54827642D01*
X141806586Y-54831414D01*
X141806586Y-54831415D01*
X141805329Y-54835283D01*
X141710263Y-55127866D01*
X141651111Y-55437949D01*
X141631290Y-55753000D01*
X140157200Y-55753000D01*
X140157200Y-52537134D01*
X151599500Y-52537134D01*
X151606255Y-52599316D01*
X151657385Y-52735705D01*
X151744739Y-52852261D01*
X151861295Y-52939615D01*
X151997684Y-52990745D01*
X152059866Y-52997500D01*
X153756134Y-52997500D01*
X153818316Y-52990745D01*
X153954705Y-52939615D01*
X154071261Y-52852261D01*
X154158615Y-52735705D01*
X154209745Y-52599316D01*
X154216500Y-52537134D01*
X154216500Y-50840866D01*
X154209745Y-50778684D01*
X154158615Y-50642295D01*
X154071261Y-50525739D01*
X153997068Y-50470134D01*
X159889500Y-50470134D01*
X159896255Y-50532316D01*
X159947385Y-50668705D01*
X160034739Y-50785261D01*
X160151295Y-50872615D01*
X160287684Y-50923745D01*
X160349866Y-50930500D01*
X163246134Y-50930500D01*
X163308316Y-50923745D01*
X163444705Y-50872615D01*
X163561261Y-50785261D01*
X163648615Y-50668705D01*
X163699745Y-50532316D01*
X163706500Y-50470134D01*
X163706500Y-47573866D01*
X163699745Y-47511684D01*
X163659376Y-47404000D01*
X172041502Y-47404000D01*
X172061457Y-47632087D01*
X172062881Y-47637400D01*
X172062881Y-47637402D01*
X172113691Y-47827024D01*
X172120716Y-47853243D01*
X172123039Y-47858224D01*
X172123039Y-47858225D01*
X172215151Y-48055762D01*
X172215154Y-48055767D01*
X172217477Y-48060749D01*
X172348802Y-48248300D01*
X172510700Y-48410198D01*
X172515208Y-48413355D01*
X172515211Y-48413357D01*
X172593389Y-48468098D01*
X172698251Y-48541523D01*
X172703233Y-48543846D01*
X172703238Y-48543849D01*
X172900775Y-48635961D01*
X172905757Y-48638284D01*
X172911065Y-48639706D01*
X172911067Y-48639707D01*
X173121598Y-48696119D01*
X173121600Y-48696119D01*
X173126913Y-48697543D01*
X173355000Y-48717498D01*
X173583087Y-48697543D01*
X173588400Y-48696119D01*
X173588402Y-48696119D01*
X173798933Y-48639707D01*
X173798935Y-48639706D01*
X173804243Y-48638284D01*
X173809225Y-48635961D01*
X174006762Y-48543849D01*
X174006767Y-48543846D01*
X174011749Y-48541523D01*
X174116611Y-48468098D01*
X174194789Y-48413357D01*
X174194792Y-48413355D01*
X174199300Y-48410198D01*
X174216795Y-48392703D01*
X195340743Y-48392703D01*
X195378268Y-48677734D01*
X195379401Y-48681874D01*
X195379401Y-48681876D01*
X195383687Y-48697543D01*
X195454129Y-48955036D01*
X195455813Y-48958984D01*
X195539372Y-49154883D01*
X195566923Y-49219476D01*
X195714561Y-49466161D01*
X195894313Y-49690528D01*
X196017711Y-49807628D01*
X196051488Y-49839681D01*
X196102851Y-49888423D01*
X196206602Y-49962976D01*
X196328829Y-50050805D01*
X196336317Y-50056186D01*
X196340112Y-50058195D01*
X196340113Y-50058196D01*
X196361869Y-50069715D01*
X196590392Y-50190712D01*
X196860373Y-50289511D01*
X197141264Y-50350755D01*
X197169841Y-50353004D01*
X197364282Y-50368307D01*
X197364291Y-50368307D01*
X197366739Y-50368500D01*
X197522271Y-50368500D01*
X197524407Y-50368354D01*
X197524418Y-50368354D01*
X197732548Y-50354165D01*
X197732554Y-50354164D01*
X197736825Y-50353873D01*
X197741020Y-50353004D01*
X197741022Y-50353004D01*
X197877583Y-50324724D01*
X198018342Y-50295574D01*
X198289343Y-50199607D01*
X198377362Y-50154177D01*
X198541005Y-50069715D01*
X198541006Y-50069715D01*
X198544812Y-50067750D01*
X198548313Y-50065289D01*
X198548317Y-50065287D01*
X198698379Y-49959821D01*
X198780023Y-49902441D01*
X198858403Y-49829606D01*
X198987479Y-49709661D01*
X198987481Y-49709658D01*
X198990622Y-49706740D01*
X199172713Y-49484268D01*
X199322927Y-49239142D01*
X199438483Y-48975898D01*
X199517244Y-48699406D01*
X199557751Y-48414784D01*
X199557776Y-48410198D01*
X199559235Y-48131583D01*
X199559235Y-48131576D01*
X199559257Y-48127297D01*
X199521732Y-47842266D01*
X199445871Y-47564964D01*
X199419989Y-47504285D01*
X199334763Y-47304476D01*
X199334761Y-47304472D01*
X199333077Y-47300524D01*
X199232506Y-47132482D01*
X199187643Y-47057521D01*
X199187640Y-47057517D01*
X199185439Y-47053839D01*
X199005687Y-46829472D01*
X198797149Y-46631577D01*
X198597956Y-46488442D01*
X198567172Y-46466321D01*
X198567171Y-46466320D01*
X198563683Y-46463814D01*
X198541843Y-46452250D01*
X198486351Y-46422869D01*
X198309608Y-46329288D01*
X198062035Y-46238689D01*
X198043658Y-46231964D01*
X198043656Y-46231963D01*
X198039627Y-46230489D01*
X197758736Y-46169245D01*
X197727685Y-46166801D01*
X197535718Y-46151693D01*
X197535709Y-46151693D01*
X197533261Y-46151500D01*
X197377729Y-46151500D01*
X197375593Y-46151646D01*
X197375582Y-46151646D01*
X197167452Y-46165835D01*
X197167446Y-46165836D01*
X197163175Y-46166127D01*
X197158980Y-46166996D01*
X197158978Y-46166996D01*
X197083277Y-46182673D01*
X196881658Y-46224426D01*
X196610657Y-46320393D01*
X196355188Y-46452250D01*
X196351687Y-46454711D01*
X196351683Y-46454713D01*
X196251032Y-46525452D01*
X196119977Y-46617559D01*
X195909378Y-46813260D01*
X195727287Y-47035732D01*
X195577073Y-47280858D01*
X195575347Y-47284791D01*
X195575346Y-47284792D01*
X195472299Y-47519540D01*
X195461517Y-47544102D01*
X195460342Y-47548229D01*
X195460341Y-47548230D01*
X195456699Y-47561016D01*
X195382756Y-47820594D01*
X195352485Y-48033296D01*
X195343216Y-48098424D01*
X195342249Y-48105216D01*
X195342227Y-48109505D01*
X195342226Y-48109512D01*
X195340899Y-48362842D01*
X195340743Y-48392703D01*
X174216795Y-48392703D01*
X174361198Y-48248300D01*
X174492523Y-48060749D01*
X174494846Y-48055767D01*
X174494849Y-48055762D01*
X174586961Y-47858225D01*
X174586961Y-47858224D01*
X174589284Y-47853243D01*
X174596310Y-47827024D01*
X174647119Y-47637402D01*
X174647119Y-47637400D01*
X174648543Y-47632087D01*
X174668498Y-47404000D01*
X174648543Y-47175913D01*
X174634373Y-47123029D01*
X174590707Y-46960067D01*
X174590706Y-46960065D01*
X174589284Y-46954757D01*
X174586961Y-46949775D01*
X174494849Y-46752238D01*
X174494846Y-46752233D01*
X174492523Y-46747251D01*
X174409774Y-46629074D01*
X174364357Y-46564211D01*
X174364355Y-46564208D01*
X174361198Y-46559700D01*
X174199300Y-46397802D01*
X174194792Y-46394645D01*
X174194789Y-46394643D01*
X174099346Y-46327813D01*
X174011749Y-46266477D01*
X174006767Y-46264154D01*
X174006762Y-46264151D01*
X173809225Y-46172039D01*
X173809224Y-46172039D01*
X173804243Y-46169716D01*
X173798935Y-46168294D01*
X173798933Y-46168293D01*
X173588402Y-46111881D01*
X173588400Y-46111881D01*
X173583087Y-46110457D01*
X173355000Y-46090502D01*
X173126913Y-46110457D01*
X173121600Y-46111881D01*
X173121598Y-46111881D01*
X172911067Y-46168293D01*
X172911065Y-46168294D01*
X172905757Y-46169716D01*
X172900776Y-46172039D01*
X172900775Y-46172039D01*
X172703238Y-46264151D01*
X172703233Y-46264154D01*
X172698251Y-46266477D01*
X172610654Y-46327813D01*
X172515211Y-46394643D01*
X172515208Y-46394645D01*
X172510700Y-46397802D01*
X172348802Y-46559700D01*
X172345645Y-46564208D01*
X172345643Y-46564211D01*
X172300226Y-46629074D01*
X172217477Y-46747251D01*
X172215154Y-46752233D01*
X172215151Y-46752238D01*
X172123039Y-46949775D01*
X172120716Y-46954757D01*
X172119294Y-46960065D01*
X172119293Y-46960067D01*
X172075627Y-47123029D01*
X172061457Y-47175913D01*
X172041502Y-47404000D01*
X163659376Y-47404000D01*
X163648615Y-47375295D01*
X163561261Y-47258739D01*
X163444705Y-47171385D01*
X163308316Y-47120255D01*
X163246134Y-47113500D01*
X160349866Y-47113500D01*
X160287684Y-47120255D01*
X160151295Y-47171385D01*
X160034739Y-47258739D01*
X159947385Y-47375295D01*
X159896255Y-47511684D01*
X159889500Y-47573866D01*
X159889500Y-50470134D01*
X153997068Y-50470134D01*
X153954705Y-50438385D01*
X153818316Y-50387255D01*
X153756134Y-50380500D01*
X152059866Y-50380500D01*
X151997684Y-50387255D01*
X151861295Y-50438385D01*
X151744739Y-50525739D01*
X151657385Y-50642295D01*
X151606255Y-50778684D01*
X151599500Y-50840866D01*
X151599500Y-52537134D01*
X140157200Y-52537134D01*
X140157200Y-46633313D01*
X140157202Y-46632603D01*
X140157424Y-46593125D01*
X140157643Y-46554346D01*
X140155174Y-46545722D01*
X140155173Y-46545716D01*
X140149554Y-46526093D01*
X140145961Y-46509287D01*
X140141795Y-46480195D01*
X140131120Y-46456716D01*
X140124687Y-46439245D01*
X140120059Y-46423080D01*
X140120057Y-46423076D01*
X140117588Y-46414452D01*
X140112716Y-46406737D01*
X140101898Y-46389611D01*
X140093727Y-46374475D01*
X140085284Y-46355905D01*
X140085283Y-46355904D01*
X140081567Y-46347730D01*
X140064731Y-46328190D01*
X140053661Y-46313238D01*
X140039882Y-46291423D01*
X140033151Y-46285484D01*
X140033149Y-46285482D01*
X140017849Y-46271982D01*
X140005758Y-46259748D01*
X139992443Y-46244295D01*
X139992438Y-46244291D01*
X139986581Y-46237493D01*
X139975776Y-46230489D01*
X139964934Y-46223462D01*
X139950113Y-46212218D01*
X139930768Y-46195150D01*
X139922644Y-46191340D01*
X139922640Y-46191338D01*
X139904161Y-46182673D01*
X139889127Y-46174327D01*
X139882013Y-46169716D01*
X139864473Y-46158347D01*
X139855872Y-46155775D01*
X139855868Y-46155773D01*
X139839762Y-46150956D01*
X139822368Y-46144319D01*
X139807149Y-46137182D01*
X139807144Y-46137180D01*
X139799018Y-46133370D01*
X139790149Y-46131993D01*
X139790148Y-46131993D01*
X139769978Y-46128862D01*
X139753208Y-46125071D01*
X139740651Y-46121316D01*
X139725059Y-46116653D01*
X139716081Y-46116598D01*
X139690610Y-46116442D01*
X139689726Y-46116405D01*
X139688535Y-46116221D01*
X139657209Y-46116236D01*
X139656515Y-46116234D01*
X139579548Y-46115764D01*
X139578105Y-46116177D01*
X139576676Y-46116275D01*
X128979452Y-46121316D01*
X128978816Y-46121314D01*
X128946751Y-46121138D01*
X128910044Y-46120937D01*
X128910043Y-46120937D01*
X128901069Y-46120888D01*
X128877847Y-46127541D01*
X128872726Y-46129008D01*
X128855948Y-46132600D01*
X128826761Y-46136794D01*
X128803379Y-46147439D01*
X128785887Y-46153886D01*
X128761181Y-46160964D01*
X128753595Y-46165757D01*
X128753593Y-46165758D01*
X128736255Y-46176713D01*
X128721168Y-46184865D01*
X128694324Y-46197085D01*
X128687527Y-46202947D01*
X128687526Y-46202948D01*
X128674871Y-46213863D01*
X128659885Y-46224965D01*
X128638164Y-46238689D01*
X128632228Y-46245419D01*
X128618663Y-46260798D01*
X128606461Y-46272865D01*
X128590930Y-46286260D01*
X128590927Y-46286263D01*
X128584133Y-46292123D01*
X128570468Y-46313228D01*
X128570174Y-46313682D01*
X128558902Y-46328549D01*
X128541907Y-46347817D01*
X128538097Y-46355945D01*
X128529392Y-46374516D01*
X128521070Y-46389519D01*
X128517752Y-46394643D01*
X128505045Y-46414269D01*
X128502479Y-46422865D01*
X128502477Y-46422869D01*
X128497699Y-46438876D01*
X128491052Y-46456312D01*
X128480147Y-46479576D01*
X128478772Y-46488441D01*
X128478772Y-46488442D01*
X128475628Y-46508718D01*
X128471851Y-46525452D01*
X128463417Y-46553702D01*
X128463367Y-46562680D01*
X128463224Y-46588113D01*
X128463190Y-46588936D01*
X128463015Y-46590062D01*
X128463035Y-46620478D01*
X128463035Y-46621140D01*
X128463033Y-46621850D01*
X128462597Y-46699214D01*
X66368424Y-46699214D01*
X66297149Y-46631577D01*
X66097956Y-46488442D01*
X66067172Y-46466321D01*
X66067171Y-46466320D01*
X66063683Y-46463814D01*
X66041843Y-46452250D01*
X65986351Y-46422869D01*
X65809608Y-46329288D01*
X65562035Y-46238689D01*
X65543658Y-46231964D01*
X65543656Y-46231963D01*
X65539627Y-46230489D01*
X65258736Y-46169245D01*
X65227685Y-46166801D01*
X65035718Y-46151693D01*
X65035709Y-46151693D01*
X65033261Y-46151500D01*
X64877729Y-46151500D01*
X64875593Y-46151646D01*
X64875582Y-46151646D01*
X64667452Y-46165835D01*
X64667446Y-46165836D01*
X64663175Y-46166127D01*
X64658980Y-46166996D01*
X64658978Y-46166996D01*
X64583277Y-46182673D01*
X64381658Y-46224426D01*
X64110657Y-46320393D01*
X63855188Y-46452250D01*
X63851687Y-46454711D01*
X63851683Y-46454713D01*
X63751032Y-46525452D01*
X63619977Y-46617559D01*
X63409378Y-46813260D01*
X63227287Y-47035732D01*
X63077073Y-47280858D01*
X63075347Y-47284791D01*
X63075346Y-47284792D01*
X62972299Y-47519540D01*
X62961517Y-47544102D01*
X62960342Y-47548229D01*
X62960341Y-47548230D01*
X62956699Y-47561016D01*
X62882756Y-47820594D01*
X62852485Y-48033296D01*
X62843216Y-48098424D01*
X62842249Y-48105216D01*
X62842227Y-48109505D01*
X62842226Y-48109512D01*
X62840899Y-48362842D01*
X62840743Y-48392703D01*
X61977544Y-48392703D01*
X61976233Y-44819931D01*
X61996210Y-44751804D01*
X62049849Y-44705292D01*
X62102241Y-44693886D01*
X132182397Y-44698988D01*
G37*
G04 #@! TD.AperFunction*
M02*
