G04 #@! TF.GenerationSoftware,KiCad,Pcbnew,(6.0.0)*
G04 #@! TF.CreationDate,2022-05-31T00:37:06+02:00*
G04 #@! TF.ProjectId,rfamp3,7266616d-7033-42e6-9b69-6361645f7063,rev?*
G04 #@! TF.SameCoordinates,Original*
G04 #@! TF.FileFunction,Legend,Top*
G04 #@! TF.FilePolarity,Positive*
%FSLAX46Y46*%
G04 Gerber Fmt 4.6, Leading zero omitted, Abs format (unit mm)*
G04 Created by KiCad (PCBNEW (6.0.0)) date 2022-05-31 00:37:06*
%MOMM*%
%LPD*%
G01*
G04 APERTURE LIST*
%ADD10C,0.150000*%
%ADD11C,0.120000*%
G04 APERTURE END LIST*
D10*
X126728150Y-30426612D02*
X126156721Y-30426612D01*
X126442436Y-30426612D02*
X126442436Y-29426612D01*
X126347198Y-29569470D01*
X126251960Y-29664708D01*
X126156721Y-29712327D01*
X127061483Y-29426612D02*
X127680531Y-29426612D01*
X127347198Y-29807565D01*
X127490055Y-29807565D01*
X127585293Y-29855184D01*
X127632912Y-29902803D01*
X127680531Y-29998041D01*
X127680531Y-30236136D01*
X127632912Y-30331374D01*
X127585293Y-30378993D01*
X127490055Y-30426612D01*
X127204340Y-30426612D01*
X127109102Y-30378993D01*
X127061483Y-30331374D01*
X128156721Y-30426612D02*
X128347198Y-30426612D01*
X128442436Y-30378993D01*
X128490055Y-30331374D01*
X128585293Y-30188517D01*
X128632912Y-29998041D01*
X128632912Y-29617089D01*
X128585293Y-29521851D01*
X128537674Y-29474232D01*
X128442436Y-29426612D01*
X128251960Y-29426612D01*
X128156721Y-29474232D01*
X128109102Y-29521851D01*
X128061483Y-29617089D01*
X128061483Y-29855184D01*
X128109102Y-29950422D01*
X128156721Y-29998041D01*
X128251960Y-30045660D01*
X128442436Y-30045660D01*
X128537674Y-29998041D01*
X128585293Y-29950422D01*
X128632912Y-29855184D01*
X129061483Y-30331374D02*
X129109102Y-30378993D01*
X129061483Y-30426612D01*
X129013864Y-30378993D01*
X129061483Y-30331374D01*
X129061483Y-30426612D01*
X130013864Y-29426612D02*
X129537674Y-29426612D01*
X129490055Y-29902803D01*
X129537674Y-29855184D01*
X129632912Y-29807565D01*
X129871007Y-29807565D01*
X129966245Y-29855184D01*
X130013864Y-29902803D01*
X130061483Y-29998041D01*
X130061483Y-30236136D01*
X130013864Y-30331374D01*
X129966245Y-30378993D01*
X129871007Y-30426612D01*
X129632912Y-30426612D01*
X129537674Y-30378993D01*
X129490055Y-30331374D01*
X130394817Y-29426612D02*
X131061483Y-29426612D01*
X130632912Y-30426612D01*
X131585293Y-29855184D02*
X131490055Y-29807565D01*
X131442436Y-29759946D01*
X131394817Y-29664708D01*
X131394817Y-29617089D01*
X131442436Y-29521851D01*
X131490055Y-29474232D01*
X131585293Y-29426612D01*
X131775769Y-29426612D01*
X131871007Y-29474232D01*
X131918626Y-29521851D01*
X131966245Y-29617089D01*
X131966245Y-29664708D01*
X131918626Y-29759946D01*
X131871007Y-29807565D01*
X131775769Y-29855184D01*
X131585293Y-29855184D01*
X131490055Y-29902803D01*
X131442436Y-29950422D01*
X131394817Y-30045660D01*
X131394817Y-30236136D01*
X131442436Y-30331374D01*
X131490055Y-30378993D01*
X131585293Y-30426612D01*
X131775769Y-30426612D01*
X131871007Y-30378993D01*
X131918626Y-30331374D01*
X131966245Y-30236136D01*
X131966245Y-30045660D01*
X131918626Y-29950422D01*
X131871007Y-29902803D01*
X131775769Y-29855184D01*
X132918626Y-30426612D02*
X132347198Y-30426612D01*
X132632912Y-30426612D02*
X132632912Y-29426612D01*
X132537674Y-29569470D01*
X132442436Y-29664708D01*
X132347198Y-29712327D01*
X134109102Y-30426612D02*
X134109102Y-29759946D01*
X134109102Y-29855184D02*
X134156721Y-29807565D01*
X134251960Y-29759946D01*
X134394817Y-29759946D01*
X134490055Y-29807565D01*
X134537674Y-29902803D01*
X134537674Y-30426612D01*
X134537674Y-29902803D02*
X134585293Y-29807565D01*
X134680531Y-29759946D01*
X134823388Y-29759946D01*
X134918626Y-29807565D01*
X134966245Y-29902803D01*
X134966245Y-30426612D01*
X135442436Y-30426612D02*
X135442436Y-29759946D01*
X135442436Y-29855184D02*
X135490055Y-29807565D01*
X135585293Y-29759946D01*
X135728150Y-29759946D01*
X135823388Y-29807565D01*
X135871007Y-29902803D01*
X135871007Y-30426612D01*
X135871007Y-29902803D02*
X135918626Y-29807565D01*
X136013864Y-29759946D01*
X136156721Y-29759946D01*
X136251960Y-29807565D01*
X136299579Y-29902803D01*
X136299579Y-30426612D01*
D11*
X201041000Y-44196000D02*
X201041000Y-30537812D01*
X61462920Y-44196000D02*
X61462920Y-30537812D01*
X201041000Y-31124232D02*
X137112675Y-31124232D01*
X125391246Y-31124232D02*
X61462920Y-31124232D01*
X201041000Y-31124232D02*
X199914496Y-30537811D01*
X201041000Y-31124232D02*
X199914496Y-31710653D01*
X61462920Y-31124232D02*
X62589424Y-31710653D01*
X61462920Y-31124232D02*
X62589424Y-30537811D01*
D10*
X160623833Y-33359200D02*
X161242880Y-33359200D01*
X160909547Y-33740153D01*
X161052404Y-33740153D01*
X161147642Y-33787772D01*
X161195261Y-33835391D01*
X161242880Y-33930629D01*
X161242880Y-34168724D01*
X161195261Y-34263962D01*
X161147642Y-34311581D01*
X161052404Y-34359200D01*
X160766690Y-34359200D01*
X160671452Y-34311581D01*
X160623833Y-34263962D01*
X162147642Y-33359200D02*
X161671452Y-33359200D01*
X161623833Y-33835391D01*
X161671452Y-33787772D01*
X161766690Y-33740153D01*
X162004785Y-33740153D01*
X162100023Y-33787772D01*
X162147642Y-33835391D01*
X162195261Y-33930629D01*
X162195261Y-34168724D01*
X162147642Y-34263962D01*
X162100023Y-34311581D01*
X162004785Y-34359200D01*
X161766690Y-34359200D01*
X161671452Y-34311581D01*
X161623833Y-34263962D01*
X162623833Y-34263962D02*
X162671452Y-34311581D01*
X162623833Y-34359200D01*
X162576214Y-34311581D01*
X162623833Y-34263962D01*
X162623833Y-34359200D01*
X163623833Y-34359200D02*
X163052404Y-34359200D01*
X163338119Y-34359200D02*
X163338119Y-33359200D01*
X163242880Y-33502058D01*
X163147642Y-33597296D01*
X163052404Y-33644915D01*
X163957166Y-33359200D02*
X164623833Y-33359200D01*
X164195261Y-34359200D01*
X165052404Y-34359200D02*
X165242880Y-34359200D01*
X165338119Y-34311581D01*
X165385738Y-34263962D01*
X165480976Y-34121105D01*
X165528595Y-33930629D01*
X165528595Y-33549677D01*
X165480976Y-33454439D01*
X165433357Y-33406820D01*
X165338119Y-33359200D01*
X165147642Y-33359200D01*
X165052404Y-33406820D01*
X165004785Y-33454439D01*
X164957166Y-33549677D01*
X164957166Y-33787772D01*
X165004785Y-33883010D01*
X165052404Y-33930629D01*
X165147642Y-33978248D01*
X165338119Y-33978248D01*
X165433357Y-33930629D01*
X165480976Y-33883010D01*
X165528595Y-33787772D01*
X166147642Y-33359200D02*
X166242880Y-33359200D01*
X166338119Y-33406820D01*
X166385738Y-33454439D01*
X166433357Y-33549677D01*
X166480976Y-33740153D01*
X166480976Y-33978248D01*
X166433357Y-34168724D01*
X166385738Y-34263962D01*
X166338119Y-34311581D01*
X166242880Y-34359200D01*
X166147642Y-34359200D01*
X166052404Y-34311581D01*
X166004785Y-34263962D01*
X165957166Y-34168724D01*
X165909547Y-33978248D01*
X165909547Y-33740153D01*
X165957166Y-33549677D01*
X166004785Y-33454439D01*
X166052404Y-33406820D01*
X166147642Y-33359200D01*
X167671452Y-34359200D02*
X167671452Y-33692534D01*
X167671452Y-33787772D02*
X167719071Y-33740153D01*
X167814309Y-33692534D01*
X167957166Y-33692534D01*
X168052404Y-33740153D01*
X168100023Y-33835391D01*
X168100023Y-34359200D01*
X168100023Y-33835391D02*
X168147642Y-33740153D01*
X168242880Y-33692534D01*
X168385738Y-33692534D01*
X168480976Y-33740153D01*
X168528595Y-33835391D01*
X168528595Y-34359200D01*
X169004785Y-34359200D02*
X169004785Y-33692534D01*
X169004785Y-33787772D02*
X169052404Y-33740153D01*
X169147642Y-33692534D01*
X169290500Y-33692534D01*
X169385738Y-33740153D01*
X169433357Y-33835391D01*
X169433357Y-34359200D01*
X169433357Y-33835391D02*
X169480976Y-33740153D01*
X169576214Y-33692534D01*
X169719071Y-33692534D01*
X169814309Y-33740153D01*
X169861928Y-33835391D01*
X169861928Y-34359200D01*
D11*
X182880000Y-44069000D02*
X182880000Y-34470400D01*
X147701000Y-44069000D02*
X147701000Y-34470400D01*
X182880000Y-35056820D02*
X170675024Y-35056820D01*
X159905976Y-35056820D02*
X147701000Y-35056820D01*
X182880000Y-35056820D02*
X181753496Y-34470399D01*
X182880000Y-35056820D02*
X181753496Y-35643241D01*
X147701000Y-35056820D02*
X148827504Y-35643241D01*
X147701000Y-35056820D02*
X148827504Y-34470399D01*
D10*
X203757900Y-78263238D02*
X203757900Y-78739428D01*
X204234091Y-78787047D01*
X204186472Y-78739428D01*
X204138853Y-78644190D01*
X204138853Y-78406095D01*
X204186472Y-78310857D01*
X204234091Y-78263238D01*
X204329329Y-78215619D01*
X204567424Y-78215619D01*
X204662662Y-78263238D01*
X204710281Y-78310857D01*
X204757900Y-78406095D01*
X204757900Y-78644190D01*
X204710281Y-78739428D01*
X204662662Y-78787047D01*
X204757900Y-77739428D02*
X204757900Y-77548952D01*
X204710281Y-77453714D01*
X204662662Y-77406095D01*
X204519805Y-77310857D01*
X204329329Y-77263238D01*
X203948377Y-77263238D01*
X203853139Y-77310857D01*
X203805520Y-77358476D01*
X203757900Y-77453714D01*
X203757900Y-77644190D01*
X203805520Y-77739428D01*
X203853139Y-77787047D01*
X203948377Y-77834666D01*
X204186472Y-77834666D01*
X204281710Y-77787047D01*
X204329329Y-77739428D01*
X204376948Y-77644190D01*
X204376948Y-77453714D01*
X204329329Y-77358476D01*
X204281710Y-77310857D01*
X204186472Y-77263238D01*
X204662662Y-76834666D02*
X204710281Y-76787047D01*
X204757900Y-76834666D01*
X204710281Y-76882285D01*
X204662662Y-76834666D01*
X204757900Y-76834666D01*
X204757900Y-76310857D02*
X204757900Y-76120380D01*
X204710281Y-76025142D01*
X204662662Y-75977523D01*
X204519805Y-75882285D01*
X204329329Y-75834666D01*
X203948377Y-75834666D01*
X203853139Y-75882285D01*
X203805520Y-75929904D01*
X203757900Y-76025142D01*
X203757900Y-76215619D01*
X203805520Y-76310857D01*
X203853139Y-76358476D01*
X203948377Y-76406095D01*
X204186472Y-76406095D01*
X204281710Y-76358476D01*
X204329329Y-76310857D01*
X204376948Y-76215619D01*
X204376948Y-76025142D01*
X204329329Y-75929904D01*
X204281710Y-75882285D01*
X204186472Y-75834666D01*
X204091234Y-74977523D02*
X204757900Y-74977523D01*
X203710281Y-75215619D02*
X204424567Y-75453714D01*
X204424567Y-74834666D01*
X204091234Y-74025142D02*
X204757900Y-74025142D01*
X203710281Y-74263238D02*
X204424567Y-74501333D01*
X204424567Y-73882285D01*
X203757900Y-73310857D02*
X203757900Y-73215619D01*
X203805520Y-73120380D01*
X203853139Y-73072761D01*
X203948377Y-73025142D01*
X204138853Y-72977523D01*
X204376948Y-72977523D01*
X204567424Y-73025142D01*
X204662662Y-73072761D01*
X204710281Y-73120380D01*
X204757900Y-73215619D01*
X204757900Y-73310857D01*
X204710281Y-73406095D01*
X204662662Y-73453714D01*
X204567424Y-73501333D01*
X204376948Y-73548952D01*
X204138853Y-73548952D01*
X203948377Y-73501333D01*
X203853139Y-73453714D01*
X203805520Y-73406095D01*
X203757900Y-73310857D01*
X204757900Y-71787047D02*
X204091234Y-71787047D01*
X204186472Y-71787047D02*
X204138853Y-71739428D01*
X204091234Y-71644190D01*
X204091234Y-71501333D01*
X204138853Y-71406095D01*
X204234091Y-71358476D01*
X204757900Y-71358476D01*
X204234091Y-71358476D02*
X204138853Y-71310857D01*
X204091234Y-71215619D01*
X204091234Y-71072761D01*
X204138853Y-70977523D01*
X204234091Y-70929904D01*
X204757900Y-70929904D01*
X204757900Y-70453714D02*
X204091234Y-70453714D01*
X204186472Y-70453714D02*
X204138853Y-70406095D01*
X204091234Y-70310857D01*
X204091234Y-70168000D01*
X204138853Y-70072761D01*
X204234091Y-70025142D01*
X204757900Y-70025142D01*
X204234091Y-70025142D02*
X204138853Y-69977523D01*
X204091234Y-69882285D01*
X204091234Y-69739428D01*
X204138853Y-69644190D01*
X204234091Y-69596571D01*
X204757900Y-69596571D01*
D11*
X201041000Y-44196000D02*
X206041940Y-44196000D01*
X201041000Y-104140000D02*
X206041940Y-104140000D01*
X205455520Y-44196000D02*
X205455520Y-68783476D01*
X205455520Y-79552524D02*
X205455520Y-104140000D01*
X205455520Y-44196000D02*
X204869099Y-45322504D01*
X205455520Y-44196000D02*
X206041941Y-45322504D01*
X205455520Y-104140000D02*
X206041941Y-103013496D01*
X205455520Y-104140000D02*
X204869099Y-103013496D01*
D10*
X121372333Y-55009142D02*
X121324714Y-55056761D01*
X121181857Y-55104380D01*
X121086619Y-55104380D01*
X120943761Y-55056761D01*
X120848523Y-54961523D01*
X120800904Y-54866285D01*
X120753285Y-54675809D01*
X120753285Y-54532952D01*
X120800904Y-54342476D01*
X120848523Y-54247238D01*
X120943761Y-54152000D01*
X121086619Y-54104380D01*
X121181857Y-54104380D01*
X121324714Y-54152000D01*
X121372333Y-54199619D01*
X121705666Y-54104380D02*
X122372333Y-54104380D01*
X121943761Y-55104380D01*
X91882142Y-50172857D02*
X91929761Y-50220476D01*
X91977380Y-50363333D01*
X91977380Y-50458571D01*
X91929761Y-50601428D01*
X91834523Y-50696666D01*
X91739285Y-50744285D01*
X91548809Y-50791904D01*
X91405952Y-50791904D01*
X91215476Y-50744285D01*
X91120238Y-50696666D01*
X91025000Y-50601428D01*
X90977380Y-50458571D01*
X90977380Y-50363333D01*
X91025000Y-50220476D01*
X91072619Y-50172857D01*
X91977380Y-49220476D02*
X91977380Y-49791904D01*
X91977380Y-49506190D02*
X90977380Y-49506190D01*
X91120238Y-49601428D01*
X91215476Y-49696666D01*
X91263095Y-49791904D01*
X90977380Y-48315714D02*
X90977380Y-48791904D01*
X91453571Y-48839523D01*
X91405952Y-48791904D01*
X91358333Y-48696666D01*
X91358333Y-48458571D01*
X91405952Y-48363333D01*
X91453571Y-48315714D01*
X91548809Y-48268095D01*
X91786904Y-48268095D01*
X91882142Y-48315714D01*
X91929761Y-48363333D01*
X91977380Y-48458571D01*
X91977380Y-48696666D01*
X91929761Y-48791904D01*
X91882142Y-48839523D01*
X73086142Y-49410857D02*
X73133761Y-49458476D01*
X73181380Y-49601333D01*
X73181380Y-49696571D01*
X73133761Y-49839428D01*
X73038523Y-49934666D01*
X72943285Y-49982285D01*
X72752809Y-50029904D01*
X72609952Y-50029904D01*
X72419476Y-49982285D01*
X72324238Y-49934666D01*
X72229000Y-49839428D01*
X72181380Y-49696571D01*
X72181380Y-49601333D01*
X72229000Y-49458476D01*
X72276619Y-49410857D01*
X73181380Y-48458476D02*
X73181380Y-49029904D01*
X73181380Y-48744190D02*
X72181380Y-48744190D01*
X72324238Y-48839428D01*
X72419476Y-48934666D01*
X72467095Y-49029904D01*
X72181380Y-47601333D02*
X72181380Y-47791809D01*
X72229000Y-47887047D01*
X72276619Y-47934666D01*
X72419476Y-48029904D01*
X72609952Y-48077523D01*
X72990904Y-48077523D01*
X73086142Y-48029904D01*
X73133761Y-47982285D01*
X73181380Y-47887047D01*
X73181380Y-47696571D01*
X73133761Y-47601333D01*
X73086142Y-47553714D01*
X72990904Y-47506095D01*
X72752809Y-47506095D01*
X72657571Y-47553714D01*
X72609952Y-47601333D01*
X72562333Y-47696571D01*
X72562333Y-47887047D01*
X72609952Y-47982285D01*
X72657571Y-48029904D01*
X72752809Y-48077523D01*
X86717142Y-49537857D02*
X86764761Y-49585476D01*
X86812380Y-49728333D01*
X86812380Y-49823571D01*
X86764761Y-49966428D01*
X86669523Y-50061666D01*
X86574285Y-50109285D01*
X86383809Y-50156904D01*
X86240952Y-50156904D01*
X86050476Y-50109285D01*
X85955238Y-50061666D01*
X85860000Y-49966428D01*
X85812380Y-49823571D01*
X85812380Y-49728333D01*
X85860000Y-49585476D01*
X85907619Y-49537857D01*
X86812380Y-48585476D02*
X86812380Y-49156904D01*
X86812380Y-48871190D02*
X85812380Y-48871190D01*
X85955238Y-48966428D01*
X86050476Y-49061666D01*
X86098095Y-49156904D01*
X85812380Y-48252142D02*
X85812380Y-47585476D01*
X86812380Y-48014047D01*
X82441142Y-49410857D02*
X82488761Y-49458476D01*
X82536380Y-49601333D01*
X82536380Y-49696571D01*
X82488761Y-49839428D01*
X82393523Y-49934666D01*
X82298285Y-49982285D01*
X82107809Y-50029904D01*
X81964952Y-50029904D01*
X81774476Y-49982285D01*
X81679238Y-49934666D01*
X81584000Y-49839428D01*
X81536380Y-49696571D01*
X81536380Y-49601333D01*
X81584000Y-49458476D01*
X81631619Y-49410857D01*
X82536380Y-48458476D02*
X82536380Y-49029904D01*
X82536380Y-48744190D02*
X81536380Y-48744190D01*
X81679238Y-48839428D01*
X81774476Y-48934666D01*
X81822095Y-49029904D01*
X81964952Y-47887047D02*
X81917333Y-47982285D01*
X81869714Y-48029904D01*
X81774476Y-48077523D01*
X81726857Y-48077523D01*
X81631619Y-48029904D01*
X81584000Y-47982285D01*
X81536380Y-47887047D01*
X81536380Y-47696571D01*
X81584000Y-47601333D01*
X81631619Y-47553714D01*
X81726857Y-47506095D01*
X81774476Y-47506095D01*
X81869714Y-47553714D01*
X81917333Y-47601333D01*
X81964952Y-47696571D01*
X81964952Y-47887047D01*
X82012571Y-47982285D01*
X82060190Y-48029904D01*
X82155428Y-48077523D01*
X82345904Y-48077523D01*
X82441142Y-48029904D01*
X82488761Y-47982285D01*
X82536380Y-47887047D01*
X82536380Y-47696571D01*
X82488761Y-47601333D01*
X82441142Y-47553714D01*
X82345904Y-47506095D01*
X82155428Y-47506095D01*
X82060190Y-47553714D01*
X82012571Y-47601333D01*
X81964952Y-47696571D01*
X162679142Y-58311142D02*
X162631523Y-58358761D01*
X162488666Y-58406380D01*
X162393428Y-58406380D01*
X162250571Y-58358761D01*
X162155333Y-58263523D01*
X162107714Y-58168285D01*
X162060095Y-57977809D01*
X162060095Y-57834952D01*
X162107714Y-57644476D01*
X162155333Y-57549238D01*
X162250571Y-57454000D01*
X162393428Y-57406380D01*
X162488666Y-57406380D01*
X162631523Y-57454000D01*
X162679142Y-57501619D01*
X163631523Y-58406380D02*
X163060095Y-58406380D01*
X163345809Y-58406380D02*
X163345809Y-57406380D01*
X163250571Y-57549238D01*
X163155333Y-57644476D01*
X163060095Y-57692095D01*
X164250571Y-57406380D02*
X164345809Y-57406380D01*
X164441047Y-57454000D01*
X164488666Y-57501619D01*
X164536285Y-57596857D01*
X164583904Y-57787333D01*
X164583904Y-58025428D01*
X164536285Y-58215904D01*
X164488666Y-58311142D01*
X164441047Y-58358761D01*
X164345809Y-58406380D01*
X164250571Y-58406380D01*
X164155333Y-58358761D01*
X164107714Y-58311142D01*
X164060095Y-58215904D01*
X164012476Y-58025428D01*
X164012476Y-57787333D01*
X164060095Y-57596857D01*
X164107714Y-57501619D01*
X164155333Y-57454000D01*
X164250571Y-57406380D01*
X65716666Y-77552380D02*
X65716666Y-78266666D01*
X65669047Y-78409523D01*
X65573809Y-78504761D01*
X65430952Y-78552380D01*
X65335714Y-78552380D01*
X66097619Y-77552380D02*
X66716666Y-77552380D01*
X66383333Y-77933333D01*
X66526190Y-77933333D01*
X66621428Y-77980952D01*
X66669047Y-78028571D01*
X66716666Y-78123809D01*
X66716666Y-78361904D01*
X66669047Y-78457142D01*
X66621428Y-78504761D01*
X66526190Y-78552380D01*
X66240476Y-78552380D01*
X66145238Y-78504761D01*
X66097619Y-78457142D01*
X62845700Y-69385773D02*
X63559986Y-69385773D01*
X63702843Y-69433392D01*
X63798081Y-69528630D01*
X63845700Y-69671487D01*
X63845700Y-69766725D01*
X62845700Y-68481011D02*
X62845700Y-68671487D01*
X62893320Y-68766725D01*
X62940939Y-68814344D01*
X63083796Y-68909582D01*
X63274272Y-68957201D01*
X63655224Y-68957201D01*
X63750462Y-68909582D01*
X63798081Y-68861963D01*
X63845700Y-68766725D01*
X63845700Y-68576249D01*
X63798081Y-68481011D01*
X63750462Y-68433392D01*
X63655224Y-68385773D01*
X63417129Y-68385773D01*
X63321891Y-68433392D01*
X63274272Y-68481011D01*
X63226653Y-68576249D01*
X63226653Y-68766725D01*
X63274272Y-68861963D01*
X63321891Y-68909582D01*
X63417129Y-68957201D01*
X195881666Y-71537380D02*
X195881666Y-72251666D01*
X195834047Y-72394523D01*
X195738809Y-72489761D01*
X195595952Y-72537380D01*
X195500714Y-72537380D01*
X196881666Y-72537380D02*
X196310238Y-72537380D01*
X196595952Y-72537380D02*
X196595952Y-71537380D01*
X196500714Y-71680238D01*
X196405476Y-71775476D01*
X196310238Y-71823095D01*
X157781666Y-54062380D02*
X157781666Y-54776666D01*
X157734047Y-54919523D01*
X157638809Y-55014761D01*
X157495952Y-55062380D01*
X157400714Y-55062380D01*
X158734047Y-54062380D02*
X158257857Y-54062380D01*
X158210238Y-54538571D01*
X158257857Y-54490952D01*
X158353095Y-54443333D01*
X158591190Y-54443333D01*
X158686428Y-54490952D01*
X158734047Y-54538571D01*
X158781666Y-54633809D01*
X158781666Y-54871904D01*
X158734047Y-54967142D01*
X158686428Y-55014761D01*
X158591190Y-55062380D01*
X158353095Y-55062380D01*
X158257857Y-55014761D01*
X158210238Y-54967142D01*
X75394904Y-61144380D02*
X75394904Y-60144380D01*
X75966333Y-61144380D02*
X75537761Y-60572952D01*
X75966333Y-60144380D02*
X75394904Y-60715809D01*
X76347285Y-60239619D02*
X76394904Y-60192000D01*
X76490142Y-60144380D01*
X76728238Y-60144380D01*
X76823476Y-60192000D01*
X76871095Y-60239619D01*
X76918714Y-60334857D01*
X76918714Y-60430095D01*
X76871095Y-60572952D01*
X76299666Y-61144380D01*
X76918714Y-61144380D01*
X183986904Y-87207380D02*
X183986904Y-86207380D01*
X184558333Y-87207380D02*
X184129761Y-86635952D01*
X184558333Y-86207380D02*
X183986904Y-86778809D01*
X185510714Y-87207380D02*
X184939285Y-87207380D01*
X185225000Y-87207380D02*
X185225000Y-86207380D01*
X185129761Y-86350238D01*
X185034523Y-86445476D01*
X184939285Y-86493095D01*
X129526380Y-65317666D02*
X129050190Y-65651000D01*
X129526380Y-65889095D02*
X128526380Y-65889095D01*
X128526380Y-65508142D01*
X128574000Y-65412904D01*
X128621619Y-65365285D01*
X128716857Y-65317666D01*
X128859714Y-65317666D01*
X128954952Y-65365285D01*
X129002571Y-65412904D01*
X129050190Y-65508142D01*
X129050190Y-65889095D01*
X129526380Y-64841476D02*
X129526380Y-64651000D01*
X129478761Y-64555761D01*
X129431142Y-64508142D01*
X129288285Y-64412904D01*
X129097809Y-64365285D01*
X128716857Y-64365285D01*
X128621619Y-64412904D01*
X128574000Y-64460523D01*
X128526380Y-64555761D01*
X128526380Y-64746238D01*
X128574000Y-64841476D01*
X128621619Y-64889095D01*
X128716857Y-64936714D01*
X128954952Y-64936714D01*
X129050190Y-64889095D01*
X129097809Y-64841476D01*
X129145428Y-64746238D01*
X129145428Y-64555761D01*
X129097809Y-64460523D01*
X129050190Y-64412904D01*
X128954952Y-64365285D01*
X124997380Y-81922857D02*
X124521190Y-82256190D01*
X124997380Y-82494285D02*
X123997380Y-82494285D01*
X123997380Y-82113333D01*
X124045000Y-82018095D01*
X124092619Y-81970476D01*
X124187857Y-81922857D01*
X124330714Y-81922857D01*
X124425952Y-81970476D01*
X124473571Y-82018095D01*
X124521190Y-82113333D01*
X124521190Y-82494285D01*
X124997380Y-80970476D02*
X124997380Y-81541904D01*
X124997380Y-81256190D02*
X123997380Y-81256190D01*
X124140238Y-81351428D01*
X124235476Y-81446666D01*
X124283095Y-81541904D01*
X124330714Y-80113333D02*
X124997380Y-80113333D01*
X123949761Y-80351428D02*
X124664047Y-80589523D01*
X124664047Y-79970476D01*
X76327095Y-51062380D02*
X76327095Y-51871904D01*
X76374714Y-51967142D01*
X76422333Y-52014761D01*
X76517571Y-52062380D01*
X76708047Y-52062380D01*
X76803285Y-52014761D01*
X76850904Y-51967142D01*
X76898523Y-51871904D01*
X76898523Y-51062380D01*
X77898523Y-52062380D02*
X77327095Y-52062380D01*
X77612809Y-52062380D02*
X77612809Y-51062380D01*
X77517571Y-51205238D01*
X77422333Y-51300476D01*
X77327095Y-51348095D01*
X124013142Y-71032666D02*
X124060761Y-71080285D01*
X124108380Y-71223142D01*
X124108380Y-71318380D01*
X124060761Y-71461238D01*
X123965523Y-71556476D01*
X123870285Y-71604095D01*
X123679809Y-71651714D01*
X123536952Y-71651714D01*
X123346476Y-71604095D01*
X123251238Y-71556476D01*
X123156000Y-71461238D01*
X123108380Y-71318380D01*
X123108380Y-71223142D01*
X123156000Y-71080285D01*
X123203619Y-71032666D01*
X124108380Y-70556476D02*
X124108380Y-70366000D01*
X124060761Y-70270761D01*
X124013142Y-70223142D01*
X123870285Y-70127904D01*
X123679809Y-70080285D01*
X123298857Y-70080285D01*
X123203619Y-70127904D01*
X123156000Y-70175523D01*
X123108380Y-70270761D01*
X123108380Y-70461238D01*
X123156000Y-70556476D01*
X123203619Y-70604095D01*
X123298857Y-70651714D01*
X123536952Y-70651714D01*
X123632190Y-70604095D01*
X123679809Y-70556476D01*
X123727428Y-70461238D01*
X123727428Y-70270761D01*
X123679809Y-70175523D01*
X123632190Y-70127904D01*
X123536952Y-70080285D01*
X127119142Y-77742142D02*
X127071523Y-77789761D01*
X126928666Y-77837380D01*
X126833428Y-77837380D01*
X126690571Y-77789761D01*
X126595333Y-77694523D01*
X126547714Y-77599285D01*
X126500095Y-77408809D01*
X126500095Y-77265952D01*
X126547714Y-77075476D01*
X126595333Y-76980238D01*
X126690571Y-76885000D01*
X126833428Y-76837380D01*
X126928666Y-76837380D01*
X127071523Y-76885000D01*
X127119142Y-76932619D01*
X128071523Y-77837380D02*
X127500095Y-77837380D01*
X127785809Y-77837380D02*
X127785809Y-76837380D01*
X127690571Y-76980238D01*
X127595333Y-77075476D01*
X127500095Y-77123095D01*
X128404857Y-76837380D02*
X129023904Y-76837380D01*
X128690571Y-77218333D01*
X128833428Y-77218333D01*
X128928666Y-77265952D01*
X128976285Y-77313571D01*
X129023904Y-77408809D01*
X129023904Y-77646904D01*
X128976285Y-77742142D01*
X128928666Y-77789761D01*
X128833428Y-77837380D01*
X128547714Y-77837380D01*
X128452476Y-77789761D01*
X128404857Y-77742142D01*
X134265681Y-46368299D02*
X134170443Y-46320680D01*
X134075205Y-46225441D01*
X133932348Y-46082584D01*
X133837110Y-46034965D01*
X133741872Y-46034965D01*
X133789491Y-46273060D02*
X133694253Y-46225441D01*
X133599015Y-46130203D01*
X133551396Y-45939727D01*
X133551396Y-45606394D01*
X133599015Y-45415918D01*
X133694253Y-45320680D01*
X133789491Y-45273060D01*
X133979967Y-45273060D01*
X134075205Y-45320680D01*
X134170443Y-45415918D01*
X134218062Y-45606394D01*
X134218062Y-45939727D01*
X134170443Y-46130203D01*
X134075205Y-46225441D01*
X133979967Y-46273060D01*
X133789491Y-46273060D01*
X134551396Y-45273060D02*
X135170443Y-45273060D01*
X134837110Y-45654013D01*
X134979967Y-45654013D01*
X135075205Y-45701632D01*
X135122824Y-45749251D01*
X135170443Y-45844489D01*
X135170443Y-46082584D01*
X135122824Y-46177822D01*
X135075205Y-46225441D01*
X134979967Y-46273060D01*
X134694253Y-46273060D01*
X134599015Y-46225441D01*
X134551396Y-46177822D01*
X134021841Y-103235659D02*
X133926603Y-103188040D01*
X133831365Y-103092801D01*
X133688508Y-102949944D01*
X133593270Y-102902325D01*
X133498032Y-102902325D01*
X133545651Y-103140420D02*
X133450413Y-103092801D01*
X133355175Y-102997563D01*
X133307556Y-102807087D01*
X133307556Y-102473754D01*
X133355175Y-102283278D01*
X133450413Y-102188040D01*
X133545651Y-102140420D01*
X133736127Y-102140420D01*
X133831365Y-102188040D01*
X133926603Y-102283278D01*
X133974222Y-102473754D01*
X133974222Y-102807087D01*
X133926603Y-102997563D01*
X133831365Y-103092801D01*
X133736127Y-103140420D01*
X133545651Y-103140420D01*
X134831365Y-102473754D02*
X134831365Y-103140420D01*
X134593270Y-102092801D02*
X134355175Y-102807087D01*
X134974222Y-102807087D01*
X85692380Y-52030238D02*
X85216190Y-52363571D01*
X85692380Y-52601666D02*
X84692380Y-52601666D01*
X84692380Y-52220714D01*
X84740000Y-52125476D01*
X84787619Y-52077857D01*
X84882857Y-52030238D01*
X85025714Y-52030238D01*
X85120952Y-52077857D01*
X85168571Y-52125476D01*
X85216190Y-52220714D01*
X85216190Y-52601666D01*
X84692380Y-51744523D02*
X85692380Y-51411190D01*
X84692380Y-51077857D01*
X85692380Y-50220714D02*
X85692380Y-50792142D01*
X85692380Y-50506428D02*
X84692380Y-50506428D01*
X84835238Y-50601666D01*
X84930476Y-50696904D01*
X84978095Y-50792142D01*
X113707942Y-51299380D02*
X113374609Y-50823190D01*
X113136514Y-51299380D02*
X113136514Y-50299380D01*
X113517466Y-50299380D01*
X113612704Y-50347000D01*
X113660323Y-50394619D01*
X113707942Y-50489857D01*
X113707942Y-50632714D01*
X113660323Y-50727952D01*
X113612704Y-50775571D01*
X113517466Y-50823190D01*
X113136514Y-50823190D01*
X114660323Y-51299380D02*
X114088895Y-51299380D01*
X114374609Y-51299380D02*
X114374609Y-50299380D01*
X114279371Y-50442238D01*
X114184133Y-50537476D01*
X114088895Y-50585095D01*
X115279371Y-50299380D02*
X115374609Y-50299380D01*
X115469847Y-50347000D01*
X115517466Y-50394619D01*
X115565085Y-50489857D01*
X115612704Y-50680333D01*
X115612704Y-50918428D01*
X115565085Y-51108904D01*
X115517466Y-51204142D01*
X115469847Y-51251761D01*
X115374609Y-51299380D01*
X115279371Y-51299380D01*
X115184133Y-51251761D01*
X115136514Y-51204142D01*
X115088895Y-51108904D01*
X115041276Y-50918428D01*
X115041276Y-50680333D01*
X115088895Y-50489857D01*
X115136514Y-50394619D01*
X115184133Y-50347000D01*
X115279371Y-50299380D01*
X170807380Y-52570666D02*
X170807380Y-53046857D01*
X169807380Y-53046857D01*
X169902619Y-52284952D02*
X169855000Y-52237333D01*
X169807380Y-52142095D01*
X169807380Y-51904000D01*
X169855000Y-51808761D01*
X169902619Y-51761142D01*
X169997857Y-51713523D01*
X170093095Y-51713523D01*
X170235952Y-51761142D01*
X170807380Y-52332571D01*
X170807380Y-51713523D01*
X195881666Y-82967380D02*
X195881666Y-83681666D01*
X195834047Y-83824523D01*
X195738809Y-83919761D01*
X195595952Y-83967380D01*
X195500714Y-83967380D01*
X196786428Y-83300714D02*
X196786428Y-83967380D01*
X196548333Y-82919761D02*
X196310238Y-83634047D01*
X196929285Y-83634047D01*
X195881666Y-61377380D02*
X195881666Y-62091666D01*
X195834047Y-62234523D01*
X195738809Y-62329761D01*
X195595952Y-62377380D01*
X195500714Y-62377380D01*
X196310238Y-61472619D02*
X196357857Y-61425000D01*
X196453095Y-61377380D01*
X196691190Y-61377380D01*
X196786428Y-61425000D01*
X196834047Y-61472619D01*
X196881666Y-61567857D01*
X196881666Y-61663095D01*
X196834047Y-61805952D01*
X196262619Y-62377380D01*
X196881666Y-62377380D01*
X148015142Y-49831857D02*
X148062761Y-49879476D01*
X148110380Y-50022333D01*
X148110380Y-50117571D01*
X148062761Y-50260428D01*
X147967523Y-50355666D01*
X147872285Y-50403285D01*
X147681809Y-50450904D01*
X147538952Y-50450904D01*
X147348476Y-50403285D01*
X147253238Y-50355666D01*
X147158000Y-50260428D01*
X147110380Y-50117571D01*
X147110380Y-50022333D01*
X147158000Y-49879476D01*
X147205619Y-49831857D01*
X148110380Y-48879476D02*
X148110380Y-49450904D01*
X148110380Y-49165190D02*
X147110380Y-49165190D01*
X147253238Y-49260428D01*
X147348476Y-49355666D01*
X147396095Y-49450904D01*
X148110380Y-47927095D02*
X148110380Y-48498523D01*
X148110380Y-48212809D02*
X147110380Y-48212809D01*
X147253238Y-48308047D01*
X147348476Y-48403285D01*
X147396095Y-48498523D01*
X180485142Y-56649857D02*
X180532761Y-56697476D01*
X180580380Y-56840333D01*
X180580380Y-56935571D01*
X180532761Y-57078428D01*
X180437523Y-57173666D01*
X180342285Y-57221285D01*
X180151809Y-57268904D01*
X180008952Y-57268904D01*
X179818476Y-57221285D01*
X179723238Y-57173666D01*
X179628000Y-57078428D01*
X179580380Y-56935571D01*
X179580380Y-56840333D01*
X179628000Y-56697476D01*
X179675619Y-56649857D01*
X180580380Y-55697476D02*
X180580380Y-56268904D01*
X180580380Y-55983190D02*
X179580380Y-55983190D01*
X179723238Y-56078428D01*
X179818476Y-56173666D01*
X179866095Y-56268904D01*
X179675619Y-55316523D02*
X179628000Y-55268904D01*
X179580380Y-55173666D01*
X179580380Y-54935571D01*
X179628000Y-54840333D01*
X179675619Y-54792714D01*
X179770857Y-54745095D01*
X179866095Y-54745095D01*
X180008952Y-54792714D01*
X180580380Y-55364142D01*
X180580380Y-54745095D01*
X107503142Y-49569666D02*
X107550761Y-49617285D01*
X107598380Y-49760142D01*
X107598380Y-49855380D01*
X107550761Y-49998238D01*
X107455523Y-50093476D01*
X107360285Y-50141095D01*
X107169809Y-50188714D01*
X107026952Y-50188714D01*
X106836476Y-50141095D01*
X106741238Y-50093476D01*
X106646000Y-49998238D01*
X106598380Y-49855380D01*
X106598380Y-49760142D01*
X106646000Y-49617285D01*
X106693619Y-49569666D01*
X107598380Y-48617285D02*
X107598380Y-49188714D01*
X107598380Y-48903000D02*
X106598380Y-48903000D01*
X106741238Y-48998238D01*
X106836476Y-49093476D01*
X106884095Y-49188714D01*
X105547342Y-55284666D02*
X105594961Y-55332285D01*
X105642580Y-55475142D01*
X105642580Y-55570380D01*
X105594961Y-55713238D01*
X105499723Y-55808476D01*
X105404485Y-55856095D01*
X105214009Y-55903714D01*
X105071152Y-55903714D01*
X104880676Y-55856095D01*
X104785438Y-55808476D01*
X104690200Y-55713238D01*
X104642580Y-55570380D01*
X104642580Y-55475142D01*
X104690200Y-55332285D01*
X104737819Y-55284666D01*
X104737819Y-54903714D02*
X104690200Y-54856095D01*
X104642580Y-54760857D01*
X104642580Y-54522761D01*
X104690200Y-54427523D01*
X104737819Y-54379904D01*
X104833057Y-54332285D01*
X104928295Y-54332285D01*
X105071152Y-54379904D01*
X105642580Y-54951333D01*
X105642580Y-54332285D01*
X97427142Y-66206666D02*
X97474761Y-66254285D01*
X97522380Y-66397142D01*
X97522380Y-66492380D01*
X97474761Y-66635238D01*
X97379523Y-66730476D01*
X97284285Y-66778095D01*
X97093809Y-66825714D01*
X96950952Y-66825714D01*
X96760476Y-66778095D01*
X96665238Y-66730476D01*
X96570000Y-66635238D01*
X96522380Y-66492380D01*
X96522380Y-66397142D01*
X96570000Y-66254285D01*
X96617619Y-66206666D01*
X96522380Y-65873333D02*
X96522380Y-65254285D01*
X96903333Y-65587619D01*
X96903333Y-65444761D01*
X96950952Y-65349523D01*
X96998571Y-65301904D01*
X97093809Y-65254285D01*
X97331904Y-65254285D01*
X97427142Y-65301904D01*
X97474761Y-65349523D01*
X97522380Y-65444761D01*
X97522380Y-65730476D01*
X97474761Y-65825714D01*
X97427142Y-65873333D01*
X109053333Y-80282142D02*
X109005714Y-80329761D01*
X108862857Y-80377380D01*
X108767619Y-80377380D01*
X108624761Y-80329761D01*
X108529523Y-80234523D01*
X108481904Y-80139285D01*
X108434285Y-79948809D01*
X108434285Y-79805952D01*
X108481904Y-79615476D01*
X108529523Y-79520238D01*
X108624761Y-79425000D01*
X108767619Y-79377380D01*
X108862857Y-79377380D01*
X109005714Y-79425000D01*
X109053333Y-79472619D01*
X109910476Y-79710714D02*
X109910476Y-80377380D01*
X109672380Y-79329761D02*
X109434285Y-80044047D01*
X110053333Y-80044047D01*
X85532142Y-78906666D02*
X85579761Y-78954285D01*
X85627380Y-79097142D01*
X85627380Y-79192380D01*
X85579761Y-79335238D01*
X85484523Y-79430476D01*
X85389285Y-79478095D01*
X85198809Y-79525714D01*
X85055952Y-79525714D01*
X84865476Y-79478095D01*
X84770238Y-79430476D01*
X84675000Y-79335238D01*
X84627380Y-79192380D01*
X84627380Y-79097142D01*
X84675000Y-78954285D01*
X84722619Y-78906666D01*
X84627380Y-78001904D02*
X84627380Y-78478095D01*
X85103571Y-78525714D01*
X85055952Y-78478095D01*
X85008333Y-78382857D01*
X85008333Y-78144761D01*
X85055952Y-78049523D01*
X85103571Y-78001904D01*
X85198809Y-77954285D01*
X85436904Y-77954285D01*
X85532142Y-78001904D01*
X85579761Y-78049523D01*
X85627380Y-78144761D01*
X85627380Y-78382857D01*
X85579761Y-78478095D01*
X85532142Y-78525714D01*
X80983333Y-86377142D02*
X80935714Y-86424761D01*
X80792857Y-86472380D01*
X80697619Y-86472380D01*
X80554761Y-86424761D01*
X80459523Y-86329523D01*
X80411904Y-86234285D01*
X80364285Y-86043809D01*
X80364285Y-85900952D01*
X80411904Y-85710476D01*
X80459523Y-85615238D01*
X80554761Y-85520000D01*
X80697619Y-85472380D01*
X80792857Y-85472380D01*
X80935714Y-85520000D01*
X80983333Y-85567619D01*
X81840476Y-85472380D02*
X81650000Y-85472380D01*
X81554761Y-85520000D01*
X81507142Y-85567619D01*
X81411904Y-85710476D01*
X81364285Y-85900952D01*
X81364285Y-86281904D01*
X81411904Y-86377142D01*
X81459523Y-86424761D01*
X81554761Y-86472380D01*
X81745238Y-86472380D01*
X81840476Y-86424761D01*
X81888095Y-86377142D01*
X81935714Y-86281904D01*
X81935714Y-86043809D01*
X81888095Y-85948571D01*
X81840476Y-85900952D01*
X81745238Y-85853333D01*
X81554761Y-85853333D01*
X81459523Y-85900952D01*
X81411904Y-85948571D01*
X81364285Y-86043809D01*
X94972380Y-50268095D02*
X93972380Y-50268095D01*
X93972380Y-50030000D01*
X94020000Y-49887142D01*
X94115238Y-49791904D01*
X94210476Y-49744285D01*
X94400952Y-49696666D01*
X94543809Y-49696666D01*
X94734285Y-49744285D01*
X94829523Y-49791904D01*
X94924761Y-49887142D01*
X94972380Y-50030000D01*
X94972380Y-50268095D01*
X94972380Y-48744285D02*
X94972380Y-49315714D01*
X94972380Y-49030000D02*
X93972380Y-49030000D01*
X94115238Y-49125238D01*
X94210476Y-49220476D01*
X94258095Y-49315714D01*
X96289904Y-56427380D02*
X96289904Y-55427380D01*
X96528000Y-55427380D01*
X96670857Y-55475000D01*
X96766095Y-55570238D01*
X96813714Y-55665476D01*
X96861333Y-55855952D01*
X96861333Y-55998809D01*
X96813714Y-56189285D01*
X96766095Y-56284523D01*
X96670857Y-56379761D01*
X96528000Y-56427380D01*
X96289904Y-56427380D01*
X97242285Y-55522619D02*
X97289904Y-55475000D01*
X97385142Y-55427380D01*
X97623238Y-55427380D01*
X97718476Y-55475000D01*
X97766095Y-55522619D01*
X97813714Y-55617857D01*
X97813714Y-55713095D01*
X97766095Y-55855952D01*
X97194666Y-56427380D01*
X97813714Y-56427380D01*
X100957380Y-59047666D02*
X100957380Y-59523857D01*
X99957380Y-59523857D01*
X100957380Y-58190523D02*
X100957380Y-58761952D01*
X100957380Y-58476238D02*
X99957380Y-58476238D01*
X100100238Y-58571476D01*
X100195476Y-58666714D01*
X100243095Y-58761952D01*
X95027761Y-97962619D02*
X94932523Y-97915000D01*
X94837285Y-97819761D01*
X94694428Y-97676904D01*
X94599190Y-97629285D01*
X94503952Y-97629285D01*
X94551571Y-97867380D02*
X94456333Y-97819761D01*
X94361095Y-97724523D01*
X94313476Y-97534047D01*
X94313476Y-97200714D01*
X94361095Y-97010238D01*
X94456333Y-96915000D01*
X94551571Y-96867380D01*
X94742047Y-96867380D01*
X94837285Y-96915000D01*
X94932523Y-97010238D01*
X94980142Y-97200714D01*
X94980142Y-97534047D01*
X94932523Y-97724523D01*
X94837285Y-97819761D01*
X94742047Y-97867380D01*
X94551571Y-97867380D01*
X95361095Y-96962619D02*
X95408714Y-96915000D01*
X95503952Y-96867380D01*
X95742047Y-96867380D01*
X95837285Y-96915000D01*
X95884904Y-96962619D01*
X95932523Y-97057857D01*
X95932523Y-97153095D01*
X95884904Y-97295952D01*
X95313476Y-97867380D01*
X95932523Y-97867380D01*
X98327380Y-49569666D02*
X97851190Y-49903000D01*
X98327380Y-50141095D02*
X97327380Y-50141095D01*
X97327380Y-49760142D01*
X97375000Y-49664904D01*
X97422619Y-49617285D01*
X97517857Y-49569666D01*
X97660714Y-49569666D01*
X97755952Y-49617285D01*
X97803571Y-49664904D01*
X97851190Y-49760142D01*
X97851190Y-50141095D01*
X98327380Y-48617285D02*
X98327380Y-49188714D01*
X98327380Y-48903000D02*
X97327380Y-48903000D01*
X97470238Y-48998238D01*
X97565476Y-49093476D01*
X97613095Y-49188714D01*
X101375380Y-49569666D02*
X100899190Y-49903000D01*
X101375380Y-50141095D02*
X100375380Y-50141095D01*
X100375380Y-49760142D01*
X100423000Y-49664904D01*
X100470619Y-49617285D01*
X100565857Y-49569666D01*
X100708714Y-49569666D01*
X100803952Y-49617285D01*
X100851571Y-49664904D01*
X100899190Y-49760142D01*
X100899190Y-50141095D01*
X100470619Y-49188714D02*
X100423000Y-49141095D01*
X100375380Y-49045857D01*
X100375380Y-48807761D01*
X100423000Y-48712523D01*
X100470619Y-48664904D01*
X100565857Y-48617285D01*
X100661095Y-48617285D01*
X100803952Y-48664904D01*
X101375380Y-49236333D01*
X101375380Y-48617285D01*
X104423380Y-49569666D02*
X103947190Y-49903000D01*
X104423380Y-50141095D02*
X103423380Y-50141095D01*
X103423380Y-49760142D01*
X103471000Y-49664904D01*
X103518619Y-49617285D01*
X103613857Y-49569666D01*
X103756714Y-49569666D01*
X103851952Y-49617285D01*
X103899571Y-49664904D01*
X103947190Y-49760142D01*
X103947190Y-50141095D01*
X103423380Y-49236333D02*
X103423380Y-48617285D01*
X103804333Y-48950619D01*
X103804333Y-48807761D01*
X103851952Y-48712523D01*
X103899571Y-48664904D01*
X103994809Y-48617285D01*
X104232904Y-48617285D01*
X104328142Y-48664904D01*
X104375761Y-48712523D01*
X104423380Y-48807761D01*
X104423380Y-49093476D01*
X104375761Y-49188714D01*
X104328142Y-49236333D01*
X94702333Y-63613380D02*
X94369000Y-63137190D01*
X94130904Y-63613380D02*
X94130904Y-62613380D01*
X94511857Y-62613380D01*
X94607095Y-62661000D01*
X94654714Y-62708619D01*
X94702333Y-62803857D01*
X94702333Y-62946714D01*
X94654714Y-63041952D01*
X94607095Y-63089571D01*
X94511857Y-63137190D01*
X94130904Y-63137190D01*
X95559476Y-62946714D02*
X95559476Y-63613380D01*
X95321380Y-62565761D02*
X95083285Y-63280047D01*
X95702333Y-63280047D01*
X90072380Y-66206666D02*
X89596190Y-66540000D01*
X90072380Y-66778095D02*
X89072380Y-66778095D01*
X89072380Y-66397142D01*
X89120000Y-66301904D01*
X89167619Y-66254285D01*
X89262857Y-66206666D01*
X89405714Y-66206666D01*
X89500952Y-66254285D01*
X89548571Y-66301904D01*
X89596190Y-66397142D01*
X89596190Y-66778095D01*
X89072380Y-65301904D02*
X89072380Y-65778095D01*
X89548571Y-65825714D01*
X89500952Y-65778095D01*
X89453333Y-65682857D01*
X89453333Y-65444761D01*
X89500952Y-65349523D01*
X89548571Y-65301904D01*
X89643809Y-65254285D01*
X89881904Y-65254285D01*
X89977142Y-65301904D01*
X90024761Y-65349523D01*
X90072380Y-65444761D01*
X90072380Y-65682857D01*
X90024761Y-65778095D01*
X89977142Y-65825714D01*
X85627380Y-72556666D02*
X85151190Y-72890000D01*
X85627380Y-73128095D02*
X84627380Y-73128095D01*
X84627380Y-72747142D01*
X84675000Y-72651904D01*
X84722619Y-72604285D01*
X84817857Y-72556666D01*
X84960714Y-72556666D01*
X85055952Y-72604285D01*
X85103571Y-72651904D01*
X85151190Y-72747142D01*
X85151190Y-73128095D01*
X84627380Y-71699523D02*
X84627380Y-71890000D01*
X84675000Y-71985238D01*
X84722619Y-72032857D01*
X84865476Y-72128095D01*
X85055952Y-72175714D01*
X85436904Y-72175714D01*
X85532142Y-72128095D01*
X85579761Y-72080476D01*
X85627380Y-71985238D01*
X85627380Y-71794761D01*
X85579761Y-71699523D01*
X85532142Y-71651904D01*
X85436904Y-71604285D01*
X85198809Y-71604285D01*
X85103571Y-71651904D01*
X85055952Y-71699523D01*
X85008333Y-71794761D01*
X85008333Y-71985238D01*
X85055952Y-72080476D01*
X85103571Y-72128095D01*
X85198809Y-72175714D01*
X86897380Y-66206666D02*
X86421190Y-66540000D01*
X86897380Y-66778095D02*
X85897380Y-66778095D01*
X85897380Y-66397142D01*
X85945000Y-66301904D01*
X85992619Y-66254285D01*
X86087857Y-66206666D01*
X86230714Y-66206666D01*
X86325952Y-66254285D01*
X86373571Y-66301904D01*
X86421190Y-66397142D01*
X86421190Y-66778095D01*
X85897380Y-65873333D02*
X85897380Y-65206666D01*
X86897380Y-65635238D01*
X124277380Y-66546904D02*
X124277380Y-65975476D01*
X125277380Y-66261190D02*
X124277380Y-66261190D01*
X124372619Y-65689761D02*
X124325000Y-65642142D01*
X124277380Y-65546904D01*
X124277380Y-65308809D01*
X124325000Y-65213571D01*
X124372619Y-65165952D01*
X124467857Y-65118333D01*
X124563095Y-65118333D01*
X124705952Y-65165952D01*
X125277380Y-65737380D01*
X125277380Y-65118333D01*
X180466666Y-88942380D02*
X180657142Y-88942380D01*
X180752380Y-88990000D01*
X180847619Y-89085238D01*
X180895238Y-89275714D01*
X180895238Y-89609047D01*
X180847619Y-89799523D01*
X180752380Y-89894761D01*
X180657142Y-89942380D01*
X180466666Y-89942380D01*
X180371428Y-89894761D01*
X180276190Y-89799523D01*
X180228571Y-89609047D01*
X180228571Y-89275714D01*
X180276190Y-89085238D01*
X180371428Y-88990000D01*
X180466666Y-88942380D01*
X181752380Y-89275714D02*
X181752380Y-89942380D01*
X181323809Y-89275714D02*
X181323809Y-89799523D01*
X181371428Y-89894761D01*
X181466666Y-89942380D01*
X181609523Y-89942380D01*
X181704761Y-89894761D01*
X181752380Y-89847142D01*
X182085714Y-89275714D02*
X182466666Y-89275714D01*
X182228571Y-88942380D02*
X182228571Y-89799523D01*
X182276190Y-89894761D01*
X182371428Y-89942380D01*
X182466666Y-89942380D01*
X143256095Y-78954380D02*
X143827523Y-78954380D01*
X143541809Y-79954380D02*
X143541809Y-78954380D01*
X144684666Y-79954380D02*
X144113238Y-79954380D01*
X144398952Y-79954380D02*
X144398952Y-78954380D01*
X144303714Y-79097238D01*
X144208476Y-79192476D01*
X144113238Y-79240095D01*
X143510095Y-58507380D02*
X144081523Y-58507380D01*
X143795809Y-59507380D02*
X143795809Y-58507380D01*
X144938666Y-59507380D02*
X144367238Y-59507380D01*
X144652952Y-59507380D02*
X144652952Y-58507380D01*
X144557714Y-58650238D01*
X144462476Y-58745476D01*
X144367238Y-58793095D01*
X143383095Y-51395380D02*
X143954523Y-51395380D01*
X143668809Y-52395380D02*
X143668809Y-51395380D01*
X144192619Y-51395380D02*
X144811666Y-51395380D01*
X144478333Y-51776333D01*
X144621190Y-51776333D01*
X144716428Y-51823952D01*
X144764047Y-51871571D01*
X144811666Y-51966809D01*
X144811666Y-52204904D01*
X144764047Y-52300142D01*
X144716428Y-52347761D01*
X144621190Y-52395380D01*
X144335476Y-52395380D01*
X144240238Y-52347761D01*
X144192619Y-52300142D01*
X143256095Y-86320380D02*
X143827523Y-86320380D01*
X143541809Y-87320380D02*
X143541809Y-86320380D01*
X144065619Y-86320380D02*
X144684666Y-86320380D01*
X144351333Y-86701333D01*
X144494190Y-86701333D01*
X144589428Y-86748952D01*
X144637047Y-86796571D01*
X144684666Y-86891809D01*
X144684666Y-87129904D01*
X144637047Y-87225142D01*
X144589428Y-87272761D01*
X144494190Y-87320380D01*
X144208476Y-87320380D01*
X144113238Y-87272761D01*
X144065619Y-87225142D01*
X121549342Y-79459057D02*
X121596961Y-79506676D01*
X121644580Y-79649533D01*
X121644580Y-79744771D01*
X121596961Y-79887628D01*
X121501723Y-79982866D01*
X121406485Y-80030485D01*
X121216009Y-80078104D01*
X121073152Y-80078104D01*
X120882676Y-80030485D01*
X120787438Y-79982866D01*
X120692200Y-79887628D01*
X120644580Y-79744771D01*
X120644580Y-79649533D01*
X120692200Y-79506676D01*
X120739819Y-79459057D01*
X121644580Y-78506676D02*
X121644580Y-79078104D01*
X121644580Y-78792390D02*
X120644580Y-78792390D01*
X120787438Y-78887628D01*
X120882676Y-78982866D01*
X120930295Y-79078104D01*
X120977914Y-77649533D02*
X121644580Y-77649533D01*
X120596961Y-77887628D02*
X121311247Y-78125723D01*
X121311247Y-77506676D01*
X116572380Y-79124166D02*
X116096190Y-79457500D01*
X116572380Y-79695595D02*
X115572380Y-79695595D01*
X115572380Y-79314642D01*
X115620000Y-79219404D01*
X115667619Y-79171785D01*
X115762857Y-79124166D01*
X115905714Y-79124166D01*
X116000952Y-79171785D01*
X116048571Y-79219404D01*
X116096190Y-79314642D01*
X116096190Y-79695595D01*
X116000952Y-78552738D02*
X115953333Y-78647976D01*
X115905714Y-78695595D01*
X115810476Y-78743214D01*
X115762857Y-78743214D01*
X115667619Y-78695595D01*
X115620000Y-78647976D01*
X115572380Y-78552738D01*
X115572380Y-78362261D01*
X115620000Y-78267023D01*
X115667619Y-78219404D01*
X115762857Y-78171785D01*
X115810476Y-78171785D01*
X115905714Y-78219404D01*
X115953333Y-78267023D01*
X116000952Y-78362261D01*
X116000952Y-78552738D01*
X116048571Y-78647976D01*
X116096190Y-78695595D01*
X116191428Y-78743214D01*
X116381904Y-78743214D01*
X116477142Y-78695595D01*
X116524761Y-78647976D01*
X116572380Y-78552738D01*
X116572380Y-78362261D01*
X116524761Y-78267023D01*
X116477142Y-78219404D01*
X116381904Y-78171785D01*
X116191428Y-78171785D01*
X116096190Y-78219404D01*
X116048571Y-78267023D01*
X116000952Y-78362261D01*
X116399580Y-80805257D02*
X115923390Y-81138590D01*
X116399580Y-81376685D02*
X115399580Y-81376685D01*
X115399580Y-80995733D01*
X115447200Y-80900495D01*
X115494819Y-80852876D01*
X115590057Y-80805257D01*
X115732914Y-80805257D01*
X115828152Y-80852876D01*
X115875771Y-80900495D01*
X115923390Y-80995733D01*
X115923390Y-81376685D01*
X116399580Y-79852876D02*
X116399580Y-80424304D01*
X116399580Y-80138590D02*
X115399580Y-80138590D01*
X115542438Y-80233828D01*
X115637676Y-80329066D01*
X115685295Y-80424304D01*
X115494819Y-79471923D02*
X115447200Y-79424304D01*
X115399580Y-79329066D01*
X115399580Y-79090971D01*
X115447200Y-78995733D01*
X115494819Y-78948114D01*
X115590057Y-78900495D01*
X115685295Y-78900495D01*
X115828152Y-78948114D01*
X116399580Y-79519542D01*
X116399580Y-78900495D01*
X116572380Y-85732857D02*
X116096190Y-86066190D01*
X116572380Y-86304285D02*
X115572380Y-86304285D01*
X115572380Y-85923333D01*
X115620000Y-85828095D01*
X115667619Y-85780476D01*
X115762857Y-85732857D01*
X115905714Y-85732857D01*
X116000952Y-85780476D01*
X116048571Y-85828095D01*
X116096190Y-85923333D01*
X116096190Y-86304285D01*
X116572380Y-84780476D02*
X116572380Y-85351904D01*
X116572380Y-85066190D02*
X115572380Y-85066190D01*
X115715238Y-85161428D01*
X115810476Y-85256666D01*
X115858095Y-85351904D01*
X115572380Y-83875714D02*
X115572380Y-84351904D01*
X116048571Y-84399523D01*
X116000952Y-84351904D01*
X115953333Y-84256666D01*
X115953333Y-84018571D01*
X116000952Y-83923333D01*
X116048571Y-83875714D01*
X116143809Y-83828095D01*
X116381904Y-83828095D01*
X116477142Y-83875714D01*
X116524761Y-83923333D01*
X116572380Y-84018571D01*
X116572380Y-84256666D01*
X116524761Y-84351904D01*
X116477142Y-84399523D01*
X108577142Y-83457142D02*
X108529523Y-83504761D01*
X108386666Y-83552380D01*
X108291428Y-83552380D01*
X108148571Y-83504761D01*
X108053333Y-83409523D01*
X108005714Y-83314285D01*
X107958095Y-83123809D01*
X107958095Y-82980952D01*
X108005714Y-82790476D01*
X108053333Y-82695238D01*
X108148571Y-82600000D01*
X108291428Y-82552380D01*
X108386666Y-82552380D01*
X108529523Y-82600000D01*
X108577142Y-82647619D01*
X109529523Y-83552380D02*
X108958095Y-83552380D01*
X109243809Y-83552380D02*
X109243809Y-82552380D01*
X109148571Y-82695238D01*
X109053333Y-82790476D01*
X108958095Y-82838095D01*
X110005714Y-83552380D02*
X110196190Y-83552380D01*
X110291428Y-83504761D01*
X110339047Y-83457142D01*
X110434285Y-83314285D01*
X110481904Y-83123809D01*
X110481904Y-82742857D01*
X110434285Y-82647619D01*
X110386666Y-82600000D01*
X110291428Y-82552380D01*
X110100952Y-82552380D01*
X110005714Y-82600000D01*
X109958095Y-82647619D01*
X109910476Y-82742857D01*
X109910476Y-82980952D01*
X109958095Y-83076190D01*
X110005714Y-83123809D01*
X110100952Y-83171428D01*
X110291428Y-83171428D01*
X110386666Y-83123809D01*
X110434285Y-83076190D01*
X110481904Y-82980952D01*
X89058761Y-62737619D02*
X88963523Y-62690000D01*
X88868285Y-62594761D01*
X88725428Y-62451904D01*
X88630190Y-62404285D01*
X88534952Y-62404285D01*
X88582571Y-62642380D02*
X88487333Y-62594761D01*
X88392095Y-62499523D01*
X88344476Y-62309047D01*
X88344476Y-61975714D01*
X88392095Y-61785238D01*
X88487333Y-61690000D01*
X88582571Y-61642380D01*
X88773047Y-61642380D01*
X88868285Y-61690000D01*
X88963523Y-61785238D01*
X89011142Y-61975714D01*
X89011142Y-62309047D01*
X88963523Y-62499523D01*
X88868285Y-62594761D01*
X88773047Y-62642380D01*
X88582571Y-62642380D01*
X89963523Y-62642380D02*
X89392095Y-62642380D01*
X89677809Y-62642380D02*
X89677809Y-61642380D01*
X89582571Y-61785238D01*
X89487333Y-61880476D01*
X89392095Y-61928095D01*
X134104142Y-74573380D02*
X133770809Y-74097190D01*
X133532714Y-74573380D02*
X133532714Y-73573380D01*
X133913666Y-73573380D01*
X134008904Y-73621000D01*
X134056523Y-73668619D01*
X134104142Y-73763857D01*
X134104142Y-73906714D01*
X134056523Y-74001952D01*
X134008904Y-74049571D01*
X133913666Y-74097190D01*
X133532714Y-74097190D01*
X135056523Y-74573380D02*
X134485095Y-74573380D01*
X134770809Y-74573380D02*
X134770809Y-73573380D01*
X134675571Y-73716238D01*
X134580333Y-73811476D01*
X134485095Y-73859095D01*
X136008904Y-74573380D02*
X135437476Y-74573380D01*
X135723190Y-74573380D02*
X135723190Y-73573380D01*
X135627952Y-73716238D01*
X135532714Y-73811476D01*
X135437476Y-73859095D01*
X134104142Y-79653380D02*
X133770809Y-79177190D01*
X133532714Y-79653380D02*
X133532714Y-78653380D01*
X133913666Y-78653380D01*
X134008904Y-78701000D01*
X134056523Y-78748619D01*
X134104142Y-78843857D01*
X134104142Y-78986714D01*
X134056523Y-79081952D01*
X134008904Y-79129571D01*
X133913666Y-79177190D01*
X133532714Y-79177190D01*
X135056523Y-79653380D02*
X134485095Y-79653380D01*
X134770809Y-79653380D02*
X134770809Y-78653380D01*
X134675571Y-78796238D01*
X134580333Y-78891476D01*
X134485095Y-78939095D01*
X135389857Y-78653380D02*
X136008904Y-78653380D01*
X135675571Y-79034333D01*
X135818428Y-79034333D01*
X135913666Y-79081952D01*
X135961285Y-79129571D01*
X136008904Y-79224809D01*
X136008904Y-79462904D01*
X135961285Y-79558142D01*
X135913666Y-79605761D01*
X135818428Y-79653380D01*
X135532714Y-79653380D01*
X135437476Y-79605761D01*
X135389857Y-79558142D01*
X147825142Y-72875666D02*
X147872761Y-72923285D01*
X147920380Y-73066142D01*
X147920380Y-73161380D01*
X147872761Y-73304238D01*
X147777523Y-73399476D01*
X147682285Y-73447095D01*
X147491809Y-73494714D01*
X147348952Y-73494714D01*
X147158476Y-73447095D01*
X147063238Y-73399476D01*
X146968000Y-73304238D01*
X146920380Y-73161380D01*
X146920380Y-73066142D01*
X146968000Y-72923285D01*
X147015619Y-72875666D01*
X147348952Y-72304238D02*
X147301333Y-72399476D01*
X147253714Y-72447095D01*
X147158476Y-72494714D01*
X147110857Y-72494714D01*
X147015619Y-72447095D01*
X146968000Y-72399476D01*
X146920380Y-72304238D01*
X146920380Y-72113761D01*
X146968000Y-72018523D01*
X147015619Y-71970904D01*
X147110857Y-71923285D01*
X147158476Y-71923285D01*
X147253714Y-71970904D01*
X147301333Y-72018523D01*
X147348952Y-72113761D01*
X147348952Y-72304238D01*
X147396571Y-72399476D01*
X147444190Y-72447095D01*
X147539428Y-72494714D01*
X147729904Y-72494714D01*
X147825142Y-72447095D01*
X147872761Y-72399476D01*
X147920380Y-72304238D01*
X147920380Y-72113761D01*
X147872761Y-72018523D01*
X147825142Y-71970904D01*
X147729904Y-71923285D01*
X147539428Y-71923285D01*
X147444190Y-71970904D01*
X147396571Y-72018523D01*
X147348952Y-72113761D01*
X77879722Y-62653015D02*
X77879722Y-61653015D01*
X78117818Y-61653015D01*
X78260675Y-61700635D01*
X78355913Y-61795873D01*
X78403532Y-61891111D01*
X78451151Y-62081587D01*
X78451151Y-62224444D01*
X78403532Y-62414920D01*
X78355913Y-62510158D01*
X78260675Y-62605396D01*
X78117818Y-62653015D01*
X77879722Y-62653015D01*
X79308294Y-61986349D02*
X79308294Y-62653015D01*
X79070198Y-61605396D02*
X78832103Y-62319682D01*
X79451151Y-62319682D01*
X79095913Y-58802380D02*
X79095913Y-57802380D01*
X79667341Y-58802380D02*
X79238770Y-58230952D01*
X79667341Y-57802380D02*
X79095913Y-58373809D01*
X184029722Y-91453015D02*
X184029722Y-90453015D01*
X184267818Y-90453015D01*
X184410675Y-90500635D01*
X184505913Y-90595873D01*
X184553532Y-90691111D01*
X184601151Y-90881587D01*
X184601151Y-91024444D01*
X184553532Y-91214920D01*
X184505913Y-91310158D01*
X184410675Y-91405396D01*
X184267818Y-91453015D01*
X184029722Y-91453015D01*
X184934484Y-90453015D02*
X185553532Y-90453015D01*
X185220198Y-90833968D01*
X185363056Y-90833968D01*
X185458294Y-90881587D01*
X185505913Y-90929206D01*
X185553532Y-91024444D01*
X185553532Y-91262539D01*
X185505913Y-91357777D01*
X185458294Y-91405396D01*
X185363056Y-91453015D01*
X185077341Y-91453015D01*
X184982103Y-91405396D01*
X184934484Y-91357777D01*
X185245913Y-87602380D02*
X185245913Y-86602380D01*
X185817341Y-87602380D02*
X185388770Y-87030952D01*
X185817341Y-86602380D02*
X185245913Y-87173809D01*
D11*
X122141064Y-53742000D02*
X120936936Y-53742000D01*
X122141064Y-51922000D02*
X120936936Y-51922000D01*
X94255000Y-50132064D02*
X94255000Y-48927936D01*
X92435000Y-50132064D02*
X92435000Y-48927936D01*
X75459000Y-49370064D02*
X75459000Y-48165936D01*
X73639000Y-49370064D02*
X73639000Y-48165936D01*
X85365000Y-49370064D02*
X85365000Y-48165936D01*
X83545000Y-49370064D02*
X83545000Y-48165936D01*
X81174000Y-48165936D02*
X81174000Y-49370064D01*
X79354000Y-48165936D02*
X79354000Y-49370064D01*
X163924064Y-55224000D02*
X162719936Y-55224000D01*
X163924064Y-57044000D02*
X162719936Y-57044000D01*
X67850000Y-69670000D02*
X64250000Y-69670000D01*
X69730000Y-75150000D02*
X69730000Y-71550000D01*
X67850000Y-77030000D02*
X64250000Y-77030000D01*
X62370000Y-75150000D02*
X62370000Y-71550000D01*
X68830000Y-67330000D02*
X68830000Y-57210000D01*
X65853000Y-61070000D02*
X65903000Y-61120000D01*
X58210000Y-67330000D02*
X68830000Y-67330000D01*
X61770000Y-67330000D02*
X61770000Y-57210000D01*
X63420000Y-58637000D02*
X63444000Y-58662000D01*
X62770000Y-67330000D02*
X62770000Y-57210000D01*
X66770000Y-67330000D02*
X66770000Y-57210000D01*
X69070000Y-67570000D02*
X69070000Y-65570000D01*
X66830000Y-67570000D02*
X69070000Y-67570000D01*
X58210000Y-57210000D02*
X68830000Y-57210000D01*
X66095000Y-60878000D02*
X66120000Y-60902000D01*
X58210000Y-67330000D02*
X58210000Y-57210000D01*
X63637000Y-58420000D02*
X63687000Y-58469000D01*
X64074000Y-66409000D02*
G75*
G03*
X65465516Y-66409206I696001J1638995D01*
G01*
X66550000Y-64770000D02*
G75*
G03*
X66408499Y-64074499I-1780002J0D01*
G01*
X65466000Y-63131000D02*
G75*
G03*
X64074484Y-63130794I-696001J-1638995D01*
G01*
X66409000Y-65466000D02*
G75*
G03*
X66550390Y-64739186I-1638986J695998D01*
G01*
X63131000Y-64074000D02*
G75*
G03*
X63130794Y-65465516I1638995J-696001D01*
G01*
X66550000Y-59770000D02*
G75*
G03*
X66550000Y-59770000I-1780000J0D01*
G01*
X194415000Y-80515000D02*
X198015000Y-80515000D01*
X194415000Y-73155000D02*
X198015000Y-73155000D01*
X199895000Y-75035000D02*
X199895000Y-78635000D01*
X192535000Y-75035000D02*
X192535000Y-78635000D01*
X168148000Y-47889000D02*
X168099000Y-47939000D01*
X159238000Y-46022000D02*
X169358000Y-46022000D01*
X158998000Y-53322000D02*
X160998000Y-53322000D01*
X167931000Y-47672000D02*
X167906000Y-47696000D01*
X165498000Y-50105000D02*
X165448000Y-50155000D01*
X165690000Y-50347000D02*
X165666000Y-50372000D01*
X159238000Y-42462000D02*
X169358000Y-42462000D01*
X158998000Y-51082000D02*
X158998000Y-53322000D01*
X159238000Y-53082000D02*
X169358000Y-53082000D01*
X169358000Y-42462000D02*
X169358000Y-53082000D01*
X159238000Y-51022000D02*
X169358000Y-51022000D01*
X159238000Y-42462000D02*
X159238000Y-53082000D01*
X159238000Y-47022000D02*
X169358000Y-47022000D01*
X163437000Y-49718000D02*
G75*
G03*
X163437206Y-48326484I-1638995J696001D01*
G01*
X161102000Y-50661000D02*
G75*
G03*
X161828814Y-50802390I695998J1638986D01*
G01*
X161798000Y-50802000D02*
G75*
G03*
X162493501Y-50660499I0J1780002D01*
G01*
X160159000Y-48326000D02*
G75*
G03*
X160158794Y-49717516I1638995J-696001D01*
G01*
X162494000Y-47383000D02*
G75*
G03*
X161102484Y-47382794I-696001J-1638995D01*
G01*
X168578000Y-49022000D02*
G75*
G03*
X168578000Y-49022000I-1780000J0D01*
G01*
X72023000Y-62692000D02*
X72023000Y-61392000D01*
X72183000Y-82212000D02*
X82503000Y-82212000D01*
X77003000Y-63952000D02*
X77703000Y-63952000D01*
X82503000Y-82212000D02*
X82503000Y-61542000D01*
X78833000Y-62602000D02*
X78833000Y-61542000D01*
X77703000Y-63382000D02*
X78803000Y-63382000D01*
X82503000Y-61542000D02*
X72183000Y-61542000D01*
X77003000Y-62752000D02*
X77003000Y-63952000D01*
X75833000Y-61542000D02*
X75833000Y-62582000D01*
X72183000Y-61542000D02*
X72183000Y-82212000D01*
X77003000Y-63552000D02*
X77703000Y-63152000D01*
X77003000Y-63382000D02*
X75903000Y-63382000D01*
X72023000Y-61392000D02*
X73233000Y-61392000D01*
X77703000Y-63952000D02*
X77703000Y-62752000D01*
X77703000Y-62752000D02*
X77003000Y-62752000D01*
X75833000Y-62602000D02*
X78833000Y-62602000D01*
X183855000Y-84695000D02*
X183855000Y-83495000D01*
X183855000Y-83895000D02*
X183155000Y-84295000D01*
X182025000Y-84845000D02*
X182025000Y-85905000D01*
X178355000Y-65235000D02*
X178355000Y-85905000D01*
X188835000Y-84755000D02*
X188835000Y-86055000D01*
X188675000Y-85905000D02*
X188675000Y-65235000D01*
X188675000Y-65235000D02*
X178355000Y-65235000D01*
X185025000Y-85905000D02*
X185025000Y-84865000D01*
X183855000Y-83495000D02*
X183155000Y-83495000D01*
X188835000Y-86055000D02*
X187625000Y-86055000D01*
X183155000Y-84065000D02*
X182055000Y-84065000D01*
X183855000Y-84065000D02*
X184955000Y-84065000D01*
X178355000Y-85905000D02*
X188675000Y-85905000D01*
X183155000Y-84695000D02*
X183855000Y-84695000D01*
X185025000Y-84845000D02*
X182025000Y-84845000D01*
X183155000Y-83495000D02*
X183155000Y-84695000D01*
X128164000Y-64548936D02*
X128164000Y-65753064D01*
X126344000Y-64548936D02*
X126344000Y-65753064D01*
X127275000Y-81882064D02*
X127275000Y-80677936D01*
X125455000Y-81882064D02*
X125455000Y-80677936D01*
X71969000Y-52610000D02*
X71969000Y-57251000D01*
X78940000Y-52610000D02*
X78940000Y-54120000D01*
X71969000Y-57251000D02*
X82209000Y-57251000D01*
X71969000Y-54120000D02*
X82209000Y-54120000D01*
X75239000Y-52610000D02*
X75239000Y-54120000D01*
X82209000Y-52610000D02*
X82209000Y-57251000D01*
X71969000Y-52610000D02*
X82209000Y-52610000D01*
X124566000Y-71468064D02*
X124566000Y-70263936D01*
X126386000Y-71468064D02*
X126386000Y-70263936D01*
X128364064Y-76475000D02*
X127159936Y-76475000D01*
X128364064Y-74655000D02*
X127159936Y-74655000D01*
X129240920Y-46820680D02*
X139480920Y-46820680D01*
X139480920Y-46820680D02*
X139480920Y-62710680D01*
X131820920Y-62710680D02*
X131820920Y-65250680D01*
X129240920Y-62710680D02*
X139480920Y-62710680D01*
X136900920Y-62710680D02*
X136900920Y-65250680D01*
X129240920Y-46820680D02*
X129240920Y-62710680D01*
X134360920Y-62710680D02*
X134360920Y-65250680D01*
X134117080Y-85798040D02*
X134117080Y-83258040D01*
X131577080Y-85798040D02*
X131577080Y-83258040D01*
X136657080Y-85798040D02*
X136657080Y-83258040D01*
X139237080Y-101688040D02*
X128997080Y-101688040D01*
X139237080Y-101688040D02*
X139237080Y-85798040D01*
X128997080Y-101688040D02*
X128997080Y-85798040D01*
X139237080Y-85798040D02*
X128997080Y-85798040D01*
X86370000Y-56320000D02*
X86370000Y-46550000D01*
X86370000Y-56320000D02*
X91440000Y-56320000D01*
X86370000Y-46550000D02*
X91440000Y-46550000D01*
X91440000Y-56320000D02*
X91440000Y-46550000D01*
X112173736Y-51757000D02*
X116527864Y-51757000D01*
X112173736Y-55177000D02*
X116527864Y-55177000D01*
X171435000Y-49784000D02*
X171435000Y-55024000D01*
X171435000Y-55024000D02*
X175275000Y-55024000D01*
X173355000Y-48404000D02*
X173355000Y-49784000D01*
X173355000Y-56404000D02*
X173355000Y-55024000D01*
X175275000Y-49784000D02*
X171435000Y-49784000D01*
X175275000Y-55024000D02*
X175275000Y-49784000D01*
X194415000Y-84585000D02*
X198015000Y-84585000D01*
X192535000Y-86465000D02*
X192535000Y-90065000D01*
X199895000Y-86465000D02*
X199895000Y-90065000D01*
X194415000Y-91945000D02*
X198015000Y-91945000D01*
X194415000Y-70355000D02*
X198015000Y-70355000D01*
X194415000Y-62995000D02*
X198015000Y-62995000D01*
X199895000Y-64875000D02*
X199895000Y-68475000D01*
X192535000Y-64875000D02*
X192535000Y-68475000D01*
X153948000Y-46428000D02*
X155927000Y-46428000D01*
X149516000Y-46908000D02*
X151868000Y-46908000D01*
X148898000Y-48428000D02*
X156918000Y-48428000D01*
X151810000Y-45228000D02*
X154006000Y-45228000D01*
X153948000Y-47668000D02*
X156698000Y-47668000D01*
X153948000Y-47548000D02*
X156648000Y-47548000D01*
X148891000Y-48468000D02*
X156925000Y-48468000D01*
X149073000Y-47788000D02*
X156743000Y-47788000D01*
X153948000Y-46628000D02*
X156097000Y-46628000D01*
X149599000Y-46788000D02*
X151868000Y-46788000D01*
X153948000Y-46708000D02*
X156158000Y-46708000D01*
X149151000Y-47588000D02*
X151868000Y-47588000D01*
X153948000Y-46348000D02*
X155853000Y-46348000D01*
X148843000Y-48829000D02*
X156973000Y-48829000D01*
X149006000Y-47988000D02*
X156810000Y-47988000D01*
X149415000Y-47068000D02*
X151868000Y-47068000D01*
X148923000Y-48308000D02*
X156893000Y-48308000D01*
X153948000Y-46068000D02*
X155559000Y-46068000D01*
X153948000Y-47348000D02*
X156555000Y-47348000D01*
X153948000Y-47148000D02*
X156448000Y-47148000D01*
X153948000Y-46028000D02*
X155512000Y-46028000D01*
X150304000Y-46028000D02*
X151868000Y-46028000D01*
X148972000Y-48108000D02*
X156844000Y-48108000D01*
X150806000Y-45668000D02*
X151868000Y-45668000D01*
X153948000Y-46508000D02*
X155998000Y-46508000D01*
X149784000Y-46548000D02*
X151868000Y-46548000D01*
X150167000Y-46148000D02*
X151868000Y-46148000D01*
X149752000Y-46588000D02*
X151868000Y-46588000D01*
X151679000Y-45268000D02*
X154137000Y-45268000D01*
X149324000Y-47228000D02*
X151868000Y-47228000D01*
X153948000Y-45828000D02*
X155253000Y-45828000D01*
X150352000Y-45988000D02*
X151868000Y-45988000D01*
X153948000Y-46108000D02*
X155605000Y-46108000D01*
X150508000Y-45868000D02*
X151868000Y-45868000D01*
X151095000Y-45508000D02*
X154721000Y-45508000D01*
X153948000Y-46668000D02*
X156128000Y-46668000D01*
X148828000Y-49109000D02*
X156988000Y-49109000D01*
X149570000Y-46828000D02*
X151868000Y-46828000D01*
X153948000Y-46908000D02*
X156300000Y-46908000D01*
X149818000Y-46508000D02*
X151868000Y-46508000D01*
X149439000Y-47028000D02*
X151868000Y-47028000D01*
X153948000Y-47508000D02*
X156630000Y-47508000D01*
X149853000Y-46468000D02*
X151868000Y-46468000D01*
X148834000Y-48949000D02*
X156982000Y-48949000D01*
X150124000Y-46188000D02*
X151868000Y-46188000D01*
X148994000Y-48028000D02*
X156822000Y-48028000D01*
X150454000Y-45908000D02*
X151868000Y-45908000D01*
X151455000Y-45348000D02*
X154361000Y-45348000D01*
X153948000Y-47268000D02*
X156514000Y-47268000D01*
X149889000Y-46428000D02*
X151868000Y-46428000D01*
X153948000Y-46268000D02*
X155775000Y-46268000D01*
X153948000Y-47188000D02*
X156470000Y-47188000D01*
X153948000Y-47388000D02*
X156574000Y-47388000D01*
X148829000Y-49069000D02*
X156987000Y-49069000D01*
X153948000Y-45988000D02*
X155464000Y-45988000D01*
X149134000Y-47628000D02*
X151868000Y-47628000D01*
X149346000Y-47188000D02*
X151868000Y-47188000D01*
X152140000Y-45148000D02*
X153676000Y-45148000D01*
X149490000Y-46948000D02*
X151868000Y-46948000D01*
X149688000Y-46668000D02*
X151868000Y-46668000D01*
X148884000Y-48509000D02*
X156932000Y-48509000D01*
X151263000Y-45428000D02*
X154553000Y-45428000D01*
X153948000Y-47308000D02*
X156535000Y-47308000D01*
X153948000Y-45868000D02*
X155308000Y-45868000D01*
X149281000Y-47308000D02*
X151868000Y-47308000D01*
X153948000Y-47068000D02*
X156401000Y-47068000D01*
X150874000Y-45628000D02*
X154942000Y-45628000D01*
X153948000Y-46748000D02*
X156188000Y-46748000D01*
X153948000Y-46868000D02*
X156273000Y-46868000D01*
X153948000Y-46588000D02*
X156064000Y-46588000D01*
X149031000Y-47908000D02*
X156785000Y-47908000D01*
X149543000Y-46868000D02*
X151868000Y-46868000D01*
X149242000Y-47388000D02*
X151868000Y-47388000D01*
X149719000Y-46628000D02*
X151868000Y-46628000D01*
X149963000Y-46348000D02*
X151868000Y-46348000D01*
X150041000Y-46268000D02*
X151868000Y-46268000D01*
X153948000Y-45668000D02*
X155010000Y-45668000D01*
X153948000Y-45908000D02*
X155362000Y-45908000D01*
X148906000Y-48388000D02*
X156910000Y-48388000D01*
X153948000Y-46388000D02*
X155891000Y-46388000D01*
X153948000Y-46948000D02*
X156326000Y-46948000D01*
X150257000Y-46068000D02*
X151868000Y-46068000D01*
X153948000Y-45948000D02*
X155413000Y-45948000D01*
X149464000Y-46988000D02*
X151868000Y-46988000D01*
X153948000Y-45748000D02*
X155136000Y-45748000D01*
X153948000Y-46228000D02*
X155734000Y-46228000D01*
X153948000Y-46188000D02*
X155692000Y-46188000D01*
X148961000Y-48148000D02*
X156855000Y-48148000D01*
X153948000Y-46988000D02*
X156352000Y-46988000D01*
X150001000Y-46308000D02*
X151868000Y-46308000D01*
X150680000Y-45748000D02*
X151868000Y-45748000D01*
X150621000Y-45788000D02*
X151868000Y-45788000D01*
X148831000Y-49029000D02*
X156985000Y-49029000D01*
X148851000Y-48749000D02*
X156965000Y-48749000D01*
X153948000Y-47588000D02*
X156665000Y-47588000D01*
X149204000Y-47468000D02*
X151868000Y-47468000D01*
X153948000Y-45788000D02*
X155195000Y-45788000D01*
X148847000Y-48789000D02*
X156969000Y-48789000D01*
X151356000Y-45388000D02*
X154460000Y-45388000D01*
X148878000Y-48549000D02*
X156938000Y-48549000D01*
X151177000Y-45468000D02*
X154639000Y-45468000D01*
X148914000Y-48348000D02*
X156902000Y-48348000D01*
X149368000Y-47148000D02*
X151868000Y-47148000D01*
X149925000Y-46388000D02*
X151868000Y-46388000D01*
X153948000Y-47628000D02*
X156682000Y-47628000D01*
X149222000Y-47428000D02*
X151868000Y-47428000D01*
X149391000Y-47108000D02*
X151868000Y-47108000D01*
X148828000Y-49149000D02*
X156988000Y-49149000D01*
X151960000Y-45188000D02*
X153856000Y-45188000D01*
X149087000Y-47748000D02*
X156729000Y-47748000D01*
X153948000Y-47468000D02*
X156612000Y-47468000D01*
X150944000Y-45588000D02*
X154872000Y-45588000D01*
X148832000Y-48989000D02*
X156984000Y-48989000D01*
X153948000Y-47108000D02*
X156425000Y-47108000D01*
X148837000Y-48909000D02*
X156979000Y-48909000D01*
X153948000Y-47708000D02*
X156713000Y-47708000D01*
X148828000Y-49189000D02*
X156988000Y-49189000D01*
X153948000Y-46828000D02*
X156246000Y-46828000D01*
X150193000Y-53198698D02*
X150993000Y-53198698D01*
X150563000Y-45828000D02*
X151868000Y-45828000D01*
X149261000Y-47348000D02*
X151868000Y-47348000D01*
X149058000Y-47828000D02*
X156758000Y-47828000D01*
X149019000Y-47948000D02*
X156797000Y-47948000D01*
X149302000Y-47268000D02*
X151868000Y-47268000D01*
X149628000Y-46748000D02*
X151868000Y-46748000D01*
X149045000Y-47868000D02*
X156771000Y-47868000D01*
X151018000Y-45548000D02*
X154798000Y-45548000D01*
X153948000Y-46788000D02*
X156217000Y-46788000D01*
X149168000Y-47548000D02*
X151868000Y-47548000D01*
X153948000Y-45708000D02*
X155074000Y-45708000D01*
X150211000Y-46108000D02*
X151868000Y-46108000D01*
X148871000Y-48589000D02*
X156945000Y-48589000D01*
X153948000Y-47428000D02*
X156594000Y-47428000D01*
X151562000Y-45308000D02*
X154254000Y-45308000D01*
X148866000Y-48629000D02*
X156950000Y-48629000D01*
X149658000Y-46708000D02*
X151868000Y-46708000D01*
X148860000Y-48669000D02*
X156956000Y-48669000D01*
X148941000Y-48228000D02*
X156875000Y-48228000D01*
X148840000Y-48869000D02*
X156976000Y-48869000D01*
X152375000Y-45108000D02*
X153441000Y-45108000D01*
X149186000Y-47508000D02*
X151868000Y-47508000D01*
X150742000Y-45708000D02*
X151868000Y-45708000D01*
X150082000Y-46228000D02*
X151868000Y-46228000D01*
X150593000Y-53598698D02*
X150593000Y-52798698D01*
X149118000Y-47668000D02*
X151868000Y-47668000D01*
X153948000Y-46148000D02*
X155649000Y-46148000D01*
X153948000Y-46548000D02*
X156032000Y-46548000D01*
X153948000Y-47228000D02*
X156492000Y-47228000D01*
X148983000Y-48068000D02*
X156833000Y-48068000D01*
X153948000Y-47028000D02*
X156377000Y-47028000D01*
X148856000Y-48709000D02*
X156960000Y-48709000D01*
X149103000Y-47708000D02*
X151868000Y-47708000D01*
X153948000Y-46468000D02*
X155963000Y-46468000D01*
X150403000Y-45948000D02*
X151868000Y-45948000D01*
X148932000Y-48268000D02*
X156884000Y-48268000D01*
X148951000Y-48188000D02*
X156865000Y-48188000D01*
X153948000Y-46308000D02*
X155815000Y-46308000D01*
X157028000Y-49189000D02*
G75*
G03*
X157028000Y-49189000I-4120000J0D01*
G01*
X177398000Y-55404936D02*
X177398000Y-56609064D01*
X179218000Y-55404936D02*
X179218000Y-56609064D01*
X108056000Y-50005064D02*
X108056000Y-48800936D01*
X109876000Y-50005064D02*
X109876000Y-48800936D01*
X107920200Y-55720064D02*
X107920200Y-54515936D01*
X106100200Y-55720064D02*
X106100200Y-54515936D01*
X96160000Y-65437936D02*
X96160000Y-66642064D01*
X94340000Y-65437936D02*
X94340000Y-66642064D01*
X109822064Y-79015000D02*
X108617936Y-79015000D01*
X109822064Y-77195000D02*
X108617936Y-77195000D01*
X87905000Y-79342064D02*
X87905000Y-78137936D01*
X86085000Y-79342064D02*
X86085000Y-78137936D01*
X81752064Y-85110000D02*
X80547936Y-85110000D01*
X81752064Y-83290000D02*
X80547936Y-83290000D01*
X95520000Y-51780000D02*
X95520000Y-47880000D01*
X95520000Y-51780000D02*
X97520000Y-51780000D01*
X97520000Y-51780000D02*
X97520000Y-47880000D01*
X99278000Y-52975000D02*
X95378000Y-52975000D01*
X99278000Y-54975000D02*
X99278000Y-52975000D01*
X99278000Y-54975000D02*
X95378000Y-54975000D01*
X103505000Y-62881000D02*
X103505000Y-61501000D01*
X103505000Y-54881000D02*
X103505000Y-56261000D01*
X105425000Y-56261000D02*
X101585000Y-56261000D01*
X105425000Y-61501000D02*
X105425000Y-56261000D01*
X101585000Y-56261000D02*
X101585000Y-61501000D01*
X101585000Y-61501000D02*
X105425000Y-61501000D01*
X97663000Y-80525000D02*
X97663000Y-77985000D01*
X95123000Y-80525000D02*
X95123000Y-77985000D01*
X92583000Y-80525000D02*
X92583000Y-77985000D01*
X100243000Y-80525000D02*
X90003000Y-80525000D01*
X100243000Y-96415000D02*
X90003000Y-96415000D01*
X90003000Y-96415000D02*
X90003000Y-80525000D01*
X100243000Y-96415000D02*
X100243000Y-80525000D01*
X98785000Y-50005064D02*
X98785000Y-48800936D01*
X100605000Y-50005064D02*
X100605000Y-48800936D01*
X103653000Y-50005064D02*
X103653000Y-48800936D01*
X101833000Y-50005064D02*
X101833000Y-48800936D01*
X104881000Y-50005064D02*
X104881000Y-48800936D01*
X106701000Y-50005064D02*
X106701000Y-48800936D01*
X95471064Y-60431000D02*
X94266936Y-60431000D01*
X95471064Y-62251000D02*
X94266936Y-62251000D01*
X90530000Y-66642064D02*
X90530000Y-65437936D01*
X92350000Y-66642064D02*
X92350000Y-65437936D01*
X86085000Y-72992064D02*
X86085000Y-71787936D01*
X87905000Y-72992064D02*
X87905000Y-71787936D01*
X89175000Y-66642064D02*
X89175000Y-65437936D01*
X87355000Y-66642064D02*
X87355000Y-65437936D01*
X123725000Y-65785000D02*
G75*
G03*
X123725000Y-65785000I-7600000J0D01*
G01*
X119425000Y-65785000D02*
G75*
G03*
X119425000Y-65785000I-3300000J0D01*
G01*
X122102200Y-79418264D02*
X122102200Y-78214136D01*
X123922200Y-79418264D02*
X123922200Y-78214136D01*
X113390000Y-78355436D02*
X113390000Y-79559564D01*
X115210000Y-78355436D02*
X115210000Y-79559564D01*
X116857200Y-82339464D02*
X116857200Y-77985336D01*
X120277200Y-82339464D02*
X120277200Y-77985336D01*
X113390000Y-84487936D02*
X113390000Y-85692064D01*
X115210000Y-84487936D02*
X115210000Y-85692064D01*
X109822064Y-80370000D02*
X108617936Y-80370000D01*
X109822064Y-82190000D02*
X108617936Y-82190000D01*
X88079000Y-61300000D02*
X88079000Y-60390000D01*
X90229000Y-58080000D02*
X88079000Y-58080000D01*
X88079000Y-58990000D02*
X88079000Y-58080000D01*
X90654000Y-61300000D02*
X88079000Y-61300000D01*
X136924064Y-73211000D02*
X132569936Y-73211000D01*
X136924064Y-69791000D02*
X132569936Y-69791000D01*
X136924064Y-78291000D02*
X132569936Y-78291000D01*
X136924064Y-74871000D02*
X132569936Y-74871000D01*
X141697000Y-66589000D02*
X141697000Y-78829000D01*
X146339000Y-66589000D02*
X141697000Y-66589000D01*
X146339000Y-66589000D02*
X146339000Y-78829000D01*
X146339000Y-78829000D02*
X141697000Y-78829000D01*
X77828453Y-59450000D02*
X79757818Y-59450000D01*
X77828453Y-59450000D02*
G75*
G03*
X77828453Y-59450000I-1750635J0D01*
G01*
X183978453Y-88250000D02*
X185907818Y-88250000D01*
X183978453Y-88250000D02*
G75*
G03*
X183978453Y-88250000I-1750635J0D01*
G01*
M02*
