M48
; DRILL file {KiCad (6.0.0)} date Wed Jun  1 09:59:36 2022
; FORMAT={-:-/ absolute / inch / decimal}
; #@! TF.CreationDate,2022-06-01T09:59:36+02:00
; #@! TF.GenerationSoftware,Kicad,Pcbnew,(6.0.0)
; #@! TF.FileFunction,Plated,1,2,PTH
FMAT,2
INCH
; #@! TA.AperFunction,Plated,PTH,ViaDrill
T1C0.0157
; #@! TA.AperFunction,Plated,PTH,ComponentDrill
T2C0.0276
; #@! TA.AperFunction,Plated,PTH,ComponentDrill
T3C0.0315
; #@! TA.AperFunction,Plated,PTH,ComponentDrill
T4C0.0335
; #@! TA.AperFunction,Plated,PTH,ComponentDrill
T5C0.0433
; #@! TA.AperFunction,Plated,PTH,ComponentDrill
T6C0.0472
; #@! TA.AperFunction,Plated,PTH,ComponentDrill
T7C0.0551
; #@! TA.AperFunction,Plated,PTH,ComponentDrill
T8C0.0591
; #@! TA.AperFunction,Plated,PTH,ComponentDrill
T9C0.0591
; #@! TA.AperFunction,Plated,PTH,ComponentDrill
T10C0.0669
%
G90
G05
T1
X1.95Y-2.1
X2.6Y-3.2
X2.6Y-3.3
X2.6Y-3.4
X2.6Y-3.5
X2.7Y-3.2
X2.7Y-3.3
X2.7Y-3.4
X2.7Y-3.5
X2.76Y-2.29
X2.76Y-2.4
X2.8Y-3.6
X2.9Y-3.7
X3.0Y-3.8
X3.1Y-3.9
X3.2Y-4.0
X3.3Y-2.1
X3.3Y-2.2
X3.3Y-2.3
X3.3Y-2.4
X3.3Y-3.5
X3.3Y-3.6
X3.4Y-3.7
X3.45Y-3.25
X3.45Y-3.35
X3.45Y-3.5
X3.45Y-3.6
X3.5Y-2.25
X3.55Y-2.8
X3.55Y-2.9
X3.6Y-3.9
X3.65Y-2.125
X3.65Y-2.9
X3.7Y-3.9
X3.75Y-2.125
X3.775Y-2.75
X3.8Y-3.9
X3.875Y-2.55
X3.875Y-2.65
X3.875Y-2.75
X3.875Y-2.85
X3.9Y-3.9
X3.975Y-2.65
X3.975Y-2.75
X3.975Y-2.85
X3.975Y-2.925
X4.0Y-3.9
X4.1Y-3.2
X4.1Y-3.3
X4.1Y-3.4
X4.1Y-3.5
X4.1Y-3.6
X4.1Y-3.7
X4.1Y-3.8
X4.1Y-3.9
X4.125Y-2.65
X4.125Y-2.75
X4.125Y-2.85
X4.125Y-2.95
X4.175Y-3.8
X4.2Y-2.55
X4.2Y-2.65
X4.2Y-2.75
X4.2Y-2.85
X4.2Y-2.95
X4.2Y-3.3
X4.2Y-3.4
X4.2Y-3.5
X4.2Y-3.6
X4.2Y-3.7
X4.3Y-3.3
X4.4Y-1.9
X4.4Y-1.975
X4.4Y-3.5
X4.4Y-3.6
X4.4Y-3.7
X4.4Y-3.8
X4.4Y-3.9
X4.5Y-1.9
X4.5Y-1.975
X4.5Y-3.5
X4.5Y-3.6
X4.5Y-3.7
X4.5Y-3.8
X4.5Y-3.9
X4.6Y-1.9
X4.6Y-1.975
X4.6Y-3.25
X4.6Y-3.325
X4.6Y-3.5
X4.6Y-3.6
X4.6Y-3.7
X4.6Y-3.8
X4.6Y-3.9
X4.675Y-3.25
X4.675Y-3.325
X4.7Y-1.9
X4.7Y-1.975
X4.7Y-3.5
X4.7Y-3.6
X4.7Y-3.7
X4.7Y-3.8
X4.7Y-3.9
X4.75Y-3.25
X4.75Y-3.325
X4.8Y-1.9
X4.8Y-1.975
X4.8Y-3.5
X4.8Y-3.6
X4.8Y-3.7
X4.8Y-3.8
X4.8Y-3.9
X4.9Y-1.9
X4.9Y-1.975
X4.9Y-3.6
X4.9Y-3.7
X4.9Y-3.8
X4.9Y-3.9
X5.0Y-1.9
X5.0Y-1.975
X5.0Y-3.6
X5.0Y-3.7
X5.0Y-3.8
X5.0Y-3.9
X5.575Y-1.9
X5.575Y-2.0
X5.6Y-3.5
X5.6Y-3.6
X5.6Y-3.7
X5.6Y-3.8
X5.6Y-3.9
X5.65Y-1.85
X5.65Y-1.95
X5.65Y-2.05
X5.65Y-2.15
X5.65Y-2.25
X5.7Y-3.5
X5.7Y-3.6
X5.7Y-3.7
X5.7Y-3.8
X5.7Y-3.9
X5.75Y-1.85
X5.75Y-1.95
X5.75Y-2.05
X5.75Y-2.15
X5.75Y-2.25
X5.875Y-2.2
X5.875Y-2.3
X5.875Y-2.4
X5.875Y-2.5
X5.875Y-2.6
X5.875Y-2.8
X5.875Y-2.9
X5.875Y-2.9
X5.875Y-3.0
X5.875Y-3.1
X5.875Y-3.2
X5.875Y-3.4
X5.875Y-3.5
X5.875Y-3.6
X5.875Y-3.7
X5.875Y-3.8
X5.875Y-3.9
X5.975Y-3.9
X6.0Y-2.4
X6.0Y-2.5
X6.0Y-3.5
X6.0Y-3.75
X6.025Y-2.225
X6.075Y-3.9
X6.15Y-2.4
X6.15Y-2.5
X6.175Y-3.9
X6.2Y-2.8
X6.225Y-3.0
X6.25Y-2.225
X6.25Y-3.5
X6.25Y-3.75
X6.275Y-3.9
X6.3Y-2.4
X6.3Y-2.5
X6.375Y-3.9
X6.45Y-2.4
X6.45Y-2.5
X6.475Y-3.9
X6.5Y-3.0
X6.5Y-3.75
X6.575Y-3.9
X6.6Y-2.4
X6.6Y-2.5
X6.625Y-2.2
X6.675Y-3.9
X6.75Y-2.75
X6.75Y-3.0
X6.75Y-3.25
X6.75Y-3.5
X6.75Y-3.75
X6.875Y-3.9
X6.975Y-3.9
X7.0Y-2.5
X7.0Y-2.75
X7.0Y-3.0
X7.0Y-3.25
X7.0Y-3.5
X7.0Y-3.75
X7.05Y-1.85
X7.25Y-2.5
X7.25Y-2.75
X7.25Y-3.0
X7.25Y-3.25
X7.25Y-3.5
X7.25Y-3.75
X7.25Y-3.9
X7.4Y-2.5
X7.4Y-2.75
X7.4Y-3.0
X7.4Y-3.25
X7.4Y-3.5
X7.4Y-3.75
X7.475Y-3.9
X7.55Y-2.75
X7.55Y-3.0
X7.55Y-3.25
X7.55Y-3.5
X7.55Y-3.75
X7.575Y-3.9
X7.675Y-3.75
X7.675Y-3.9
X7.775Y-3.9
X7.925Y-3.75
X8.175Y-3.75
T2
X2.895Y-2.48
X2.895Y-2.78
X2.895Y-2.9796
X2.895Y-3.18
X3.195Y-2.48
X3.195Y-2.78
X3.1954Y-2.9804
X3.1954Y-3.1804
X7.25Y-1.95
X7.25Y-2.25
X7.55Y-1.95
X7.55Y-2.25
X7.7496Y-2.25
X7.7504Y-1.9496
X7.95Y-2.25
X7.9504Y-1.9496
T3
X3.5Y-1.925
X3.5Y-2.025
X3.5Y-2.125
X6.04Y-1.9031
X6.04Y-2.1
T4
X4.075Y-2.1213
X4.075Y-2.515
X6.825Y-1.8663
X6.825Y-2.26
T5
X2.6586Y-2.34
X2.8586Y-2.34
X2.935Y-2.2
X3.035Y-2.2
X3.135Y-2.2
X3.645Y-3.025
X3.745Y-3.025
X3.845Y-3.025
X5.1802Y-3.2326
X5.1898Y-2.6142
X5.2802Y-3.2326
X5.2898Y-2.6142
X5.3802Y-3.2326
X5.3898Y-2.6142
X7.1486Y-2.41
X7.3486Y-2.41
T6
X4.375Y-2.275
X4.375Y-2.9049
X4.7687Y-2.275
X4.7687Y-2.9049
T7
X2.5542Y-1.9345
X2.5542Y-2.1314
X6.37Y-1.93
X6.5669Y-1.93
T8
X2.6Y-2.645
X8.125Y-2.625
X8.125Y-3.025
X8.125Y-3.475
T9
X5.67Y-3.08
X5.67Y-3.28
X5.68Y-2.475
X5.68Y-2.675
X6.02Y-2.885
X6.335Y-2.675
X6.335Y-3.28
X7.75Y-2.675
X7.75Y-3.2593
T10
X2.5Y-2.545
X2.5Y-2.745
X2.7Y-2.545
X2.7Y-2.745
X8.025Y-2.525
X8.025Y-2.725
X8.025Y-2.925
X8.025Y-3.125
X8.025Y-3.375
X8.025Y-3.575
X8.225Y-2.525
X8.225Y-2.725
X8.225Y-2.925
X8.225Y-3.125
X8.225Y-3.375
X8.225Y-3.575
T0
M30
