G04 #@! TF.GenerationSoftware,KiCad,Pcbnew,(6.0.0)*
G04 #@! TF.CreationDate,2022-06-01T09:59:34+02:00*
G04 #@! TF.ProjectId,rfamp3,7266616d-7033-42e6-9b69-6361645f7063,rev?*
G04 #@! TF.SameCoordinates,Original*
G04 #@! TF.FileFunction,Soldermask,Bot*
G04 #@! TF.FilePolarity,Negative*
%FSLAX46Y46*%
G04 Gerber Fmt 4.6, Leading zero omitted, Abs format (unit mm)*
G04 Created by KiCad (PCBNEW (6.0.0)) date 2022-06-01 09:59:34*
%MOMM*%
%LPD*%
G01*
G04 APERTURE LIST*
G04 Aperture macros list*
%AMRoundRect*
0 Rectangle with rounded corners*
0 $1 Rounding radius*
0 $2 $3 $4 $5 $6 $7 $8 $9 X,Y pos of 4 corners*
0 Add a 4 corners polygon primitive as box body*
4,1,4,$2,$3,$4,$5,$6,$7,$8,$9,$2,$3,0*
0 Add four circle primitives for the rounded corners*
1,1,$1+$1,$2,$3*
1,1,$1+$1,$4,$5*
1,1,$1+$1,$6,$7*
1,1,$1+$1,$8,$9*
0 Add four rect primitives between the rounded corners*
20,1,$1+$1,$2,$3,$4,$5,0*
20,1,$1+$1,$4,$5,$6,$7,0*
20,1,$1+$1,$6,$7,$8,$9,0*
20,1,$1+$1,$8,$9,$2,$3,0*%
G04 Aperture macros list end*
%ADD10RoundRect,0.051000X1.100000X1.100000X-1.100000X1.100000X-1.100000X-1.100000X1.100000X-1.100000X0*%
%ADD11O,2.302000X2.302000*%
%ADD12C,4.102500*%
%ADD13C,2.352000*%
%ADD14C,2.152000*%
%ADD15C,3.102000*%
%ADD16C,3.302000*%
%ADD17O,1.702000X1.702000*%
%ADD18C,1.702000*%
%ADD19O,2.007000X2.102000*%
%ADD20RoundRect,0.051000X0.952500X1.000000X-0.952500X1.000000X-0.952500X-1.000000X0.952500X-1.000000X0*%
%ADD21O,3.602000X3.602000*%
%ADD22C,1.542000*%
%ADD23C,1.502000*%
%ADD24RoundRect,0.051000X-0.700000X-0.700000X0.700000X-0.700000X0.700000X0.700000X-0.700000X0.700000X0*%
%ADD25RoundRect,0.051000X0.800000X-0.800000X0.800000X0.800000X-0.800000X0.800000X-0.800000X-0.800000X0*%
%ADD26RoundRect,0.051000X1.400000X-1.400000X1.400000X1.400000X-1.400000X1.400000X-1.400000X-1.400000X0*%
%ADD27C,2.902000*%
%ADD28RoundRect,0.051000X-1.400000X-1.400000X1.400000X-1.400000X1.400000X1.400000X-1.400000X1.400000X0*%
%ADD29RoundRect,0.051000X0.700000X-0.700000X0.700000X0.700000X-0.700000X0.700000X-0.700000X-0.700000X0*%
%ADD30RoundRect,0.051000X-0.952500X-1.000000X0.952500X-1.000000X0.952500X1.000000X-0.952500X1.000000X0*%
G04 APERTURE END LIST*
D10*
X72607818Y-59436000D03*
D11*
X67527818Y-59436000D03*
D10*
X186653818Y-61214000D03*
D11*
X181573818Y-61214000D03*
D12*
X152908000Y-73279000D03*
X144272000Y-62865000D03*
X196850000Y-67945000D03*
X160909000Y-83312000D03*
X160909000Y-67945000D03*
D13*
X203835000Y-90805000D03*
X203835000Y-85725000D03*
X208915000Y-85725000D03*
X208915000Y-90805000D03*
D14*
X206375000Y-88265000D03*
D13*
X68580000Y-64643000D03*
X68580000Y-69723000D03*
X63500000Y-69723000D03*
X63500000Y-64643000D03*
D14*
X66040000Y-67183000D03*
D13*
X203835000Y-69215000D03*
X203835000Y-64135000D03*
X208915000Y-64135000D03*
X208915000Y-69215000D03*
D14*
X206375000Y-66675000D03*
D13*
X203835000Y-79375000D03*
X203835000Y-74295000D03*
X208915000Y-74295000D03*
X208915000Y-79375000D03*
D14*
X206375000Y-76835000D03*
D15*
X121125000Y-73785000D03*
X121125000Y-57785000D03*
X111125000Y-73785000D03*
X111125000Y-57785000D03*
D16*
X64950000Y-76835000D03*
X64950000Y-100590000D03*
X207610000Y-48260000D03*
X207610000Y-100575000D03*
D12*
X144018000Y-78232000D03*
X144272000Y-67945000D03*
X144018000Y-83312000D03*
X196850000Y-82787249D03*
D17*
X173355000Y-47404000D03*
D18*
X173355000Y-57404000D03*
D17*
X103505000Y-53881000D03*
D18*
X103505000Y-63881000D03*
D19*
X92583000Y-76835000D03*
X95123000Y-76835000D03*
D20*
X97663000Y-76835000D03*
D21*
X95123000Y-93495000D03*
D22*
X88900000Y-53975000D03*
X88900000Y-51435000D03*
X88900000Y-48895000D03*
D23*
X81153000Y-70612000D03*
X81163000Y-80782000D03*
X81163000Y-75702000D03*
X73533000Y-70612000D03*
X73533000Y-80772000D03*
X73533000Y-75682000D03*
X81153000Y-62992000D03*
D24*
X73533000Y-62992000D03*
D25*
X153416000Y-53340000D03*
D18*
X153416000Y-48340000D03*
D26*
X64876680Y-54137560D03*
D27*
X64876680Y-49137560D03*
X166798000Y-49022000D03*
D28*
X161798000Y-49022000D03*
D29*
X184150000Y-57150000D03*
D23*
X184150000Y-49530000D03*
X196840000Y-57150000D03*
X201930000Y-57150000D03*
X191770000Y-57150000D03*
X196860000Y-49520000D03*
X201940000Y-49520000D03*
X191770000Y-49530000D03*
D30*
X74549000Y-55880000D03*
D19*
X77089000Y-55880000D03*
X79629000Y-55880000D03*
D21*
X134360920Y-49740680D03*
D30*
X131820920Y-66400680D03*
D19*
X134360920Y-66400680D03*
X136900920Y-66400680D03*
X131577080Y-82108040D03*
X134117080Y-82108040D03*
D20*
X136657080Y-82108040D03*
D21*
X134117080Y-98768040D03*
M02*
