G04 #@! TF.GenerationSoftware,KiCad,Pcbnew,(6.0.0)*
G04 #@! TF.CreationDate,2022-06-01T09:59:34+02:00*
G04 #@! TF.ProjectId,rfamp3,7266616d-7033-42e6-9b69-6361645f7063,rev?*
G04 #@! TF.SameCoordinates,Original*
G04 #@! TF.FileFunction,Copper,L2,Bot*
G04 #@! TF.FilePolarity,Positive*
%FSLAX46Y46*%
G04 Gerber Fmt 4.6, Leading zero omitted, Abs format (unit mm)*
G04 Created by KiCad (PCBNEW (6.0.0)) date 2022-06-01 09:59:34*
%MOMM*%
%LPD*%
G01*
G04 APERTURE LIST*
G04 #@! TA.AperFunction,ComponentPad*
%ADD10R,2.200000X2.200000*%
G04 #@! TD*
G04 #@! TA.AperFunction,ComponentPad*
%ADD11O,2.200000X2.200000*%
G04 #@! TD*
G04 #@! TA.AperFunction,ComponentPad*
%ADD12C,4.000500*%
G04 #@! TD*
G04 #@! TA.AperFunction,ComponentPad*
%ADD13C,2.250000*%
G04 #@! TD*
G04 #@! TA.AperFunction,ComponentPad*
%ADD14C,2.050000*%
G04 #@! TD*
G04 #@! TA.AperFunction,ComponentPad*
%ADD15C,3.000000*%
G04 #@! TD*
G04 #@! TA.AperFunction,ComponentPad*
%ADD16O,1.600000X1.600000*%
G04 #@! TD*
G04 #@! TA.AperFunction,ComponentPad*
%ADD17C,1.600000*%
G04 #@! TD*
G04 #@! TA.AperFunction,ComponentPad*
%ADD18O,1.905000X2.000000*%
G04 #@! TD*
G04 #@! TA.AperFunction,ComponentPad*
%ADD19R,1.905000X2.000000*%
G04 #@! TD*
G04 #@! TA.AperFunction,ComponentPad*
%ADD20C,1.440000*%
G04 #@! TD*
G04 #@! TA.AperFunction,ComponentPad*
%ADD21C,1.400000*%
G04 #@! TD*
G04 #@! TA.AperFunction,ComponentPad*
%ADD22R,1.400000X1.400000*%
G04 #@! TD*
G04 #@! TA.AperFunction,ComponentPad*
%ADD23R,1.600000X1.600000*%
G04 #@! TD*
G04 #@! TA.AperFunction,ComponentPad*
%ADD24R,2.800000X2.800000*%
G04 #@! TD*
G04 #@! TA.AperFunction,ComponentPad*
%ADD25C,2.800000*%
G04 #@! TD*
G04 #@! TA.AperFunction,ViaPad*
%ADD26C,0.800000*%
G04 #@! TD*
G04 APERTURE END LIST*
D10*
X72607818Y-59436000D03*
D11*
X67527818Y-59436000D03*
D10*
X186653818Y-61214000D03*
D11*
X181573818Y-61214000D03*
D12*
X152908000Y-73279000D03*
X144272000Y-62865000D03*
X196850000Y-67945000D03*
X160909000Y-83312000D03*
X160909000Y-67945000D03*
D13*
X203835000Y-90805000D03*
X203835000Y-85725000D03*
X208915000Y-85725000D03*
X208915000Y-90805000D03*
D14*
X206375000Y-88265000D03*
D13*
X68580000Y-64643000D03*
X68580000Y-69723000D03*
X63500000Y-69723000D03*
X63500000Y-64643000D03*
D14*
X66040000Y-67183000D03*
D13*
X203835000Y-69215000D03*
X203835000Y-64135000D03*
X208915000Y-64135000D03*
X208915000Y-69215000D03*
D14*
X206375000Y-66675000D03*
D13*
X203835000Y-79375000D03*
X203835000Y-74295000D03*
X208915000Y-74295000D03*
X208915000Y-79375000D03*
D14*
X206375000Y-76835000D03*
D15*
X121125000Y-73785000D03*
X121125000Y-57785000D03*
X111125000Y-73785000D03*
X111125000Y-57785000D03*
D12*
X144018000Y-78232000D03*
X144272000Y-67945000D03*
X144018000Y-83312000D03*
X196850000Y-82787249D03*
D16*
X173355000Y-47404000D03*
D17*
X173355000Y-57404000D03*
D16*
X103505000Y-53881000D03*
D17*
X103505000Y-63881000D03*
D18*
X92583000Y-76835000D03*
X95123000Y-76835000D03*
D19*
X97663000Y-76835000D03*
D20*
X88900000Y-53975000D03*
X88900000Y-51435000D03*
X88900000Y-48895000D03*
D21*
X81153000Y-70612000D03*
X81163000Y-80782000D03*
X81163000Y-75702000D03*
X73533000Y-70612000D03*
X73533000Y-80772000D03*
X73533000Y-75682000D03*
X81153000Y-62992000D03*
D22*
X73533000Y-62992000D03*
D23*
X153416000Y-53340000D03*
D17*
X153416000Y-48340000D03*
D24*
X64876680Y-54137560D03*
D25*
X64876680Y-49137560D03*
X166798000Y-49022000D03*
D24*
X161798000Y-49022000D03*
D22*
X184150000Y-57150000D03*
D21*
X184150000Y-49530000D03*
X196840000Y-57150000D03*
X201930000Y-57150000D03*
X191770000Y-57150000D03*
X196860000Y-49520000D03*
X201940000Y-49520000D03*
X191770000Y-49530000D03*
D19*
X74549000Y-55880000D03*
D18*
X77089000Y-55880000D03*
X79629000Y-55880000D03*
D19*
X131820920Y-66400680D03*
D18*
X134360920Y-66400680D03*
X136900920Y-66400680D03*
X131577080Y-82108040D03*
X134117080Y-82108040D03*
D19*
X136657080Y-82108040D03*
D26*
X70104000Y-58166000D03*
X49530000Y-53340000D03*
X149225000Y-63500000D03*
X149225000Y-55880000D03*
X66040000Y-81280000D03*
X66040000Y-83820000D03*
X66040000Y-86360000D03*
X66040000Y-88900000D03*
X68580000Y-88900000D03*
X71120000Y-91440000D03*
X73660000Y-93980000D03*
X76200000Y-96520000D03*
X78740000Y-99060000D03*
X81280000Y-101600000D03*
X83820000Y-91440000D03*
X86360000Y-93980000D03*
X91440000Y-99060000D03*
X93980000Y-99060000D03*
X96520000Y-99060000D03*
X99060000Y-99060000D03*
X101600000Y-99060000D03*
X104140000Y-99060000D03*
X104140000Y-96520000D03*
X104140000Y-93980000D03*
X104140000Y-91440000D03*
X104140000Y-88900000D03*
X111760000Y-48260000D03*
X114300000Y-48260000D03*
X116840000Y-48260000D03*
X119380000Y-48260000D03*
X121920000Y-48260000D03*
X141605000Y-50800000D03*
X70104000Y-60960000D03*
X83820000Y-55880000D03*
X83820000Y-53340000D03*
X83820000Y-60960000D03*
X83820000Y-58420000D03*
X141605000Y-48260000D03*
X149225000Y-99060000D03*
X149225000Y-96520000D03*
X149225000Y-93980000D03*
X149225000Y-91440000D03*
X149225000Y-88900000D03*
X149225000Y-86360000D03*
X149225000Y-81280000D03*
X149225000Y-78740000D03*
X149225000Y-76200000D03*
X149225000Y-73660000D03*
X149225000Y-73660000D03*
X149225000Y-71120000D03*
X149225000Y-66040000D03*
X149225000Y-60960000D03*
X149225000Y-58420000D03*
X151765000Y-99060000D03*
X154305000Y-99060000D03*
X156845000Y-99060000D03*
X159385000Y-99060000D03*
X161925000Y-99060000D03*
X164465000Y-99060000D03*
X167005000Y-99060000D03*
X169545000Y-99060000D03*
X174625000Y-99060000D03*
X177165000Y-99060000D03*
X192405000Y-99060000D03*
X189865000Y-99060000D03*
X194945000Y-99060000D03*
X197485000Y-99060000D03*
X194945000Y-95250000D03*
X201295000Y-95250000D03*
X207645000Y-95250000D03*
X116840000Y-82550000D03*
X118745000Y-82550000D03*
X120650000Y-82550000D03*
X120650000Y-84455000D03*
X118745000Y-84455000D03*
X116840000Y-84455000D03*
X104140000Y-86360000D03*
X104140000Y-83820000D03*
X104140000Y-81280000D03*
X106680000Y-83820000D03*
X106680000Y-86360000D03*
X106680000Y-88900000D03*
X106680000Y-91440000D03*
X106680000Y-93980000D03*
X106045000Y-96520000D03*
X109220000Y-83820000D03*
X111760000Y-88900000D03*
X114300000Y-88900000D03*
X116840000Y-88900000D03*
X119380000Y-88900000D03*
X121920000Y-88900000D03*
X111760000Y-91440000D03*
X114300000Y-91440000D03*
X116840000Y-91440000D03*
X119380000Y-91440000D03*
X121920000Y-91440000D03*
X124460000Y-91440000D03*
X124460000Y-93980000D03*
X121920000Y-93980000D03*
X119380000Y-93980000D03*
X116840000Y-93980000D03*
X114300000Y-93980000D03*
X111760000Y-93980000D03*
X111760000Y-96520000D03*
X114300000Y-96520000D03*
X116840000Y-96520000D03*
X119380000Y-96520000D03*
X121920000Y-96520000D03*
X124460000Y-96520000D03*
X124460000Y-99060000D03*
X121920000Y-99060000D03*
X119380000Y-99060000D03*
X116840000Y-99060000D03*
X114300000Y-99060000D03*
X111760000Y-99060000D03*
X106680000Y-74930000D03*
X106680000Y-72390000D03*
X106680000Y-69850000D03*
X106680000Y-67310000D03*
X106680000Y-64770000D03*
X104775000Y-67310000D03*
X104775000Y-69850000D03*
X104775000Y-72390000D03*
X104775000Y-74930000D03*
X100965000Y-74295000D03*
X100965000Y-72390000D03*
X100965000Y-69850000D03*
X100965000Y-67310000D03*
X98425000Y-67310000D03*
X98425000Y-69850000D03*
X98425000Y-72390000D03*
X95885000Y-69850000D03*
X98425000Y-64770000D03*
X92710000Y-53975000D03*
X95250000Y-53975000D03*
X111760000Y-50165000D03*
X114300000Y-50165000D03*
X116840000Y-50165000D03*
X119380000Y-50165000D03*
X121920000Y-50165000D03*
X124460000Y-50165000D03*
X127000000Y-50165000D03*
X127000000Y-48260000D03*
X124460000Y-48260000D03*
X68580000Y-86360000D03*
X68580000Y-83820000D03*
X68580000Y-81280000D03*
X168275000Y-55880000D03*
X153035000Y-56515000D03*
X158750000Y-56515000D03*
X171450000Y-76200000D03*
X165100000Y-76200000D03*
X158115000Y-76200000D03*
X152400000Y-88900000D03*
X152400000Y-95250000D03*
X158750000Y-95250000D03*
X158750000Y-88900000D03*
X171450000Y-82550000D03*
X171450000Y-88900000D03*
X165100000Y-95250000D03*
X171450000Y-95250000D03*
X179070000Y-46990000D03*
X90170000Y-71120000D03*
X90170000Y-73660000D03*
X92710000Y-73660000D03*
X88900000Y-57150000D03*
X83820000Y-88900000D03*
X87630000Y-88900000D03*
X87630000Y-91440000D03*
X87630000Y-82550000D03*
X87630000Y-85090000D03*
X177800000Y-95250000D03*
X177800000Y-88900000D03*
X177800000Y-82550000D03*
X171450000Y-69850000D03*
X177800000Y-63500000D03*
X177800000Y-69850000D03*
X177800000Y-76200000D03*
X184150000Y-88900000D03*
X184150000Y-82550000D03*
X184150000Y-76200000D03*
X184150000Y-63500000D03*
X184150000Y-69850000D03*
X184150000Y-95250000D03*
X184150000Y-99060000D03*
X157480000Y-71120000D03*
X187960000Y-88900000D03*
X187960000Y-82550000D03*
X187960000Y-76200000D03*
X187960000Y-69850000D03*
X187960000Y-63500000D03*
X187960000Y-95250000D03*
X191770000Y-95250000D03*
X191770000Y-88900000D03*
X191770000Y-82550000D03*
X191770000Y-76200000D03*
X191770000Y-69850000D03*
X127000000Y-91440000D03*
X127000000Y-93980000D03*
X127000000Y-96520000D03*
X127000000Y-99060000D03*
X142240000Y-88900000D03*
X142240000Y-91440000D03*
X142240000Y-93980000D03*
X142240000Y-96520000D03*
X142240000Y-99060000D03*
X144780000Y-99060000D03*
X144780000Y-96520000D03*
X144780000Y-93980000D03*
X144780000Y-91440000D03*
X144780000Y-88900000D03*
X143510000Y-57150000D03*
X143510000Y-54610000D03*
X143510000Y-52070000D03*
X143510000Y-49530000D03*
X143510000Y-46990000D03*
X146050000Y-46990000D03*
X146050000Y-49530000D03*
X146050000Y-52070000D03*
X146050000Y-54610000D03*
X146050000Y-57150000D03*
X152400000Y-60960000D03*
X156210000Y-60960000D03*
X160020000Y-60960000D03*
X163830000Y-60960000D03*
X167640000Y-60960000D03*
X167640000Y-63500000D03*
X163830000Y-63500000D03*
X160020000Y-63500000D03*
X156210000Y-63500000D03*
X152400000Y-63500000D03*
G04 #@! TA.AperFunction,Conductor*
G36*
X135766561Y-44698894D02*
G01*
X210186010Y-44703956D01*
X210254128Y-44723963D01*
X210300617Y-44777622D01*
X210312000Y-44829956D01*
X210312000Y-103499123D01*
X210291998Y-103567244D01*
X210238342Y-103613737D01*
X210186363Y-103625122D01*
X207867591Y-103631801D01*
X207867220Y-103631802D01*
X62123759Y-103622042D01*
X62055639Y-103602035D01*
X62009150Y-103548377D01*
X61997767Y-103496088D01*
X61996749Y-100722703D01*
X62840743Y-100722703D01*
X62878268Y-101007734D01*
X62879401Y-101011874D01*
X62879401Y-101011876D01*
X62883035Y-101025159D01*
X62954129Y-101285036D01*
X62955813Y-101288984D01*
X63062098Y-101538163D01*
X63066923Y-101549476D01*
X63078693Y-101569142D01*
X63207587Y-101784508D01*
X63214561Y-101796161D01*
X63394313Y-102020528D01*
X63477786Y-102099741D01*
X63598516Y-102214309D01*
X63602851Y-102218423D01*
X63706506Y-102292907D01*
X63829998Y-102381645D01*
X63836317Y-102386186D01*
X63840112Y-102388195D01*
X63840113Y-102388196D01*
X63861869Y-102399715D01*
X64090392Y-102520712D01*
X64114699Y-102529607D01*
X64350779Y-102616000D01*
X64360373Y-102619511D01*
X64641264Y-102680755D01*
X64669841Y-102683004D01*
X64864282Y-102698307D01*
X64864291Y-102698307D01*
X64866739Y-102698500D01*
X65022271Y-102698500D01*
X65024407Y-102698354D01*
X65024418Y-102698354D01*
X65232548Y-102684165D01*
X65232554Y-102684164D01*
X65236825Y-102683873D01*
X65241020Y-102683004D01*
X65241022Y-102683004D01*
X65377584Y-102654723D01*
X65518342Y-102625574D01*
X65789343Y-102529607D01*
X65961731Y-102440631D01*
X66041005Y-102399715D01*
X66041006Y-102399715D01*
X66044812Y-102397750D01*
X66048313Y-102395289D01*
X66048317Y-102395287D01*
X66185732Y-102298710D01*
X66280023Y-102232441D01*
X66338983Y-102177652D01*
X128015524Y-102177652D01*
X128017990Y-102186281D01*
X128017991Y-102186286D01*
X128023639Y-102206048D01*
X128027217Y-102222809D01*
X128030130Y-102243152D01*
X128030133Y-102243162D01*
X128031405Y-102252045D01*
X128042021Y-102275395D01*
X128048464Y-102292907D01*
X128055512Y-102317565D01*
X128071274Y-102342548D01*
X128079404Y-102357614D01*
X128091633Y-102384510D01*
X128108374Y-102403939D01*
X128119479Y-102418947D01*
X128133160Y-102440631D01*
X128139888Y-102446573D01*
X128155296Y-102460181D01*
X128167340Y-102472373D01*
X128186619Y-102494747D01*
X128194147Y-102499626D01*
X128194150Y-102499629D01*
X128208139Y-102508696D01*
X128223013Y-102519986D01*
X128242228Y-102536956D01*
X128250354Y-102540771D01*
X128250355Y-102540772D01*
X128256021Y-102543432D01*
X128268966Y-102549510D01*
X128283935Y-102557824D01*
X128308727Y-102573893D01*
X128325650Y-102578954D01*
X128333290Y-102581239D01*
X128350736Y-102587901D01*
X128373948Y-102598799D01*
X128403130Y-102603343D01*
X128419849Y-102607126D01*
X128439536Y-102613014D01*
X128439539Y-102613015D01*
X128448141Y-102615587D01*
X128457116Y-102615642D01*
X128457117Y-102615642D01*
X128463810Y-102615683D01*
X128482556Y-102615797D01*
X128483328Y-102615830D01*
X128484423Y-102616000D01*
X128515298Y-102616000D01*
X128516068Y-102616002D01*
X128589716Y-102616452D01*
X128589717Y-102616452D01*
X128593652Y-102616476D01*
X128594996Y-102616092D01*
X128596341Y-102616000D01*
X139691298Y-102616000D01*
X139692069Y-102616002D01*
X139769652Y-102616476D01*
X139778281Y-102614010D01*
X139778286Y-102614009D01*
X139798048Y-102608361D01*
X139814809Y-102604783D01*
X139835152Y-102601870D01*
X139835162Y-102601867D01*
X139844045Y-102600595D01*
X139867395Y-102589979D01*
X139884907Y-102583536D01*
X139900937Y-102578954D01*
X139909565Y-102576488D01*
X139934548Y-102560726D01*
X139949614Y-102552596D01*
X139976510Y-102540367D01*
X139995939Y-102523626D01*
X140010947Y-102512521D01*
X140025039Y-102503630D01*
X140032631Y-102498840D01*
X140052182Y-102476703D01*
X140064374Y-102464659D01*
X140079949Y-102451239D01*
X140079950Y-102451237D01*
X140086747Y-102445381D01*
X140091626Y-102437853D01*
X140091629Y-102437850D01*
X140100696Y-102423861D01*
X140111986Y-102408987D01*
X140116453Y-102403929D01*
X140128956Y-102389772D01*
X140133410Y-102380287D01*
X140138859Y-102368679D01*
X140141510Y-102363034D01*
X140149824Y-102348065D01*
X140165893Y-102323273D01*
X140173239Y-102298709D01*
X140179901Y-102281264D01*
X140186983Y-102266179D01*
X140190799Y-102258052D01*
X140195343Y-102228870D01*
X140199126Y-102212151D01*
X140205014Y-102192464D01*
X140205015Y-102192461D01*
X140207587Y-102183859D01*
X140207797Y-102149444D01*
X140207830Y-102148672D01*
X140208000Y-102147577D01*
X140208000Y-102116702D01*
X140208002Y-102115932D01*
X140208452Y-102042284D01*
X140208452Y-102042283D01*
X140208476Y-102038348D01*
X140208092Y-102037004D01*
X140208000Y-102035659D01*
X140208000Y-100707703D01*
X205500743Y-100707703D01*
X205501302Y-100711947D01*
X205501302Y-100711951D01*
X205517810Y-100837340D01*
X205538268Y-100992734D01*
X205539401Y-100996874D01*
X205539401Y-100996876D01*
X205543035Y-101010159D01*
X205614129Y-101270036D01*
X205726923Y-101534476D01*
X205874561Y-101781161D01*
X206054313Y-102005528D01*
X206170655Y-102115932D01*
X206251303Y-102192464D01*
X206262851Y-102203423D01*
X206496317Y-102371186D01*
X206500112Y-102373195D01*
X206500113Y-102373196D01*
X206519912Y-102383679D01*
X206750392Y-102505712D01*
X206810316Y-102527641D01*
X206994337Y-102594983D01*
X207020373Y-102604511D01*
X207301264Y-102665755D01*
X207329841Y-102668004D01*
X207524282Y-102683307D01*
X207524291Y-102683307D01*
X207526739Y-102683500D01*
X207682271Y-102683500D01*
X207684407Y-102683354D01*
X207684418Y-102683354D01*
X207892548Y-102669165D01*
X207892554Y-102669164D01*
X207896825Y-102668873D01*
X207901020Y-102668004D01*
X207901022Y-102668004D01*
X208105909Y-102625574D01*
X208178342Y-102610574D01*
X208449343Y-102514607D01*
X208704812Y-102382750D01*
X208708313Y-102380289D01*
X208708317Y-102380287D01*
X208870676Y-102266179D01*
X208940023Y-102217441D01*
X209134480Y-102036740D01*
X209147479Y-102024661D01*
X209147481Y-102024658D01*
X209150622Y-102021740D01*
X209332713Y-101799268D01*
X209482927Y-101554142D01*
X209598483Y-101290898D01*
X209677244Y-101014406D01*
X209717751Y-100729784D01*
X209717789Y-100722703D01*
X209719235Y-100446583D01*
X209719235Y-100446576D01*
X209719257Y-100442297D01*
X209681732Y-100157266D01*
X209678778Y-100146466D01*
X209659585Y-100076311D01*
X209605871Y-99879964D01*
X209499475Y-99630524D01*
X209494763Y-99619476D01*
X209494761Y-99619472D01*
X209493077Y-99615524D01*
X209356620Y-99387521D01*
X209347643Y-99372521D01*
X209347640Y-99372517D01*
X209345439Y-99368839D01*
X209165687Y-99144472D01*
X209042289Y-99027372D01*
X208960258Y-98949527D01*
X208960255Y-98949525D01*
X208957149Y-98946577D01*
X208767064Y-98809987D01*
X208727172Y-98781321D01*
X208727171Y-98781320D01*
X208723683Y-98778814D01*
X208703335Y-98768040D01*
X208678654Y-98754972D01*
X208469608Y-98644288D01*
X208244647Y-98561964D01*
X208203658Y-98546964D01*
X208203656Y-98546963D01*
X208199627Y-98545489D01*
X207918736Y-98484245D01*
X207883857Y-98481500D01*
X207695718Y-98466693D01*
X207695709Y-98466693D01*
X207693261Y-98466500D01*
X207537729Y-98466500D01*
X207535593Y-98466646D01*
X207535582Y-98466646D01*
X207327452Y-98480835D01*
X207327446Y-98480836D01*
X207323175Y-98481127D01*
X207318980Y-98481996D01*
X207318978Y-98481996D01*
X207252152Y-98495835D01*
X207041658Y-98539426D01*
X206770657Y-98635393D01*
X206515188Y-98767250D01*
X206511687Y-98769711D01*
X206511683Y-98769713D01*
X206480251Y-98791804D01*
X206279977Y-98932559D01*
X206201597Y-99005394D01*
X206139105Y-99063466D01*
X206069378Y-99128260D01*
X205887287Y-99350732D01*
X205737073Y-99595858D01*
X205735347Y-99599791D01*
X205735346Y-99599792D01*
X205728440Y-99615524D01*
X205621517Y-99859102D01*
X205542756Y-100135594D01*
X205502249Y-100420216D01*
X205502227Y-100424505D01*
X205502226Y-100424512D01*
X205500765Y-100703417D01*
X205500743Y-100707703D01*
X140208000Y-100707703D01*
X140208000Y-88265000D01*
X204836758Y-88265000D01*
X204855696Y-88505634D01*
X204856850Y-88510441D01*
X204856851Y-88510447D01*
X204892267Y-88657961D01*
X204912045Y-88740343D01*
X205004416Y-88963347D01*
X205130536Y-89169156D01*
X205287299Y-89352701D01*
X205470844Y-89509464D01*
X205676653Y-89635584D01*
X205681223Y-89637477D01*
X205681227Y-89637479D01*
X205895084Y-89726061D01*
X205899657Y-89727955D01*
X205982039Y-89747733D01*
X206129553Y-89783149D01*
X206129559Y-89783150D01*
X206134366Y-89784304D01*
X206375000Y-89803242D01*
X206615634Y-89784304D01*
X206620441Y-89783150D01*
X206620447Y-89783149D01*
X206767961Y-89747733D01*
X206850343Y-89727955D01*
X206854916Y-89726061D01*
X207068773Y-89637479D01*
X207068777Y-89637477D01*
X207073347Y-89635584D01*
X207279156Y-89509464D01*
X207462701Y-89352701D01*
X207619464Y-89169156D01*
X207745584Y-88963347D01*
X207837955Y-88740343D01*
X207857733Y-88657961D01*
X207893149Y-88510447D01*
X207893150Y-88510441D01*
X207894304Y-88505634D01*
X207913242Y-88265000D01*
X207894304Y-88024366D01*
X207893150Y-88019559D01*
X207893149Y-88019553D01*
X207839110Y-87794469D01*
X207837955Y-87789657D01*
X207745584Y-87566653D01*
X207619464Y-87360844D01*
X207462701Y-87177299D01*
X207279156Y-87020536D01*
X207073347Y-86894416D01*
X207068777Y-86892523D01*
X207068773Y-86892521D01*
X206854916Y-86803939D01*
X206854914Y-86803938D01*
X206850343Y-86802045D01*
X206767961Y-86782267D01*
X206620447Y-86746851D01*
X206620441Y-86746850D01*
X206615634Y-86745696D01*
X206375000Y-86726758D01*
X206134366Y-86745696D01*
X206129559Y-86746850D01*
X206129553Y-86746851D01*
X205982039Y-86782267D01*
X205899657Y-86802045D01*
X205895086Y-86803938D01*
X205895084Y-86803939D01*
X205681227Y-86892521D01*
X205681223Y-86892523D01*
X205676653Y-86894416D01*
X205470844Y-87020536D01*
X205287299Y-87177299D01*
X205130536Y-87360844D01*
X205004416Y-87566653D01*
X204912045Y-87789657D01*
X204910890Y-87794469D01*
X204856851Y-88019553D01*
X204856850Y-88019559D01*
X204855696Y-88024366D01*
X204836758Y-88265000D01*
X140208000Y-88265000D01*
X140208000Y-85352702D01*
X140208002Y-85351932D01*
X140208421Y-85283322D01*
X140208476Y-85274348D01*
X140206010Y-85265719D01*
X140206009Y-85265714D01*
X140200361Y-85245952D01*
X140196783Y-85229191D01*
X140193870Y-85208848D01*
X140193867Y-85208838D01*
X140192595Y-85199955D01*
X140181979Y-85176605D01*
X140175536Y-85159093D01*
X140170954Y-85143063D01*
X140168488Y-85134435D01*
X140152726Y-85109452D01*
X140144596Y-85094386D01*
X140132367Y-85067490D01*
X140115626Y-85048061D01*
X140104521Y-85033053D01*
X140095630Y-85018961D01*
X140090840Y-85011369D01*
X140068703Y-84991818D01*
X140056659Y-84979626D01*
X140043239Y-84964051D01*
X140043237Y-84964050D01*
X140037381Y-84957253D01*
X140029853Y-84952374D01*
X140029850Y-84952371D01*
X140015861Y-84943304D01*
X140000987Y-84932014D01*
X139988502Y-84920988D01*
X139981772Y-84915044D01*
X139973646Y-84911229D01*
X139973645Y-84911228D01*
X139967979Y-84908568D01*
X139955034Y-84902490D01*
X139940065Y-84894176D01*
X139915273Y-84878107D01*
X139890709Y-84870761D01*
X139873264Y-84864099D01*
X139868827Y-84862016D01*
X139850052Y-84853201D01*
X139820870Y-84848657D01*
X139804151Y-84844874D01*
X139784464Y-84838986D01*
X139784461Y-84838985D01*
X139775859Y-84836413D01*
X139766884Y-84836358D01*
X139766883Y-84836358D01*
X139760190Y-84836317D01*
X139741444Y-84836203D01*
X139740672Y-84836170D01*
X139739577Y-84836000D01*
X139708702Y-84836000D01*
X139707932Y-84835998D01*
X139634284Y-84835548D01*
X139634283Y-84835548D01*
X139630348Y-84835524D01*
X139629004Y-84835908D01*
X139627659Y-84836000D01*
X128532702Y-84836000D01*
X128531932Y-84835998D01*
X128531078Y-84835993D01*
X128454348Y-84835524D01*
X128445719Y-84837990D01*
X128445714Y-84837991D01*
X128425952Y-84843639D01*
X128409191Y-84847217D01*
X128388848Y-84850130D01*
X128388838Y-84850133D01*
X128379955Y-84851405D01*
X128356605Y-84862021D01*
X128339093Y-84868464D01*
X128331057Y-84870761D01*
X128314435Y-84875512D01*
X128289452Y-84891274D01*
X128274386Y-84899404D01*
X128247490Y-84911633D01*
X128228061Y-84928374D01*
X128213053Y-84939479D01*
X128191369Y-84953160D01*
X128185427Y-84959888D01*
X128171819Y-84975296D01*
X128159627Y-84987340D01*
X128137253Y-85006619D01*
X128132374Y-85014147D01*
X128132371Y-85014150D01*
X128123304Y-85028139D01*
X128112014Y-85043013D01*
X128095044Y-85062228D01*
X128082490Y-85088966D01*
X128074176Y-85103935D01*
X128058107Y-85128727D01*
X128055535Y-85137327D01*
X128050761Y-85153290D01*
X128044099Y-85170736D01*
X128033201Y-85193948D01*
X128028658Y-85223128D01*
X128024874Y-85239849D01*
X128018986Y-85259536D01*
X128018985Y-85259539D01*
X128016413Y-85268141D01*
X128016358Y-85277116D01*
X128016358Y-85277117D01*
X128016203Y-85302546D01*
X128016170Y-85303328D01*
X128016000Y-85304423D01*
X128016000Y-85335298D01*
X128015998Y-85336068D01*
X128015524Y-85413652D01*
X128015908Y-85414996D01*
X128016000Y-85416341D01*
X128016000Y-102099298D01*
X128015998Y-102100068D01*
X128015524Y-102177652D01*
X66338983Y-102177652D01*
X66358403Y-102159606D01*
X66487479Y-102039661D01*
X66487481Y-102039658D01*
X66490622Y-102036740D01*
X66672713Y-101814268D01*
X66822927Y-101569142D01*
X66831239Y-101550208D01*
X66936757Y-101309830D01*
X66938483Y-101305898D01*
X67017244Y-101029406D01*
X67057751Y-100744784D01*
X67057808Y-100734036D01*
X67059235Y-100461583D01*
X67059235Y-100461576D01*
X67059257Y-100457297D01*
X67057847Y-100446583D01*
X67022292Y-100176522D01*
X67021732Y-100172266D01*
X67017629Y-100157266D01*
X66947003Y-99899103D01*
X66945871Y-99894964D01*
X66833077Y-99630524D01*
X66685439Y-99383839D01*
X66505687Y-99159472D01*
X66297149Y-98961577D01*
X66063683Y-98793814D01*
X66041843Y-98782250D01*
X66009801Y-98765285D01*
X65809608Y-98659288D01*
X65539627Y-98560489D01*
X65258736Y-98499245D01*
X65227685Y-98496801D01*
X65035718Y-98481693D01*
X65035709Y-98481693D01*
X65033261Y-98481500D01*
X64877729Y-98481500D01*
X64875593Y-98481646D01*
X64875582Y-98481646D01*
X64667452Y-98495835D01*
X64667446Y-98495836D01*
X64663175Y-98496127D01*
X64658980Y-98496996D01*
X64658978Y-98496996D01*
X64522417Y-98525276D01*
X64381658Y-98554426D01*
X64110657Y-98650393D01*
X63855188Y-98782250D01*
X63851687Y-98784711D01*
X63851683Y-98784713D01*
X63841594Y-98791804D01*
X63619977Y-98947559D01*
X63409378Y-99143260D01*
X63227287Y-99365732D01*
X63077073Y-99610858D01*
X62961517Y-99874102D01*
X62882756Y-100150594D01*
X62842249Y-100435216D01*
X62842227Y-100439505D01*
X62842226Y-100439512D01*
X62840799Y-100711951D01*
X62840743Y-100722703D01*
X61996749Y-100722703D01*
X61995465Y-97224652D01*
X89026524Y-97224652D01*
X89028990Y-97233281D01*
X89028991Y-97233286D01*
X89034639Y-97253048D01*
X89038217Y-97269809D01*
X89041130Y-97290152D01*
X89041133Y-97290162D01*
X89042405Y-97299045D01*
X89053021Y-97322395D01*
X89059464Y-97339907D01*
X89066512Y-97364565D01*
X89082274Y-97389548D01*
X89090404Y-97404614D01*
X89102633Y-97431510D01*
X89119374Y-97450939D01*
X89130479Y-97465947D01*
X89144160Y-97487631D01*
X89150888Y-97493573D01*
X89166296Y-97507181D01*
X89178340Y-97519373D01*
X89197619Y-97541747D01*
X89205147Y-97546626D01*
X89205150Y-97546629D01*
X89219139Y-97555696D01*
X89234013Y-97566986D01*
X89253228Y-97583956D01*
X89261354Y-97587771D01*
X89261355Y-97587772D01*
X89267021Y-97590432D01*
X89279966Y-97596510D01*
X89294935Y-97604824D01*
X89319727Y-97620893D01*
X89336650Y-97625954D01*
X89344290Y-97628239D01*
X89361736Y-97634901D01*
X89384948Y-97645799D01*
X89414130Y-97650343D01*
X89430849Y-97654126D01*
X89450536Y-97660014D01*
X89450539Y-97660015D01*
X89459141Y-97662587D01*
X89468116Y-97662642D01*
X89468117Y-97662642D01*
X89474810Y-97662683D01*
X89493556Y-97662797D01*
X89494328Y-97662830D01*
X89495423Y-97663000D01*
X89526298Y-97663000D01*
X89527068Y-97663002D01*
X89600716Y-97663452D01*
X89600717Y-97663452D01*
X89604652Y-97663476D01*
X89605996Y-97663092D01*
X89607341Y-97663000D01*
X100956298Y-97663000D01*
X100957069Y-97663002D01*
X101034652Y-97663476D01*
X101043281Y-97661010D01*
X101043286Y-97661009D01*
X101063048Y-97655361D01*
X101079809Y-97651783D01*
X101100152Y-97648870D01*
X101100162Y-97648867D01*
X101109045Y-97647595D01*
X101132395Y-97636979D01*
X101149907Y-97630536D01*
X101165937Y-97625954D01*
X101174565Y-97623488D01*
X101199548Y-97607726D01*
X101214614Y-97599596D01*
X101241510Y-97587367D01*
X101260939Y-97570626D01*
X101275947Y-97559521D01*
X101290039Y-97550630D01*
X101297631Y-97545840D01*
X101317182Y-97523703D01*
X101329374Y-97511659D01*
X101344949Y-97498239D01*
X101344950Y-97498237D01*
X101351747Y-97492381D01*
X101356626Y-97484853D01*
X101356629Y-97484850D01*
X101365696Y-97470861D01*
X101376986Y-97455987D01*
X101388012Y-97443502D01*
X101393956Y-97436772D01*
X101406510Y-97410034D01*
X101414824Y-97395065D01*
X101430893Y-97370273D01*
X101438239Y-97345709D01*
X101444901Y-97328264D01*
X101451983Y-97313179D01*
X101455799Y-97305052D01*
X101460343Y-97275870D01*
X101464126Y-97259151D01*
X101470014Y-97239464D01*
X101470015Y-97239461D01*
X101472587Y-97230859D01*
X101472797Y-97196444D01*
X101472830Y-97195672D01*
X101473000Y-97194577D01*
X101473000Y-97163702D01*
X101473002Y-97162932D01*
X101473452Y-97089284D01*
X101473452Y-97089283D01*
X101473476Y-97085348D01*
X101473092Y-97084004D01*
X101473000Y-97082659D01*
X101473000Y-82216442D01*
X132656080Y-82216442D01*
X132670758Y-82394977D01*
X132729286Y-82627984D01*
X132825083Y-82848303D01*
X132955578Y-83050017D01*
X133117266Y-83227710D01*
X133147791Y-83251817D01*
X133301750Y-83373407D01*
X133301755Y-83373410D01*
X133305804Y-83376608D01*
X133310320Y-83379101D01*
X133310323Y-83379103D01*
X133511606Y-83490217D01*
X133511610Y-83490219D01*
X133516130Y-83492714D01*
X133520999Y-83494438D01*
X133521003Y-83494440D01*
X133737720Y-83571184D01*
X133737724Y-83571185D01*
X133742595Y-83572910D01*
X133747688Y-83573817D01*
X133747691Y-83573818D01*
X133974028Y-83614135D01*
X133974034Y-83614136D01*
X133979117Y-83615041D01*
X134066480Y-83616108D01*
X134214173Y-83617913D01*
X134214175Y-83617913D01*
X134219343Y-83617976D01*
X134456824Y-83581636D01*
X134569077Y-83544946D01*
X134680263Y-83508606D01*
X134680269Y-83508603D01*
X134685181Y-83506998D01*
X134689767Y-83504611D01*
X134689771Y-83504609D01*
X134893687Y-83398456D01*
X134898280Y-83396065D01*
X135053363Y-83279625D01*
X135119845Y-83254720D01*
X135189241Y-83269712D01*
X135239515Y-83319842D01*
X135246995Y-83336155D01*
X135250811Y-83346333D01*
X135253965Y-83354745D01*
X135341319Y-83471301D01*
X135457875Y-83558655D01*
X135594264Y-83609785D01*
X135656446Y-83616540D01*
X137657714Y-83616540D01*
X137719896Y-83609785D01*
X137856285Y-83558655D01*
X137972841Y-83471301D01*
X138060195Y-83354745D01*
X138076219Y-83312000D01*
X141504290Y-83312000D01*
X141524111Y-83627051D01*
X141583263Y-83937134D01*
X141680812Y-84237358D01*
X141682499Y-84240944D01*
X141682501Y-84240948D01*
X141695146Y-84267820D01*
X141815219Y-84522989D01*
X141984366Y-84789522D01*
X142185584Y-85032753D01*
X142415701Y-85248847D01*
X142418903Y-85251174D01*
X142418905Y-85251175D01*
X142430413Y-85259536D01*
X142671087Y-85434396D01*
X142947714Y-85586473D01*
X143241221Y-85702680D01*
X143245051Y-85703663D01*
X143245059Y-85703666D01*
X143437447Y-85753062D01*
X143546978Y-85781185D01*
X143550906Y-85781681D01*
X143550910Y-85781682D01*
X143674292Y-85797269D01*
X143860163Y-85820750D01*
X144175837Y-85820750D01*
X144361708Y-85797269D01*
X144485090Y-85781682D01*
X144485094Y-85781681D01*
X144489022Y-85781185D01*
X144598553Y-85753062D01*
X144790941Y-85703666D01*
X144790949Y-85703663D01*
X144794779Y-85702680D01*
X145088286Y-85586473D01*
X145364913Y-85434396D01*
X145605587Y-85259536D01*
X145617095Y-85251175D01*
X145617097Y-85251174D01*
X145620299Y-85248847D01*
X145850416Y-85032753D01*
X146051634Y-84789522D01*
X146220781Y-84522989D01*
X146340854Y-84267820D01*
X146353499Y-84240948D01*
X146353501Y-84240944D01*
X146355188Y-84237358D01*
X146452737Y-83937134D01*
X146511889Y-83627051D01*
X146531710Y-83312000D01*
X158395290Y-83312000D01*
X158415111Y-83627051D01*
X158474263Y-83937134D01*
X158571812Y-84237358D01*
X158573499Y-84240944D01*
X158573501Y-84240948D01*
X158586146Y-84267820D01*
X158706219Y-84522989D01*
X158875366Y-84789522D01*
X159076584Y-85032753D01*
X159306701Y-85248847D01*
X159309903Y-85251174D01*
X159309905Y-85251175D01*
X159321413Y-85259536D01*
X159562087Y-85434396D01*
X159838714Y-85586473D01*
X160132221Y-85702680D01*
X160136051Y-85703663D01*
X160136059Y-85703666D01*
X160328447Y-85753062D01*
X160437978Y-85781185D01*
X160441906Y-85781681D01*
X160441910Y-85781682D01*
X160565292Y-85797269D01*
X160751163Y-85820750D01*
X161066837Y-85820750D01*
X161252708Y-85797269D01*
X161376090Y-85781682D01*
X161376094Y-85781681D01*
X161380022Y-85781185D01*
X161489553Y-85753062D01*
X161681941Y-85703666D01*
X161681949Y-85703663D01*
X161685779Y-85702680D01*
X161979286Y-85586473D01*
X162255913Y-85434396D01*
X162496587Y-85259536D01*
X162508095Y-85251175D01*
X162508097Y-85251174D01*
X162511299Y-85248847D01*
X162741416Y-85032753D01*
X162942634Y-84789522D01*
X163111781Y-84522989D01*
X163231854Y-84267820D01*
X163244499Y-84240948D01*
X163244501Y-84240944D01*
X163246188Y-84237358D01*
X163343737Y-83937134D01*
X163402889Y-83627051D01*
X163422710Y-83312000D01*
X163402889Y-82996949D01*
X163362886Y-82787249D01*
X194336290Y-82787249D01*
X194356111Y-83102300D01*
X194415263Y-83412383D01*
X194512812Y-83712607D01*
X194647219Y-83998238D01*
X194816366Y-84264771D01*
X195017584Y-84508002D01*
X195247701Y-84724096D01*
X195503087Y-84909645D01*
X195506556Y-84911552D01*
X195506559Y-84911554D01*
X195776243Y-85059814D01*
X195779714Y-85061722D01*
X196073221Y-85177929D01*
X196077051Y-85178912D01*
X196077059Y-85178915D01*
X196269447Y-85228311D01*
X196378978Y-85256434D01*
X196382906Y-85256930D01*
X196382910Y-85256931D01*
X196471647Y-85268141D01*
X196692163Y-85295999D01*
X197007837Y-85295999D01*
X197228353Y-85268141D01*
X197317090Y-85256931D01*
X197317094Y-85256930D01*
X197321022Y-85256434D01*
X197430553Y-85228311D01*
X197622941Y-85178915D01*
X197622949Y-85178912D01*
X197626779Y-85177929D01*
X197920286Y-85061722D01*
X197923757Y-85059814D01*
X198193441Y-84911554D01*
X198193444Y-84911552D01*
X198196913Y-84909645D01*
X198452299Y-84724096D01*
X198682416Y-84508002D01*
X198883634Y-84264771D01*
X199052781Y-83998238D01*
X199187188Y-83712607D01*
X199284737Y-83412383D01*
X199343889Y-83102300D01*
X199363710Y-82787249D01*
X199343889Y-82472198D01*
X199284737Y-82162115D01*
X199187188Y-81861891D01*
X199174289Y-81834478D01*
X199113107Y-81704460D01*
X199052781Y-81576260D01*
X198883634Y-81309727D01*
X198682416Y-81066496D01*
X198472893Y-80869741D01*
X198455186Y-80853113D01*
X198455185Y-80853112D01*
X198452299Y-80850402D01*
X198441857Y-80842815D01*
X198313839Y-80749805D01*
X198196913Y-80664853D01*
X198177669Y-80654273D01*
X197923757Y-80514684D01*
X197923754Y-80514683D01*
X197920286Y-80512776D01*
X197626779Y-80396569D01*
X197622949Y-80395586D01*
X197622941Y-80395583D01*
X197414141Y-80341973D01*
X197321022Y-80318064D01*
X197317094Y-80317568D01*
X197317090Y-80317567D01*
X197191972Y-80301761D01*
X197007837Y-80278499D01*
X196692163Y-80278499D01*
X196508028Y-80301761D01*
X196382910Y-80317567D01*
X196382906Y-80317568D01*
X196378978Y-80318064D01*
X196285859Y-80341973D01*
X196077059Y-80395583D01*
X196077051Y-80395586D01*
X196073221Y-80396569D01*
X195779714Y-80512776D01*
X195776246Y-80514683D01*
X195776243Y-80514684D01*
X195522332Y-80654273D01*
X195503087Y-80664853D01*
X195386161Y-80749805D01*
X195258144Y-80842815D01*
X195247701Y-80850402D01*
X195244815Y-80853112D01*
X195244814Y-80853113D01*
X195227107Y-80869741D01*
X195017584Y-81066496D01*
X194816366Y-81309727D01*
X194647219Y-81576260D01*
X194586893Y-81704460D01*
X194525712Y-81834478D01*
X194512812Y-81861891D01*
X194415263Y-82162115D01*
X194356111Y-82472198D01*
X194336290Y-82787249D01*
X163362886Y-82787249D01*
X163343737Y-82686866D01*
X163246188Y-82386642D01*
X163111781Y-82101011D01*
X162942634Y-81834478D01*
X162741416Y-81591247D01*
X162511299Y-81375153D01*
X162255913Y-81189604D01*
X162169730Y-81142224D01*
X161982757Y-81039435D01*
X161982754Y-81039434D01*
X161979286Y-81037527D01*
X161685779Y-80921320D01*
X161681949Y-80920337D01*
X161681941Y-80920334D01*
X161484892Y-80869741D01*
X161380022Y-80842815D01*
X161376094Y-80842319D01*
X161376090Y-80842318D01*
X161252708Y-80826731D01*
X161066837Y-80803250D01*
X160751163Y-80803250D01*
X160565292Y-80826731D01*
X160441910Y-80842318D01*
X160441906Y-80842319D01*
X160437978Y-80842815D01*
X160333108Y-80869741D01*
X160136059Y-80920334D01*
X160136051Y-80920337D01*
X160132221Y-80921320D01*
X159838714Y-81037527D01*
X159835246Y-81039434D01*
X159835243Y-81039435D01*
X159648271Y-81142224D01*
X159562087Y-81189604D01*
X159306701Y-81375153D01*
X159076584Y-81591247D01*
X158875366Y-81834478D01*
X158706219Y-82101011D01*
X158571812Y-82386642D01*
X158474263Y-82686866D01*
X158415111Y-82996949D01*
X158395290Y-83312000D01*
X146531710Y-83312000D01*
X146511889Y-82996949D01*
X146452737Y-82686866D01*
X146355188Y-82386642D01*
X146220781Y-82101011D01*
X146051634Y-81834478D01*
X145850416Y-81591247D01*
X145620299Y-81375153D01*
X145364913Y-81189604D01*
X145278730Y-81142224D01*
X145091757Y-81039435D01*
X145091754Y-81039434D01*
X145088286Y-81037527D01*
X144794779Y-80921320D01*
X144688531Y-80894040D01*
X144627528Y-80857727D01*
X144595839Y-80794195D01*
X144603529Y-80723616D01*
X144648156Y-80668399D01*
X144688529Y-80649960D01*
X144794779Y-80622680D01*
X145088286Y-80506473D01*
X145093110Y-80503821D01*
X145361441Y-80356305D01*
X145361444Y-80356303D01*
X145364913Y-80354396D01*
X145584067Y-80195171D01*
X145617095Y-80171175D01*
X145617097Y-80171174D01*
X145620299Y-80168847D01*
X145652093Y-80138991D01*
X145847529Y-79955464D01*
X145850416Y-79952753D01*
X146051634Y-79709522D01*
X146220781Y-79442989D01*
X146355188Y-79157358D01*
X146452737Y-78857134D01*
X146511889Y-78547051D01*
X146531710Y-78232000D01*
X146511889Y-77916949D01*
X146452737Y-77606866D01*
X146355188Y-77306642D01*
X146341962Y-77278534D01*
X146282450Y-77152065D01*
X146220781Y-77021011D01*
X146102735Y-76835000D01*
X204836758Y-76835000D01*
X204855696Y-77075634D01*
X204856850Y-77080441D01*
X204856851Y-77080447D01*
X204875279Y-77157202D01*
X204912045Y-77310343D01*
X204913938Y-77314914D01*
X204913939Y-77314916D01*
X204944506Y-77388710D01*
X205004416Y-77533347D01*
X205130536Y-77739156D01*
X205287299Y-77922701D01*
X205470844Y-78079464D01*
X205676653Y-78205584D01*
X205681223Y-78207477D01*
X205681227Y-78207479D01*
X205877475Y-78288767D01*
X205899657Y-78297955D01*
X205943980Y-78308596D01*
X206129553Y-78353149D01*
X206129559Y-78353150D01*
X206134366Y-78354304D01*
X206375000Y-78373242D01*
X206615634Y-78354304D01*
X206620441Y-78353150D01*
X206620447Y-78353149D01*
X206806020Y-78308596D01*
X206850343Y-78297955D01*
X206872525Y-78288767D01*
X207068773Y-78207479D01*
X207068777Y-78207477D01*
X207073347Y-78205584D01*
X207279156Y-78079464D01*
X207462701Y-77922701D01*
X207619464Y-77739156D01*
X207745584Y-77533347D01*
X207805495Y-77388710D01*
X207836061Y-77314916D01*
X207836062Y-77314914D01*
X207837955Y-77310343D01*
X207874721Y-77157202D01*
X207893149Y-77080447D01*
X207893150Y-77080441D01*
X207894304Y-77075634D01*
X207913242Y-76835000D01*
X207894304Y-76594366D01*
X207893150Y-76589559D01*
X207893149Y-76589553D01*
X207857733Y-76442039D01*
X207837955Y-76359657D01*
X207810371Y-76293063D01*
X207747479Y-76141227D01*
X207747477Y-76141223D01*
X207745584Y-76136653D01*
X207619464Y-75930844D01*
X207462701Y-75747299D01*
X207279156Y-75590536D01*
X207073347Y-75464416D01*
X207068777Y-75462523D01*
X207068773Y-75462521D01*
X206854916Y-75373939D01*
X206854914Y-75373938D01*
X206850343Y-75372045D01*
X206700327Y-75336029D01*
X206620447Y-75316851D01*
X206620441Y-75316850D01*
X206615634Y-75315696D01*
X206375000Y-75296758D01*
X206134366Y-75315696D01*
X206129559Y-75316850D01*
X206129553Y-75316851D01*
X206049673Y-75336029D01*
X205899657Y-75372045D01*
X205895086Y-75373938D01*
X205895084Y-75373939D01*
X205681227Y-75462521D01*
X205681223Y-75462523D01*
X205676653Y-75464416D01*
X205470844Y-75590536D01*
X205287299Y-75747299D01*
X205130536Y-75930844D01*
X205004416Y-76136653D01*
X205002523Y-76141223D01*
X205002521Y-76141227D01*
X204939629Y-76293063D01*
X204912045Y-76359657D01*
X204892267Y-76442039D01*
X204856851Y-76589553D01*
X204856850Y-76589559D01*
X204855696Y-76594366D01*
X204836758Y-76835000D01*
X146102735Y-76835000D01*
X146051634Y-76754478D01*
X145850416Y-76511247D01*
X145620299Y-76295153D01*
X145364913Y-76109604D01*
X145329980Y-76090399D01*
X145091757Y-75959435D01*
X145091754Y-75959434D01*
X145088286Y-75957527D01*
X144794779Y-75841320D01*
X144790949Y-75840337D01*
X144790941Y-75840334D01*
X144584202Y-75787253D01*
X144489022Y-75762815D01*
X144485094Y-75762319D01*
X144485090Y-75762318D01*
X144340808Y-75744091D01*
X144175837Y-75723250D01*
X143860163Y-75723250D01*
X143695192Y-75744091D01*
X143550910Y-75762318D01*
X143550906Y-75762319D01*
X143546978Y-75762815D01*
X143451798Y-75787253D01*
X143245059Y-75840334D01*
X143245051Y-75840337D01*
X143241221Y-75841320D01*
X142947714Y-75957527D01*
X142944246Y-75959434D01*
X142944243Y-75959435D01*
X142706021Y-76090399D01*
X142671087Y-76109604D01*
X142415701Y-76295153D01*
X142185584Y-76511247D01*
X141984366Y-76754478D01*
X141815219Y-77021011D01*
X141753550Y-77152065D01*
X141694039Y-77278534D01*
X141680812Y-77306642D01*
X141583263Y-77606866D01*
X141524111Y-77916949D01*
X141504290Y-78232000D01*
X141524111Y-78547051D01*
X141583263Y-78857134D01*
X141680812Y-79157358D01*
X141815219Y-79442989D01*
X141984366Y-79709522D01*
X142185584Y-79952753D01*
X142188471Y-79955464D01*
X142383908Y-80138991D01*
X142415701Y-80168847D01*
X142418903Y-80171174D01*
X142418905Y-80171175D01*
X142451933Y-80195171D01*
X142671087Y-80354396D01*
X142674556Y-80356303D01*
X142674559Y-80356305D01*
X142942890Y-80503821D01*
X142947714Y-80506473D01*
X143241221Y-80622680D01*
X143347469Y-80649960D01*
X143408472Y-80686273D01*
X143440161Y-80749805D01*
X143432471Y-80820384D01*
X143387844Y-80875601D01*
X143347471Y-80894040D01*
X143241221Y-80921320D01*
X142947714Y-81037527D01*
X142944246Y-81039434D01*
X142944243Y-81039435D01*
X142757271Y-81142224D01*
X142671087Y-81189604D01*
X142415701Y-81375153D01*
X142185584Y-81591247D01*
X141984366Y-81834478D01*
X141815219Y-82101011D01*
X141680812Y-82386642D01*
X141583263Y-82686866D01*
X141524111Y-82996949D01*
X141504290Y-83312000D01*
X138076219Y-83312000D01*
X138111325Y-83218356D01*
X138118080Y-83156174D01*
X138118080Y-81059906D01*
X138111325Y-80997724D01*
X138060195Y-80861335D01*
X137972841Y-80744779D01*
X137856285Y-80657425D01*
X137719896Y-80606295D01*
X137657714Y-80599540D01*
X135656446Y-80599540D01*
X135594264Y-80606295D01*
X135457875Y-80657425D01*
X135341319Y-80744779D01*
X135253965Y-80861335D01*
X135246507Y-80881229D01*
X135203867Y-80937993D01*
X135137306Y-80962694D01*
X135067957Y-80947487D01*
X135050433Y-80935882D01*
X134932410Y-80842673D01*
X134932405Y-80842670D01*
X134928356Y-80839472D01*
X134923840Y-80836979D01*
X134923837Y-80836977D01*
X134722554Y-80725863D01*
X134722550Y-80725861D01*
X134718030Y-80723366D01*
X134713161Y-80721642D01*
X134713157Y-80721640D01*
X134496440Y-80644896D01*
X134496436Y-80644895D01*
X134491565Y-80643170D01*
X134486472Y-80642263D01*
X134486469Y-80642262D01*
X134260132Y-80601945D01*
X134260126Y-80601944D01*
X134255043Y-80601039D01*
X134162554Y-80599909D01*
X134019987Y-80598167D01*
X134019985Y-80598167D01*
X134014817Y-80598104D01*
X133777336Y-80634444D01*
X133684299Y-80664853D01*
X133553897Y-80707474D01*
X133553891Y-80707477D01*
X133548979Y-80709082D01*
X133544393Y-80711469D01*
X133544389Y-80711471D01*
X133398388Y-80787475D01*
X133335880Y-80820015D01*
X133331737Y-80823125D01*
X133331738Y-80823125D01*
X133199013Y-80922778D01*
X133143760Y-80964263D01*
X132977779Y-81137952D01*
X132842394Y-81336418D01*
X132840220Y-81341101D01*
X132840218Y-81341105D01*
X132816100Y-81393063D01*
X132741243Y-81554330D01*
X132677040Y-81785838D01*
X132676491Y-81790975D01*
X132656797Y-81975262D01*
X132656080Y-81981968D01*
X132656080Y-82216442D01*
X101473000Y-82216442D01*
X101473000Y-80653702D01*
X101473002Y-80652932D01*
X101473304Y-80603546D01*
X101473476Y-80575348D01*
X101471010Y-80566719D01*
X101471009Y-80566714D01*
X101465361Y-80546952D01*
X101461783Y-80530191D01*
X101458870Y-80509848D01*
X101458867Y-80509838D01*
X101457595Y-80500955D01*
X101446979Y-80477605D01*
X101440536Y-80460093D01*
X101435954Y-80444063D01*
X101433488Y-80435435D01*
X101417726Y-80410452D01*
X101409596Y-80395386D01*
X101397367Y-80368490D01*
X101380626Y-80349061D01*
X101369521Y-80334053D01*
X101360630Y-80319961D01*
X101355840Y-80312369D01*
X101333703Y-80292818D01*
X101321659Y-80280626D01*
X101308239Y-80265051D01*
X101308237Y-80265050D01*
X101302381Y-80258253D01*
X101294853Y-80253374D01*
X101294850Y-80253371D01*
X101280861Y-80244304D01*
X101265987Y-80233014D01*
X101253502Y-80221988D01*
X101246772Y-80216044D01*
X101238646Y-80212229D01*
X101238645Y-80212228D01*
X101232979Y-80209568D01*
X101220034Y-80203490D01*
X101205065Y-80195176D01*
X101180273Y-80179107D01*
X101155709Y-80171761D01*
X101138264Y-80165099D01*
X101129399Y-80160937D01*
X101115052Y-80154201D01*
X101085870Y-80149657D01*
X101069151Y-80145874D01*
X101049464Y-80139986D01*
X101049461Y-80139985D01*
X101040859Y-80137413D01*
X101031884Y-80137358D01*
X101031883Y-80137358D01*
X101025190Y-80137317D01*
X101006444Y-80137203D01*
X101005672Y-80137170D01*
X101004577Y-80137000D01*
X100973702Y-80137000D01*
X100972932Y-80136998D01*
X100899284Y-80136548D01*
X100899283Y-80136548D01*
X100895348Y-80136524D01*
X100894004Y-80136908D01*
X100892659Y-80137000D01*
X89543702Y-80137000D01*
X89542932Y-80136998D01*
X89542078Y-80136993D01*
X89465348Y-80136524D01*
X89456719Y-80138990D01*
X89456714Y-80138991D01*
X89436952Y-80144639D01*
X89420191Y-80148217D01*
X89399848Y-80151130D01*
X89399838Y-80151133D01*
X89390955Y-80152405D01*
X89367605Y-80163021D01*
X89350093Y-80169464D01*
X89342057Y-80171761D01*
X89325435Y-80176512D01*
X89300452Y-80192274D01*
X89285386Y-80200404D01*
X89258490Y-80212633D01*
X89239061Y-80229374D01*
X89224053Y-80240479D01*
X89202369Y-80254160D01*
X89196427Y-80260888D01*
X89182819Y-80276296D01*
X89170627Y-80288340D01*
X89148253Y-80307619D01*
X89143374Y-80315147D01*
X89143371Y-80315150D01*
X89134304Y-80329139D01*
X89123014Y-80344013D01*
X89106044Y-80363228D01*
X89102229Y-80371354D01*
X89102228Y-80371355D01*
X89099737Y-80376661D01*
X89093490Y-80389966D01*
X89085176Y-80404935D01*
X89069107Y-80429727D01*
X89066535Y-80438327D01*
X89061761Y-80454290D01*
X89055099Y-80471736D01*
X89044201Y-80494948D01*
X89039658Y-80524128D01*
X89035874Y-80540849D01*
X89029986Y-80560536D01*
X89029985Y-80560539D01*
X89027413Y-80569141D01*
X89027213Y-80601945D01*
X89027203Y-80603546D01*
X89027170Y-80604328D01*
X89027000Y-80605423D01*
X89027000Y-80636298D01*
X89026998Y-80637068D01*
X89026524Y-80714652D01*
X89026908Y-80715996D01*
X89027000Y-80717341D01*
X89027000Y-97146298D01*
X89026998Y-97147068D01*
X89026524Y-97224652D01*
X61995465Y-97224652D01*
X61989427Y-80772000D01*
X72319884Y-80772000D01*
X72338314Y-80982655D01*
X72339738Y-80987968D01*
X72339738Y-80987970D01*
X72342418Y-80997970D01*
X72393044Y-81186910D01*
X72395366Y-81191891D01*
X72395367Y-81191892D01*
X72479738Y-81372825D01*
X72482411Y-81378558D01*
X72603699Y-81551776D01*
X72753224Y-81701301D01*
X72926442Y-81822589D01*
X72931420Y-81824910D01*
X72931423Y-81824912D01*
X73113108Y-81909633D01*
X73118090Y-81911956D01*
X73123398Y-81913378D01*
X73123400Y-81913379D01*
X73317030Y-81965262D01*
X73317032Y-81965262D01*
X73322345Y-81966686D01*
X73533000Y-81985116D01*
X73743655Y-81966686D01*
X73748968Y-81965262D01*
X73748970Y-81965262D01*
X73942600Y-81913379D01*
X73942602Y-81913378D01*
X73947910Y-81911956D01*
X73952892Y-81909633D01*
X74134577Y-81824912D01*
X74134580Y-81824910D01*
X74139558Y-81822589D01*
X74312776Y-81701301D01*
X74462301Y-81551776D01*
X74583589Y-81378558D01*
X74586263Y-81372825D01*
X74670633Y-81191892D01*
X74670634Y-81191891D01*
X74672956Y-81186910D01*
X74723583Y-80997970D01*
X74726262Y-80987970D01*
X74726262Y-80987968D01*
X74727686Y-80982655D01*
X74745241Y-80782000D01*
X79949884Y-80782000D01*
X79968314Y-80992655D01*
X79969738Y-80997968D01*
X79969738Y-80997970D01*
X80020365Y-81186910D01*
X80023044Y-81196910D01*
X80025366Y-81201891D01*
X80025367Y-81201892D01*
X80109849Y-81383063D01*
X80112411Y-81388558D01*
X80233699Y-81561776D01*
X80383224Y-81711301D01*
X80556442Y-81832589D01*
X80561420Y-81834910D01*
X80561423Y-81834912D01*
X80743108Y-81919633D01*
X80748090Y-81921956D01*
X80753398Y-81923378D01*
X80753400Y-81923379D01*
X80947030Y-81975262D01*
X80947032Y-81975262D01*
X80952345Y-81976686D01*
X81163000Y-81995116D01*
X81373655Y-81976686D01*
X81378968Y-81975262D01*
X81378970Y-81975262D01*
X81572600Y-81923379D01*
X81572602Y-81923378D01*
X81577910Y-81921956D01*
X81582892Y-81919633D01*
X81764577Y-81834912D01*
X81764580Y-81834910D01*
X81769558Y-81832589D01*
X81942776Y-81711301D01*
X82092301Y-81561776D01*
X82213589Y-81388558D01*
X82216152Y-81383063D01*
X82300633Y-81201892D01*
X82300634Y-81201891D01*
X82302956Y-81196910D01*
X82305636Y-81186910D01*
X82356262Y-80997970D01*
X82356262Y-80997968D01*
X82357686Y-80992655D01*
X82376116Y-80782000D01*
X82357686Y-80571345D01*
X82354790Y-80560536D01*
X82304379Y-80372400D01*
X82304378Y-80372398D01*
X82302956Y-80367090D01*
X82285259Y-80329139D01*
X82215912Y-80180423D01*
X82215910Y-80180420D01*
X82213589Y-80175442D01*
X82092301Y-80002224D01*
X81942776Y-79852699D01*
X81769558Y-79731411D01*
X81764580Y-79729090D01*
X81764577Y-79729088D01*
X81582892Y-79644367D01*
X81582891Y-79644366D01*
X81577910Y-79642044D01*
X81572602Y-79640622D01*
X81572600Y-79640621D01*
X81378970Y-79588738D01*
X81378968Y-79588738D01*
X81373655Y-79587314D01*
X81163000Y-79568884D01*
X80952345Y-79587314D01*
X80947032Y-79588738D01*
X80947030Y-79588738D01*
X80753400Y-79640621D01*
X80753398Y-79640622D01*
X80748090Y-79642044D01*
X80743109Y-79644366D01*
X80743108Y-79644367D01*
X80561423Y-79729088D01*
X80561420Y-79729090D01*
X80556442Y-79731411D01*
X80383224Y-79852699D01*
X80233699Y-80002224D01*
X80112411Y-80175442D01*
X80110090Y-80180420D01*
X80110088Y-80180423D01*
X80040741Y-80329139D01*
X80023044Y-80367090D01*
X80021622Y-80372398D01*
X80021621Y-80372400D01*
X79971210Y-80560536D01*
X79968314Y-80571345D01*
X79949884Y-80782000D01*
X74745241Y-80782000D01*
X74746116Y-80772000D01*
X74727686Y-80561345D01*
X74726262Y-80556030D01*
X74674379Y-80362400D01*
X74674378Y-80362398D01*
X74672956Y-80357090D01*
X74659922Y-80329139D01*
X74585912Y-80170423D01*
X74585910Y-80170420D01*
X74583589Y-80165442D01*
X74462301Y-79992224D01*
X74312776Y-79842699D01*
X74139558Y-79721411D01*
X74134580Y-79719090D01*
X74134577Y-79719088D01*
X73952892Y-79634367D01*
X73952891Y-79634366D01*
X73947910Y-79632044D01*
X73942602Y-79630622D01*
X73942600Y-79630621D01*
X73748970Y-79578738D01*
X73748968Y-79578738D01*
X73743655Y-79577314D01*
X73533000Y-79558884D01*
X73322345Y-79577314D01*
X73317032Y-79578738D01*
X73317030Y-79578738D01*
X73123400Y-79630621D01*
X73123398Y-79630622D01*
X73118090Y-79632044D01*
X73113109Y-79634366D01*
X73113108Y-79634367D01*
X72931423Y-79719088D01*
X72931420Y-79719090D01*
X72926442Y-79721411D01*
X72753224Y-79842699D01*
X72603699Y-79992224D01*
X72482411Y-80165442D01*
X72480090Y-80170420D01*
X72480088Y-80170423D01*
X72406078Y-80329139D01*
X72393044Y-80357090D01*
X72391622Y-80362398D01*
X72391621Y-80362400D01*
X72339738Y-80556030D01*
X72338314Y-80561345D01*
X72319884Y-80772000D01*
X61989427Y-80772000D01*
X61988031Y-76967703D01*
X62840743Y-76967703D01*
X62878268Y-77252734D01*
X62879401Y-77256874D01*
X62879401Y-77256876D01*
X62894028Y-77310343D01*
X62954129Y-77530036D01*
X63066923Y-77794476D01*
X63078693Y-77814142D01*
X63164714Y-77957872D01*
X63214561Y-78041161D01*
X63394313Y-78265528D01*
X63602851Y-78463423D01*
X63836317Y-78631186D01*
X63840112Y-78633195D01*
X63840113Y-78633196D01*
X63861869Y-78644715D01*
X64090392Y-78765712D01*
X64114699Y-78774607D01*
X64350533Y-78860910D01*
X64360373Y-78864511D01*
X64641264Y-78925755D01*
X64669841Y-78928004D01*
X64864282Y-78943307D01*
X64864291Y-78943307D01*
X64866739Y-78943500D01*
X65022271Y-78943500D01*
X65024407Y-78943354D01*
X65024418Y-78943354D01*
X65232548Y-78929165D01*
X65232554Y-78929164D01*
X65236825Y-78928873D01*
X65241020Y-78928004D01*
X65241022Y-78928004D01*
X65377584Y-78899723D01*
X65518342Y-78870574D01*
X65789343Y-78774607D01*
X66044812Y-78642750D01*
X66048313Y-78640289D01*
X66048317Y-78640287D01*
X66186617Y-78543088D01*
X66280023Y-78477441D01*
X66392572Y-78372854D01*
X66487479Y-78284661D01*
X66487481Y-78284658D01*
X66490622Y-78281740D01*
X66672713Y-78059268D01*
X66822927Y-77814142D01*
X66826902Y-77805088D01*
X66936757Y-77554830D01*
X66938483Y-77550898D01*
X66942281Y-77537567D01*
X67005704Y-77314916D01*
X67017244Y-77274406D01*
X67047515Y-77061704D01*
X67057146Y-76994036D01*
X67057146Y-76994034D01*
X67057751Y-76989784D01*
X67057845Y-76971951D01*
X67057995Y-76943402D01*
X91122000Y-76943402D01*
X91122212Y-76945975D01*
X91122212Y-76945986D01*
X91128675Y-77024597D01*
X91136678Y-77121937D01*
X91195206Y-77354944D01*
X91251221Y-77483771D01*
X91282119Y-77554830D01*
X91291003Y-77575263D01*
X91421498Y-77776977D01*
X91583186Y-77954670D01*
X91660017Y-78015347D01*
X91767670Y-78100367D01*
X91767675Y-78100370D01*
X91771724Y-78103568D01*
X91776240Y-78106061D01*
X91776243Y-78106063D01*
X91977526Y-78217177D01*
X91977530Y-78217179D01*
X91982050Y-78219674D01*
X91986919Y-78221398D01*
X91986923Y-78221400D01*
X92203640Y-78298144D01*
X92203644Y-78298145D01*
X92208515Y-78299870D01*
X92213608Y-78300777D01*
X92213611Y-78300778D01*
X92439948Y-78341095D01*
X92439954Y-78341096D01*
X92445037Y-78342001D01*
X92532400Y-78343068D01*
X92680093Y-78344873D01*
X92680095Y-78344873D01*
X92685263Y-78344936D01*
X92922744Y-78308596D01*
X93064737Y-78262186D01*
X93146183Y-78235566D01*
X93146189Y-78235563D01*
X93151101Y-78233958D01*
X93155687Y-78231571D01*
X93155691Y-78231569D01*
X93359607Y-78125416D01*
X93364200Y-78123025D01*
X93468775Y-78044508D01*
X93552185Y-77981882D01*
X93552188Y-77981880D01*
X93556320Y-77978777D01*
X93647719Y-77883134D01*
X96202000Y-77883134D01*
X96208755Y-77945316D01*
X96259885Y-78081705D01*
X96347239Y-78198261D01*
X96463795Y-78285615D01*
X96600184Y-78336745D01*
X96662366Y-78343500D01*
X98663634Y-78343500D01*
X98725816Y-78336745D01*
X98862205Y-78285615D01*
X98978761Y-78198261D01*
X99066115Y-78081705D01*
X99117245Y-77945316D01*
X99124000Y-77883134D01*
X99124000Y-75786866D01*
X99117245Y-75724684D01*
X99066115Y-75588295D01*
X98978761Y-75471739D01*
X98862205Y-75384385D01*
X98725816Y-75333255D01*
X98663634Y-75326500D01*
X96662366Y-75326500D01*
X96600184Y-75333255D01*
X96463795Y-75384385D01*
X96347239Y-75471739D01*
X96259885Y-75588295D01*
X96208755Y-75724684D01*
X96202000Y-75786866D01*
X96202000Y-77883134D01*
X93647719Y-77883134D01*
X93722301Y-77805088D01*
X93857686Y-77606622D01*
X93872243Y-77575263D01*
X93956658Y-77393405D01*
X93956659Y-77393401D01*
X93958837Y-77388710D01*
X94023040Y-77157202D01*
X94037211Y-77024597D01*
X94043644Y-76964407D01*
X94043644Y-76964399D01*
X94044000Y-76961072D01*
X94044000Y-76726598D01*
X94042824Y-76712285D01*
X94029746Y-76553224D01*
X94029322Y-76548063D01*
X93970794Y-76315056D01*
X93885591Y-76119102D01*
X93877057Y-76099474D01*
X93877055Y-76099471D01*
X93874997Y-76094737D01*
X93766538Y-75927085D01*
X93747310Y-75897363D01*
X93747308Y-75897360D01*
X93744502Y-75893023D01*
X93582814Y-75715330D01*
X93505983Y-75654653D01*
X93398330Y-75569633D01*
X93398325Y-75569630D01*
X93394276Y-75566432D01*
X93389760Y-75563939D01*
X93389757Y-75563937D01*
X93188474Y-75452823D01*
X93188470Y-75452821D01*
X93183950Y-75450326D01*
X93179081Y-75448602D01*
X93179077Y-75448600D01*
X92962360Y-75371856D01*
X92962356Y-75371855D01*
X92957485Y-75370130D01*
X92952392Y-75369223D01*
X92952389Y-75369222D01*
X92726052Y-75328905D01*
X92726046Y-75328904D01*
X92720963Y-75327999D01*
X92628474Y-75326869D01*
X92485907Y-75325127D01*
X92485905Y-75325127D01*
X92480737Y-75325064D01*
X92243256Y-75361404D01*
X92150935Y-75391579D01*
X92019817Y-75434434D01*
X92019811Y-75434437D01*
X92014899Y-75436042D01*
X92010313Y-75438429D01*
X92010309Y-75438431D01*
X91806393Y-75544584D01*
X91801800Y-75546975D01*
X91779209Y-75563937D01*
X91614672Y-75687475D01*
X91609680Y-75691223D01*
X91443699Y-75864912D01*
X91308314Y-76063378D01*
X91306140Y-76068061D01*
X91306138Y-76068065D01*
X91209342Y-76276595D01*
X91207163Y-76281290D01*
X91142960Y-76512798D01*
X91142411Y-76517935D01*
X91122709Y-76702297D01*
X91122000Y-76708928D01*
X91122000Y-76943402D01*
X67057995Y-76943402D01*
X67059235Y-76706583D01*
X67059235Y-76706576D01*
X67059257Y-76702297D01*
X67021732Y-76417266D01*
X66945871Y-76139964D01*
X66911383Y-76059109D01*
X66834763Y-75879476D01*
X66834761Y-75879472D01*
X66833077Y-75875524D01*
X66741943Y-75723250D01*
X66717255Y-75682000D01*
X72319884Y-75682000D01*
X72338314Y-75892655D01*
X72339738Y-75897968D01*
X72339738Y-75897970D01*
X72356208Y-75959435D01*
X72393044Y-76096910D01*
X72395366Y-76101891D01*
X72395367Y-76101892D01*
X72476833Y-76276595D01*
X72482411Y-76288558D01*
X72603699Y-76461776D01*
X72753224Y-76611301D01*
X72926442Y-76732589D01*
X72931420Y-76734910D01*
X72931423Y-76734912D01*
X72980554Y-76757822D01*
X73118090Y-76821956D01*
X73123398Y-76823378D01*
X73123400Y-76823379D01*
X73317030Y-76875262D01*
X73317032Y-76875262D01*
X73322345Y-76876686D01*
X73533000Y-76895116D01*
X73743655Y-76876686D01*
X73748968Y-76875262D01*
X73748970Y-76875262D01*
X73942600Y-76823379D01*
X73942602Y-76823378D01*
X73947910Y-76821956D01*
X74085446Y-76757822D01*
X74134577Y-76734912D01*
X74134580Y-76734910D01*
X74139558Y-76732589D01*
X74312776Y-76611301D01*
X74462301Y-76461776D01*
X74583589Y-76288558D01*
X74589168Y-76276595D01*
X74670633Y-76101892D01*
X74670634Y-76101891D01*
X74672956Y-76096910D01*
X74709793Y-75959435D01*
X74726262Y-75897970D01*
X74726262Y-75897968D01*
X74727686Y-75892655D01*
X74746116Y-75682000D01*
X74727686Y-75471345D01*
X74726262Y-75466030D01*
X74674379Y-75272400D01*
X74674378Y-75272398D01*
X74672956Y-75267090D01*
X74646114Y-75209527D01*
X74585912Y-75080423D01*
X74585910Y-75080420D01*
X74583589Y-75075442D01*
X74462301Y-74902224D01*
X74312776Y-74752699D01*
X74139558Y-74631411D01*
X74134580Y-74629090D01*
X74134577Y-74629088D01*
X73952892Y-74544367D01*
X73952891Y-74544366D01*
X73947910Y-74542044D01*
X73942602Y-74540622D01*
X73942600Y-74540621D01*
X73748970Y-74488738D01*
X73748968Y-74488738D01*
X73743655Y-74487314D01*
X73533000Y-74468884D01*
X73322345Y-74487314D01*
X73317032Y-74488738D01*
X73317030Y-74488738D01*
X73123400Y-74540621D01*
X73123398Y-74540622D01*
X73118090Y-74542044D01*
X73113109Y-74544366D01*
X73113108Y-74544367D01*
X72931423Y-74629088D01*
X72931420Y-74629090D01*
X72926442Y-74631411D01*
X72753224Y-74752699D01*
X72603699Y-74902224D01*
X72482411Y-75075442D01*
X72480090Y-75080420D01*
X72480088Y-75080423D01*
X72419886Y-75209527D01*
X72393044Y-75267090D01*
X72391622Y-75272398D01*
X72391621Y-75272400D01*
X72339738Y-75466030D01*
X72338314Y-75471345D01*
X72319884Y-75682000D01*
X66717255Y-75682000D01*
X66687643Y-75632521D01*
X66687640Y-75632517D01*
X66685439Y-75628839D01*
X66505687Y-75404472D01*
X66366512Y-75272400D01*
X66300258Y-75209527D01*
X66300255Y-75209525D01*
X66297149Y-75206577D01*
X66063683Y-75038814D01*
X66041843Y-75027250D01*
X65989910Y-74999753D01*
X65809608Y-74904288D01*
X65674617Y-74854888D01*
X65543658Y-74806964D01*
X65543656Y-74806963D01*
X65539627Y-74805489D01*
X65258736Y-74744245D01*
X65227685Y-74741801D01*
X65035718Y-74726693D01*
X65035709Y-74726693D01*
X65033261Y-74726500D01*
X64877729Y-74726500D01*
X64875593Y-74726646D01*
X64875582Y-74726646D01*
X64667452Y-74740835D01*
X64667446Y-74740836D01*
X64663175Y-74741127D01*
X64658980Y-74741996D01*
X64658978Y-74741996D01*
X64522417Y-74770276D01*
X64381658Y-74799426D01*
X64110657Y-74895393D01*
X63855188Y-75027250D01*
X63851687Y-75029711D01*
X63851683Y-75029713D01*
X63769448Y-75087509D01*
X63619977Y-75192559D01*
X63568065Y-75240799D01*
X63427031Y-75371856D01*
X63409378Y-75388260D01*
X63227287Y-75610732D01*
X63077073Y-75855858D01*
X63075347Y-75859791D01*
X63075346Y-75859792D01*
X62972212Y-76094737D01*
X62961517Y-76119102D01*
X62960342Y-76123229D01*
X62960341Y-76123230D01*
X62954395Y-76144103D01*
X62882756Y-76395594D01*
X62842249Y-76680216D01*
X62842227Y-76684505D01*
X62842226Y-76684512D01*
X62840765Y-76963417D01*
X62840743Y-76967703D01*
X61988031Y-76967703D01*
X61987526Y-75590536D01*
X61986856Y-73763918D01*
X109111917Y-73763918D01*
X109127682Y-74037320D01*
X109128507Y-74041525D01*
X109128508Y-74041533D01*
X109139127Y-74095657D01*
X109180405Y-74306053D01*
X109181792Y-74310103D01*
X109181793Y-74310108D01*
X109260716Y-74540621D01*
X109269112Y-74565144D01*
X109330636Y-74687472D01*
X109389533Y-74804575D01*
X109392160Y-74809799D01*
X109394586Y-74813328D01*
X109394589Y-74813334D01*
X109544843Y-75031953D01*
X109547274Y-75035490D01*
X109550161Y-75038663D01*
X109550162Y-75038664D01*
X109711385Y-75215847D01*
X109731582Y-75238043D01*
X109734877Y-75240798D01*
X109734878Y-75240799D01*
X109766322Y-75267090D01*
X109941675Y-75413707D01*
X109945316Y-75415991D01*
X110170024Y-75556951D01*
X110170028Y-75556953D01*
X110173664Y-75559234D01*
X110287719Y-75610732D01*
X110419345Y-75670164D01*
X110419349Y-75670166D01*
X110423257Y-75671930D01*
X110427377Y-75673150D01*
X110427376Y-75673150D01*
X110681723Y-75748491D01*
X110681727Y-75748492D01*
X110685836Y-75749709D01*
X110690070Y-75750357D01*
X110690075Y-75750358D01*
X110952298Y-75790483D01*
X110952300Y-75790483D01*
X110956540Y-75791132D01*
X111095912Y-75793322D01*
X111226071Y-75795367D01*
X111226077Y-75795367D01*
X111230362Y-75795434D01*
X111502235Y-75762534D01*
X111767127Y-75693041D01*
X111771087Y-75691401D01*
X111771092Y-75691399D01*
X111930204Y-75625492D01*
X112020136Y-75588241D01*
X112207218Y-75478919D01*
X112252879Y-75452237D01*
X112252880Y-75452236D01*
X112256582Y-75450073D01*
X112472089Y-75281094D01*
X112513809Y-75238043D01*
X112659686Y-75087509D01*
X112662669Y-75084431D01*
X112665202Y-75080983D01*
X112665206Y-75080978D01*
X112822257Y-74867178D01*
X112824795Y-74863723D01*
X112852154Y-74813334D01*
X112953418Y-74626830D01*
X112953419Y-74626828D01*
X112955468Y-74623054D01*
X113052269Y-74366877D01*
X113113407Y-74099933D01*
X113130545Y-73907910D01*
X113137531Y-73829627D01*
X113137531Y-73829625D01*
X113137751Y-73827161D01*
X113138193Y-73785000D01*
X113136756Y-73763918D01*
X119111917Y-73763918D01*
X119127682Y-74037320D01*
X119128507Y-74041525D01*
X119128508Y-74041533D01*
X119139127Y-74095657D01*
X119180405Y-74306053D01*
X119181792Y-74310103D01*
X119181793Y-74310108D01*
X119260716Y-74540621D01*
X119269112Y-74565144D01*
X119330636Y-74687472D01*
X119389533Y-74804575D01*
X119392160Y-74809799D01*
X119394586Y-74813328D01*
X119394589Y-74813334D01*
X119544843Y-75031953D01*
X119547274Y-75035490D01*
X119550161Y-75038663D01*
X119550162Y-75038664D01*
X119711385Y-75215847D01*
X119731582Y-75238043D01*
X119734877Y-75240798D01*
X119734878Y-75240799D01*
X119766322Y-75267090D01*
X119941675Y-75413707D01*
X119945316Y-75415991D01*
X120170024Y-75556951D01*
X120170028Y-75556953D01*
X120173664Y-75559234D01*
X120287719Y-75610732D01*
X120419345Y-75670164D01*
X120419349Y-75670166D01*
X120423257Y-75671930D01*
X120427377Y-75673150D01*
X120427376Y-75673150D01*
X120681723Y-75748491D01*
X120681727Y-75748492D01*
X120685836Y-75749709D01*
X120690070Y-75750357D01*
X120690075Y-75750358D01*
X120952298Y-75790483D01*
X120952300Y-75790483D01*
X120956540Y-75791132D01*
X121095912Y-75793322D01*
X121226071Y-75795367D01*
X121226077Y-75795367D01*
X121230362Y-75795434D01*
X121502235Y-75762534D01*
X121767127Y-75693041D01*
X121771087Y-75691401D01*
X121771092Y-75691399D01*
X121930204Y-75625492D01*
X122020136Y-75588241D01*
X122207218Y-75478919D01*
X122252879Y-75452237D01*
X122252880Y-75452236D01*
X122256582Y-75450073D01*
X122472089Y-75281094D01*
X122513809Y-75238043D01*
X122659686Y-75087509D01*
X122662669Y-75084431D01*
X122665202Y-75080983D01*
X122665206Y-75080978D01*
X122822257Y-74867178D01*
X122824795Y-74863723D01*
X122852154Y-74813334D01*
X122953418Y-74626830D01*
X122953419Y-74626828D01*
X122955468Y-74623054D01*
X123052269Y-74366877D01*
X123113407Y-74099933D01*
X123130545Y-73907910D01*
X123137531Y-73829627D01*
X123137531Y-73829625D01*
X123137751Y-73827161D01*
X123138193Y-73785000D01*
X123136465Y-73759648D01*
X123119859Y-73516055D01*
X123119858Y-73516049D01*
X123119567Y-73511778D01*
X123071361Y-73279000D01*
X150394290Y-73279000D01*
X150414111Y-73594051D01*
X150473263Y-73904134D01*
X150570812Y-74204358D01*
X150705219Y-74489989D01*
X150874366Y-74756522D01*
X151075584Y-74999753D01*
X151305701Y-75215847D01*
X151561087Y-75401396D01*
X151564556Y-75403303D01*
X151564559Y-75403305D01*
X151821545Y-75544584D01*
X151837714Y-75553473D01*
X152131221Y-75669680D01*
X152135051Y-75670663D01*
X152135059Y-75670666D01*
X152296545Y-75712128D01*
X152436978Y-75748185D01*
X152440906Y-75748681D01*
X152440910Y-75748682D01*
X152550560Y-75762534D01*
X152750163Y-75787750D01*
X153065837Y-75787750D01*
X153265440Y-75762534D01*
X153375090Y-75748682D01*
X153375094Y-75748681D01*
X153379022Y-75748185D01*
X153519455Y-75712128D01*
X153680941Y-75670666D01*
X153680949Y-75670663D01*
X153684779Y-75669680D01*
X153978286Y-75553473D01*
X153994455Y-75544584D01*
X154251441Y-75403305D01*
X154251444Y-75403303D01*
X154254913Y-75401396D01*
X154510299Y-75215847D01*
X154740416Y-74999753D01*
X154941634Y-74756522D01*
X155110781Y-74489989D01*
X155245188Y-74204358D01*
X155342737Y-73904134D01*
X155401889Y-73594051D01*
X155421710Y-73279000D01*
X155401889Y-72963949D01*
X155342737Y-72653866D01*
X155245188Y-72353642D01*
X155220143Y-72300417D01*
X155145480Y-72141751D01*
X155110781Y-72068011D01*
X154941634Y-71801478D01*
X154740416Y-71558247D01*
X154510299Y-71342153D01*
X154254913Y-71156604D01*
X153978286Y-71004527D01*
X153684779Y-70888320D01*
X153680949Y-70887337D01*
X153680941Y-70887334D01*
X153449731Y-70827970D01*
X153379022Y-70809815D01*
X153375094Y-70809319D01*
X153375090Y-70809318D01*
X153251708Y-70793731D01*
X153065837Y-70770250D01*
X152750163Y-70770250D01*
X152564292Y-70793731D01*
X152440910Y-70809318D01*
X152440906Y-70809319D01*
X152436978Y-70809815D01*
X152366269Y-70827970D01*
X152135059Y-70887334D01*
X152135051Y-70887337D01*
X152131221Y-70888320D01*
X151837714Y-71004527D01*
X151561087Y-71156604D01*
X151305701Y-71342153D01*
X151075584Y-71558247D01*
X150874366Y-71801478D01*
X150705219Y-72068011D01*
X150670520Y-72141751D01*
X150595858Y-72300417D01*
X150570812Y-72353642D01*
X150473263Y-72653866D01*
X150414111Y-72963949D01*
X150394290Y-73279000D01*
X123071361Y-73279000D01*
X123064032Y-73243612D01*
X122972617Y-72985465D01*
X122847013Y-72742112D01*
X122837040Y-72727921D01*
X122692008Y-72521562D01*
X122689545Y-72518057D01*
X122619466Y-72442643D01*
X122506046Y-72320588D01*
X122506043Y-72320585D01*
X122503125Y-72317445D01*
X122499810Y-72314731D01*
X122499806Y-72314728D01*
X122294523Y-72146706D01*
X122291205Y-72143990D01*
X122057704Y-72000901D01*
X122053768Y-71999173D01*
X121810873Y-71892549D01*
X121810869Y-71892548D01*
X121806945Y-71890825D01*
X121543566Y-71815800D01*
X121539324Y-71815196D01*
X121539318Y-71815195D01*
X121338834Y-71786662D01*
X121272443Y-71777213D01*
X121128589Y-71776460D01*
X121002877Y-71775802D01*
X121002871Y-71775802D01*
X120998591Y-71775780D01*
X120994347Y-71776339D01*
X120994343Y-71776339D01*
X120875302Y-71792011D01*
X120727078Y-71811525D01*
X120722938Y-71812658D01*
X120722936Y-71812658D01*
X120679148Y-71824637D01*
X120462928Y-71883788D01*
X120458980Y-71885472D01*
X120214982Y-71989546D01*
X120214978Y-71989548D01*
X120211030Y-71991232D01*
X120191125Y-72003145D01*
X119979725Y-72129664D01*
X119979721Y-72129667D01*
X119976043Y-72131868D01*
X119762318Y-72303094D01*
X119573808Y-72501742D01*
X119414002Y-72724136D01*
X119285857Y-72966161D01*
X119284385Y-72970184D01*
X119284383Y-72970188D01*
X119277314Y-72989506D01*
X119191743Y-73223337D01*
X119133404Y-73490907D01*
X119111917Y-73763918D01*
X113136756Y-73763918D01*
X113136465Y-73759648D01*
X113119859Y-73516055D01*
X113119858Y-73516049D01*
X113119567Y-73511778D01*
X113064032Y-73243612D01*
X112972617Y-72985465D01*
X112847013Y-72742112D01*
X112837040Y-72727921D01*
X112692008Y-72521562D01*
X112689545Y-72518057D01*
X112619466Y-72442643D01*
X112506046Y-72320588D01*
X112506043Y-72320585D01*
X112503125Y-72317445D01*
X112499810Y-72314731D01*
X112499806Y-72314728D01*
X112294523Y-72146706D01*
X112291205Y-72143990D01*
X112057704Y-72000901D01*
X112053768Y-71999173D01*
X111810873Y-71892549D01*
X111810869Y-71892548D01*
X111806945Y-71890825D01*
X111543566Y-71815800D01*
X111539324Y-71815196D01*
X111539318Y-71815195D01*
X111338834Y-71786662D01*
X111272443Y-71777213D01*
X111128589Y-71776460D01*
X111002877Y-71775802D01*
X111002871Y-71775802D01*
X110998591Y-71775780D01*
X110994347Y-71776339D01*
X110994343Y-71776339D01*
X110875302Y-71792011D01*
X110727078Y-71811525D01*
X110722938Y-71812658D01*
X110722936Y-71812658D01*
X110679148Y-71824637D01*
X110462928Y-71883788D01*
X110458980Y-71885472D01*
X110214982Y-71989546D01*
X110214978Y-71989548D01*
X110211030Y-71991232D01*
X110191125Y-72003145D01*
X109979725Y-72129664D01*
X109979721Y-72129667D01*
X109976043Y-72131868D01*
X109762318Y-72303094D01*
X109573808Y-72501742D01*
X109414002Y-72724136D01*
X109285857Y-72966161D01*
X109284385Y-72970184D01*
X109284383Y-72970188D01*
X109277314Y-72989506D01*
X109191743Y-73223337D01*
X109133404Y-73490907D01*
X109111917Y-73763918D01*
X61986856Y-73763918D01*
X61985699Y-70612000D01*
X72319884Y-70612000D01*
X72338314Y-70822655D01*
X72339738Y-70827968D01*
X72339738Y-70827970D01*
X72386656Y-71003068D01*
X72393044Y-71026910D01*
X72482411Y-71218558D01*
X72603699Y-71391776D01*
X72753224Y-71541301D01*
X72926442Y-71662589D01*
X72931420Y-71664910D01*
X72931423Y-71664912D01*
X73113108Y-71749633D01*
X73118090Y-71751956D01*
X73123398Y-71753378D01*
X73123400Y-71753379D01*
X73317030Y-71805262D01*
X73317032Y-71805262D01*
X73322345Y-71806686D01*
X73533000Y-71825116D01*
X73743655Y-71806686D01*
X73748968Y-71805262D01*
X73748970Y-71805262D01*
X73942600Y-71753379D01*
X73942602Y-71753378D01*
X73947910Y-71751956D01*
X73952892Y-71749633D01*
X74134577Y-71664912D01*
X74134580Y-71664910D01*
X74139558Y-71662589D01*
X74312776Y-71541301D01*
X74462301Y-71391776D01*
X74583589Y-71218558D01*
X74672956Y-71026910D01*
X74679345Y-71003068D01*
X74726262Y-70827970D01*
X74726262Y-70827968D01*
X74727686Y-70822655D01*
X74746116Y-70612000D01*
X79939884Y-70612000D01*
X79958314Y-70822655D01*
X79959738Y-70827968D01*
X79959738Y-70827970D01*
X80006656Y-71003068D01*
X80013044Y-71026910D01*
X80102411Y-71218558D01*
X80223699Y-71391776D01*
X80373224Y-71541301D01*
X80546442Y-71662589D01*
X80551420Y-71664910D01*
X80551423Y-71664912D01*
X80733108Y-71749633D01*
X80738090Y-71751956D01*
X80743398Y-71753378D01*
X80743400Y-71753379D01*
X80937030Y-71805262D01*
X80937032Y-71805262D01*
X80942345Y-71806686D01*
X81153000Y-71825116D01*
X81363655Y-71806686D01*
X81368968Y-71805262D01*
X81368970Y-71805262D01*
X81562600Y-71753379D01*
X81562602Y-71753378D01*
X81567910Y-71751956D01*
X81572892Y-71749633D01*
X81754577Y-71664912D01*
X81754580Y-71664910D01*
X81759558Y-71662589D01*
X81932776Y-71541301D01*
X82082301Y-71391776D01*
X82203589Y-71218558D01*
X82292956Y-71026910D01*
X82299345Y-71003068D01*
X82346262Y-70827970D01*
X82346262Y-70827968D01*
X82347686Y-70822655D01*
X82366116Y-70612000D01*
X82347686Y-70401345D01*
X82330091Y-70335680D01*
X82294379Y-70202400D01*
X82294378Y-70202398D01*
X82292956Y-70197090D01*
X82203589Y-70005442D01*
X82082301Y-69832224D01*
X81932776Y-69682699D01*
X81759558Y-69561411D01*
X81754580Y-69559090D01*
X81754577Y-69559088D01*
X81572892Y-69474367D01*
X81572891Y-69474366D01*
X81567910Y-69472044D01*
X81562602Y-69470622D01*
X81562600Y-69470621D01*
X81368970Y-69418738D01*
X81368968Y-69418738D01*
X81363655Y-69417314D01*
X81153000Y-69398884D01*
X80942345Y-69417314D01*
X80937032Y-69418738D01*
X80937030Y-69418738D01*
X80743400Y-69470621D01*
X80743398Y-69470622D01*
X80738090Y-69472044D01*
X80733109Y-69474366D01*
X80733108Y-69474367D01*
X80551423Y-69559088D01*
X80551420Y-69559090D01*
X80546442Y-69561411D01*
X80373224Y-69682699D01*
X80223699Y-69832224D01*
X80102411Y-70005442D01*
X80013044Y-70197090D01*
X80011622Y-70202398D01*
X80011621Y-70202400D01*
X79975909Y-70335680D01*
X79958314Y-70401345D01*
X79939884Y-70612000D01*
X74746116Y-70612000D01*
X74727686Y-70401345D01*
X74710091Y-70335680D01*
X74674379Y-70202400D01*
X74674378Y-70202398D01*
X74672956Y-70197090D01*
X74583589Y-70005442D01*
X74462301Y-69832224D01*
X74312776Y-69682699D01*
X74139558Y-69561411D01*
X74134580Y-69559090D01*
X74134577Y-69559088D01*
X73952892Y-69474367D01*
X73952891Y-69474366D01*
X73947910Y-69472044D01*
X73942602Y-69470622D01*
X73942600Y-69470621D01*
X73748970Y-69418738D01*
X73748968Y-69418738D01*
X73743655Y-69417314D01*
X73533000Y-69398884D01*
X73322345Y-69417314D01*
X73317032Y-69418738D01*
X73317030Y-69418738D01*
X73123400Y-69470621D01*
X73123398Y-69470622D01*
X73118090Y-69472044D01*
X73113109Y-69474366D01*
X73113108Y-69474367D01*
X72931423Y-69559088D01*
X72931420Y-69559090D01*
X72926442Y-69561411D01*
X72753224Y-69682699D01*
X72603699Y-69832224D01*
X72482411Y-70005442D01*
X72393044Y-70197090D01*
X72391622Y-70202398D01*
X72391621Y-70202400D01*
X72355909Y-70335680D01*
X72338314Y-70401345D01*
X72319884Y-70612000D01*
X61985699Y-70612000D01*
X61984441Y-67183000D01*
X64501758Y-67183000D01*
X64520696Y-67423634D01*
X64521850Y-67428441D01*
X64521851Y-67428447D01*
X64548806Y-67540719D01*
X64577045Y-67658343D01*
X64578938Y-67662914D01*
X64578939Y-67662916D01*
X64663249Y-67866458D01*
X64669416Y-67881347D01*
X64795536Y-68087156D01*
X64952299Y-68270701D01*
X65135844Y-68427464D01*
X65341653Y-68553584D01*
X65346223Y-68555477D01*
X65346227Y-68555479D01*
X65390724Y-68573910D01*
X65564657Y-68645955D01*
X65647039Y-68665733D01*
X65794553Y-68701149D01*
X65794559Y-68701150D01*
X65799366Y-68702304D01*
X66040000Y-68721242D01*
X66280634Y-68702304D01*
X66285441Y-68701150D01*
X66285447Y-68701149D01*
X66432961Y-68665733D01*
X66515343Y-68645955D01*
X66689276Y-68573910D01*
X66733773Y-68555479D01*
X66733777Y-68555477D01*
X66738347Y-68553584D01*
X66944156Y-68427464D01*
X67127701Y-68270701D01*
X67284464Y-68087156D01*
X67371577Y-67945000D01*
X141758290Y-67945000D01*
X141778111Y-68260051D01*
X141837263Y-68570134D01*
X141934812Y-68870358D01*
X142069219Y-69155989D01*
X142238366Y-69422522D01*
X142439584Y-69665753D01*
X142669701Y-69881847D01*
X142925087Y-70067396D01*
X143201714Y-70219473D01*
X143495221Y-70335680D01*
X143499051Y-70336663D01*
X143499059Y-70336666D01*
X143691447Y-70386062D01*
X143800978Y-70414185D01*
X143804906Y-70414681D01*
X143804910Y-70414682D01*
X143928292Y-70430269D01*
X144114163Y-70453750D01*
X144429837Y-70453750D01*
X144615708Y-70430269D01*
X144739090Y-70414682D01*
X144739094Y-70414681D01*
X144743022Y-70414185D01*
X144852553Y-70386062D01*
X145044941Y-70336666D01*
X145044949Y-70336663D01*
X145048779Y-70335680D01*
X145342286Y-70219473D01*
X145618913Y-70067396D01*
X145874299Y-69881847D01*
X146104416Y-69665753D01*
X146305634Y-69422522D01*
X146474781Y-69155989D01*
X146609188Y-68870358D01*
X146706737Y-68570134D01*
X146765889Y-68260051D01*
X146785710Y-67945000D01*
X158395290Y-67945000D01*
X158415111Y-68260051D01*
X158474263Y-68570134D01*
X158571812Y-68870358D01*
X158706219Y-69155989D01*
X158875366Y-69422522D01*
X159076584Y-69665753D01*
X159306701Y-69881847D01*
X159562087Y-70067396D01*
X159838714Y-70219473D01*
X160132221Y-70335680D01*
X160136051Y-70336663D01*
X160136059Y-70336666D01*
X160328447Y-70386062D01*
X160437978Y-70414185D01*
X160441906Y-70414681D01*
X160441910Y-70414682D01*
X160565292Y-70430269D01*
X160751163Y-70453750D01*
X161066837Y-70453750D01*
X161252708Y-70430269D01*
X161376090Y-70414682D01*
X161376094Y-70414681D01*
X161380022Y-70414185D01*
X161489553Y-70386062D01*
X161681941Y-70336666D01*
X161681949Y-70336663D01*
X161685779Y-70335680D01*
X161979286Y-70219473D01*
X162255913Y-70067396D01*
X162511299Y-69881847D01*
X162741416Y-69665753D01*
X162942634Y-69422522D01*
X163111781Y-69155989D01*
X163246188Y-68870358D01*
X163343737Y-68570134D01*
X163402889Y-68260051D01*
X163422710Y-67945000D01*
X163402889Y-67629949D01*
X163343737Y-67319866D01*
X163246188Y-67019642D01*
X163111781Y-66734011D01*
X163074331Y-66675000D01*
X204836758Y-66675000D01*
X204855696Y-66915634D01*
X204856850Y-66920441D01*
X204856851Y-66920447D01*
X204879804Y-67016052D01*
X204912045Y-67150343D01*
X204913938Y-67154914D01*
X204913939Y-67154916D01*
X204982264Y-67319866D01*
X205004416Y-67373347D01*
X205130536Y-67579156D01*
X205287299Y-67762701D01*
X205470844Y-67919464D01*
X205676653Y-68045584D01*
X205681223Y-68047477D01*
X205681227Y-68047479D01*
X205895084Y-68136061D01*
X205899657Y-68137955D01*
X205982039Y-68157733D01*
X206129553Y-68193149D01*
X206129559Y-68193150D01*
X206134366Y-68194304D01*
X206375000Y-68213242D01*
X206615634Y-68194304D01*
X206620441Y-68193150D01*
X206620447Y-68193149D01*
X206767961Y-68157733D01*
X206850343Y-68137955D01*
X206854916Y-68136061D01*
X207068773Y-68047479D01*
X207068777Y-68047477D01*
X207073347Y-68045584D01*
X207279156Y-67919464D01*
X207462701Y-67762701D01*
X207619464Y-67579156D01*
X207745584Y-67373347D01*
X207767737Y-67319866D01*
X207836061Y-67154916D01*
X207836062Y-67154914D01*
X207837955Y-67150343D01*
X207870196Y-67016052D01*
X207893149Y-66920447D01*
X207893150Y-66920441D01*
X207894304Y-66915634D01*
X207913242Y-66675000D01*
X207894304Y-66434366D01*
X207893150Y-66429559D01*
X207893149Y-66429553D01*
X207844591Y-66227299D01*
X207837955Y-66199657D01*
X207804506Y-66118904D01*
X207747479Y-65981227D01*
X207747477Y-65981223D01*
X207745584Y-65976653D01*
X207619464Y-65770844D01*
X207462701Y-65587299D01*
X207279156Y-65430536D01*
X207073347Y-65304416D01*
X207068777Y-65302523D01*
X207068773Y-65302521D01*
X206854916Y-65213939D01*
X206854914Y-65213938D01*
X206850343Y-65212045D01*
X206753846Y-65188878D01*
X206620447Y-65156851D01*
X206620441Y-65156850D01*
X206615634Y-65155696D01*
X206375000Y-65136758D01*
X206134366Y-65155696D01*
X206129559Y-65156850D01*
X206129553Y-65156851D01*
X205996154Y-65188878D01*
X205899657Y-65212045D01*
X205895086Y-65213938D01*
X205895084Y-65213939D01*
X205681227Y-65302521D01*
X205681223Y-65302523D01*
X205676653Y-65304416D01*
X205470844Y-65430536D01*
X205287299Y-65587299D01*
X205130536Y-65770844D01*
X205004416Y-65976653D01*
X205002523Y-65981223D01*
X205002521Y-65981227D01*
X204945494Y-66118904D01*
X204912045Y-66199657D01*
X204905409Y-66227299D01*
X204856851Y-66429553D01*
X204856850Y-66429559D01*
X204855696Y-66434366D01*
X204836758Y-66675000D01*
X163074331Y-66675000D01*
X162942634Y-66467478D01*
X162741416Y-66224247D01*
X162511299Y-66008153D01*
X162255913Y-65822604D01*
X162237382Y-65812416D01*
X161982757Y-65672435D01*
X161982754Y-65672434D01*
X161979286Y-65670527D01*
X161685779Y-65554320D01*
X161681949Y-65553337D01*
X161681941Y-65553334D01*
X161438100Y-65490727D01*
X161380022Y-65475815D01*
X161376094Y-65475319D01*
X161376090Y-65475318D01*
X161214330Y-65454883D01*
X161066837Y-65436250D01*
X160751163Y-65436250D01*
X160603670Y-65454883D01*
X160441910Y-65475318D01*
X160441906Y-65475319D01*
X160437978Y-65475815D01*
X160379900Y-65490727D01*
X160136059Y-65553334D01*
X160136051Y-65553337D01*
X160132221Y-65554320D01*
X159838714Y-65670527D01*
X159835246Y-65672434D01*
X159835243Y-65672435D01*
X159580619Y-65812416D01*
X159562087Y-65822604D01*
X159306701Y-66008153D01*
X159076584Y-66224247D01*
X158875366Y-66467478D01*
X158706219Y-66734011D01*
X158571812Y-67019642D01*
X158474263Y-67319866D01*
X158415111Y-67629949D01*
X158395290Y-67945000D01*
X146785710Y-67945000D01*
X146765889Y-67629949D01*
X146706737Y-67319866D01*
X146609188Y-67019642D01*
X146474781Y-66734011D01*
X146305634Y-66467478D01*
X146104416Y-66224247D01*
X145874299Y-66008153D01*
X145618913Y-65822604D01*
X145600382Y-65812416D01*
X145345757Y-65672435D01*
X145345754Y-65672434D01*
X145342286Y-65670527D01*
X145048779Y-65554320D01*
X144942531Y-65527040D01*
X144881528Y-65490727D01*
X144849839Y-65427195D01*
X144857529Y-65356616D01*
X144902156Y-65301399D01*
X144942529Y-65282960D01*
X145048779Y-65255680D01*
X145342286Y-65139473D01*
X145360214Y-65129617D01*
X145615441Y-64989305D01*
X145615444Y-64989303D01*
X145618913Y-64987396D01*
X145874299Y-64801847D01*
X145951664Y-64729197D01*
X146101529Y-64588464D01*
X146104416Y-64585753D01*
X146305634Y-64342522D01*
X146439263Y-64131956D01*
X146472657Y-64079336D01*
X146472657Y-64079335D01*
X146474781Y-64075989D01*
X146609188Y-63790358D01*
X146706737Y-63490134D01*
X146765889Y-63180051D01*
X146785710Y-62865000D01*
X146765889Y-62549949D01*
X146730061Y-62362134D01*
X185045318Y-62362134D01*
X185052073Y-62424316D01*
X185103203Y-62560705D01*
X185190557Y-62677261D01*
X185307113Y-62764615D01*
X185443502Y-62815745D01*
X185505684Y-62822500D01*
X187801952Y-62822500D01*
X187864134Y-62815745D01*
X188000523Y-62764615D01*
X188117079Y-62677261D01*
X188204433Y-62560705D01*
X188255563Y-62424316D01*
X188262318Y-62362134D01*
X188262318Y-60065866D01*
X188255563Y-60003684D01*
X188204433Y-59867295D01*
X188117079Y-59750739D01*
X188000523Y-59663385D01*
X187864134Y-59612255D01*
X187801952Y-59605500D01*
X185505684Y-59605500D01*
X185443502Y-59612255D01*
X185307113Y-59663385D01*
X185190557Y-59750739D01*
X185103203Y-59867295D01*
X185052073Y-60003684D01*
X185045318Y-60065866D01*
X185045318Y-62362134D01*
X146730061Y-62362134D01*
X146706737Y-62239866D01*
X146609188Y-61939642D01*
X146474781Y-61654011D01*
X146305634Y-61387478D01*
X146104416Y-61144247D01*
X145874299Y-60928153D01*
X145618913Y-60742604D01*
X145342286Y-60590527D01*
X145048779Y-60474320D01*
X145044949Y-60473337D01*
X145044941Y-60473334D01*
X144852553Y-60423938D01*
X144743022Y-60395815D01*
X144739094Y-60395319D01*
X144739090Y-60395318D01*
X144615708Y-60379731D01*
X144429837Y-60356250D01*
X144114163Y-60356250D01*
X143928292Y-60379731D01*
X143804910Y-60395318D01*
X143804906Y-60395319D01*
X143800978Y-60395815D01*
X143691447Y-60423938D01*
X143499059Y-60473334D01*
X143499051Y-60473337D01*
X143495221Y-60474320D01*
X143201714Y-60590527D01*
X142925087Y-60742604D01*
X142669701Y-60928153D01*
X142439584Y-61144247D01*
X142238366Y-61387478D01*
X142069219Y-61654011D01*
X141934812Y-61939642D01*
X141837263Y-62239866D01*
X141778111Y-62549949D01*
X141758290Y-62865000D01*
X141778111Y-63180051D01*
X141837263Y-63490134D01*
X141934812Y-63790358D01*
X142069219Y-64075989D01*
X142071343Y-64079335D01*
X142071343Y-64079336D01*
X142104737Y-64131956D01*
X142238366Y-64342522D01*
X142439584Y-64585753D01*
X142442471Y-64588464D01*
X142592337Y-64729197D01*
X142669701Y-64801847D01*
X142925087Y-64987396D01*
X142928556Y-64989303D01*
X142928559Y-64989305D01*
X143183786Y-65129617D01*
X143201714Y-65139473D01*
X143495221Y-65255680D01*
X143601469Y-65282960D01*
X143662472Y-65319273D01*
X143694161Y-65382805D01*
X143686471Y-65453384D01*
X143641844Y-65508601D01*
X143601471Y-65527040D01*
X143495221Y-65554320D01*
X143201714Y-65670527D01*
X143198246Y-65672434D01*
X143198243Y-65672435D01*
X142943619Y-65812416D01*
X142925087Y-65822604D01*
X142669701Y-66008153D01*
X142439584Y-66224247D01*
X142238366Y-66467478D01*
X142069219Y-66734011D01*
X141934812Y-67019642D01*
X141837263Y-67319866D01*
X141778111Y-67629949D01*
X141758290Y-67945000D01*
X67371577Y-67945000D01*
X67410584Y-67881347D01*
X67416752Y-67866458D01*
X67501061Y-67662916D01*
X67501062Y-67662914D01*
X67502955Y-67658343D01*
X67531194Y-67540719D01*
X67553259Y-67448814D01*
X130359920Y-67448814D01*
X130366675Y-67510996D01*
X130417805Y-67647385D01*
X130505159Y-67763941D01*
X130621715Y-67851295D01*
X130758104Y-67902425D01*
X130820286Y-67909180D01*
X132821554Y-67909180D01*
X132883736Y-67902425D01*
X133020125Y-67851295D01*
X133136681Y-67763941D01*
X133224035Y-67647385D01*
X133231493Y-67627491D01*
X133274133Y-67570727D01*
X133340694Y-67546026D01*
X133410043Y-67561233D01*
X133427567Y-67572838D01*
X133545590Y-67666047D01*
X133545595Y-67666050D01*
X133549644Y-67669248D01*
X133554160Y-67671741D01*
X133554163Y-67671743D01*
X133755446Y-67782857D01*
X133755450Y-67782859D01*
X133759970Y-67785354D01*
X133764839Y-67787078D01*
X133764843Y-67787080D01*
X133981560Y-67863824D01*
X133981564Y-67863825D01*
X133986435Y-67865550D01*
X133991528Y-67866457D01*
X133991531Y-67866458D01*
X134217868Y-67906775D01*
X134217874Y-67906776D01*
X134222957Y-67907681D01*
X134310320Y-67908748D01*
X134458013Y-67910553D01*
X134458015Y-67910553D01*
X134463183Y-67910616D01*
X134700664Y-67874276D01*
X134812917Y-67837586D01*
X134924103Y-67801246D01*
X134924109Y-67801243D01*
X134929021Y-67799638D01*
X134933607Y-67797251D01*
X134933611Y-67797249D01*
X135137527Y-67691096D01*
X135142120Y-67688705D01*
X135283019Y-67582915D01*
X135330105Y-67547562D01*
X135330108Y-67547560D01*
X135334240Y-67544457D01*
X135500221Y-67370768D01*
X135635606Y-67172302D01*
X135643677Y-67154916D01*
X135734578Y-66959085D01*
X135734579Y-66959081D01*
X135736757Y-66954390D01*
X135800960Y-66722882D01*
X135821920Y-66526752D01*
X135821920Y-66292278D01*
X135807242Y-66113743D01*
X135748714Y-65880736D01*
X135692699Y-65751909D01*
X135654977Y-65665154D01*
X135654975Y-65665151D01*
X135652917Y-65660417D01*
X135534130Y-65476801D01*
X135525230Y-65463043D01*
X135525228Y-65463040D01*
X135522422Y-65458703D01*
X135360734Y-65281010D01*
X135273409Y-65212045D01*
X135176250Y-65135313D01*
X135176245Y-65135310D01*
X135172196Y-65132112D01*
X135167680Y-65129619D01*
X135167677Y-65129617D01*
X134966394Y-65018503D01*
X134966390Y-65018501D01*
X134961870Y-65016006D01*
X134957001Y-65014282D01*
X134956997Y-65014280D01*
X134740280Y-64937536D01*
X134740276Y-64937535D01*
X134735405Y-64935810D01*
X134730312Y-64934903D01*
X134730309Y-64934902D01*
X134503972Y-64894585D01*
X134503966Y-64894584D01*
X134498883Y-64893679D01*
X134406394Y-64892549D01*
X134263827Y-64890807D01*
X134263825Y-64890807D01*
X134258657Y-64890744D01*
X134021176Y-64927084D01*
X133908923Y-64963774D01*
X133797737Y-65000114D01*
X133797731Y-65000117D01*
X133792819Y-65001722D01*
X133788233Y-65004109D01*
X133788229Y-65004111D01*
X133584313Y-65110264D01*
X133579720Y-65112655D01*
X133424637Y-65229095D01*
X133358155Y-65254000D01*
X133288759Y-65239008D01*
X133238485Y-65188878D01*
X133231005Y-65172565D01*
X133227189Y-65162387D01*
X133227187Y-65162383D01*
X133224035Y-65153975D01*
X133136681Y-65037419D01*
X133020125Y-64950065D01*
X132883736Y-64898935D01*
X132821554Y-64892180D01*
X130820286Y-64892180D01*
X130758104Y-64898935D01*
X130621715Y-64950065D01*
X130505159Y-65037419D01*
X130417805Y-65153975D01*
X130366675Y-65290364D01*
X130359920Y-65352546D01*
X130359920Y-67448814D01*
X67553259Y-67448814D01*
X67558149Y-67428447D01*
X67558150Y-67428441D01*
X67559304Y-67423634D01*
X67578242Y-67183000D01*
X67559304Y-66942366D01*
X67558150Y-66937559D01*
X67558149Y-66937553D01*
X67509282Y-66734011D01*
X67502955Y-66707657D01*
X67487386Y-66670070D01*
X67412479Y-66489227D01*
X67412477Y-66489223D01*
X67410584Y-66484653D01*
X67284464Y-66278844D01*
X67127701Y-66095299D01*
X66944156Y-65938536D01*
X66738347Y-65812416D01*
X66733777Y-65810523D01*
X66733773Y-65810521D01*
X66519916Y-65721939D01*
X66519914Y-65721938D01*
X66515343Y-65720045D01*
X66432961Y-65700267D01*
X66285447Y-65664851D01*
X66285441Y-65664850D01*
X66280634Y-65663696D01*
X66040000Y-65644758D01*
X65799366Y-65663696D01*
X65794559Y-65664850D01*
X65794553Y-65664851D01*
X65647039Y-65700267D01*
X65564657Y-65720045D01*
X65560086Y-65721938D01*
X65560084Y-65721939D01*
X65346227Y-65810521D01*
X65346223Y-65810523D01*
X65341653Y-65812416D01*
X65135844Y-65938536D01*
X64952299Y-66095299D01*
X64795536Y-66278844D01*
X64669416Y-66484653D01*
X64667523Y-66489223D01*
X64667521Y-66489227D01*
X64592614Y-66670070D01*
X64577045Y-66707657D01*
X64570718Y-66734011D01*
X64521851Y-66937553D01*
X64521850Y-66937559D01*
X64520696Y-66942366D01*
X64501758Y-67183000D01*
X61984441Y-67183000D01*
X61982903Y-62992000D01*
X79939884Y-62992000D01*
X79958314Y-63202655D01*
X79959738Y-63207968D01*
X79959738Y-63207970D01*
X79992590Y-63330573D01*
X80013044Y-63406910D01*
X80015366Y-63411891D01*
X80015367Y-63411892D01*
X80056675Y-63500476D01*
X80102411Y-63598558D01*
X80223699Y-63771776D01*
X80373224Y-63921301D01*
X80546442Y-64042589D01*
X80551420Y-64044910D01*
X80551423Y-64044912D01*
X80610378Y-64072403D01*
X80738090Y-64131956D01*
X80743398Y-64133378D01*
X80743400Y-64133379D01*
X80937030Y-64185262D01*
X80937032Y-64185262D01*
X80942345Y-64186686D01*
X81153000Y-64205116D01*
X81363655Y-64186686D01*
X81368968Y-64185262D01*
X81368970Y-64185262D01*
X81562600Y-64133379D01*
X81562602Y-64133378D01*
X81567910Y-64131956D01*
X81695622Y-64072403D01*
X81754577Y-64044912D01*
X81754580Y-64044910D01*
X81759558Y-64042589D01*
X81932776Y-63921301D01*
X81973077Y-63881000D01*
X102191502Y-63881000D01*
X102211457Y-64109087D01*
X102270716Y-64330243D01*
X102273039Y-64335224D01*
X102273039Y-64335225D01*
X102365151Y-64532762D01*
X102365154Y-64532767D01*
X102367477Y-64537749D01*
X102498802Y-64725300D01*
X102660700Y-64887198D01*
X102665208Y-64890355D01*
X102665211Y-64890357D01*
X102716546Y-64926302D01*
X102848251Y-65018523D01*
X102853233Y-65020846D01*
X102853238Y-65020849D01*
X103050119Y-65112655D01*
X103055757Y-65115284D01*
X103061065Y-65116706D01*
X103061067Y-65116707D01*
X103271598Y-65173119D01*
X103271600Y-65173119D01*
X103276913Y-65174543D01*
X103505000Y-65194498D01*
X103733087Y-65174543D01*
X103738400Y-65173119D01*
X103738402Y-65173119D01*
X103948933Y-65116707D01*
X103948935Y-65116706D01*
X103954243Y-65115284D01*
X103959881Y-65112655D01*
X104156762Y-65020849D01*
X104156767Y-65020846D01*
X104161749Y-65018523D01*
X104293454Y-64926302D01*
X104344789Y-64890357D01*
X104344792Y-64890355D01*
X104349300Y-64887198D01*
X104511198Y-64725300D01*
X104642523Y-64537749D01*
X104644846Y-64532767D01*
X104644849Y-64532762D01*
X104736961Y-64335225D01*
X104736961Y-64335224D01*
X104739284Y-64330243D01*
X104798543Y-64109087D01*
X104818498Y-63881000D01*
X104798543Y-63652913D01*
X104782644Y-63593577D01*
X104740707Y-63437067D01*
X104740706Y-63437065D01*
X104739284Y-63431757D01*
X104735838Y-63424367D01*
X104644849Y-63229238D01*
X104644846Y-63229233D01*
X104642523Y-63224251D01*
X104528670Y-63061652D01*
X128015524Y-63061652D01*
X128017990Y-63070281D01*
X128017991Y-63070286D01*
X128023639Y-63090048D01*
X128027217Y-63106809D01*
X128030130Y-63127152D01*
X128030133Y-63127162D01*
X128031405Y-63136045D01*
X128042021Y-63159395D01*
X128048464Y-63176907D01*
X128055512Y-63201565D01*
X128071274Y-63226548D01*
X128079404Y-63241614D01*
X128091633Y-63268510D01*
X128108374Y-63287939D01*
X128119479Y-63302947D01*
X128133160Y-63324631D01*
X128139888Y-63330573D01*
X128155296Y-63344181D01*
X128167340Y-63356373D01*
X128186619Y-63378747D01*
X128194147Y-63383626D01*
X128194150Y-63383629D01*
X128208139Y-63392696D01*
X128223013Y-63403986D01*
X128242228Y-63420956D01*
X128250354Y-63424771D01*
X128250355Y-63424772D01*
X128254622Y-63426775D01*
X128268966Y-63433510D01*
X128283935Y-63441824D01*
X128308727Y-63457893D01*
X128325650Y-63462954D01*
X128333290Y-63465239D01*
X128350736Y-63471901D01*
X128373948Y-63482799D01*
X128403130Y-63487343D01*
X128419849Y-63491126D01*
X128439536Y-63497014D01*
X128439539Y-63497015D01*
X128448141Y-63499587D01*
X128457116Y-63499642D01*
X128457117Y-63499642D01*
X128463810Y-63499683D01*
X128482556Y-63499797D01*
X128483328Y-63499830D01*
X128484423Y-63500000D01*
X128515298Y-63500000D01*
X128516068Y-63500002D01*
X128589716Y-63500452D01*
X128589717Y-63500452D01*
X128593652Y-63500476D01*
X128594996Y-63500092D01*
X128596341Y-63500000D01*
X140199298Y-63500000D01*
X140200069Y-63500002D01*
X140277652Y-63500476D01*
X140286281Y-63498010D01*
X140286286Y-63498009D01*
X140306048Y-63492361D01*
X140322809Y-63488783D01*
X140343152Y-63485870D01*
X140343162Y-63485867D01*
X140352045Y-63484595D01*
X140375395Y-63473979D01*
X140392907Y-63467536D01*
X140408937Y-63462954D01*
X140417565Y-63460488D01*
X140442548Y-63444726D01*
X140457614Y-63436596D01*
X140484510Y-63424367D01*
X140503939Y-63407626D01*
X140518947Y-63396521D01*
X140533039Y-63387630D01*
X140540631Y-63382840D01*
X140560182Y-63360703D01*
X140572374Y-63348659D01*
X140587949Y-63335239D01*
X140587950Y-63335237D01*
X140594747Y-63329381D01*
X140599626Y-63321853D01*
X140599629Y-63321850D01*
X140608696Y-63307861D01*
X140619986Y-63292987D01*
X140631012Y-63280502D01*
X140636956Y-63273772D01*
X140649510Y-63247034D01*
X140657824Y-63232065D01*
X140673893Y-63207273D01*
X140681239Y-63182709D01*
X140687901Y-63165264D01*
X140694983Y-63150179D01*
X140698799Y-63142052D01*
X140703343Y-63112870D01*
X140707126Y-63096151D01*
X140713014Y-63076464D01*
X140713015Y-63076461D01*
X140715587Y-63067859D01*
X140715797Y-63033444D01*
X140715830Y-63032672D01*
X140716000Y-63031577D01*
X140716000Y-63000702D01*
X140716002Y-62999932D01*
X140716452Y-62926284D01*
X140716452Y-62926283D01*
X140716476Y-62922348D01*
X140716092Y-62921004D01*
X140716000Y-62919659D01*
X140716000Y-57404000D01*
X172041502Y-57404000D01*
X172061457Y-57632087D01*
X172062881Y-57637400D01*
X172062881Y-57637402D01*
X172115400Y-57833402D01*
X172120716Y-57853243D01*
X172123039Y-57858224D01*
X172123039Y-57858225D01*
X172215151Y-58055762D01*
X172215154Y-58055767D01*
X172217477Y-58060749D01*
X172348802Y-58248300D01*
X172510700Y-58410198D01*
X172515208Y-58413355D01*
X172515211Y-58413357D01*
X172593389Y-58468098D01*
X172698251Y-58541523D01*
X172703233Y-58543846D01*
X172703238Y-58543849D01*
X172900775Y-58635961D01*
X172905757Y-58638284D01*
X172911065Y-58639706D01*
X172911067Y-58639707D01*
X173121598Y-58696119D01*
X173121600Y-58696119D01*
X173126913Y-58697543D01*
X173355000Y-58717498D01*
X173583087Y-58697543D01*
X173588400Y-58696119D01*
X173588402Y-58696119D01*
X173798933Y-58639707D01*
X173798935Y-58639706D01*
X173804243Y-58638284D01*
X173809225Y-58635961D01*
X174006762Y-58543849D01*
X174006767Y-58543846D01*
X174011749Y-58541523D01*
X174116611Y-58468098D01*
X174194789Y-58413357D01*
X174194792Y-58413355D01*
X174199300Y-58410198D01*
X174361198Y-58248300D01*
X174492523Y-58060749D01*
X174494846Y-58055767D01*
X174494849Y-58055762D01*
X174568351Y-57898134D01*
X182941500Y-57898134D01*
X182948255Y-57960316D01*
X182999385Y-58096705D01*
X183086739Y-58213261D01*
X183203295Y-58300615D01*
X183339684Y-58351745D01*
X183401866Y-58358500D01*
X184898134Y-58358500D01*
X184960316Y-58351745D01*
X185096705Y-58300615D01*
X185213261Y-58213261D01*
X185300615Y-58096705D01*
X185351745Y-57960316D01*
X185358500Y-57898134D01*
X185358500Y-57150000D01*
X190556884Y-57150000D01*
X190575314Y-57360655D01*
X190576738Y-57365968D01*
X190576738Y-57365970D01*
X190582131Y-57386095D01*
X190630044Y-57564910D01*
X190632366Y-57569891D01*
X190632367Y-57569892D01*
X190663848Y-57637402D01*
X190719411Y-57756558D01*
X190840699Y-57929776D01*
X190990224Y-58079301D01*
X191163442Y-58200589D01*
X191168420Y-58202910D01*
X191168423Y-58202912D01*
X191343323Y-58284469D01*
X191355090Y-58289956D01*
X191360398Y-58291378D01*
X191360400Y-58291379D01*
X191554030Y-58343262D01*
X191554032Y-58343262D01*
X191559345Y-58344686D01*
X191770000Y-58363116D01*
X191980655Y-58344686D01*
X191985968Y-58343262D01*
X191985970Y-58343262D01*
X192179600Y-58291379D01*
X192179602Y-58291378D01*
X192184910Y-58289956D01*
X192196677Y-58284469D01*
X192371577Y-58202912D01*
X192371580Y-58202910D01*
X192376558Y-58200589D01*
X192549776Y-58079301D01*
X192699301Y-57929776D01*
X192820589Y-57756558D01*
X192876153Y-57637402D01*
X192907633Y-57569892D01*
X192907634Y-57569891D01*
X192909956Y-57564910D01*
X192957870Y-57386095D01*
X192963262Y-57365970D01*
X192963262Y-57365968D01*
X192964686Y-57360655D01*
X192983116Y-57150000D01*
X195626884Y-57150000D01*
X195645314Y-57360655D01*
X195646738Y-57365968D01*
X195646738Y-57365970D01*
X195652131Y-57386095D01*
X195700044Y-57564910D01*
X195702366Y-57569891D01*
X195702367Y-57569892D01*
X195733848Y-57637402D01*
X195789411Y-57756558D01*
X195910699Y-57929776D01*
X196060224Y-58079301D01*
X196233442Y-58200589D01*
X196238420Y-58202910D01*
X196238423Y-58202912D01*
X196413323Y-58284469D01*
X196425090Y-58289956D01*
X196430398Y-58291378D01*
X196430400Y-58291379D01*
X196624030Y-58343262D01*
X196624032Y-58343262D01*
X196629345Y-58344686D01*
X196840000Y-58363116D01*
X197050655Y-58344686D01*
X197055968Y-58343262D01*
X197055970Y-58343262D01*
X197249600Y-58291379D01*
X197249602Y-58291378D01*
X197254910Y-58289956D01*
X197266677Y-58284469D01*
X197441577Y-58202912D01*
X197441580Y-58202910D01*
X197446558Y-58200589D01*
X197619776Y-58079301D01*
X197769301Y-57929776D01*
X197890589Y-57756558D01*
X197946153Y-57637402D01*
X197977633Y-57569892D01*
X197977634Y-57569891D01*
X197979956Y-57564910D01*
X198027870Y-57386095D01*
X198033262Y-57365970D01*
X198033262Y-57365968D01*
X198034686Y-57360655D01*
X198053116Y-57150000D01*
X200716884Y-57150000D01*
X200735314Y-57360655D01*
X200736738Y-57365968D01*
X200736738Y-57365970D01*
X200742131Y-57386095D01*
X200790044Y-57564910D01*
X200792366Y-57569891D01*
X200792367Y-57569892D01*
X200823848Y-57637402D01*
X200879411Y-57756558D01*
X201000699Y-57929776D01*
X201150224Y-58079301D01*
X201323442Y-58200589D01*
X201328420Y-58202910D01*
X201328423Y-58202912D01*
X201503323Y-58284469D01*
X201515090Y-58289956D01*
X201520398Y-58291378D01*
X201520400Y-58291379D01*
X201714030Y-58343262D01*
X201714032Y-58343262D01*
X201719345Y-58344686D01*
X201930000Y-58363116D01*
X202140655Y-58344686D01*
X202145968Y-58343262D01*
X202145970Y-58343262D01*
X202339600Y-58291379D01*
X202339602Y-58291378D01*
X202344910Y-58289956D01*
X202356677Y-58284469D01*
X202531577Y-58202912D01*
X202531580Y-58202910D01*
X202536558Y-58200589D01*
X202709776Y-58079301D01*
X202859301Y-57929776D01*
X202980589Y-57756558D01*
X203036153Y-57637402D01*
X203067633Y-57569892D01*
X203067634Y-57569891D01*
X203069956Y-57564910D01*
X203117870Y-57386095D01*
X203123262Y-57365970D01*
X203123262Y-57365968D01*
X203124686Y-57360655D01*
X203143116Y-57150000D01*
X203124686Y-56939345D01*
X203121682Y-56928134D01*
X203071379Y-56740400D01*
X203071378Y-56740398D01*
X203069956Y-56735090D01*
X203016411Y-56620263D01*
X202982912Y-56548423D01*
X202982910Y-56548420D01*
X202980589Y-56543442D01*
X202859301Y-56370224D01*
X202709776Y-56220699D01*
X202536558Y-56099411D01*
X202531580Y-56097090D01*
X202531577Y-56097088D01*
X202349892Y-56012367D01*
X202349891Y-56012366D01*
X202344910Y-56010044D01*
X202339602Y-56008622D01*
X202339600Y-56008621D01*
X202145970Y-55956738D01*
X202145968Y-55956738D01*
X202140655Y-55955314D01*
X201930000Y-55936884D01*
X201719345Y-55955314D01*
X201714032Y-55956738D01*
X201714030Y-55956738D01*
X201520400Y-56008621D01*
X201520398Y-56008622D01*
X201515090Y-56010044D01*
X201510109Y-56012366D01*
X201510108Y-56012367D01*
X201328423Y-56097088D01*
X201328420Y-56097090D01*
X201323442Y-56099411D01*
X201150224Y-56220699D01*
X201000699Y-56370224D01*
X200879411Y-56543442D01*
X200877090Y-56548420D01*
X200877088Y-56548423D01*
X200843589Y-56620263D01*
X200790044Y-56735090D01*
X200788622Y-56740398D01*
X200788621Y-56740400D01*
X200738318Y-56928134D01*
X200735314Y-56939345D01*
X200716884Y-57150000D01*
X198053116Y-57150000D01*
X198034686Y-56939345D01*
X198031682Y-56928134D01*
X197981379Y-56740400D01*
X197981378Y-56740398D01*
X197979956Y-56735090D01*
X197926411Y-56620263D01*
X197892912Y-56548423D01*
X197892910Y-56548420D01*
X197890589Y-56543442D01*
X197769301Y-56370224D01*
X197619776Y-56220699D01*
X197446558Y-56099411D01*
X197441580Y-56097090D01*
X197441577Y-56097088D01*
X197259892Y-56012367D01*
X197259891Y-56012366D01*
X197254910Y-56010044D01*
X197249602Y-56008622D01*
X197249600Y-56008621D01*
X197055970Y-55956738D01*
X197055968Y-55956738D01*
X197050655Y-55955314D01*
X196840000Y-55936884D01*
X196629345Y-55955314D01*
X196624032Y-55956738D01*
X196624030Y-55956738D01*
X196430400Y-56008621D01*
X196430398Y-56008622D01*
X196425090Y-56010044D01*
X196420109Y-56012366D01*
X196420108Y-56012367D01*
X196238423Y-56097088D01*
X196238420Y-56097090D01*
X196233442Y-56099411D01*
X196060224Y-56220699D01*
X195910699Y-56370224D01*
X195789411Y-56543442D01*
X195787090Y-56548420D01*
X195787088Y-56548423D01*
X195753589Y-56620263D01*
X195700044Y-56735090D01*
X195698622Y-56740398D01*
X195698621Y-56740400D01*
X195648318Y-56928134D01*
X195645314Y-56939345D01*
X195626884Y-57150000D01*
X192983116Y-57150000D01*
X192964686Y-56939345D01*
X192961682Y-56928134D01*
X192911379Y-56740400D01*
X192911378Y-56740398D01*
X192909956Y-56735090D01*
X192856411Y-56620263D01*
X192822912Y-56548423D01*
X192822910Y-56548420D01*
X192820589Y-56543442D01*
X192699301Y-56370224D01*
X192549776Y-56220699D01*
X192376558Y-56099411D01*
X192371580Y-56097090D01*
X192371577Y-56097088D01*
X192189892Y-56012367D01*
X192189891Y-56012366D01*
X192184910Y-56010044D01*
X192179602Y-56008622D01*
X192179600Y-56008621D01*
X191985970Y-55956738D01*
X191985968Y-55956738D01*
X191980655Y-55955314D01*
X191770000Y-55936884D01*
X191559345Y-55955314D01*
X191554032Y-55956738D01*
X191554030Y-55956738D01*
X191360400Y-56008621D01*
X191360398Y-56008622D01*
X191355090Y-56010044D01*
X191350109Y-56012366D01*
X191350108Y-56012367D01*
X191168423Y-56097088D01*
X191168420Y-56097090D01*
X191163442Y-56099411D01*
X190990224Y-56220699D01*
X190840699Y-56370224D01*
X190719411Y-56543442D01*
X190717090Y-56548420D01*
X190717088Y-56548423D01*
X190683589Y-56620263D01*
X190630044Y-56735090D01*
X190628622Y-56740398D01*
X190628621Y-56740400D01*
X190578318Y-56928134D01*
X190575314Y-56939345D01*
X190556884Y-57150000D01*
X185358500Y-57150000D01*
X185358500Y-56401866D01*
X185351745Y-56339684D01*
X185300615Y-56203295D01*
X185213261Y-56086739D01*
X185096705Y-55999385D01*
X184960316Y-55948255D01*
X184898134Y-55941500D01*
X183401866Y-55941500D01*
X183339684Y-55948255D01*
X183203295Y-55999385D01*
X183086739Y-56086739D01*
X182999385Y-56203295D01*
X182948255Y-56339684D01*
X182941500Y-56401866D01*
X182941500Y-57898134D01*
X174568351Y-57898134D01*
X174586961Y-57858225D01*
X174586961Y-57858224D01*
X174589284Y-57853243D01*
X174594601Y-57833402D01*
X174647119Y-57637402D01*
X174647119Y-57637400D01*
X174648543Y-57632087D01*
X174668498Y-57404000D01*
X174648543Y-57175913D01*
X174647070Y-57170416D01*
X174590707Y-56960067D01*
X174590706Y-56960065D01*
X174589284Y-56954757D01*
X174542220Y-56853827D01*
X174494849Y-56752238D01*
X174494846Y-56752233D01*
X174492523Y-56747251D01*
X174361198Y-56559700D01*
X174199300Y-56397802D01*
X174194792Y-56394645D01*
X174194789Y-56394643D01*
X174089027Y-56320588D01*
X174011749Y-56266477D01*
X174006767Y-56264154D01*
X174006762Y-56264151D01*
X173809225Y-56172039D01*
X173809224Y-56172039D01*
X173804243Y-56169716D01*
X173798935Y-56168294D01*
X173798933Y-56168293D01*
X173588402Y-56111881D01*
X173588400Y-56111881D01*
X173583087Y-56110457D01*
X173355000Y-56090502D01*
X173126913Y-56110457D01*
X173121600Y-56111881D01*
X173121598Y-56111881D01*
X172911067Y-56168293D01*
X172911065Y-56168294D01*
X172905757Y-56169716D01*
X172900776Y-56172039D01*
X172900775Y-56172039D01*
X172703238Y-56264151D01*
X172703233Y-56264154D01*
X172698251Y-56266477D01*
X172620973Y-56320588D01*
X172515211Y-56394643D01*
X172515208Y-56394645D01*
X172510700Y-56397802D01*
X172348802Y-56559700D01*
X172217477Y-56747251D01*
X172215154Y-56752233D01*
X172215151Y-56752238D01*
X172167780Y-56853827D01*
X172120716Y-56954757D01*
X172119294Y-56960065D01*
X172119293Y-56960067D01*
X172062930Y-57170416D01*
X172061457Y-57175913D01*
X172041502Y-57404000D01*
X140716000Y-57404000D01*
X140716000Y-54188134D01*
X152107500Y-54188134D01*
X152114255Y-54250316D01*
X152165385Y-54386705D01*
X152252739Y-54503261D01*
X152369295Y-54590615D01*
X152505684Y-54641745D01*
X152567866Y-54648500D01*
X154264134Y-54648500D01*
X154326316Y-54641745D01*
X154462705Y-54590615D01*
X154579261Y-54503261D01*
X154666615Y-54386705D01*
X154717745Y-54250316D01*
X154724500Y-54188134D01*
X154724500Y-52491866D01*
X154717745Y-52429684D01*
X154666615Y-52293295D01*
X154579261Y-52176739D01*
X154462705Y-52089385D01*
X154326316Y-52038255D01*
X154264134Y-52031500D01*
X152567866Y-52031500D01*
X152505684Y-52038255D01*
X152369295Y-52089385D01*
X152252739Y-52176739D01*
X152165385Y-52293295D01*
X152114255Y-52429684D01*
X152107500Y-52491866D01*
X152107500Y-54188134D01*
X140716000Y-54188134D01*
X140716000Y-50470134D01*
X159889500Y-50470134D01*
X159896255Y-50532316D01*
X159947385Y-50668705D01*
X160034739Y-50785261D01*
X160151295Y-50872615D01*
X160287684Y-50923745D01*
X160349866Y-50930500D01*
X163246134Y-50930500D01*
X163308316Y-50923745D01*
X163444705Y-50872615D01*
X163561261Y-50785261D01*
X163648615Y-50668705D01*
X163699745Y-50532316D01*
X163706500Y-50470134D01*
X163706500Y-49530000D01*
X190556884Y-49530000D01*
X190575314Y-49740655D01*
X190576738Y-49745968D01*
X190576738Y-49745970D01*
X190627365Y-49934910D01*
X190630044Y-49944910D01*
X190632366Y-49949891D01*
X190632367Y-49949892D01*
X190716849Y-50131063D01*
X190719411Y-50136558D01*
X190840699Y-50309776D01*
X190990224Y-50459301D01*
X191163442Y-50580589D01*
X191168420Y-50582910D01*
X191168423Y-50582912D01*
X191350108Y-50667633D01*
X191355090Y-50669956D01*
X191360398Y-50671378D01*
X191360400Y-50671379D01*
X191554030Y-50723262D01*
X191554032Y-50723262D01*
X191559345Y-50724686D01*
X191770000Y-50743116D01*
X191980655Y-50724686D01*
X191985968Y-50723262D01*
X191985970Y-50723262D01*
X192179600Y-50671379D01*
X192179602Y-50671378D01*
X192184910Y-50669956D01*
X192189892Y-50667633D01*
X192371577Y-50582912D01*
X192371580Y-50582910D01*
X192376558Y-50580589D01*
X192549776Y-50459301D01*
X192699301Y-50309776D01*
X192820589Y-50136558D01*
X192823152Y-50131063D01*
X192907633Y-49949892D01*
X192907634Y-49949891D01*
X192909956Y-49944910D01*
X192912636Y-49934910D01*
X192963262Y-49745970D01*
X192963262Y-49745968D01*
X192964686Y-49740655D01*
X192983116Y-49530000D01*
X192982241Y-49520000D01*
X195646884Y-49520000D01*
X195665314Y-49730655D01*
X195666738Y-49735968D01*
X195666738Y-49735970D01*
X195708259Y-49890926D01*
X195720044Y-49934910D01*
X195722366Y-49939891D01*
X195722367Y-49939892D01*
X195795965Y-50097722D01*
X195809411Y-50126558D01*
X195930699Y-50299776D01*
X196080224Y-50449301D01*
X196253442Y-50570589D01*
X196258420Y-50572910D01*
X196258423Y-50572912D01*
X196407267Y-50642319D01*
X196445090Y-50659956D01*
X196450398Y-50661378D01*
X196450400Y-50661379D01*
X196644030Y-50713262D01*
X196644032Y-50713262D01*
X196649345Y-50714686D01*
X196860000Y-50733116D01*
X197070655Y-50714686D01*
X197075968Y-50713262D01*
X197075970Y-50713262D01*
X197269600Y-50661379D01*
X197269602Y-50661378D01*
X197274910Y-50659956D01*
X197312733Y-50642319D01*
X197461577Y-50572912D01*
X197461580Y-50572910D01*
X197466558Y-50570589D01*
X197639776Y-50449301D01*
X197789301Y-50299776D01*
X197910589Y-50126558D01*
X197924036Y-50097722D01*
X197997633Y-49939892D01*
X197997634Y-49939891D01*
X197999956Y-49934910D01*
X198011742Y-49890926D01*
X198053262Y-49735970D01*
X198053262Y-49735968D01*
X198054686Y-49730655D01*
X198073116Y-49520000D01*
X198054686Y-49309345D01*
X198004058Y-49120400D01*
X198001379Y-49110400D01*
X198001378Y-49110398D01*
X197999956Y-49105090D01*
X197997633Y-49100108D01*
X197912912Y-48918423D01*
X197912910Y-48918420D01*
X197910589Y-48913442D01*
X197789301Y-48740224D01*
X197639776Y-48590699D01*
X197466558Y-48469411D01*
X197461580Y-48467090D01*
X197461577Y-48467088D01*
X197302058Y-48392703D01*
X205500743Y-48392703D01*
X205538268Y-48677734D01*
X205539401Y-48681874D01*
X205539401Y-48681876D01*
X205543687Y-48697543D01*
X205614129Y-48955036D01*
X205615813Y-48958984D01*
X205699372Y-49154883D01*
X205726923Y-49219476D01*
X205874561Y-49466161D01*
X206054313Y-49690528D01*
X206112737Y-49745970D01*
X206247405Y-49873765D01*
X206262851Y-49888423D01*
X206366602Y-49962976D01*
X206488829Y-50050805D01*
X206496317Y-50056186D01*
X206500112Y-50058195D01*
X206500113Y-50058196D01*
X206521869Y-50069715D01*
X206750392Y-50190712D01*
X207020373Y-50289511D01*
X207301264Y-50350755D01*
X207329841Y-50353004D01*
X207524282Y-50368307D01*
X207524291Y-50368307D01*
X207526739Y-50368500D01*
X207682271Y-50368500D01*
X207684407Y-50368354D01*
X207684418Y-50368354D01*
X207892548Y-50354165D01*
X207892554Y-50354164D01*
X207896825Y-50353873D01*
X207901020Y-50353004D01*
X207901022Y-50353004D01*
X208090954Y-50313671D01*
X208178342Y-50295574D01*
X208449343Y-50199607D01*
X208582145Y-50131063D01*
X208701005Y-50069715D01*
X208701006Y-50069715D01*
X208704812Y-50067750D01*
X208708313Y-50065289D01*
X208708317Y-50065287D01*
X208872507Y-49949892D01*
X208940023Y-49902441D01*
X209108406Y-49745970D01*
X209147479Y-49709661D01*
X209147481Y-49709658D01*
X209150622Y-49706740D01*
X209332713Y-49484268D01*
X209482927Y-49239142D01*
X209598483Y-48975898D01*
X209677244Y-48699406D01*
X209717751Y-48414784D01*
X209717776Y-48410198D01*
X209719235Y-48131583D01*
X209719235Y-48131576D01*
X209719257Y-48127297D01*
X209710212Y-48058589D01*
X209695957Y-47950319D01*
X209681732Y-47842266D01*
X209605871Y-47564964D01*
X209579905Y-47504088D01*
X209494763Y-47304476D01*
X209494761Y-47304472D01*
X209493077Y-47300524D01*
X209413902Y-47168233D01*
X209347643Y-47057521D01*
X209347640Y-47057517D01*
X209345439Y-47053839D01*
X209165687Y-46829472D01*
X208957149Y-46631577D01*
X208723683Y-46463814D01*
X208701843Y-46452250D01*
X208599008Y-46397802D01*
X208469608Y-46329288D01*
X208216605Y-46236702D01*
X208203658Y-46231964D01*
X208203656Y-46231963D01*
X208199627Y-46230489D01*
X207918736Y-46169245D01*
X207887685Y-46166801D01*
X207695718Y-46151693D01*
X207695709Y-46151693D01*
X207693261Y-46151500D01*
X207537729Y-46151500D01*
X207535593Y-46151646D01*
X207535582Y-46151646D01*
X207327452Y-46165835D01*
X207327446Y-46165836D01*
X207323175Y-46166127D01*
X207318980Y-46166996D01*
X207318978Y-46166996D01*
X207224575Y-46186546D01*
X207041658Y-46224426D01*
X206770657Y-46320393D01*
X206766848Y-46322359D01*
X206523136Y-46448148D01*
X206515188Y-46452250D01*
X206511687Y-46454711D01*
X206511683Y-46454713D01*
X206505905Y-46458774D01*
X206279977Y-46617559D01*
X206264892Y-46631577D01*
X206152520Y-46736000D01*
X206069378Y-46813260D01*
X205887287Y-47035732D01*
X205737073Y-47280858D01*
X205735347Y-47284791D01*
X205735346Y-47284792D01*
X205632299Y-47519540D01*
X205621517Y-47544102D01*
X205620342Y-47548229D01*
X205620341Y-47548230D01*
X205616699Y-47561016D01*
X205542756Y-47820594D01*
X205512485Y-48033296D01*
X205503216Y-48098424D01*
X205502249Y-48105216D01*
X205502227Y-48109505D01*
X205502226Y-48109512D01*
X205500809Y-48380044D01*
X205500743Y-48392703D01*
X197302058Y-48392703D01*
X197279892Y-48382367D01*
X197279891Y-48382366D01*
X197274910Y-48380044D01*
X197269602Y-48378622D01*
X197269600Y-48378621D01*
X197075970Y-48326738D01*
X197075968Y-48326738D01*
X197070655Y-48325314D01*
X196860000Y-48306884D01*
X196649345Y-48325314D01*
X196644032Y-48326738D01*
X196644030Y-48326738D01*
X196450400Y-48378621D01*
X196450398Y-48378622D01*
X196445090Y-48380044D01*
X196440109Y-48382366D01*
X196440108Y-48382367D01*
X196258423Y-48467088D01*
X196258420Y-48467090D01*
X196253442Y-48469411D01*
X196080224Y-48590699D01*
X195930699Y-48740224D01*
X195809411Y-48913442D01*
X195807090Y-48918420D01*
X195807088Y-48918423D01*
X195722367Y-49100108D01*
X195720044Y-49105090D01*
X195718622Y-49110398D01*
X195718621Y-49110400D01*
X195715942Y-49120400D01*
X195665314Y-49309345D01*
X195646884Y-49520000D01*
X192982241Y-49520000D01*
X192964686Y-49319345D01*
X192962007Y-49309345D01*
X192911379Y-49120400D01*
X192911378Y-49120398D01*
X192909956Y-49115090D01*
X192907633Y-49110108D01*
X192822912Y-48928423D01*
X192822910Y-48928420D01*
X192820589Y-48923442D01*
X192699301Y-48750224D01*
X192549776Y-48600699D01*
X192376558Y-48479411D01*
X192371580Y-48477090D01*
X192371577Y-48477088D01*
X192189892Y-48392367D01*
X192189891Y-48392366D01*
X192184910Y-48390044D01*
X192179602Y-48388622D01*
X192179600Y-48388621D01*
X191985970Y-48336738D01*
X191985968Y-48336738D01*
X191980655Y-48335314D01*
X191770000Y-48316884D01*
X191559345Y-48335314D01*
X191554032Y-48336738D01*
X191554030Y-48336738D01*
X191360400Y-48388621D01*
X191360398Y-48388622D01*
X191355090Y-48390044D01*
X191350109Y-48392366D01*
X191350108Y-48392367D01*
X191168423Y-48477088D01*
X191168420Y-48477090D01*
X191163442Y-48479411D01*
X190990224Y-48600699D01*
X190840699Y-48750224D01*
X190719411Y-48923442D01*
X190717090Y-48928420D01*
X190717088Y-48928423D01*
X190632367Y-49110108D01*
X190630044Y-49115090D01*
X190628622Y-49120398D01*
X190628621Y-49120400D01*
X190577993Y-49309345D01*
X190575314Y-49319345D01*
X190556884Y-49530000D01*
X163706500Y-49530000D01*
X163706500Y-47573866D01*
X163699745Y-47511684D01*
X163659376Y-47404000D01*
X172041502Y-47404000D01*
X172061457Y-47632087D01*
X172062881Y-47637400D01*
X172062881Y-47637402D01*
X172118980Y-47846763D01*
X172120716Y-47853243D01*
X172123039Y-47858224D01*
X172123039Y-47858225D01*
X172215151Y-48055762D01*
X172215154Y-48055767D01*
X172217477Y-48060749D01*
X172348802Y-48248300D01*
X172510700Y-48410198D01*
X172515208Y-48413355D01*
X172515211Y-48413357D01*
X172591947Y-48467088D01*
X172698251Y-48541523D01*
X172703233Y-48543846D01*
X172703238Y-48543849D01*
X172900775Y-48635961D01*
X172905757Y-48638284D01*
X172911065Y-48639706D01*
X172911067Y-48639707D01*
X173121598Y-48696119D01*
X173121600Y-48696119D01*
X173126913Y-48697543D01*
X173355000Y-48717498D01*
X173583087Y-48697543D01*
X173588400Y-48696119D01*
X173588402Y-48696119D01*
X173798933Y-48639707D01*
X173798935Y-48639706D01*
X173804243Y-48638284D01*
X173809225Y-48635961D01*
X174006762Y-48543849D01*
X174006767Y-48543846D01*
X174011749Y-48541523D01*
X174118053Y-48467088D01*
X174194789Y-48413357D01*
X174194792Y-48413355D01*
X174199300Y-48410198D01*
X174361198Y-48248300D01*
X174492523Y-48060749D01*
X174494846Y-48055767D01*
X174494849Y-48055762D01*
X174586961Y-47858225D01*
X174586961Y-47858224D01*
X174589284Y-47853243D01*
X174591021Y-47846763D01*
X174647119Y-47637402D01*
X174647119Y-47637400D01*
X174648543Y-47632087D01*
X174668498Y-47404000D01*
X174648543Y-47175913D01*
X174634373Y-47123029D01*
X174598728Y-46990000D01*
X178156496Y-46990000D01*
X178157186Y-46996565D01*
X178170097Y-47119402D01*
X178176458Y-47179928D01*
X178235473Y-47361556D01*
X178238776Y-47367278D01*
X178238777Y-47367279D01*
X178262553Y-47408460D01*
X178330960Y-47526944D01*
X178335378Y-47531851D01*
X178335379Y-47531852D01*
X178365193Y-47564964D01*
X178458747Y-47668866D01*
X178613248Y-47781118D01*
X178619276Y-47783802D01*
X178619278Y-47783803D01*
X178775244Y-47853243D01*
X178787712Y-47858794D01*
X178881112Y-47878647D01*
X178968056Y-47897128D01*
X178968061Y-47897128D01*
X178974513Y-47898500D01*
X179165487Y-47898500D01*
X179171939Y-47897128D01*
X179171944Y-47897128D01*
X179258888Y-47878647D01*
X179352288Y-47858794D01*
X179364756Y-47853243D01*
X179520722Y-47783803D01*
X179520724Y-47783802D01*
X179526752Y-47781118D01*
X179681253Y-47668866D01*
X179774807Y-47564964D01*
X179804621Y-47531852D01*
X179804622Y-47531851D01*
X179809040Y-47526944D01*
X179877447Y-47408460D01*
X179901223Y-47367279D01*
X179901224Y-47367278D01*
X179904527Y-47361556D01*
X179963542Y-47179928D01*
X179969904Y-47119402D01*
X179982814Y-46996565D01*
X179983504Y-46990000D01*
X179963542Y-46800072D01*
X179904527Y-46618444D01*
X179873216Y-46564211D01*
X179867314Y-46553990D01*
X179809040Y-46453056D01*
X179681253Y-46311134D01*
X179526752Y-46198882D01*
X179520724Y-46196198D01*
X179520722Y-46196197D01*
X179358319Y-46123891D01*
X179358318Y-46123891D01*
X179352288Y-46121206D01*
X179258887Y-46101353D01*
X179171944Y-46082872D01*
X179171939Y-46082872D01*
X179165487Y-46081500D01*
X178974513Y-46081500D01*
X178968061Y-46082872D01*
X178968056Y-46082872D01*
X178881112Y-46101353D01*
X178787712Y-46121206D01*
X178781682Y-46123891D01*
X178781681Y-46123891D01*
X178619278Y-46196197D01*
X178619276Y-46196198D01*
X178613248Y-46198882D01*
X178458747Y-46311134D01*
X178330960Y-46453056D01*
X178272686Y-46553990D01*
X178266785Y-46564211D01*
X178235473Y-46618444D01*
X178176458Y-46800072D01*
X178156496Y-46990000D01*
X174598728Y-46990000D01*
X174590707Y-46960067D01*
X174590706Y-46960065D01*
X174589284Y-46954757D01*
X174586961Y-46949775D01*
X174494849Y-46752238D01*
X174494846Y-46752233D01*
X174492523Y-46747251D01*
X174402331Y-46618444D01*
X174364357Y-46564211D01*
X174364355Y-46564208D01*
X174361198Y-46559700D01*
X174199300Y-46397802D01*
X174194792Y-46394645D01*
X174194789Y-46394643D01*
X174099346Y-46327813D01*
X174011749Y-46266477D01*
X174006767Y-46264154D01*
X174006762Y-46264151D01*
X173809225Y-46172039D01*
X173809224Y-46172039D01*
X173804243Y-46169716D01*
X173798935Y-46168294D01*
X173798933Y-46168293D01*
X173588402Y-46111881D01*
X173588400Y-46111881D01*
X173583087Y-46110457D01*
X173355000Y-46090502D01*
X173126913Y-46110457D01*
X173121600Y-46111881D01*
X173121598Y-46111881D01*
X172911067Y-46168293D01*
X172911065Y-46168294D01*
X172905757Y-46169716D01*
X172900776Y-46172039D01*
X172900775Y-46172039D01*
X172703238Y-46264151D01*
X172703233Y-46264154D01*
X172698251Y-46266477D01*
X172610654Y-46327813D01*
X172515211Y-46394643D01*
X172515208Y-46394645D01*
X172510700Y-46397802D01*
X172348802Y-46559700D01*
X172345645Y-46564208D01*
X172345643Y-46564211D01*
X172307669Y-46618444D01*
X172217477Y-46747251D01*
X172215154Y-46752233D01*
X172215151Y-46752238D01*
X172123039Y-46949775D01*
X172120716Y-46954757D01*
X172119294Y-46960065D01*
X172119293Y-46960067D01*
X172075627Y-47123029D01*
X172061457Y-47175913D01*
X172041502Y-47404000D01*
X163659376Y-47404000D01*
X163648615Y-47375295D01*
X163561261Y-47258739D01*
X163444705Y-47171385D01*
X163308316Y-47120255D01*
X163246134Y-47113500D01*
X160349866Y-47113500D01*
X160287684Y-47120255D01*
X160151295Y-47171385D01*
X160034739Y-47258739D01*
X159947385Y-47375295D01*
X159896255Y-47511684D01*
X159889500Y-47573866D01*
X159889500Y-50470134D01*
X140716000Y-50470134D01*
X140716000Y-46236702D01*
X140716002Y-46235932D01*
X140716404Y-46170158D01*
X140716476Y-46158348D01*
X140714010Y-46149719D01*
X140714009Y-46149714D01*
X140708361Y-46129952D01*
X140704783Y-46113191D01*
X140701870Y-46092848D01*
X140701867Y-46092838D01*
X140700595Y-46083955D01*
X140689979Y-46060605D01*
X140683536Y-46043093D01*
X140678954Y-46027063D01*
X140676488Y-46018435D01*
X140660726Y-45993452D01*
X140652596Y-45978386D01*
X140640367Y-45951490D01*
X140623626Y-45932061D01*
X140612521Y-45917053D01*
X140603630Y-45902961D01*
X140598840Y-45895369D01*
X140576703Y-45875818D01*
X140564659Y-45863626D01*
X140551239Y-45848051D01*
X140551237Y-45848050D01*
X140545381Y-45841253D01*
X140537853Y-45836374D01*
X140537850Y-45836371D01*
X140523861Y-45827304D01*
X140508987Y-45816014D01*
X140496502Y-45804988D01*
X140489772Y-45799044D01*
X140481646Y-45795229D01*
X140481645Y-45795228D01*
X140475979Y-45792568D01*
X140463034Y-45786490D01*
X140448065Y-45778176D01*
X140423273Y-45762107D01*
X140398709Y-45754761D01*
X140381264Y-45748099D01*
X140376827Y-45746016D01*
X140358052Y-45737201D01*
X140328870Y-45732657D01*
X140312151Y-45728874D01*
X140292464Y-45722986D01*
X140292461Y-45722985D01*
X140283859Y-45720413D01*
X140274884Y-45720358D01*
X140274883Y-45720358D01*
X140268190Y-45720317D01*
X140249444Y-45720203D01*
X140248672Y-45720170D01*
X140247577Y-45720000D01*
X140216702Y-45720000D01*
X140215932Y-45719998D01*
X140142284Y-45719548D01*
X140142283Y-45719548D01*
X140138348Y-45719524D01*
X140137004Y-45719908D01*
X140135659Y-45720000D01*
X128532702Y-45720000D01*
X128531932Y-45719998D01*
X128531078Y-45719993D01*
X128454348Y-45719524D01*
X128445719Y-45721990D01*
X128445714Y-45721991D01*
X128425952Y-45727639D01*
X128409191Y-45731217D01*
X128388848Y-45734130D01*
X128388838Y-45734133D01*
X128379955Y-45735405D01*
X128356605Y-45746021D01*
X128339093Y-45752464D01*
X128331057Y-45754761D01*
X128314435Y-45759512D01*
X128289452Y-45775274D01*
X128274386Y-45783404D01*
X128247490Y-45795633D01*
X128228061Y-45812374D01*
X128213053Y-45823479D01*
X128191369Y-45837160D01*
X128185427Y-45843888D01*
X128171819Y-45859296D01*
X128159627Y-45871340D01*
X128137253Y-45890619D01*
X128132374Y-45898147D01*
X128132371Y-45898150D01*
X128123304Y-45912139D01*
X128112014Y-45927013D01*
X128095044Y-45946228D01*
X128082490Y-45972966D01*
X128074176Y-45987935D01*
X128058107Y-46012727D01*
X128055535Y-46021327D01*
X128050761Y-46037290D01*
X128044099Y-46054736D01*
X128033201Y-46077948D01*
X128028658Y-46107128D01*
X128024874Y-46123849D01*
X128018986Y-46143536D01*
X128018985Y-46143539D01*
X128016413Y-46152141D01*
X128016311Y-46168909D01*
X128016203Y-46186546D01*
X128016170Y-46187328D01*
X128016000Y-46188423D01*
X128016000Y-46219298D01*
X128015998Y-46220068D01*
X128015524Y-46297652D01*
X128015908Y-46298996D01*
X128016000Y-46300341D01*
X128016000Y-62983298D01*
X128015998Y-62984068D01*
X128015524Y-63061652D01*
X104528670Y-63061652D01*
X104511198Y-63036700D01*
X104349300Y-62874802D01*
X104344792Y-62871645D01*
X104344789Y-62871643D01*
X104208239Y-62776030D01*
X104161749Y-62743477D01*
X104156767Y-62741154D01*
X104156762Y-62741151D01*
X103959225Y-62649039D01*
X103959224Y-62649039D01*
X103954243Y-62646716D01*
X103948935Y-62645294D01*
X103948933Y-62645293D01*
X103738402Y-62588881D01*
X103738400Y-62588881D01*
X103733087Y-62587457D01*
X103505000Y-62567502D01*
X103276913Y-62587457D01*
X103271600Y-62588881D01*
X103271598Y-62588881D01*
X103061067Y-62645293D01*
X103061065Y-62645294D01*
X103055757Y-62646716D01*
X103050776Y-62649039D01*
X103050775Y-62649039D01*
X102853238Y-62741151D01*
X102853233Y-62741154D01*
X102848251Y-62743477D01*
X102801761Y-62776030D01*
X102665211Y-62871643D01*
X102665208Y-62871645D01*
X102660700Y-62874802D01*
X102498802Y-63036700D01*
X102367477Y-63224251D01*
X102365154Y-63229233D01*
X102365151Y-63229238D01*
X102274162Y-63424367D01*
X102270716Y-63431757D01*
X102269294Y-63437065D01*
X102269293Y-63437067D01*
X102227356Y-63593577D01*
X102211457Y-63652913D01*
X102191502Y-63881000D01*
X81973077Y-63881000D01*
X82082301Y-63771776D01*
X82203589Y-63598558D01*
X82249326Y-63500476D01*
X82290633Y-63411892D01*
X82290634Y-63411891D01*
X82292956Y-63406910D01*
X82313411Y-63330573D01*
X82346262Y-63207970D01*
X82346262Y-63207968D01*
X82347686Y-63202655D01*
X82366116Y-62992000D01*
X82347686Y-62781345D01*
X82311231Y-62645293D01*
X82294379Y-62582400D01*
X82294378Y-62582398D01*
X82292956Y-62577090D01*
X82290633Y-62572108D01*
X82205912Y-62390423D01*
X82205910Y-62390420D01*
X82203589Y-62385442D01*
X82082301Y-62212224D01*
X81932776Y-62062699D01*
X81759558Y-61941411D01*
X81754580Y-61939090D01*
X81754577Y-61939088D01*
X81572892Y-61854367D01*
X81572891Y-61854366D01*
X81567910Y-61852044D01*
X81562602Y-61850622D01*
X81562600Y-61850621D01*
X81368970Y-61798738D01*
X81368968Y-61798738D01*
X81363655Y-61797314D01*
X81153000Y-61778884D01*
X80942345Y-61797314D01*
X80937032Y-61798738D01*
X80937030Y-61798738D01*
X80743400Y-61850621D01*
X80743398Y-61850622D01*
X80738090Y-61852044D01*
X80733109Y-61854366D01*
X80733108Y-61854367D01*
X80551423Y-61939088D01*
X80551420Y-61939090D01*
X80546442Y-61941411D01*
X80373224Y-62062699D01*
X80223699Y-62212224D01*
X80102411Y-62385442D01*
X80100090Y-62390420D01*
X80100088Y-62390423D01*
X80015367Y-62572108D01*
X80013044Y-62577090D01*
X80011622Y-62582398D01*
X80011621Y-62582400D01*
X79994769Y-62645293D01*
X79958314Y-62781345D01*
X79939884Y-62992000D01*
X61982903Y-62992000D01*
X61982019Y-60584134D01*
X70999318Y-60584134D01*
X71006073Y-60646316D01*
X71057203Y-60782705D01*
X71144557Y-60899261D01*
X71261113Y-60986615D01*
X71397502Y-61037745D01*
X71459684Y-61044500D01*
X73755952Y-61044500D01*
X73818134Y-61037745D01*
X73954523Y-60986615D01*
X74071079Y-60899261D01*
X74158433Y-60782705D01*
X74209563Y-60646316D01*
X74216318Y-60584134D01*
X74216318Y-58287866D01*
X74209563Y-58225684D01*
X74158433Y-58089295D01*
X74071079Y-57972739D01*
X73954523Y-57885385D01*
X73818134Y-57834255D01*
X73755952Y-57827500D01*
X71459684Y-57827500D01*
X71397502Y-57834255D01*
X71261113Y-57885385D01*
X71144557Y-57972739D01*
X71057203Y-58089295D01*
X71006073Y-58225684D01*
X70999318Y-58287866D01*
X70999318Y-60584134D01*
X61982019Y-60584134D01*
X61980984Y-57763918D01*
X119111917Y-57763918D01*
X119127682Y-58037320D01*
X119128507Y-58041525D01*
X119128508Y-58041533D01*
X119140787Y-58104117D01*
X119180405Y-58306053D01*
X119181792Y-58310103D01*
X119181793Y-58310108D01*
X119261821Y-58543849D01*
X119269112Y-58565144D01*
X119392160Y-58809799D01*
X119394586Y-58813328D01*
X119394589Y-58813334D01*
X119544843Y-59031953D01*
X119547274Y-59035490D01*
X119731582Y-59238043D01*
X119941675Y-59413707D01*
X119945316Y-59415991D01*
X120170024Y-59556951D01*
X120170028Y-59556953D01*
X120173664Y-59559234D01*
X120276949Y-59605869D01*
X120419345Y-59670164D01*
X120419349Y-59670166D01*
X120423257Y-59671930D01*
X120427377Y-59673150D01*
X120427376Y-59673150D01*
X120681723Y-59748491D01*
X120681727Y-59748492D01*
X120685836Y-59749709D01*
X120690070Y-59750357D01*
X120690075Y-59750358D01*
X120952298Y-59790483D01*
X120952300Y-59790483D01*
X120956540Y-59791132D01*
X121095912Y-59793322D01*
X121226071Y-59795367D01*
X121226077Y-59795367D01*
X121230362Y-59795434D01*
X121502235Y-59762534D01*
X121767127Y-59693041D01*
X121771087Y-59691401D01*
X121771092Y-59691399D01*
X121962161Y-59612255D01*
X122020136Y-59588241D01*
X122256582Y-59450073D01*
X122472089Y-59281094D01*
X122513809Y-59238043D01*
X122659686Y-59087509D01*
X122662669Y-59084431D01*
X122665202Y-59080983D01*
X122665206Y-59080978D01*
X122822257Y-58867178D01*
X122824795Y-58863723D01*
X122852154Y-58813334D01*
X122953418Y-58626830D01*
X122953419Y-58626828D01*
X122955468Y-58623054D01*
X123034706Y-58413357D01*
X123050751Y-58370895D01*
X123050752Y-58370891D01*
X123052269Y-58366877D01*
X123090354Y-58200589D01*
X123112449Y-58104117D01*
X123112450Y-58104113D01*
X123113407Y-58099933D01*
X123114357Y-58089295D01*
X123137531Y-57829627D01*
X123137531Y-57829625D01*
X123137751Y-57827161D01*
X123138193Y-57785000D01*
X123136254Y-57756558D01*
X123119859Y-57516055D01*
X123119858Y-57516049D01*
X123119567Y-57511778D01*
X123064032Y-57243612D01*
X122972617Y-56985465D01*
X122933036Y-56908778D01*
X122848978Y-56745919D01*
X122848978Y-56745918D01*
X122847013Y-56742112D01*
X122838577Y-56730108D01*
X122716073Y-56555803D01*
X122689545Y-56518057D01*
X122584749Y-56405283D01*
X122506046Y-56320588D01*
X122506043Y-56320585D01*
X122503125Y-56317445D01*
X122499810Y-56314731D01*
X122499806Y-56314728D01*
X122320897Y-56168293D01*
X122291205Y-56143990D01*
X122057704Y-56000901D01*
X122053768Y-55999173D01*
X121810873Y-55892549D01*
X121810869Y-55892548D01*
X121806945Y-55890825D01*
X121543566Y-55815800D01*
X121539324Y-55815196D01*
X121539318Y-55815195D01*
X121338834Y-55786662D01*
X121272443Y-55777213D01*
X121128589Y-55776460D01*
X121002877Y-55775802D01*
X121002871Y-55775802D01*
X120998591Y-55775780D01*
X120994347Y-55776339D01*
X120994343Y-55776339D01*
X120875302Y-55792011D01*
X120727078Y-55811525D01*
X120722938Y-55812658D01*
X120722936Y-55812658D01*
X120650008Y-55832609D01*
X120462928Y-55883788D01*
X120458980Y-55885472D01*
X120214982Y-55989546D01*
X120214978Y-55989548D01*
X120211030Y-55991232D01*
X120175716Y-56012367D01*
X119979725Y-56129664D01*
X119979721Y-56129667D01*
X119976043Y-56131868D01*
X119762318Y-56303094D01*
X119573808Y-56501742D01*
X119414002Y-56724136D01*
X119285857Y-56966161D01*
X119284385Y-56970184D01*
X119284383Y-56970188D01*
X119211043Y-57170598D01*
X119191743Y-57223337D01*
X119133404Y-57490907D01*
X119111917Y-57763918D01*
X61980984Y-57763918D01*
X61980677Y-56928134D01*
X73088000Y-56928134D01*
X73094755Y-56990316D01*
X73145885Y-57126705D01*
X73233239Y-57243261D01*
X73349795Y-57330615D01*
X73486184Y-57381745D01*
X73548366Y-57388500D01*
X75549634Y-57388500D01*
X75611816Y-57381745D01*
X75748205Y-57330615D01*
X75864761Y-57243261D01*
X75952115Y-57126705D01*
X76003245Y-56990316D01*
X76010000Y-56928134D01*
X76010000Y-55988402D01*
X78168000Y-55988402D01*
X78168212Y-55990975D01*
X78168212Y-55990986D01*
X78169662Y-56008621D01*
X78182678Y-56166937D01*
X78241206Y-56399944D01*
X78284117Y-56498633D01*
X78310670Y-56559700D01*
X78337003Y-56620263D01*
X78467498Y-56821977D01*
X78629186Y-56999670D01*
X78706017Y-57060347D01*
X78813670Y-57145367D01*
X78813675Y-57145370D01*
X78817724Y-57148568D01*
X78822240Y-57151061D01*
X78822243Y-57151063D01*
X79023526Y-57262177D01*
X79023530Y-57262179D01*
X79028050Y-57264674D01*
X79032919Y-57266398D01*
X79032923Y-57266400D01*
X79249640Y-57343144D01*
X79249644Y-57343145D01*
X79254515Y-57344870D01*
X79259608Y-57345777D01*
X79259611Y-57345778D01*
X79485948Y-57386095D01*
X79485954Y-57386096D01*
X79491037Y-57387001D01*
X79578400Y-57388068D01*
X79726093Y-57389873D01*
X79726095Y-57389873D01*
X79731263Y-57389936D01*
X79968744Y-57353596D01*
X80080997Y-57316906D01*
X80192183Y-57280566D01*
X80192189Y-57280563D01*
X80197101Y-57278958D01*
X80201687Y-57276571D01*
X80201691Y-57276569D01*
X80405607Y-57170416D01*
X80410200Y-57168025D01*
X80602320Y-57023777D01*
X80768301Y-56850088D01*
X80903686Y-56651622D01*
X80918243Y-56620263D01*
X81002658Y-56438405D01*
X81002659Y-56438401D01*
X81004837Y-56433710D01*
X81069040Y-56202202D01*
X81069691Y-56196109D01*
X81089644Y-56009407D01*
X81089644Y-56009399D01*
X81090000Y-56006072D01*
X81090000Y-55771598D01*
X81088824Y-55757285D01*
X81075746Y-55598224D01*
X81075322Y-55593063D01*
X81016794Y-55360056D01*
X80944808Y-55194498D01*
X80923057Y-55144474D01*
X80923055Y-55144471D01*
X80920997Y-55139737D01*
X80790502Y-54938023D01*
X80628814Y-54760330D01*
X80551983Y-54699653D01*
X80444330Y-54614633D01*
X80444325Y-54614630D01*
X80440276Y-54611432D01*
X80435760Y-54608939D01*
X80435757Y-54608937D01*
X80234474Y-54497823D01*
X80234470Y-54497821D01*
X80229950Y-54495326D01*
X80225081Y-54493602D01*
X80225077Y-54493600D01*
X80008360Y-54416856D01*
X80008356Y-54416855D01*
X80003485Y-54415130D01*
X79998392Y-54414223D01*
X79998389Y-54414222D01*
X79772052Y-54373905D01*
X79772046Y-54373904D01*
X79766963Y-54372999D01*
X79674474Y-54371869D01*
X79531907Y-54370127D01*
X79531905Y-54370127D01*
X79526737Y-54370064D01*
X79289256Y-54406404D01*
X79177003Y-54443094D01*
X79065817Y-54479434D01*
X79065811Y-54479437D01*
X79060899Y-54481042D01*
X79056313Y-54483429D01*
X79056309Y-54483431D01*
X78860759Y-54585229D01*
X78847800Y-54591975D01*
X78843657Y-54595085D01*
X78843658Y-54595085D01*
X78665038Y-54729197D01*
X78655680Y-54736223D01*
X78489699Y-54909912D01*
X78354314Y-55108378D01*
X78352140Y-55113061D01*
X78352138Y-55113065D01*
X78255342Y-55321595D01*
X78253163Y-55326290D01*
X78188960Y-55557798D01*
X78168000Y-55753928D01*
X78168000Y-55988402D01*
X76010000Y-55988402D01*
X76010000Y-54831866D01*
X76003245Y-54769684D01*
X75952115Y-54633295D01*
X75864761Y-54516739D01*
X75748205Y-54429385D01*
X75611816Y-54378255D01*
X75549634Y-54371500D01*
X73548366Y-54371500D01*
X73486184Y-54378255D01*
X73349795Y-54429385D01*
X73233239Y-54516739D01*
X73145885Y-54633295D01*
X73094755Y-54769684D01*
X73088000Y-54831866D01*
X73088000Y-56928134D01*
X61980677Y-56928134D01*
X61979559Y-53881000D01*
X102191502Y-53881000D01*
X102211457Y-54109087D01*
X102270716Y-54330243D01*
X102273039Y-54335224D01*
X102273039Y-54335225D01*
X102365151Y-54532762D01*
X102365154Y-54532767D01*
X102367477Y-54537749D01*
X102498802Y-54725300D01*
X102660700Y-54887198D01*
X102665208Y-54890355D01*
X102665211Y-54890357D01*
X102687799Y-54906173D01*
X102848251Y-55018523D01*
X102853233Y-55020846D01*
X102853238Y-55020849D01*
X103031792Y-55104109D01*
X103055757Y-55115284D01*
X103061065Y-55116706D01*
X103061067Y-55116707D01*
X103271598Y-55173119D01*
X103271600Y-55173119D01*
X103276913Y-55174543D01*
X103505000Y-55194498D01*
X103733087Y-55174543D01*
X103738400Y-55173119D01*
X103738402Y-55173119D01*
X103948933Y-55116707D01*
X103948935Y-55116706D01*
X103954243Y-55115284D01*
X103978208Y-55104109D01*
X104156762Y-55020849D01*
X104156767Y-55020846D01*
X104161749Y-55018523D01*
X104322201Y-54906173D01*
X104344789Y-54890357D01*
X104344792Y-54890355D01*
X104349300Y-54887198D01*
X104511198Y-54725300D01*
X104642523Y-54537749D01*
X104644846Y-54532767D01*
X104644849Y-54532762D01*
X104736961Y-54335225D01*
X104736961Y-54335224D01*
X104739284Y-54330243D01*
X104798543Y-54109087D01*
X104818498Y-53881000D01*
X104798543Y-53652913D01*
X104739284Y-53431757D01*
X104736961Y-53426775D01*
X104644849Y-53229238D01*
X104644846Y-53229233D01*
X104642523Y-53224251D01*
X104511198Y-53036700D01*
X104349300Y-52874802D01*
X104344792Y-52871645D01*
X104344789Y-52871643D01*
X104266611Y-52816902D01*
X104161749Y-52743477D01*
X104156767Y-52741154D01*
X104156762Y-52741151D01*
X103959225Y-52649039D01*
X103959224Y-52649039D01*
X103954243Y-52646716D01*
X103948935Y-52645294D01*
X103948933Y-52645293D01*
X103738402Y-52588881D01*
X103738400Y-52588881D01*
X103733087Y-52587457D01*
X103505000Y-52567502D01*
X103276913Y-52587457D01*
X103271600Y-52588881D01*
X103271598Y-52588881D01*
X103061067Y-52645293D01*
X103061065Y-52645294D01*
X103055757Y-52646716D01*
X103050776Y-52649039D01*
X103050775Y-52649039D01*
X102853238Y-52741151D01*
X102853233Y-52741154D01*
X102848251Y-52743477D01*
X102743389Y-52816902D01*
X102665211Y-52871643D01*
X102665208Y-52871645D01*
X102660700Y-52874802D01*
X102498802Y-53036700D01*
X102367477Y-53224251D01*
X102365154Y-53229233D01*
X102365151Y-53229238D01*
X102273039Y-53426775D01*
X102270716Y-53431757D01*
X102211457Y-53652913D01*
X102191502Y-53881000D01*
X61979559Y-53881000D01*
X61978661Y-51435000D01*
X87666807Y-51435000D01*
X87685542Y-51649142D01*
X87741178Y-51856777D01*
X87743500Y-51861757D01*
X87743501Y-51861759D01*
X87827097Y-52041029D01*
X87832024Y-52051596D01*
X87955319Y-52227681D01*
X88107319Y-52379681D01*
X88283403Y-52502976D01*
X88288381Y-52505297D01*
X88288384Y-52505299D01*
X88463546Y-52586978D01*
X88478223Y-52593822D01*
X88483531Y-52595244D01*
X88483533Y-52595245D01*
X88680543Y-52648034D01*
X88680545Y-52648034D01*
X88685858Y-52649458D01*
X88900000Y-52668193D01*
X89114142Y-52649458D01*
X89119455Y-52648034D01*
X89119457Y-52648034D01*
X89316467Y-52595245D01*
X89316469Y-52595244D01*
X89321777Y-52593822D01*
X89336454Y-52586978D01*
X89511616Y-52505299D01*
X89511619Y-52505297D01*
X89516597Y-52502976D01*
X89692681Y-52379681D01*
X89844681Y-52227681D01*
X89967976Y-52051596D01*
X89972904Y-52041029D01*
X90056499Y-51861759D01*
X90056500Y-51861757D01*
X90058822Y-51856777D01*
X90114458Y-51649142D01*
X90133193Y-51435000D01*
X90114458Y-51220858D01*
X90066652Y-51042443D01*
X90060245Y-51018533D01*
X90060244Y-51018531D01*
X90058822Y-51013223D01*
X90051755Y-50998068D01*
X89970299Y-50823385D01*
X89970297Y-50823382D01*
X89967976Y-50818404D01*
X89844681Y-50642319D01*
X89692681Y-50490319D01*
X89516597Y-50367024D01*
X89511619Y-50364703D01*
X89511616Y-50364701D01*
X89328247Y-50279195D01*
X89274962Y-50232278D01*
X89255501Y-50164000D01*
X89276043Y-50096041D01*
X89328247Y-50050805D01*
X89511616Y-49965299D01*
X89511619Y-49965297D01*
X89516597Y-49962976D01*
X89692681Y-49839681D01*
X89844681Y-49687681D01*
X89967976Y-49511596D01*
X89980720Y-49484268D01*
X90056499Y-49321759D01*
X90056500Y-49321757D01*
X90058822Y-49316777D01*
X90060814Y-49309345D01*
X90113034Y-49114457D01*
X90113034Y-49114455D01*
X90114458Y-49109142D01*
X90133193Y-48895000D01*
X90114458Y-48680858D01*
X90102428Y-48635961D01*
X90060245Y-48478533D01*
X90060244Y-48478531D01*
X90058822Y-48473223D01*
X90033554Y-48419036D01*
X89970299Y-48283385D01*
X89970297Y-48283382D01*
X89967976Y-48278404D01*
X89844681Y-48102319D01*
X89692681Y-47950319D01*
X89516597Y-47827024D01*
X89511619Y-47824703D01*
X89511616Y-47824701D01*
X89326759Y-47738501D01*
X89326758Y-47738500D01*
X89321777Y-47736178D01*
X89316469Y-47734756D01*
X89316467Y-47734755D01*
X89119457Y-47681966D01*
X89119455Y-47681966D01*
X89114142Y-47680542D01*
X88900000Y-47661807D01*
X88685858Y-47680542D01*
X88680545Y-47681966D01*
X88680543Y-47681966D01*
X88483533Y-47734755D01*
X88483531Y-47734756D01*
X88478223Y-47736178D01*
X88473243Y-47738500D01*
X88473241Y-47738501D01*
X88288385Y-47824701D01*
X88288382Y-47824703D01*
X88283404Y-47827024D01*
X88107319Y-47950319D01*
X87955319Y-48102319D01*
X87832024Y-48278404D01*
X87829703Y-48283382D01*
X87829701Y-48283385D01*
X87766446Y-48419036D01*
X87741178Y-48473223D01*
X87739756Y-48478531D01*
X87739755Y-48478533D01*
X87697572Y-48635961D01*
X87685542Y-48680858D01*
X87666807Y-48895000D01*
X87685542Y-49109142D01*
X87686966Y-49114455D01*
X87686966Y-49114457D01*
X87739187Y-49309345D01*
X87741178Y-49316777D01*
X87743500Y-49321757D01*
X87743501Y-49321759D01*
X87819281Y-49484268D01*
X87832024Y-49511596D01*
X87955319Y-49687681D01*
X88107319Y-49839681D01*
X88283403Y-49962976D01*
X88288381Y-49965297D01*
X88288384Y-49965299D01*
X88471753Y-50050805D01*
X88525038Y-50097722D01*
X88544499Y-50166000D01*
X88523957Y-50233959D01*
X88471753Y-50279195D01*
X88288385Y-50364701D01*
X88288382Y-50364703D01*
X88283404Y-50367024D01*
X88107319Y-50490319D01*
X87955319Y-50642319D01*
X87832024Y-50818404D01*
X87829703Y-50823382D01*
X87829701Y-50823385D01*
X87748245Y-50998068D01*
X87741178Y-51013223D01*
X87739756Y-51018531D01*
X87739755Y-51018533D01*
X87733348Y-51042443D01*
X87685542Y-51220858D01*
X87666807Y-51435000D01*
X61978661Y-51435000D01*
X61977796Y-49077459D01*
X62964249Y-49077459D01*
X62974860Y-49347523D01*
X63023417Y-49613397D01*
X63108952Y-49869777D01*
X63126504Y-49904904D01*
X63208856Y-50069715D01*
X63229758Y-50111547D01*
X63232287Y-50115206D01*
X63378305Y-50326477D01*
X63383424Y-50333884D01*
X63415288Y-50368354D01*
X63559592Y-50524460D01*
X63566885Y-50532350D01*
X63776479Y-50702987D01*
X63780297Y-50705286D01*
X63780299Y-50705287D01*
X63812521Y-50724686D01*
X64008026Y-50842390D01*
X64012121Y-50844124D01*
X64012123Y-50844125D01*
X64252804Y-50946040D01*
X64252811Y-50946042D01*
X64256905Y-50947776D01*
X64353038Y-50973265D01*
X64513852Y-51015905D01*
X64513857Y-51015906D01*
X64518149Y-51017044D01*
X64522558Y-51017566D01*
X64522564Y-51017567D01*
X64671890Y-51035240D01*
X64786548Y-51048811D01*
X65056744Y-51042443D01*
X65061139Y-51041711D01*
X65061144Y-51041711D01*
X65318947Y-50998801D01*
X65318951Y-50998800D01*
X65323349Y-50998068D01*
X65558356Y-50923745D01*
X65576794Y-50917914D01*
X65576796Y-50917913D01*
X65581040Y-50916571D01*
X65585051Y-50914645D01*
X65585056Y-50914643D01*
X65820659Y-50801508D01*
X65820660Y-50801507D01*
X65824678Y-50799578D01*
X66016542Y-50671379D01*
X66045693Y-50651901D01*
X66045697Y-50651898D01*
X66049401Y-50649423D01*
X66052718Y-50646452D01*
X66052722Y-50646449D01*
X66247409Y-50472072D01*
X66250725Y-50469102D01*
X66424633Y-50262214D01*
X66442255Y-50233959D01*
X66565294Y-50036671D01*
X66565295Y-50036669D01*
X66567655Y-50032885D01*
X66676938Y-49785693D01*
X66750300Y-49525568D01*
X66773626Y-49351903D01*
X66785852Y-49260884D01*
X66785853Y-49260876D01*
X66786279Y-49257702D01*
X66787365Y-49223163D01*
X66789954Y-49140782D01*
X66789954Y-49140777D01*
X66790055Y-49137560D01*
X66770967Y-48867963D01*
X66714082Y-48603745D01*
X66694481Y-48550613D01*
X66622077Y-48354356D01*
X66620536Y-48350179D01*
X66591190Y-48295791D01*
X66494309Y-48116238D01*
X66494309Y-48116237D01*
X66492196Y-48112322D01*
X66331622Y-47894922D01*
X66285366Y-47847933D01*
X66145149Y-47705497D01*
X66142018Y-47702316D01*
X66042815Y-47626607D01*
X65930708Y-47541049D01*
X65930704Y-47541047D01*
X65927167Y-47538347D01*
X65691355Y-47406287D01*
X65439289Y-47308770D01*
X65434964Y-47307767D01*
X65434959Y-47307766D01*
X65303092Y-47277201D01*
X65175998Y-47247742D01*
X64906734Y-47224421D01*
X64902299Y-47224665D01*
X64902295Y-47224665D01*
X64641314Y-47239028D01*
X64641307Y-47239029D01*
X64636871Y-47239273D01*
X64539008Y-47258739D01*
X64376164Y-47291130D01*
X64376159Y-47291131D01*
X64371792Y-47292000D01*
X64367589Y-47293476D01*
X64120995Y-47380073D01*
X64120992Y-47380074D01*
X64116787Y-47381551D01*
X64112834Y-47383604D01*
X64112828Y-47383607D01*
X64069168Y-47406287D01*
X63876944Y-47506140D01*
X63873329Y-47508723D01*
X63873323Y-47508727D01*
X63660670Y-47660691D01*
X63660666Y-47660694D01*
X63657049Y-47663279D01*
X63461488Y-47849835D01*
X63294165Y-48062084D01*
X63291933Y-48065926D01*
X63291930Y-48065931D01*
X63160654Y-48291937D01*
X63160651Y-48291944D01*
X63158416Y-48295791D01*
X63146652Y-48324835D01*
X63060164Y-48538366D01*
X63056952Y-48546295D01*
X63055881Y-48550608D01*
X63055879Y-48550613D01*
X62992869Y-48804274D01*
X62991796Y-48808595D01*
X62991342Y-48813023D01*
X62991342Y-48813025D01*
X62974655Y-48975898D01*
X62964249Y-49077459D01*
X61977796Y-49077459D01*
X61976233Y-44819928D01*
X61996210Y-44751801D01*
X62049849Y-44705289D01*
X62102242Y-44693883D01*
X135766561Y-44698894D01*
G37*
G04 #@! TD.AperFunction*
M02*
