G04 #@! TF.GenerationSoftware,KiCad,Pcbnew,(6.0.0)*
G04 #@! TF.CreationDate,2022-06-01T09:59:34+02:00*
G04 #@! TF.ProjectId,rfamp3,7266616d-7033-42e6-9b69-6361645f7063,rev?*
G04 #@! TF.SameCoordinates,Original*
G04 #@! TF.FileFunction,Paste,Top*
G04 #@! TF.FilePolarity,Positive*
%FSLAX46Y46*%
G04 Gerber Fmt 4.6, Leading zero omitted, Abs format (unit mm)*
G04 Created by KiCad (PCBNEW (6.0.0)) date 2022-06-01 09:59:34*
%MOMM*%
%LPD*%
G01*
G04 APERTURE LIST*
G04 Aperture macros list*
%AMRoundRect*
0 Rectangle with rounded corners*
0 $1 Rounding radius*
0 $2 $3 $4 $5 $6 $7 $8 $9 X,Y pos of 4 corners*
0 Add a 4 corners polygon primitive as box body*
4,1,4,$2,$3,$4,$5,$6,$7,$8,$9,$2,$3,0*
0 Add four circle primitives for the rounded corners*
1,1,$1+$1,$2,$3*
1,1,$1+$1,$4,$5*
1,1,$1+$1,$6,$7*
1,1,$1+$1,$8,$9*
0 Add four rect primitives between the rounded corners*
20,1,$1+$1,$2,$3,$4,$5,0*
20,1,$1+$1,$4,$5,$6,$7,0*
20,1,$1+$1,$6,$7,$8,$9,0*
20,1,$1+$1,$8,$9,$2,$3,0*%
G04 Aperture macros list end*
%ADD10RoundRect,0.250000X0.625000X-0.462500X0.625000X0.462500X-0.625000X0.462500X-0.625000X-0.462500X0*%
%ADD11RoundRect,0.250000X-0.625000X0.462500X-0.625000X-0.462500X0.625000X-0.462500X0.625000X0.462500X0*%
%ADD12RoundRect,0.249999X0.512501X1.425001X-0.512501X1.425001X-0.512501X-1.425001X0.512501X-1.425001X0*%
%ADD13R,0.800000X0.900000*%
%ADD14RoundRect,0.250000X0.462500X0.625000X-0.462500X0.625000X-0.462500X-0.625000X0.462500X-0.625000X0*%
%ADD15R,1.200000X0.900000*%
%ADD16RoundRect,0.250000X-0.462500X-0.625000X0.462500X-0.625000X0.462500X0.625000X-0.462500X0.625000X0*%
G04 APERTURE END LIST*
D10*
X126238000Y-85634500D03*
X126238000Y-88609500D03*
D11*
X127254000Y-60796500D03*
X127254000Y-57821500D03*
X146812000Y-74639500D03*
X146812000Y-71664500D03*
D12*
X131632500Y-76200000D03*
X137607500Y-76200000D03*
D13*
X93472000Y-61452000D03*
X92522000Y-59452000D03*
X94422000Y-59452000D03*
D12*
X131505500Y-70485000D03*
X137480500Y-70485000D03*
D14*
X107732500Y-81280000D03*
X110707500Y-81280000D03*
D10*
X117475000Y-77252500D03*
X117475000Y-80227500D03*
D11*
X114300000Y-86577500D03*
X114300000Y-83602500D03*
X114300000Y-80445000D03*
X114300000Y-77470000D03*
D10*
X120650000Y-77252500D03*
X120650000Y-80227500D03*
D14*
X107732500Y-78105000D03*
X110707500Y-78105000D03*
D10*
X88265000Y-64552500D03*
X88265000Y-67527500D03*
X86995000Y-70902500D03*
X86995000Y-73877500D03*
X91440000Y-64552500D03*
X91440000Y-67527500D03*
X99568000Y-59472500D03*
X99568000Y-62447500D03*
X105791000Y-47915500D03*
X105791000Y-50890500D03*
X102743000Y-47915500D03*
X102743000Y-50890500D03*
X99695000Y-47915500D03*
X99695000Y-50890500D03*
D15*
X99568000Y-53595000D03*
X99568000Y-56895000D03*
X96520000Y-47880000D03*
X96520000Y-51180000D03*
D14*
X73696500Y-84582000D03*
X76671500Y-84582000D03*
D10*
X86995000Y-77252500D03*
X86995000Y-80227500D03*
D11*
X95250000Y-67527500D03*
X95250000Y-64552500D03*
D14*
X107097500Y-53975000D03*
X110072500Y-53975000D03*
D10*
X108966000Y-47915500D03*
X108966000Y-50890500D03*
X126365000Y-79792500D03*
X126365000Y-82767500D03*
D16*
X117057500Y-54102000D03*
X114082500Y-54102000D03*
D11*
X127254000Y-66638500D03*
X127254000Y-63663500D03*
X80264000Y-50255500D03*
X80264000Y-47280500D03*
D10*
X84455000Y-47280500D03*
X84455000Y-50255500D03*
X74549000Y-47280500D03*
X74549000Y-50255500D03*
X93345000Y-48042500D03*
X93345000Y-51017500D03*
D14*
X125512500Y-76200000D03*
X128487500Y-76200000D03*
D11*
X178308000Y-57494500D03*
X178308000Y-54519500D03*
D14*
X161834500Y-56134000D03*
X164809500Y-56134000D03*
X125512500Y-70485000D03*
X128487500Y-70485000D03*
D11*
X142875000Y-74639500D03*
X142875000Y-71664500D03*
D14*
X119797500Y-54102000D03*
X122772500Y-54102000D03*
M02*
